<svg width="1363" height="167" viewBox="0 0 1363 167" fill="none" xmlns="http://www.w3.org/2000/svg">
<rect width="1363" height="167" rx="15" fill="#F0F0F0"/>
<path d="M0 15C0 6.71573 6.71573 0 15 0H37V167H15C6.71573 167 0 160.284 0 152V15Z" fill="#424241"/>
<path d="M100.906 50.9219L93.3945 48.2383V45.0859L103.602 49.375V51.6367L100.906 50.9219ZM93.3945 53.1719L100.918 50.4297L103.602 49.7852V52.0352L93.3945 56.3242V53.1719ZM121.789 52.3398H125.293C125.223 53.4883 124.906 54.5078 124.344 55.3984C123.789 56.2891 123.012 56.9844 122.012 57.4844C121.02 57.9844 119.824 58.2344 118.426 58.2344C117.332 58.2344 116.352 58.0469 115.484 57.6719C114.617 57.2891 113.875 56.7422 113.258 56.0312C112.648 55.3203 112.184 54.4609 111.863 53.4531C111.543 52.4453 111.383 51.3164 111.383 50.0664V48.8828C111.383 47.6328 111.547 46.5039 111.875 45.4961C112.211 44.4805 112.688 43.6172 113.305 42.9062C113.93 42.1953 114.676 41.6484 115.543 41.2656C116.41 40.8828 117.379 40.6914 118.449 40.6914C119.871 40.6914 121.07 40.9492 122.047 41.4648C123.031 41.9805 123.793 42.6914 124.332 43.5977C124.879 44.5039 125.207 45.5352 125.316 46.6914H121.801C121.762 46.0039 121.625 45.4219 121.391 44.9453C121.156 44.4609 120.801 44.0977 120.324 43.8555C119.855 43.6055 119.23 43.4805 118.449 43.4805C117.863 43.4805 117.352 43.5898 116.914 43.8086C116.477 44.0273 116.109 44.3594 115.812 44.8047C115.516 45.25 115.293 45.8125 115.145 46.4922C115.004 47.1641 114.934 47.9531 114.934 48.8594V50.0664C114.934 50.9492 115 51.7266 115.133 52.3984C115.266 53.0625 115.469 53.625 115.742 54.0859C116.023 54.5391 116.383 54.8828 116.82 55.1172C117.266 55.3438 117.801 55.457 118.426 55.457C119.16 55.457 119.766 55.3398 120.242 55.1055C120.719 54.8711 121.082 54.5234 121.332 54.0625C121.59 53.6016 121.742 53.0273 121.789 52.3398ZM130.953 40V58H127.566V40H130.953ZM140.586 55.1406V49.4922C140.586 49.0859 140.52 48.7383 140.387 48.4492C140.254 48.1523 140.047 47.9219 139.766 47.7578C139.492 47.5938 139.137 47.5117 138.699 47.5117C138.324 47.5117 138 47.5781 137.727 47.7109C137.453 47.8359 137.242 48.0195 137.094 48.2617C136.945 48.4961 136.871 48.7734 136.871 49.0938H133.496C133.496 48.5547 133.621 48.043 133.871 47.5586C134.121 47.0742 134.484 46.6484 134.961 46.2812C135.438 45.9062 136.004 45.6133 136.66 45.4023C137.324 45.1914 138.066 45.0859 138.887 45.0859C139.871 45.0859 140.746 45.25 141.512 45.5781C142.277 45.9062 142.879 46.3984 143.316 47.0547C143.762 47.7109 143.984 48.5312 143.984 49.5156V54.9414C143.984 55.6367 144.027 56.207 144.113 56.6523C144.199 57.0898 144.324 57.4727 144.488 57.8008V58H141.078C140.914 57.6562 140.789 57.2266 140.703 56.7109C140.625 56.1875 140.586 55.6641 140.586 55.1406ZM141.031 50.2773L141.055 52.1875H139.168C138.723 52.1875 138.336 52.2383 138.008 52.3398C137.68 52.4414 137.41 52.5859 137.199 52.7734C136.988 52.9531 136.832 53.1641 136.73 53.4062C136.637 53.6484 136.59 53.9141 136.59 54.2031C136.59 54.4922 136.656 54.7539 136.789 54.9883C136.922 55.2148 137.113 55.3945 137.363 55.5273C137.613 55.6523 137.906 55.7148 138.242 55.7148C138.75 55.7148 139.191 55.6133 139.566 55.4102C139.941 55.207 140.23 54.957 140.434 54.6602C140.645 54.3633 140.754 54.082 140.762 53.8164L141.652 55.2461C141.527 55.5664 141.355 55.8984 141.137 56.2422C140.926 56.5859 140.656 56.9102 140.328 57.2148C140 57.5117 139.605 57.7578 139.145 57.9531C138.684 58.1406 138.137 58.2344 137.504 58.2344C136.699 58.2344 135.969 58.0742 135.312 57.7539C134.664 57.4258 134.148 56.9766 133.766 56.4062C133.391 55.8281 133.203 55.1719 133.203 54.4375C133.203 53.7734 133.328 53.1836 133.578 52.668C133.828 52.1523 134.195 51.7188 134.68 51.3672C135.172 51.0078 135.785 50.7383 136.52 50.5586C137.254 50.3711 138.105 50.2773 139.074 50.2773H141.031ZM153.441 54.4961C153.441 54.2539 153.371 54.0352 153.23 53.8398C153.09 53.6445 152.828 53.4648 152.445 53.3008C152.07 53.1289 151.527 52.9727 150.816 52.832C150.176 52.6914 149.578 52.5156 149.023 52.3047C148.477 52.0859 148 51.8242 147.594 51.5195C147.195 51.2148 146.883 50.8555 146.656 50.4414C146.43 50.0195 146.316 49.5391 146.316 49C146.316 48.4688 146.43 47.9688 146.656 47.5C146.891 47.0312 147.223 46.6172 147.652 46.2578C148.09 45.8906 148.621 45.6055 149.246 45.4023C149.879 45.1914 150.59 45.0859 151.379 45.0859C152.48 45.0859 153.426 45.2617 154.215 45.6133C155.012 45.9648 155.621 46.4492 156.043 47.0664C156.473 47.6758 156.688 48.3711 156.688 49.1523H153.312C153.312 48.8242 153.242 48.5312 153.102 48.2734C152.969 48.0078 152.758 47.8008 152.469 47.6523C152.188 47.4961 151.82 47.418 151.367 47.418C150.992 47.418 150.668 47.4844 150.395 47.6172C150.121 47.7422 149.91 47.9141 149.762 48.1328C149.621 48.3438 149.551 48.5781 149.551 48.8359C149.551 49.0312 149.59 49.207 149.668 49.3633C149.754 49.5117 149.891 49.6484 150.078 49.7734C150.266 49.8984 150.508 50.0156 150.805 50.125C151.109 50.2266 151.484 50.3203 151.93 50.4062C152.844 50.5938 153.66 50.8398 154.379 51.1445C155.098 51.4414 155.668 51.8477 156.09 52.3633C156.512 52.8711 156.723 53.5391 156.723 54.3672C156.723 54.9297 156.598 55.4453 156.348 55.9141C156.098 56.3828 155.738 56.793 155.27 57.1445C154.801 57.4883 154.238 57.7578 153.582 57.9531C152.934 58.1406 152.203 58.2344 151.391 58.2344C150.211 58.2344 149.211 58.0234 148.391 57.6016C147.578 57.1797 146.961 56.6445 146.539 55.9961C146.125 55.3398 145.918 54.668 145.918 53.9805H149.117C149.133 54.4414 149.25 54.8125 149.469 55.0938C149.695 55.375 149.98 55.5781 150.324 55.7031C150.676 55.8281 151.055 55.8906 151.461 55.8906C151.898 55.8906 152.262 55.832 152.551 55.7148C152.84 55.5898 153.059 55.4258 153.207 55.2227C153.363 55.0117 153.441 54.7695 153.441 54.4961ZM165.77 54.4961C165.77 54.2539 165.699 54.0352 165.559 53.8398C165.418 53.6445 165.156 53.4648 164.773 53.3008C164.398 53.1289 163.855 52.9727 163.145 52.832C162.504 52.6914 161.906 52.5156 161.352 52.3047C160.805 52.0859 160.328 51.8242 159.922 51.5195C159.523 51.2148 159.211 50.8555 158.984 50.4414C158.758 50.0195 158.645 49.5391 158.645 49C158.645 48.4688 158.758 47.9688 158.984 47.5C159.219 47.0312 159.551 46.6172 159.98 46.2578C160.418 45.8906 160.949 45.6055 161.574 45.4023C162.207 45.1914 162.918 45.0859 163.707 45.0859C164.809 45.0859 165.754 45.2617 166.543 45.6133C167.34 45.9648 167.949 46.4492 168.371 47.0664C168.801 47.6758 169.016 48.3711 169.016 49.1523H165.641C165.641 48.8242 165.57 48.5312 165.43 48.2734C165.297 48.0078 165.086 47.8008 164.797 47.6523C164.516 47.4961 164.148 47.418 163.695 47.418C163.32 47.418 162.996 47.4844 162.723 47.6172C162.449 47.7422 162.238 47.9141 162.09 48.1328C161.949 48.3438 161.879 48.5781 161.879 48.8359C161.879 49.0312 161.918 49.207 161.996 49.3633C162.082 49.5117 162.219 49.6484 162.406 49.7734C162.594 49.8984 162.836 50.0156 163.133 50.125C163.438 50.2266 163.812 50.3203 164.258 50.4062C165.172 50.5938 165.988 50.8398 166.707 51.1445C167.426 51.4414 167.996 51.8477 168.418 52.3633C168.84 52.8711 169.051 53.5391 169.051 54.3672C169.051 54.9297 168.926 55.4453 168.676 55.9141C168.426 56.3828 168.066 56.793 167.598 57.1445C167.129 57.4883 166.566 57.7578 165.91 57.9531C165.262 58.1406 164.531 58.2344 163.719 58.2344C162.539 58.2344 161.539 58.0234 160.719 57.6016C159.906 57.1797 159.289 56.6445 158.867 55.9961C158.453 55.3398 158.246 54.668 158.246 53.9805H161.445C161.461 54.4414 161.578 54.8125 161.797 55.0938C162.023 55.375 162.309 55.5781 162.652 55.7031C163.004 55.8281 163.383 55.8906 163.789 55.8906C164.227 55.8906 164.59 55.832 164.879 55.7148C165.168 55.5898 165.387 55.4258 165.535 55.2227C165.691 55.0117 165.77 54.7695 165.77 54.4961ZM174.805 45.3203V58H171.418V45.3203H174.805ZM171.207 42.0156C171.207 41.5234 171.379 41.1172 171.723 40.7969C172.066 40.4766 172.527 40.3164 173.105 40.3164C173.676 40.3164 174.133 40.4766 174.477 40.7969C174.828 41.1172 175.004 41.5234 175.004 42.0156C175.004 42.5078 174.828 42.9141 174.477 43.2344C174.133 43.5547 173.676 43.7148 173.105 43.7148C172.527 43.7148 172.066 43.5547 171.723 43.2344C171.379 42.9141 171.207 42.5078 171.207 42.0156ZM181.895 58H178.496V44.1953C178.496 43.2344 178.684 42.4258 179.059 41.7695C179.441 41.1055 179.977 40.6055 180.664 40.2695C181.359 39.9258 182.184 39.7539 183.137 39.7539C183.449 39.7539 183.75 39.7773 184.039 39.8242C184.328 39.8633 184.609 39.9141 184.883 39.9766L184.848 42.5195C184.699 42.4805 184.543 42.4531 184.379 42.4375C184.215 42.4219 184.023 42.4141 183.805 42.4141C183.398 42.4141 183.051 42.4844 182.762 42.625C182.48 42.7578 182.266 42.957 182.117 43.2227C181.969 43.4883 181.895 43.8125 181.895 44.1953V58ZM184.426 45.3203V47.7109H176.609V45.3203H184.426ZM189.957 56.5703L193.32 45.3203H196.941L191.844 59.9102C191.734 60.2305 191.586 60.5742 191.398 60.9414C191.219 61.3086 190.973 61.6562 190.66 61.9844C190.355 62.3203 189.969 62.5938 189.5 62.8047C189.039 63.0156 188.473 63.1211 187.801 63.1211C187.48 63.1211 187.219 63.1016 187.016 63.0625C186.812 63.0234 186.57 62.9688 186.289 62.8984V60.4258C186.375 60.4258 186.465 60.4258 186.559 60.4258C186.652 60.4336 186.742 60.4375 186.828 60.4375C187.273 60.4375 187.637 60.3867 187.918 60.2852C188.199 60.1836 188.426 60.0273 188.598 59.8164C188.77 59.6133 188.906 59.3477 189.008 59.0195L189.957 56.5703ZM188.551 45.3203L191.305 54.5078L191.785 58.082L189.488 58.3281L184.93 45.3203H188.551ZM205.438 43.8555L200.797 58H197.059L203.398 40.9375H205.777L205.438 43.8555ZM209.293 58L204.641 43.8555L204.266 40.9375H206.668L213.043 58H209.293ZM209.082 51.6484V54.4023H200.07V51.6484H209.082ZM218.363 40.9375V58H214.859V40.9375H218.363Z" fill="#888888"/>
<path d="M107.205 107.146H99.251V101.191H107.205C108.289 101.191 109.168 101.008 109.842 100.642C110.516 100.275 111.006 99.77 111.314 99.1255C111.636 98.4663 111.797 97.7266 111.797 96.9062C111.797 96.0273 111.636 95.2144 111.314 94.4673C111.006 93.7202 110.516 93.1196 109.842 92.6655C109.168 92.1968 108.289 91.9624 107.205 91.9624H102.151V118H94.439V86.0078H107.205C109.769 86.0078 111.973 86.4766 113.819 87.4141C115.679 88.3516 117.107 89.6406 118.104 91.2812C119.1 92.9072 119.598 94.7676 119.598 96.8623C119.598 98.9277 119.1 100.729 118.104 102.268C117.107 103.806 115.679 105.007 113.819 105.871C111.973 106.721 109.769 107.146 107.205 107.146ZM130.87 100.114V118H123.465V94.2256H130.386L130.87 100.114ZM137.901 94.0498L137.769 100.927C137.476 100.898 137.081 100.861 136.583 100.817C136.084 100.773 135.667 100.751 135.33 100.751C134.466 100.751 133.719 100.854 133.089 101.059C132.474 101.25 131.961 101.542 131.551 101.938C131.155 102.319 130.862 102.802 130.672 103.388C130.496 103.974 130.416 104.655 130.43 105.432L129.09 104.553C129.09 102.956 129.244 101.506 129.551 100.202C129.874 98.8838 130.328 97.7485 130.914 96.7964C131.5 95.8296 132.21 95.0898 133.045 94.5771C133.88 94.0498 134.817 93.7861 135.857 93.7861C136.224 93.7861 136.583 93.8081 136.934 93.8521C137.3 93.896 137.623 93.9619 137.901 94.0498ZM138.736 106.354V105.893C138.736 104.15 138.985 102.546 139.483 101.081C139.981 99.6016 140.713 98.3198 141.68 97.2358C142.647 96.1519 143.841 95.3096 145.262 94.709C146.683 94.0938 148.323 93.7861 150.184 93.7861C152.059 93.7861 153.707 94.0938 155.127 94.709C156.563 95.3096 157.764 96.1519 158.731 97.2358C159.698 98.3198 160.43 99.6016 160.928 101.081C161.426 102.546 161.675 104.15 161.675 105.893V106.354C161.675 108.083 161.426 109.687 160.928 111.167C160.43 112.631 159.698 113.913 158.731 115.012C157.764 116.096 156.57 116.938 155.149 117.539C153.729 118.139 152.088 118.439 150.228 118.439C148.367 118.439 146.719 118.139 145.284 117.539C143.848 116.938 142.647 116.096 141.68 115.012C140.713 113.913 139.981 112.631 139.483 111.167C138.985 109.687 138.736 108.083 138.736 106.354ZM146.141 105.893V106.354C146.141 107.248 146.207 108.083 146.338 108.859C146.47 109.636 146.69 110.317 146.998 110.903C147.305 111.474 147.723 111.921 148.25 112.243C148.777 112.565 149.437 112.727 150.228 112.727C151.004 112.727 151.648 112.565 152.161 112.243C152.688 111.921 153.106 111.474 153.414 110.903C153.721 110.317 153.941 109.636 154.073 108.859C154.205 108.083 154.271 107.248 154.271 106.354V105.893C154.271 105.029 154.205 104.216 154.073 103.454C153.941 102.678 153.721 101.997 153.414 101.411C153.106 100.81 152.688 100.341 152.161 100.004C151.634 99.6675 150.975 99.499 150.184 99.499C149.407 99.499 148.755 99.6675 148.228 100.004C147.715 100.341 147.305 100.81 146.998 101.411C146.69 101.997 146.47 102.678 146.338 103.454C146.207 104.216 146.141 105.029 146.141 105.893ZM177.496 94.2256V99.3672H163.169V94.2256H177.496ZM166.18 88.3149H173.584V110.244C173.584 110.874 173.658 111.364 173.804 111.716C173.951 112.053 174.2 112.294 174.551 112.441C174.917 112.573 175.401 112.639 176.001 112.639C176.426 112.639 176.778 112.631 177.056 112.617C177.334 112.587 177.598 112.551 177.847 112.507V117.802C177.217 118.007 176.558 118.161 175.87 118.264C175.181 118.381 174.449 118.439 173.672 118.439C172.09 118.439 170.735 118.19 169.607 117.692C168.494 117.194 167.645 116.411 167.059 115.341C166.473 114.272 166.18 112.88 166.18 111.167V88.3149ZM178.858 106.354V105.893C178.858 104.15 179.107 102.546 179.605 101.081C180.103 99.6016 180.835 98.3198 181.802 97.2358C182.769 96.1519 183.963 95.3096 185.384 94.709C186.805 94.0938 188.445 93.7861 190.306 93.7861C192.181 93.7861 193.829 94.0938 195.25 94.709C196.685 95.3096 197.886 96.1519 198.853 97.2358C199.82 98.3198 200.552 99.6016 201.05 101.081C201.548 102.546 201.797 104.15 201.797 105.893V106.354C201.797 108.083 201.548 109.687 201.05 111.167C200.552 112.631 199.82 113.913 198.853 115.012C197.886 116.096 196.692 116.938 195.271 117.539C193.851 118.139 192.21 118.439 190.35 118.439C188.489 118.439 186.841 118.139 185.406 117.539C183.97 116.938 182.769 116.096 181.802 115.012C180.835 113.913 180.103 112.631 179.605 111.167C179.107 109.687 178.858 108.083 178.858 106.354ZM186.263 105.893V106.354C186.263 107.248 186.329 108.083 186.46 108.859C186.592 109.636 186.812 110.317 187.12 110.903C187.427 111.474 187.845 111.921 188.372 112.243C188.899 112.565 189.559 112.727 190.35 112.727C191.126 112.727 191.771 112.565 192.283 112.243C192.811 111.921 193.228 111.474 193.536 110.903C193.843 110.317 194.063 109.636 194.195 108.859C194.327 108.083 194.393 107.248 194.393 106.354V105.893C194.393 105.029 194.327 104.216 194.195 103.454C194.063 102.678 193.843 101.997 193.536 101.411C193.228 100.81 192.811 100.341 192.283 100.004C191.756 99.6675 191.097 99.499 190.306 99.499C189.529 99.499 188.877 99.6675 188.35 100.004C187.837 100.341 187.427 100.81 187.12 101.411C186.812 101.997 186.592 102.678 186.46 103.454C186.329 104.216 186.263 105.029 186.263 105.893ZM217.618 94.2256V99.3672H203.292V94.2256H217.618ZM206.302 88.3149H213.707V110.244C213.707 110.874 213.78 111.364 213.926 111.716C214.073 112.053 214.322 112.294 214.673 112.441C215.04 112.573 215.523 112.639 216.124 112.639C216.548 112.639 216.9 112.631 217.178 112.617C217.457 112.587 217.72 112.551 217.969 112.507V117.802C217.339 118.007 216.68 118.161 215.992 118.264C215.303 118.381 214.571 118.439 213.794 118.439C212.212 118.439 210.857 118.19 209.729 117.692C208.616 117.194 207.767 116.411 207.181 115.341C206.595 114.272 206.302 112.88 206.302 111.167V88.3149ZM227.857 115.209L234.009 94.2256H241.963L232.405 121.538C232.2 122.138 231.929 122.783 231.592 123.471C231.255 124.174 230.794 124.841 230.208 125.471C229.622 126.101 228.868 126.613 227.945 127.009C227.037 127.404 225.909 127.602 224.561 127.602C223.843 127.602 223.316 127.565 222.979 127.492C222.657 127.434 222.159 127.324 221.485 127.163V121.867C221.675 121.867 221.836 121.867 221.968 121.867C222.115 121.867 222.276 121.867 222.452 121.867C223.243 121.867 223.873 121.787 224.341 121.625C224.825 121.464 225.191 121.23 225.44 120.922C225.704 120.615 225.909 120.241 226.055 119.802L227.857 115.209ZM226.297 94.2256L230.977 110.859L231.79 118.703H226.824L218.365 94.2256H226.297ZM251.368 98.7959V127.141H243.963V94.2256H250.862L251.368 98.7959ZM265.958 105.827V106.289C265.958 108.017 265.76 109.621 265.364 111.101C264.969 112.58 264.383 113.869 263.606 114.968C262.83 116.066 261.863 116.923 260.706 117.539C259.563 118.139 258.238 118.439 256.729 118.439C255.308 118.439 254.085 118.125 253.06 117.495C252.034 116.865 251.177 115.993 250.489 114.88C249.8 113.767 249.244 112.492 248.819 111.057C248.394 109.621 248.057 108.105 247.808 106.508V105.915C248.057 104.201 248.394 102.612 248.819 101.147C249.244 99.6675 249.8 98.3784 250.489 97.2798C251.177 96.1812 252.027 95.3242 253.038 94.709C254.063 94.0938 255.286 93.7861 256.707 93.7861C258.216 93.7861 259.542 94.0718 260.684 94.6431C261.841 95.2144 262.808 96.0347 263.584 97.104C264.375 98.1587 264.969 99.4258 265.364 100.905C265.76 102.385 265.958 104.025 265.958 105.827ZM258.553 106.289V105.827C258.553 104.904 258.487 104.062 258.355 103.3C258.223 102.524 258.011 101.85 257.718 101.279C257.439 100.708 257.066 100.268 256.597 99.9604C256.128 99.6528 255.55 99.499 254.861 99.499C254.07 99.499 253.404 99.6235 252.862 99.8726C252.334 100.107 251.91 100.473 251.587 100.971C251.28 101.455 251.06 102.062 250.928 102.795C250.811 103.513 250.76 104.355 250.774 105.322V107.124C250.745 108.237 250.855 109.218 251.104 110.068C251.353 110.903 251.785 111.555 252.4 112.023C253.016 112.492 253.851 112.727 254.905 112.727C255.608 112.727 256.194 112.565 256.663 112.243C257.132 111.906 257.505 111.445 257.784 110.859C258.062 110.258 258.26 109.57 258.377 108.793C258.494 108.017 258.553 107.182 258.553 106.289ZM277.076 94.2256V118H269.649V94.2256H277.076ZM269.209 88.0952C269.209 87.0405 269.59 86.1763 270.352 85.5024C271.114 84.8286 272.103 84.4917 273.318 84.4917C274.534 84.4917 275.523 84.8286 276.285 85.5024C277.046 86.1763 277.427 87.0405 277.427 88.0952C277.427 89.1499 277.046 90.0142 276.285 90.688C275.523 91.3618 274.534 91.6987 273.318 91.6987C272.103 91.6987 271.114 91.3618 270.352 90.688C269.59 90.0142 269.209 89.1499 269.209 88.0952ZM288.919 99.3013V118H281.514V94.2256H288.458L288.919 99.3013ZM288.04 105.3L286.304 105.344C286.304 103.527 286.524 101.909 286.963 100.488C287.403 99.0522 288.025 97.8364 288.831 96.8403C289.637 95.8442 290.596 95.0898 291.709 94.5771C292.837 94.0498 294.09 93.7861 295.467 93.7861C296.565 93.7861 297.569 93.9473 298.477 94.2695C299.4 94.5918 300.191 95.1118 300.85 95.8296C301.524 96.5474 302.037 97.4995 302.388 98.686C302.754 99.8579 302.938 101.308 302.938 103.037V118H295.489V103.015C295.489 102.062 295.357 101.337 295.093 100.839C294.83 100.327 294.449 99.9751 293.951 99.7847C293.453 99.5942 292.845 99.499 292.127 99.499C291.365 99.499 290.721 99.6455 290.193 99.9385C289.666 100.231 289.241 100.642 288.919 101.169C288.611 101.682 288.384 102.29 288.238 102.993C288.106 103.696 288.04 104.465 288.04 105.3ZM321.988 94.2256H328.711V117.077C328.711 119.274 328.206 121.135 327.195 122.658C326.185 124.196 324.771 125.361 322.955 126.152C321.153 126.958 319.043 127.36 316.626 127.36C315.557 127.36 314.466 127.221 313.353 126.943C312.239 126.679 311.199 126.284 310.232 125.756C309.266 125.229 308.453 124.577 307.793 123.801L310.892 119.45C311.492 120.124 312.247 120.695 313.155 121.164C314.063 121.647 315.132 121.889 316.363 121.889C317.432 121.889 318.326 121.699 319.043 121.318C319.776 120.937 320.333 120.38 320.713 119.648C321.094 118.93 321.285 118.059 321.285 117.033V99.8506L321.988 94.2256ZM306.189 106.398V105.937C306.189 104.135 306.409 102.495 306.849 101.015C307.303 99.521 307.947 98.2393 308.782 97.1699C309.632 96.0859 310.657 95.251 311.858 94.665C313.06 94.0791 314.415 93.7861 315.923 93.7861C317.549 93.7861 318.882 94.1011 319.922 94.731C320.977 95.3462 321.819 96.2104 322.449 97.3237C323.094 98.437 323.592 99.7407 323.943 101.235C324.31 102.714 324.617 104.311 324.866 106.025V106.574C324.617 108.186 324.273 109.709 323.833 111.145C323.409 112.565 322.852 113.825 322.164 114.924C321.475 116.022 320.611 116.887 319.571 117.517C318.545 118.132 317.315 118.439 315.879 118.439C314.385 118.439 313.038 118.139 311.836 117.539C310.65 116.938 309.632 116.096 308.782 115.012C307.947 113.928 307.303 112.653 306.849 111.188C306.409 109.724 306.189 108.127 306.189 106.398ZM313.594 105.937V106.398C313.594 107.292 313.675 108.12 313.836 108.881C314.012 109.643 314.275 110.317 314.627 110.903C314.979 111.474 315.411 111.921 315.923 112.243C316.451 112.565 317.066 112.727 317.769 112.727C318.838 112.727 319.703 112.5 320.362 112.045C321.021 111.591 321.497 110.947 321.79 110.112C322.083 109.277 322.208 108.295 322.164 107.167V105.432C322.193 104.465 322.127 103.615 321.966 102.883C321.805 102.136 321.548 101.513 321.197 101.015C320.86 100.517 320.406 100.144 319.834 99.8945C319.278 99.6309 318.604 99.499 317.813 99.499C317.125 99.499 316.517 99.6602 315.989 99.9824C315.462 100.305 315.022 100.759 314.671 101.345C314.319 101.916 314.048 102.597 313.858 103.388C313.682 104.165 313.594 105.014 313.594 105.937Z" fill="#424241"/>
<path d="M1363 15C1363 6.71573 1356.28 0 1348 0H1134V167H1348C1356.28 167 1363 160.284 1363 152V15Z" fill="#E24C3F"/>
<path fill-rule="evenodd" clip-rule="evenodd" d="M1203 49C1203 47.8954 1203.9 47 1205 47H1292.5C1293.6 47 1294.5 47.8954 1294.5 49V118.996C1294.5 120.101 1293.6 120.996 1292.5 120.996H1205C1203.9 120.996 1203 120.101 1203 118.996V49ZM1207 51V55.4945H1290.5V51H1207ZM1290.5 59.4945H1235.44V116.996H1290.5V59.4945ZM1231.44 116.996V59.4945H1207V116.996H1231.44Z" fill="white"/>
<path fill-rule="evenodd" clip-rule="evenodd" d="M1209.97 64.8004C1209.97 63.6958 1210.87 62.8004 1211.97 62.8004H1225.97C1227.08 62.8004 1227.97 63.6958 1227.97 64.8004V84.1956C1227.97 85.3001 1227.08 86.1956 1225.97 86.1956H1211.97C1210.87 86.1956 1209.97 85.3001 1209.97 84.1956V64.8004ZM1213.97 66.8004V82.1956H1223.97V66.8004H1213.97ZM1239.58 65.6964C1239.58 64.5918 1240.47 63.6964 1241.58 63.6964H1284.5C1285.61 63.6964 1286.5 64.5918 1286.5 65.6964V111.905C1286.5 113.01 1285.61 113.905 1284.5 113.905H1241.58C1240.47 113.905 1239.58 113.01 1239.58 111.905V65.6964ZM1243.58 67.6964V109.905H1282.5V67.6964H1243.58ZM1209.81 95.9363C1209.81 94.8317 1210.71 93.9363 1211.81 93.9363H1220.73C1221.84 93.9363 1222.73 94.8317 1222.73 95.9363C1222.73 97.0409 1221.84 97.9363 1220.73 97.9363H1211.81C1210.71 97.9363 1209.81 97.0409 1209.81 95.9363ZM1209.81 102.936C1209.81 101.832 1210.71 100.936 1211.81 100.936H1226.35C1227.46 100.936 1228.35 101.832 1228.35 102.936C1228.35 104.041 1227.46 104.936 1226.35 104.936H1211.81C1210.71 104.936 1209.81 104.041 1209.81 102.936ZM1209.81 109.936C1209.81 108.832 1210.71 107.936 1211.81 107.936H1220.73C1221.84 107.936 1222.73 108.832 1222.73 109.936C1222.73 111.041 1221.84 111.936 1220.73 111.936H1211.81C1210.71 111.936 1209.81 111.041 1209.81 109.936Z" fill="white"/>
</svg>
