<svg width="1363" height="167" viewBox="0 0 1363 167" fill="none" xmlns="http://www.w3.org/2000/svg">
<rect width="1363" height="167" rx="15" fill="#F0F0F0"/>
<path d="M0 15C0 6.71573 6.71573 0 15 0H37V167H15C6.71573 167 0 160.284 0 152V15Z" fill="#424241"/>
<path d="M100.906 54.9219L93.3945 52.2383V49.0859L103.602 53.375V55.6367L100.906 54.9219ZM93.3945 57.1719L100.918 54.4297L103.602 53.7852V56.0352L93.3945 60.3242V57.1719ZM121.789 56.3398H125.293C125.223 57.4883 124.906 58.5078 124.344 59.3984C123.789 60.2891 123.012 60.9844 122.012 61.4844C121.02 61.9844 119.824 62.2344 118.426 62.2344C117.332 62.2344 116.352 62.0469 115.484 61.6719C114.617 61.2891 113.875 60.7422 113.258 60.0312C112.648 59.3203 112.184 58.4609 111.863 57.4531C111.543 56.4453 111.383 55.3164 111.383 54.0664V52.8828C111.383 51.6328 111.547 50.5039 111.875 49.4961C112.211 48.4805 112.688 47.6172 113.305 46.9062C113.93 46.1953 114.676 45.6484 115.543 45.2656C116.41 44.8828 117.379 44.6914 118.449 44.6914C119.871 44.6914 121.07 44.9492 122.047 45.4648C123.031 45.9805 123.793 46.6914 124.332 47.5977C124.879 48.5039 125.207 49.5352 125.316 50.6914H121.801C121.762 50.0039 121.625 49.4219 121.391 48.9453C121.156 48.4609 120.801 48.0977 120.324 47.8555C119.855 47.6055 119.23 47.4805 118.449 47.4805C117.863 47.4805 117.352 47.5898 116.914 47.8086C116.477 48.0273 116.109 48.3594 115.812 48.8047C115.516 49.25 115.293 49.8125 115.145 50.4922C115.004 51.1641 114.934 51.9531 114.934 52.8594V54.0664C114.934 54.9492 115 55.7266 115.133 56.3984C115.266 57.0625 115.469 57.625 115.742 58.0859C116.023 58.5391 116.383 58.8828 116.82 59.1172C117.266 59.3438 117.801 59.457 118.426 59.457C119.16 59.457 119.766 59.3398 120.242 59.1055C120.719 58.8711 121.082 58.5234 121.332 58.0625C121.59 57.6016 121.742 57.0273 121.789 56.3398ZM130.953 44V62H127.566V44H130.953ZM140.586 59.1406V53.4922C140.586 53.0859 140.52 52.7383 140.387 52.4492C140.254 52.1523 140.047 51.9219 139.766 51.7578C139.492 51.5938 139.137 51.5117 138.699 51.5117C138.324 51.5117 138 51.5781 137.727 51.7109C137.453 51.8359 137.242 52.0195 137.094 52.2617C136.945 52.4961 136.871 52.7734 136.871 53.0938H133.496C133.496 52.5547 133.621 52.043 133.871 51.5586C134.121 51.0742 134.484 50.6484 134.961 50.2812C135.438 49.9062 136.004 49.6133 136.66 49.4023C137.324 49.1914 138.066 49.0859 138.887 49.0859C139.871 49.0859 140.746 49.25 141.512 49.5781C142.277 49.9062 142.879 50.3984 143.316 51.0547C143.762 51.7109 143.984 52.5312 143.984 53.5156V58.9414C143.984 59.6367 144.027 60.207 144.113 60.6523C144.199 61.0898 144.324 61.4727 144.488 61.8008V62H141.078C140.914 61.6562 140.789 61.2266 140.703 60.7109C140.625 60.1875 140.586 59.6641 140.586 59.1406ZM141.031 54.2773L141.055 56.1875H139.168C138.723 56.1875 138.336 56.2383 138.008 56.3398C137.68 56.4414 137.41 56.5859 137.199 56.7734C136.988 56.9531 136.832 57.1641 136.73 57.4062C136.637 57.6484 136.59 57.9141 136.59 58.2031C136.59 58.4922 136.656 58.7539 136.789 58.9883C136.922 59.2148 137.113 59.3945 137.363 59.5273C137.613 59.6523 137.906 59.7148 138.242 59.7148C138.75 59.7148 139.191 59.6133 139.566 59.4102C139.941 59.207 140.23 58.957 140.434 58.6602C140.645 58.3633 140.754 58.082 140.762 57.8164L141.652 59.2461C141.527 59.5664 141.355 59.8984 141.137 60.2422C140.926 60.5859 140.656 60.9102 140.328 61.2148C140 61.5117 139.605 61.7578 139.145 61.9531C138.684 62.1406 138.137 62.2344 137.504 62.2344C136.699 62.2344 135.969 62.0742 135.312 61.7539C134.664 61.4258 134.148 60.9766 133.766 60.4062C133.391 59.8281 133.203 59.1719 133.203 58.4375C133.203 57.7734 133.328 57.1836 133.578 56.668C133.828 56.1523 134.195 55.7188 134.68 55.3672C135.172 55.0078 135.785 54.7383 136.52 54.5586C137.254 54.3711 138.105 54.2773 139.074 54.2773H141.031ZM153.441 58.4961C153.441 58.2539 153.371 58.0352 153.23 57.8398C153.09 57.6445 152.828 57.4648 152.445 57.3008C152.07 57.1289 151.527 56.9727 150.816 56.832C150.176 56.6914 149.578 56.5156 149.023 56.3047C148.477 56.0859 148 55.8242 147.594 55.5195C147.195 55.2148 146.883 54.8555 146.656 54.4414C146.43 54.0195 146.316 53.5391 146.316 53C146.316 52.4688 146.43 51.9688 146.656 51.5C146.891 51.0312 147.223 50.6172 147.652 50.2578C148.09 49.8906 148.621 49.6055 149.246 49.4023C149.879 49.1914 150.59 49.0859 151.379 49.0859C152.48 49.0859 153.426 49.2617 154.215 49.6133C155.012 49.9648 155.621 50.4492 156.043 51.0664C156.473 51.6758 156.688 52.3711 156.688 53.1523H153.312C153.312 52.8242 153.242 52.5312 153.102 52.2734C152.969 52.0078 152.758 51.8008 152.469 51.6523C152.188 51.4961 151.82 51.418 151.367 51.418C150.992 51.418 150.668 51.4844 150.395 51.6172C150.121 51.7422 149.91 51.9141 149.762 52.1328C149.621 52.3438 149.551 52.5781 149.551 52.8359C149.551 53.0312 149.59 53.207 149.668 53.3633C149.754 53.5117 149.891 53.6484 150.078 53.7734C150.266 53.8984 150.508 54.0156 150.805 54.125C151.109 54.2266 151.484 54.3203 151.93 54.4062C152.844 54.5938 153.66 54.8398 154.379 55.1445C155.098 55.4414 155.668 55.8477 156.09 56.3633C156.512 56.8711 156.723 57.5391 156.723 58.3672C156.723 58.9297 156.598 59.4453 156.348 59.9141C156.098 60.3828 155.738 60.793 155.27 61.1445C154.801 61.4883 154.238 61.7578 153.582 61.9531C152.934 62.1406 152.203 62.2344 151.391 62.2344C150.211 62.2344 149.211 62.0234 148.391 61.6016C147.578 61.1797 146.961 60.6445 146.539 59.9961C146.125 59.3398 145.918 58.668 145.918 57.9805H149.117C149.133 58.4414 149.25 58.8125 149.469 59.0938C149.695 59.375 149.98 59.5781 150.324 59.7031C150.676 59.8281 151.055 59.8906 151.461 59.8906C151.898 59.8906 152.262 59.832 152.551 59.7148C152.84 59.5898 153.059 59.4258 153.207 59.2227C153.363 59.0117 153.441 58.7695 153.441 58.4961ZM165.77 58.4961C165.77 58.2539 165.699 58.0352 165.559 57.8398C165.418 57.6445 165.156 57.4648 164.773 57.3008C164.398 57.1289 163.855 56.9727 163.145 56.832C162.504 56.6914 161.906 56.5156 161.352 56.3047C160.805 56.0859 160.328 55.8242 159.922 55.5195C159.523 55.2148 159.211 54.8555 158.984 54.4414C158.758 54.0195 158.645 53.5391 158.645 53C158.645 52.4688 158.758 51.9688 158.984 51.5C159.219 51.0312 159.551 50.6172 159.98 50.2578C160.418 49.8906 160.949 49.6055 161.574 49.4023C162.207 49.1914 162.918 49.0859 163.707 49.0859C164.809 49.0859 165.754 49.2617 166.543 49.6133C167.34 49.9648 167.949 50.4492 168.371 51.0664C168.801 51.6758 169.016 52.3711 169.016 53.1523H165.641C165.641 52.8242 165.57 52.5312 165.43 52.2734C165.297 52.0078 165.086 51.8008 164.797 51.6523C164.516 51.4961 164.148 51.418 163.695 51.418C163.32 51.418 162.996 51.4844 162.723 51.6172C162.449 51.7422 162.238 51.9141 162.09 52.1328C161.949 52.3438 161.879 52.5781 161.879 52.8359C161.879 53.0312 161.918 53.207 161.996 53.3633C162.082 53.5117 162.219 53.6484 162.406 53.7734C162.594 53.8984 162.836 54.0156 163.133 54.125C163.438 54.2266 163.812 54.3203 164.258 54.4062C165.172 54.5938 165.988 54.8398 166.707 55.1445C167.426 55.4414 167.996 55.8477 168.418 56.3633C168.84 56.8711 169.051 57.5391 169.051 58.3672C169.051 58.9297 168.926 59.4453 168.676 59.9141C168.426 60.3828 168.066 60.793 167.598 61.1445C167.129 61.4883 166.566 61.7578 165.91 61.9531C165.262 62.1406 164.531 62.2344 163.719 62.2344C162.539 62.2344 161.539 62.0234 160.719 61.6016C159.906 61.1797 159.289 60.6445 158.867 59.9961C158.453 59.3398 158.246 58.668 158.246 57.9805H161.445C161.461 58.4414 161.578 58.8125 161.797 59.0938C162.023 59.375 162.309 59.5781 162.652 59.7031C163.004 59.8281 163.383 59.8906 163.789 59.8906C164.227 59.8906 164.59 59.832 164.879 59.7148C165.168 59.5898 165.387 59.4258 165.535 59.2227C165.691 59.0117 165.77 58.7695 165.77 58.4961ZM174.805 49.3203V62H171.418V49.3203H174.805ZM171.207 46.0156C171.207 45.5234 171.379 45.1172 171.723 44.7969C172.066 44.4766 172.527 44.3164 173.105 44.3164C173.676 44.3164 174.133 44.4766 174.477 44.7969C174.828 45.1172 175.004 45.5234 175.004 46.0156C175.004 46.5078 174.828 46.9141 174.477 47.2344C174.133 47.5547 173.676 47.7148 173.105 47.7148C172.527 47.7148 172.066 47.5547 171.723 47.2344C171.379 46.9141 171.207 46.5078 171.207 46.0156ZM181.895 62H178.496V48.1953C178.496 47.2344 178.684 46.4258 179.059 45.7695C179.441 45.1055 179.977 44.6055 180.664 44.2695C181.359 43.9258 182.184 43.7539 183.137 43.7539C183.449 43.7539 183.75 43.7773 184.039 43.8242C184.328 43.8633 184.609 43.9141 184.883 43.9766L184.848 46.5195C184.699 46.4805 184.543 46.4531 184.379 46.4375C184.215 46.4219 184.023 46.4141 183.805 46.4141C183.398 46.4141 183.051 46.4844 182.762 46.625C182.48 46.7578 182.266 46.957 182.117 47.2227C181.969 47.4883 181.895 47.8125 181.895 48.1953V62ZM184.426 49.3203V51.7109H176.609V49.3203H184.426ZM189.957 60.5703L193.32 49.3203H196.941L191.844 63.9102C191.734 64.2305 191.586 64.5742 191.398 64.9414C191.219 65.3086 190.973 65.6562 190.66 65.9844C190.355 66.3203 189.969 66.5938 189.5 66.8047C189.039 67.0156 188.473 67.1211 187.801 67.1211C187.48 67.1211 187.219 67.1016 187.016 67.0625C186.812 67.0234 186.57 66.9688 186.289 66.8984V64.4258C186.375 64.4258 186.465 64.4258 186.559 64.4258C186.652 64.4336 186.742 64.4375 186.828 64.4375C187.273 64.4375 187.637 64.3867 187.918 64.2852C188.199 64.1836 188.426 64.0273 188.598 63.8164C188.77 63.6133 188.906 63.3477 189.008 63.0195L189.957 60.5703ZM188.551 49.3203L191.305 58.5078L191.785 62.082L189.488 62.3281L184.93 49.3203H188.551ZM205.438 47.8555L200.797 62H197.059L203.398 44.9375H205.777L205.438 47.8555ZM209.293 62L204.641 47.8555L204.266 44.9375H206.668L213.043 62H209.293ZM209.082 55.6484V58.4023H200.07V55.6484H209.082ZM218.363 44.9375V62H214.859V44.9375H218.363Z" fill="#888888"/>
<path d="M107.205 107.146H99.251V101.191H107.205C108.289 101.191 109.168 101.008 109.842 100.642C110.516 100.275 111.006 99.77 111.314 99.1255C111.636 98.4663 111.797 97.7266 111.797 96.9062C111.797 96.0273 111.636 95.2144 111.314 94.4673C111.006 93.7202 110.516 93.1196 109.842 92.6655C109.168 92.1968 108.289 91.9624 107.205 91.9624H102.151V118H94.439V86.0078H107.205C109.769 86.0078 111.973 86.4766 113.819 87.4141C115.679 88.3516 117.107 89.6406 118.104 91.2812C119.1 92.9072 119.598 94.7676 119.598 96.8623C119.598 98.9277 119.1 100.729 118.104 102.268C117.107 103.806 115.679 105.007 113.819 105.871C111.973 106.721 109.769 107.146 107.205 107.146ZM130.87 100.114V118H123.465V94.2256H130.386L130.87 100.114ZM137.901 94.0498L137.769 100.927C137.476 100.898 137.081 100.861 136.583 100.817C136.084 100.773 135.667 100.751 135.33 100.751C134.466 100.751 133.719 100.854 133.089 101.059C132.474 101.25 131.961 101.542 131.551 101.938C131.155 102.319 130.862 102.802 130.672 103.388C130.496 103.974 130.416 104.655 130.43 105.432L129.09 104.553C129.09 102.956 129.244 101.506 129.551 100.202C129.874 98.8838 130.328 97.7485 130.914 96.7964C131.5 95.8296 132.21 95.0898 133.045 94.5771C133.88 94.0498 134.817 93.7861 135.857 93.7861C136.224 93.7861 136.583 93.8081 136.934 93.8521C137.3 93.896 137.623 93.9619 137.901 94.0498ZM138.736 106.354V105.893C138.736 104.15 138.985 102.546 139.483 101.081C139.981 99.6016 140.713 98.3198 141.68 97.2358C142.647 96.1519 143.841 95.3096 145.262 94.709C146.683 94.0938 148.323 93.7861 150.184 93.7861C152.059 93.7861 153.707 94.0938 155.127 94.709C156.563 95.3096 157.764 96.1519 158.731 97.2358C159.698 98.3198 160.43 99.6016 160.928 101.081C161.426 102.546 161.675 104.15 161.675 105.893V106.354C161.675 108.083 161.426 109.687 160.928 111.167C160.43 112.631 159.698 113.913 158.731 115.012C157.764 116.096 156.57 116.938 155.149 117.539C153.729 118.139 152.088 118.439 150.228 118.439C148.367 118.439 146.719 118.139 145.284 117.539C143.848 116.938 142.647 116.096 141.68 115.012C140.713 113.913 139.981 112.631 139.483 111.167C138.985 109.687 138.736 108.083 138.736 106.354ZM146.141 105.893V106.354C146.141 107.248 146.207 108.083 146.338 108.859C146.47 109.636 146.69 110.317 146.998 110.903C147.305 111.474 147.723 111.921 148.25 112.243C148.777 112.565 149.437 112.727 150.228 112.727C151.004 112.727 151.648 112.565 152.161 112.243C152.688 111.921 153.106 111.474 153.414 110.903C153.721 110.317 153.941 109.636 154.073 108.859C154.205 108.083 154.271 107.248 154.271 106.354V105.893C154.271 105.029 154.205 104.216 154.073 103.454C153.941 102.678 153.721 101.997 153.414 101.411C153.106 100.81 152.688 100.341 152.161 100.004C151.634 99.6675 150.975 99.499 150.184 99.499C149.407 99.499 148.755 99.6675 148.228 100.004C147.715 100.341 147.305 100.81 146.998 101.411C146.69 101.997 146.47 102.678 146.338 103.454C146.207 104.216 146.141 105.029 146.141 105.893ZM165.521 94.2256H172.947V118.769C172.947 120.673 172.581 122.277 171.849 123.581C171.116 124.899 170.069 125.896 168.707 126.569C167.344 127.258 165.718 127.602 163.829 127.602C163.199 127.602 162.62 127.573 162.093 127.514C161.551 127.47 160.958 127.375 160.313 127.229V121.625C160.694 121.684 161.045 121.728 161.368 121.757C161.69 121.801 162.042 121.823 162.422 121.823C163.096 121.823 163.66 121.713 164.114 121.494C164.568 121.274 164.913 120.937 165.147 120.483C165.396 120.029 165.521 119.458 165.521 118.769V94.2256ZM164.971 88.0952C164.971 87.0405 165.352 86.1763 166.114 85.5024C166.875 84.8286 167.864 84.4917 169.08 84.4917C170.296 84.4917 171.285 84.8286 172.046 85.5024C172.808 86.1763 173.189 87.0405 173.189 88.0952C173.189 89.1499 172.808 90.0142 172.046 90.688C171.285 91.3618 170.296 91.6987 169.08 91.6987C167.864 91.6987 166.875 91.3618 166.114 90.688C165.352 90.0142 164.971 89.1499 164.971 88.0952ZM188.658 118.439C186.724 118.439 184.996 118.139 183.472 117.539C181.949 116.923 180.66 116.081 179.605 115.012C178.565 113.942 177.767 112.712 177.21 111.32C176.668 109.929 176.397 108.457 176.397 106.904V106.069C176.397 104.326 176.639 102.714 177.122 101.235C177.605 99.7407 178.323 98.437 179.275 97.3237C180.228 96.2104 181.421 95.3462 182.857 94.731C184.292 94.1011 185.962 93.7861 187.867 93.7861C189.551 93.7861 191.06 94.0571 192.393 94.5991C193.726 95.1411 194.854 95.9175 195.777 96.9282C196.714 97.939 197.425 99.1621 197.908 100.598C198.406 102.033 198.655 103.645 198.655 105.432V108.442H179.231V103.806H191.426V103.234C191.441 102.443 191.302 101.77 191.009 101.213C190.73 100.656 190.32 100.231 189.778 99.9385C189.236 99.6455 188.577 99.499 187.801 99.499C186.995 99.499 186.329 99.6748 185.801 100.026C185.289 100.378 184.886 100.861 184.593 101.477C184.314 102.077 184.117 102.773 184 103.564C183.882 104.355 183.824 105.19 183.824 106.069V106.904C183.824 107.783 183.941 108.581 184.175 109.299C184.424 110.017 184.776 110.632 185.23 111.145C185.699 111.643 186.255 112.031 186.9 112.309C187.559 112.587 188.306 112.727 189.141 112.727C190.152 112.727 191.148 112.536 192.129 112.155C193.111 111.774 193.953 111.145 194.656 110.266L198.018 114.265C197.535 114.953 196.846 115.62 195.953 116.264C195.074 116.909 194.019 117.436 192.789 117.846C191.558 118.242 190.181 118.439 188.658 118.439ZM211.707 112.727C212.396 112.727 212.981 112.602 213.465 112.353C213.963 112.089 214.336 111.723 214.585 111.254C214.849 110.771 214.974 110.192 214.959 109.519H221.924C221.939 111.306 221.5 112.873 220.606 114.221C219.727 115.554 218.526 116.594 217.002 117.341C215.494 118.073 213.787 118.439 211.883 118.439C210.022 118.439 208.396 118.139 207.005 117.539C205.613 116.923 204.449 116.074 203.511 114.99C202.588 113.891 201.893 112.609 201.424 111.145C200.97 109.68 200.743 108.09 200.743 106.376V105.871C200.743 104.157 200.97 102.568 201.424 101.103C201.893 99.6235 202.588 98.3418 203.511 97.2578C204.449 96.1592 205.606 95.3096 206.983 94.709C208.375 94.0938 209.993 93.7861 211.839 93.7861C213.816 93.7861 215.56 94.1597 217.068 94.9067C218.592 95.6538 219.786 96.7378 220.65 98.1587C221.514 99.5796 221.939 101.301 221.924 103.322H214.959C214.974 102.604 214.864 101.96 214.629 101.389C214.395 100.817 214.029 100.363 213.531 100.026C213.047 99.6748 212.425 99.499 211.663 99.499C210.901 99.499 210.286 99.6675 209.817 100.004C209.349 100.341 208.99 100.81 208.741 101.411C208.506 101.997 208.345 102.67 208.257 103.432C208.184 104.194 208.147 105.007 208.147 105.871V106.376C208.147 107.255 208.184 108.083 208.257 108.859C208.345 109.621 208.514 110.295 208.763 110.881C209.012 111.452 209.371 111.906 209.839 112.243C210.308 112.565 210.931 112.727 211.707 112.727ZM237.613 94.2256V99.3672H223.287V94.2256H237.613ZM226.297 88.3149H233.702V110.244C233.702 110.874 233.775 111.364 233.921 111.716C234.068 112.053 234.317 112.294 234.668 112.441C235.035 112.573 235.518 112.639 236.119 112.639C236.543 112.639 236.895 112.631 237.173 112.617C237.452 112.587 237.715 112.551 237.964 112.507V117.802C237.334 118.007 236.675 118.161 235.987 118.264C235.298 118.381 234.566 118.439 233.79 118.439C232.208 118.439 230.853 118.19 229.725 117.692C228.611 117.194 227.762 116.411 227.176 115.341C226.59 114.272 226.297 112.88 226.297 111.167V88.3149ZM264.881 107.146H256.927V101.191H264.881C265.965 101.191 266.844 101.008 267.518 100.642C268.191 100.275 268.682 99.77 268.99 99.1255C269.312 98.4663 269.473 97.7266 269.473 96.9062C269.473 96.0273 269.312 95.2144 268.99 94.4673C268.682 93.7202 268.191 93.1196 267.518 92.6655C266.844 92.1968 265.965 91.9624 264.881 91.9624H259.827V118H252.115V86.0078H264.881C267.444 86.0078 269.649 86.4766 271.495 87.4141C273.355 88.3516 274.783 89.6406 275.779 91.2812C276.775 92.9072 277.273 94.7676 277.273 96.8623C277.273 98.9277 276.775 100.729 275.779 102.268C274.783 103.806 273.355 105.007 271.495 105.871C269.649 106.721 267.444 107.146 264.881 107.146ZM288.326 84.25V118H280.921V84.25H288.326ZM287.447 105.3L285.711 105.344C285.711 103.674 285.916 102.136 286.326 100.729C286.736 99.3232 287.322 98.1001 288.084 97.0601C288.846 96.02 289.761 95.2144 290.831 94.6431C291.9 94.0718 293.086 93.7861 294.39 93.7861C295.562 93.7861 296.631 93.9546 297.598 94.2915C298.58 94.6284 299.422 95.1704 300.125 95.9175C300.843 96.6646 301.392 97.6387 301.773 98.8398C302.168 100.041 302.366 101.506 302.366 103.234V118H294.917V103.19C294.917 102.224 294.778 101.477 294.5 100.949C294.236 100.407 293.855 100.034 293.357 99.8286C292.859 99.6089 292.251 99.499 291.534 99.499C290.669 99.499 289.966 99.6455 289.424 99.9385C288.882 100.231 288.465 100.642 288.172 101.169C287.894 101.682 287.703 102.29 287.601 102.993C287.498 103.696 287.447 104.465 287.447 105.3ZM314.297 94.2256V118H306.871V94.2256H314.297ZM306.431 88.0952C306.431 87.0405 306.812 86.1763 307.574 85.5024C308.335 84.8286 309.324 84.4917 310.54 84.4917C311.756 84.4917 312.745 84.8286 313.506 85.5024C314.268 86.1763 314.649 87.0405 314.649 88.0952C314.649 89.1499 314.268 90.0142 313.506 90.688C312.745 91.3618 311.756 91.6987 310.54 91.6987C309.324 91.6987 308.335 91.3618 307.574 90.688C306.812 90.0142 306.431 89.1499 306.431 88.0952ZM326.69 84.25V118H319.263V84.25H326.69ZM330.337 106.354V105.893C330.337 104.15 330.586 102.546 331.084 101.081C331.583 99.6016 332.315 98.3198 333.282 97.2358C334.249 96.1519 335.442 95.3096 336.863 94.709C338.284 94.0938 339.925 93.7861 341.785 93.7861C343.66 93.7861 345.308 94.0938 346.729 94.709C348.165 95.3096 349.366 96.1519 350.333 97.2358C351.299 98.3198 352.032 99.6016 352.53 101.081C353.028 102.546 353.277 104.15 353.277 105.893V106.354C353.277 108.083 353.028 109.687 352.53 111.167C352.032 112.631 351.299 113.913 350.333 115.012C349.366 116.096 348.172 116.938 346.751 117.539C345.33 118.139 343.689 118.439 341.829 118.439C339.969 118.439 338.321 118.139 336.885 117.539C335.45 116.938 334.249 116.096 333.282 115.012C332.315 113.913 331.583 112.631 331.084 111.167C330.586 109.687 330.337 108.083 330.337 106.354ZM337.742 105.893V106.354C337.742 107.248 337.808 108.083 337.94 108.859C338.072 109.636 338.292 110.317 338.599 110.903C338.907 111.474 339.324 111.921 339.852 112.243C340.379 112.565 341.038 112.727 341.829 112.727C342.605 112.727 343.25 112.565 343.763 112.243C344.29 111.921 344.708 111.474 345.015 110.903C345.323 110.317 345.542 109.636 345.674 108.859C345.806 108.083 345.872 107.248 345.872 106.354V105.893C345.872 105.029 345.806 104.216 345.674 103.454C345.542 102.678 345.323 101.997 345.015 101.411C344.708 100.81 344.29 100.341 343.763 100.004C343.235 99.6675 342.576 99.499 341.785 99.499C341.009 99.499 340.357 99.6675 339.83 100.004C339.317 100.341 338.907 100.81 338.599 101.411C338.292 101.997 338.072 102.678 337.94 103.454C337.808 104.216 337.742 105.029 337.742 105.893ZM369.031 111.32C369.031 110.91 368.892 110.559 368.614 110.266C368.35 109.958 367.881 109.68 367.208 109.431C366.534 109.167 365.589 108.903 364.373 108.64C363.216 108.391 362.125 108.061 361.099 107.651C360.088 107.241 359.202 106.743 358.44 106.157C357.679 105.571 357.078 104.875 356.639 104.069C356.214 103.264 356.001 102.341 356.001 101.301C356.001 100.29 356.214 99.3379 356.639 98.4443C357.078 97.5361 357.715 96.7378 358.55 96.0493C359.4 95.3462 360.433 94.7969 361.648 94.4014C362.864 93.9912 364.249 93.7861 365.801 93.7861C367.94 93.7861 369.786 94.1157 371.338 94.7749C372.891 95.4194 374.085 96.3276 374.92 97.4995C375.77 98.6567 376.194 99.9971 376.194 101.521H368.79C368.79 100.92 368.687 100.407 368.482 99.9824C368.292 99.5576 367.977 99.2354 367.537 99.0156C367.098 98.7812 366.512 98.6641 365.779 98.6641C365.267 98.6641 364.798 98.7593 364.373 98.9497C363.963 99.1401 363.633 99.4038 363.384 99.7407C363.135 100.078 363.011 100.473 363.011 100.927C363.011 101.25 363.084 101.542 363.23 101.806C363.392 102.055 363.633 102.29 363.956 102.509C364.278 102.714 364.688 102.905 365.186 103.081C365.684 103.242 366.285 103.388 366.988 103.52C368.584 103.813 370.079 104.23 371.47 104.772C372.862 105.314 373.99 106.083 374.854 107.08C375.733 108.076 376.172 109.416 376.172 111.101C376.172 112.155 375.931 113.129 375.447 114.023C374.964 114.902 374.268 115.678 373.36 116.352C372.452 117.011 371.36 117.524 370.086 117.89C368.812 118.256 367.376 118.439 365.779 118.439C363.509 118.439 361.59 118.037 360.022 117.231C358.455 116.411 357.269 115.385 356.463 114.155C355.672 112.91 355.276 111.65 355.276 110.375H362.176C362.205 111.108 362.381 111.708 362.703 112.177C363.04 112.646 363.487 112.99 364.043 113.21C364.6 113.43 365.245 113.54 365.977 113.54C366.651 113.54 367.208 113.444 367.647 113.254C368.101 113.063 368.445 112.807 368.68 112.485C368.914 112.148 369.031 111.76 369.031 111.32ZM378.721 106.354V105.893C378.721 104.15 378.97 102.546 379.468 101.081C379.966 99.6016 380.699 98.3198 381.666 97.2358C382.632 96.1519 383.826 95.3096 385.247 94.709C386.668 94.0938 388.309 93.7861 390.169 93.7861C392.044 93.7861 393.692 94.0938 395.113 94.709C396.548 95.3096 397.75 96.1519 398.716 97.2358C399.683 98.3198 400.416 99.6016 400.914 101.081C401.412 102.546 401.661 104.15 401.661 105.893V106.354C401.661 108.083 401.412 109.687 400.914 111.167C400.416 112.631 399.683 113.913 398.716 115.012C397.75 116.096 396.556 116.938 395.135 117.539C393.714 118.139 392.073 118.439 390.213 118.439C388.353 118.439 386.705 118.139 385.269 117.539C383.833 116.938 382.632 116.096 381.666 115.012C380.699 113.913 379.966 112.631 379.468 111.167C378.97 109.687 378.721 108.083 378.721 106.354ZM386.126 105.893V106.354C386.126 107.248 386.192 108.083 386.324 108.859C386.456 109.636 386.675 110.317 386.983 110.903C387.291 111.474 387.708 111.921 388.235 112.243C388.763 112.565 389.422 112.727 390.213 112.727C390.989 112.727 391.634 112.565 392.146 112.243C392.674 111.921 393.091 111.474 393.399 110.903C393.707 110.317 393.926 109.636 394.058 108.859C394.19 108.083 394.256 107.248 394.256 106.354V105.893C394.256 105.029 394.19 104.216 394.058 103.454C393.926 102.678 393.707 101.997 393.399 101.411C393.091 100.81 392.674 100.341 392.146 100.004C391.619 99.6675 390.96 99.499 390.169 99.499C389.393 99.499 388.741 99.6675 388.213 100.004C387.701 100.341 387.291 100.81 386.983 101.411C386.675 101.997 386.456 102.678 386.324 103.454C386.192 104.216 386.126 105.029 386.126 105.893ZM412.427 98.7959V127.141H405.022V94.2256H411.922L412.427 98.7959ZM427.017 105.827V106.289C427.017 108.017 426.819 109.621 426.424 111.101C426.028 112.58 425.442 113.869 424.666 114.968C423.89 116.066 422.923 116.923 421.766 117.539C420.623 118.139 419.297 118.439 417.789 118.439C416.368 118.439 415.145 118.125 414.119 117.495C413.094 116.865 412.237 115.993 411.548 114.88C410.86 113.767 410.303 112.492 409.878 111.057C409.454 109.621 409.117 108.105 408.868 106.508V105.915C409.117 104.201 409.454 102.612 409.878 101.147C410.303 99.6675 410.86 98.3784 411.548 97.2798C412.237 96.1812 413.086 95.3242 414.097 94.709C415.123 94.0938 416.346 93.7861 417.767 93.7861C419.275 93.7861 420.601 94.0718 421.744 94.6431C422.901 95.2144 423.868 96.0347 424.644 97.104C425.435 98.1587 426.028 99.4258 426.424 100.905C426.819 102.385 427.017 104.025 427.017 105.827ZM419.612 106.289V105.827C419.612 104.904 419.546 104.062 419.415 103.3C419.283 102.524 419.07 101.85 418.777 101.279C418.499 100.708 418.125 100.268 417.657 99.9604C417.188 99.6528 416.609 99.499 415.921 99.499C415.13 99.499 414.463 99.6235 413.921 99.8726C413.394 100.107 412.969 100.473 412.647 100.971C412.339 101.455 412.12 102.062 411.988 102.795C411.871 103.513 411.819 104.355 411.834 105.322V107.124C411.805 108.237 411.915 109.218 412.164 110.068C412.413 110.903 412.845 111.555 413.46 112.023C414.075 112.492 414.91 112.727 415.965 112.727C416.668 112.727 417.254 112.565 417.723 112.243C418.191 111.906 418.565 111.445 418.843 110.859C419.122 110.258 419.319 109.57 419.437 108.793C419.554 108.017 419.612 107.182 419.612 106.289ZM437.564 84.25V118H430.159V84.25H437.564ZM436.685 105.3L434.949 105.344C434.949 103.674 435.154 102.136 435.564 100.729C435.975 99.3232 436.561 98.1001 437.322 97.0601C438.084 96.02 439 95.2144 440.069 94.6431C441.138 94.0718 442.325 93.7861 443.628 93.7861C444.8 93.7861 445.87 93.9546 446.836 94.2915C447.818 94.6284 448.66 95.1704 449.363 95.9175C450.081 96.6646 450.63 97.6387 451.011 98.8398C451.407 100.041 451.604 101.506 451.604 103.234V118H444.156V103.19C444.156 102.224 444.017 101.477 443.738 100.949C443.475 100.407 443.094 100.034 442.596 99.8286C442.098 99.6089 441.49 99.499 440.772 99.499C439.908 99.499 439.205 99.6455 438.663 99.9385C438.121 100.231 437.703 100.642 437.41 101.169C437.132 101.682 436.941 102.29 436.839 102.993C436.736 103.696 436.685 104.465 436.685 105.3ZM463.008 115.209L469.161 94.2256H477.115L467.557 121.538C467.352 122.138 467.081 122.783 466.744 123.471C466.407 124.174 465.945 124.841 465.359 125.471C464.773 126.101 464.019 126.613 463.096 127.009C462.188 127.404 461.06 127.602 459.712 127.602C458.995 127.602 458.467 127.565 458.13 127.492C457.808 127.434 457.31 127.324 456.636 127.163V121.867C456.827 121.867 456.988 121.867 457.12 121.867C457.266 121.867 457.427 121.867 457.603 121.867C458.394 121.867 459.024 121.787 459.493 121.625C459.976 121.464 460.342 121.23 460.591 120.922C460.855 120.615 461.06 120.241 461.207 119.802L463.008 115.209ZM461.448 94.2256L466.128 110.859L466.941 118.703H461.976L453.516 94.2256H461.448Z" fill="#424241"/>
<path d="M1363 15C1363 6.71573 1356.28 0 1348 0H1134V167H1348C1356.28 167 1363 160.284 1363 152V15Z" fill="#E24C3F"/>
<path d="M1234.26 106.286H1262.74V111.857H1234.26V106.286ZM1239.96 117.429H1257.04V123H1239.96V117.429ZM1248.5 45C1240.95 45 1233.71 47.9349 1228.37 53.1592C1223.03 58.3834 1220.03 65.469 1220.03 72.8571C1219.84 76.9057 1220.63 80.9412 1222.34 84.6315C1224.05 88.3219 1226.64 91.5616 1229.88 94.0843C1232.73 96.675 1234.26 98.1514 1234.26 100.714H1239.96C1239.96 95.5886 1236.8 92.7193 1233.72 89.9614C1231.06 87.9676 1228.94 85.3658 1227.55 82.3838C1226.15 79.4019 1225.53 76.1308 1225.72 72.8571C1225.72 66.9466 1228.12 61.2781 1232.39 57.0988C1236.67 52.9194 1242.46 50.5714 1248.5 50.5714C1254.54 50.5714 1260.33 52.9194 1264.61 57.0988C1268.88 61.2781 1271.28 66.9466 1271.28 72.8571C1271.47 76.1333 1270.84 79.4059 1269.44 82.388C1268.04 85.3701 1265.92 87.9706 1263.25 89.9614C1260.2 92.7471 1257.04 95.5329 1257.04 100.714H1262.74C1262.74 98.1514 1264.25 96.675 1267.12 94.0564C1270.36 91.5381 1272.94 88.3031 1274.66 84.6176C1276.37 80.9321 1277.16 76.9014 1276.97 72.8571C1276.97 69.1989 1276.24 65.5765 1274.81 62.1967C1273.37 58.8169 1271.28 55.7459 1268.63 53.1592C1265.99 50.5724 1262.85 48.5205 1259.4 47.1205C1255.94 45.7205 1252.24 45 1248.5 45Z" fill="white"/>
</svg>
