<svg width="1363" height="167" viewBox="0 0 1363 167" fill="none" xmlns="http://www.w3.org/2000/svg">
<rect width="1363" height="167" rx="15" fill="#F0F0F0"/>
<path d="M0 15C0 6.71573 6.71573 0 15 0H37V167H15C6.71573 167 0 160.284 0 152V15Z" fill="#424241"/>
<path d="M100.906 54.9219L93.3945 52.2383V49.0859L103.602 53.375V55.6367L100.906 54.9219ZM93.3945 57.1719L100.918 54.4297L103.602 53.7852V56.0352L93.3945 60.3242V57.1719ZM121.789 56.3398H125.293C125.223 57.4883 124.906 58.5078 124.344 59.3984C123.789 60.2891 123.012 60.9844 122.012 61.4844C121.02 61.9844 119.824 62.2344 118.426 62.2344C117.332 62.2344 116.352 62.0469 115.484 61.6719C114.617 61.2891 113.875 60.7422 113.258 60.0312C112.648 59.3203 112.184 58.4609 111.863 57.4531C111.543 56.4453 111.383 55.3164 111.383 54.0664V52.8828C111.383 51.6328 111.547 50.5039 111.875 49.4961C112.211 48.4805 112.688 47.6172 113.305 46.9062C113.93 46.1953 114.676 45.6484 115.543 45.2656C116.41 44.8828 117.379 44.6914 118.449 44.6914C119.871 44.6914 121.07 44.9492 122.047 45.4648C123.031 45.9805 123.793 46.6914 124.332 47.5977C124.879 48.5039 125.207 49.5352 125.316 50.6914H121.801C121.762 50.0039 121.625 49.4219 121.391 48.9453C121.156 48.4609 120.801 48.0977 120.324 47.8555C119.855 47.6055 119.23 47.4805 118.449 47.4805C117.863 47.4805 117.352 47.5898 116.914 47.8086C116.477 48.0273 116.109 48.3594 115.812 48.8047C115.516 49.25 115.293 49.8125 115.145 50.4922C115.004 51.1641 114.934 51.9531 114.934 52.8594V54.0664C114.934 54.9492 115 55.7266 115.133 56.3984C115.266 57.0625 115.469 57.625 115.742 58.0859C116.023 58.5391 116.383 58.8828 116.82 59.1172C117.266 59.3438 117.801 59.457 118.426 59.457C119.16 59.457 119.766 59.3398 120.242 59.1055C120.719 58.8711 121.082 58.5234 121.332 58.0625C121.59 57.6016 121.742 57.0273 121.789 56.3398ZM130.953 44V62H127.566V44H130.953ZM140.586 59.1406V53.4922C140.586 53.0859 140.52 52.7383 140.387 52.4492C140.254 52.1523 140.047 51.9219 139.766 51.7578C139.492 51.5938 139.137 51.5117 138.699 51.5117C138.324 51.5117 138 51.5781 137.727 51.7109C137.453 51.8359 137.242 52.0195 137.094 52.2617C136.945 52.4961 136.871 52.7734 136.871 53.0938H133.496C133.496 52.5547 133.621 52.043 133.871 51.5586C134.121 51.0742 134.484 50.6484 134.961 50.2812C135.438 49.9062 136.004 49.6133 136.66 49.4023C137.324 49.1914 138.066 49.0859 138.887 49.0859C139.871 49.0859 140.746 49.25 141.512 49.5781C142.277 49.9062 142.879 50.3984 143.316 51.0547C143.762 51.7109 143.984 52.5312 143.984 53.5156V58.9414C143.984 59.6367 144.027 60.207 144.113 60.6523C144.199 61.0898 144.324 61.4727 144.488 61.8008V62H141.078C140.914 61.6562 140.789 61.2266 140.703 60.7109C140.625 60.1875 140.586 59.6641 140.586 59.1406ZM141.031 54.2773L141.055 56.1875H139.168C138.723 56.1875 138.336 56.2383 138.008 56.3398C137.68 56.4414 137.41 56.5859 137.199 56.7734C136.988 56.9531 136.832 57.1641 136.73 57.4062C136.637 57.6484 136.59 57.9141 136.59 58.2031C136.59 58.4922 136.656 58.7539 136.789 58.9883C136.922 59.2148 137.113 59.3945 137.363 59.5273C137.613 59.6523 137.906 59.7148 138.242 59.7148C138.75 59.7148 139.191 59.6133 139.566 59.4102C139.941 59.207 140.23 58.957 140.434 58.6602C140.645 58.3633 140.754 58.082 140.762 57.8164L141.652 59.2461C141.527 59.5664 141.355 59.8984 141.137 60.2422C140.926 60.5859 140.656 60.9102 140.328 61.2148C140 61.5117 139.605 61.7578 139.145 61.9531C138.684 62.1406 138.137 62.2344 137.504 62.2344C136.699 62.2344 135.969 62.0742 135.312 61.7539C134.664 61.4258 134.148 60.9766 133.766 60.4062C133.391 59.8281 133.203 59.1719 133.203 58.4375C133.203 57.7734 133.328 57.1836 133.578 56.668C133.828 56.1523 134.195 55.7188 134.68 55.3672C135.172 55.0078 135.785 54.7383 136.52 54.5586C137.254 54.3711 138.105 54.2773 139.074 54.2773H141.031ZM153.441 58.4961C153.441 58.2539 153.371 58.0352 153.23 57.8398C153.09 57.6445 152.828 57.4648 152.445 57.3008C152.07 57.1289 151.527 56.9727 150.816 56.832C150.176 56.6914 149.578 56.5156 149.023 56.3047C148.477 56.0859 148 55.8242 147.594 55.5195C147.195 55.2148 146.883 54.8555 146.656 54.4414C146.43 54.0195 146.316 53.5391 146.316 53C146.316 52.4688 146.43 51.9688 146.656 51.5C146.891 51.0312 147.223 50.6172 147.652 50.2578C148.09 49.8906 148.621 49.6055 149.246 49.4023C149.879 49.1914 150.59 49.0859 151.379 49.0859C152.48 49.0859 153.426 49.2617 154.215 49.6133C155.012 49.9648 155.621 50.4492 156.043 51.0664C156.473 51.6758 156.688 52.3711 156.688 53.1523H153.312C153.312 52.8242 153.242 52.5312 153.102 52.2734C152.969 52.0078 152.758 51.8008 152.469 51.6523C152.188 51.4961 151.82 51.418 151.367 51.418C150.992 51.418 150.668 51.4844 150.395 51.6172C150.121 51.7422 149.91 51.9141 149.762 52.1328C149.621 52.3438 149.551 52.5781 149.551 52.8359C149.551 53.0312 149.59 53.207 149.668 53.3633C149.754 53.5117 149.891 53.6484 150.078 53.7734C150.266 53.8984 150.508 54.0156 150.805 54.125C151.109 54.2266 151.484 54.3203 151.93 54.4062C152.844 54.5938 153.66 54.8398 154.379 55.1445C155.098 55.4414 155.668 55.8477 156.09 56.3633C156.512 56.8711 156.723 57.5391 156.723 58.3672C156.723 58.9297 156.598 59.4453 156.348 59.9141C156.098 60.3828 155.738 60.793 155.27 61.1445C154.801 61.4883 154.238 61.7578 153.582 61.9531C152.934 62.1406 152.203 62.2344 151.391 62.2344C150.211 62.2344 149.211 62.0234 148.391 61.6016C147.578 61.1797 146.961 60.6445 146.539 59.9961C146.125 59.3398 145.918 58.668 145.918 57.9805H149.117C149.133 58.4414 149.25 58.8125 149.469 59.0938C149.695 59.375 149.98 59.5781 150.324 59.7031C150.676 59.8281 151.055 59.8906 151.461 59.8906C151.898 59.8906 152.262 59.832 152.551 59.7148C152.84 59.5898 153.059 59.4258 153.207 59.2227C153.363 59.0117 153.441 58.7695 153.441 58.4961ZM165.77 58.4961C165.77 58.2539 165.699 58.0352 165.559 57.8398C165.418 57.6445 165.156 57.4648 164.773 57.3008C164.398 57.1289 163.855 56.9727 163.145 56.832C162.504 56.6914 161.906 56.5156 161.352 56.3047C160.805 56.0859 160.328 55.8242 159.922 55.5195C159.523 55.2148 159.211 54.8555 158.984 54.4414C158.758 54.0195 158.645 53.5391 158.645 53C158.645 52.4688 158.758 51.9688 158.984 51.5C159.219 51.0312 159.551 50.6172 159.98 50.2578C160.418 49.8906 160.949 49.6055 161.574 49.4023C162.207 49.1914 162.918 49.0859 163.707 49.0859C164.809 49.0859 165.754 49.2617 166.543 49.6133C167.34 49.9648 167.949 50.4492 168.371 51.0664C168.801 51.6758 169.016 52.3711 169.016 53.1523H165.641C165.641 52.8242 165.57 52.5312 165.43 52.2734C165.297 52.0078 165.086 51.8008 164.797 51.6523C164.516 51.4961 164.148 51.418 163.695 51.418C163.32 51.418 162.996 51.4844 162.723 51.6172C162.449 51.7422 162.238 51.9141 162.09 52.1328C161.949 52.3438 161.879 52.5781 161.879 52.8359C161.879 53.0312 161.918 53.207 161.996 53.3633C162.082 53.5117 162.219 53.6484 162.406 53.7734C162.594 53.8984 162.836 54.0156 163.133 54.125C163.438 54.2266 163.812 54.3203 164.258 54.4062C165.172 54.5938 165.988 54.8398 166.707 55.1445C167.426 55.4414 167.996 55.8477 168.418 56.3633C168.84 56.8711 169.051 57.5391 169.051 58.3672C169.051 58.9297 168.926 59.4453 168.676 59.9141C168.426 60.3828 168.066 60.793 167.598 61.1445C167.129 61.4883 166.566 61.7578 165.91 61.9531C165.262 62.1406 164.531 62.2344 163.719 62.2344C162.539 62.2344 161.539 62.0234 160.719 61.6016C159.906 61.1797 159.289 60.6445 158.867 59.9961C158.453 59.3398 158.246 58.668 158.246 57.9805H161.445C161.461 58.4414 161.578 58.8125 161.797 59.0938C162.023 59.375 162.309 59.5781 162.652 59.7031C163.004 59.8281 163.383 59.8906 163.789 59.8906C164.227 59.8906 164.59 59.832 164.879 59.7148C165.168 59.5898 165.387 59.4258 165.535 59.2227C165.691 59.0117 165.77 58.7695 165.77 58.4961ZM174.805 49.3203V62H171.418V49.3203H174.805ZM171.207 46.0156C171.207 45.5234 171.379 45.1172 171.723 44.7969C172.066 44.4766 172.527 44.3164 173.105 44.3164C173.676 44.3164 174.133 44.4766 174.477 44.7969C174.828 45.1172 175.004 45.5234 175.004 46.0156C175.004 46.5078 174.828 46.9141 174.477 47.2344C174.133 47.5547 173.676 47.7148 173.105 47.7148C172.527 47.7148 172.066 47.5547 171.723 47.2344C171.379 46.9141 171.207 46.5078 171.207 46.0156ZM181.895 62H178.496V48.1953C178.496 47.2344 178.684 46.4258 179.059 45.7695C179.441 45.1055 179.977 44.6055 180.664 44.2695C181.359 43.9258 182.184 43.7539 183.137 43.7539C183.449 43.7539 183.75 43.7773 184.039 43.8242C184.328 43.8633 184.609 43.9141 184.883 43.9766L184.848 46.5195C184.699 46.4805 184.543 46.4531 184.379 46.4375C184.215 46.4219 184.023 46.4141 183.805 46.4141C183.398 46.4141 183.051 46.4844 182.762 46.625C182.48 46.7578 182.266 46.957 182.117 47.2227C181.969 47.4883 181.895 47.8125 181.895 48.1953V62ZM184.426 49.3203V51.7109H176.609V49.3203H184.426ZM189.957 60.5703L193.32 49.3203H196.941L191.844 63.9102C191.734 64.2305 191.586 64.5742 191.398 64.9414C191.219 65.3086 190.973 65.6562 190.66 65.9844C190.355 66.3203 189.969 66.5938 189.5 66.8047C189.039 67.0156 188.473 67.1211 187.801 67.1211C187.48 67.1211 187.219 67.1016 187.016 67.0625C186.812 67.0234 186.57 66.9688 186.289 66.8984V64.4258C186.375 64.4258 186.465 64.4258 186.559 64.4258C186.652 64.4336 186.742 64.4375 186.828 64.4375C187.273 64.4375 187.637 64.3867 187.918 64.2852C188.199 64.1836 188.426 64.0273 188.598 63.8164C188.77 63.6133 188.906 63.3477 189.008 63.0195L189.957 60.5703ZM188.551 49.3203L191.305 58.5078L191.785 62.082L189.488 62.3281L184.93 49.3203H188.551ZM205.438 47.8555L200.797 62H197.059L203.398 44.9375H205.777L205.438 47.8555ZM209.293 62L204.641 47.8555L204.266 44.9375H206.668L213.043 62H209.293ZM209.082 55.6484V58.4023H200.07V55.6484H209.082ZM218.363 44.9375V62H214.859V44.9375H218.363Z" fill="#888888"/>
<path d="M109.93 86.0078V118H102.217V86.0078H109.93ZM119.554 86.0078V91.9624H92.813V86.0078H119.554ZM132.012 118.439C130.079 118.439 128.35 118.139 126.827 117.539C125.303 116.923 124.014 116.081 122.959 115.012C121.919 113.942 121.121 112.712 120.564 111.32C120.022 109.929 119.751 108.457 119.751 106.904V106.069C119.751 104.326 119.993 102.714 120.477 101.235C120.96 99.7407 121.678 98.437 122.63 97.3237C123.582 96.2104 124.776 95.3462 126.211 94.731C127.647 94.1011 129.317 93.7861 131.221 93.7861C132.906 93.7861 134.415 94.0571 135.748 94.5991C137.081 95.1411 138.208 95.9175 139.131 96.9282C140.069 97.939 140.779 99.1621 141.263 100.598C141.761 102.033 142.01 103.645 142.01 105.432V108.442H122.586V103.806H134.781V103.234C134.795 102.443 134.656 101.77 134.363 101.213C134.085 100.656 133.675 100.231 133.133 99.9385C132.591 99.6455 131.932 99.499 131.155 99.499C130.35 99.499 129.683 99.6748 129.156 100.026C128.643 100.378 128.24 100.861 127.947 101.477C127.669 102.077 127.471 102.773 127.354 103.564C127.237 104.355 127.178 105.19 127.178 106.069V106.904C127.178 107.783 127.295 108.581 127.53 109.299C127.779 110.017 128.13 110.632 128.584 111.145C129.053 111.643 129.61 112.031 130.254 112.309C130.914 112.587 131.661 112.727 132.496 112.727C133.506 112.727 134.502 112.536 135.484 112.155C136.465 111.774 137.308 111.145 138.011 110.266L141.373 114.265C140.889 114.953 140.201 115.62 139.307 116.264C138.428 116.909 137.374 117.436 136.143 117.846C134.913 118.242 133.536 118.439 132.012 118.439ZM155.062 112.727C155.75 112.727 156.336 112.602 156.819 112.353C157.317 112.089 157.691 111.723 157.94 111.254C158.204 110.771 158.328 110.192 158.313 109.519H165.279C165.293 111.306 164.854 112.873 163.96 114.221C163.082 115.554 161.88 116.594 160.357 117.341C158.848 118.073 157.142 118.439 155.237 118.439C153.377 118.439 151.751 118.139 150.359 117.539C148.968 116.923 147.803 116.074 146.866 114.99C145.943 113.891 145.247 112.609 144.778 111.145C144.324 109.68 144.097 108.09 144.097 106.376V105.871C144.097 104.157 144.324 102.568 144.778 101.103C145.247 99.6235 145.943 98.3418 146.866 97.2578C147.803 96.1592 148.96 95.3096 150.337 94.709C151.729 94.0938 153.348 93.7861 155.193 93.7861C157.171 93.7861 158.914 94.1597 160.423 94.9067C161.946 95.6538 163.14 96.7378 164.004 98.1587C164.869 99.5796 165.293 101.301 165.279 103.322H158.313C158.328 102.604 158.218 101.96 157.984 101.389C157.75 100.817 157.383 100.363 156.885 100.026C156.402 99.6748 155.779 99.499 155.018 99.499C154.256 99.499 153.641 99.6675 153.172 100.004C152.703 100.341 152.344 100.81 152.095 101.411C151.861 101.997 151.7 102.67 151.612 103.432C151.539 104.194 151.502 105.007 151.502 105.871V106.376C151.502 107.255 151.539 108.083 151.612 108.859C151.7 109.621 151.868 110.295 152.117 110.881C152.366 111.452 152.725 111.906 153.194 112.243C153.663 112.565 154.285 112.727 155.062 112.727ZM175.694 84.25V118H168.289V84.25H175.694ZM174.815 105.3L173.079 105.344C173.079 103.674 173.284 102.136 173.694 100.729C174.104 99.3232 174.69 98.1001 175.452 97.0601C176.214 96.02 177.129 95.2144 178.199 94.6431C179.268 94.0718 180.455 93.7861 181.758 93.7861C182.93 93.7861 184 93.9546 184.966 94.2915C185.948 94.6284 186.79 95.1704 187.493 95.9175C188.211 96.6646 188.76 97.6387 189.141 98.8398C189.537 100.041 189.734 101.506 189.734 103.234V118H182.286V103.19C182.286 102.224 182.146 101.477 181.868 100.949C181.604 100.407 181.224 100.034 180.726 99.8286C180.228 99.6089 179.62 99.499 178.902 99.499C178.038 99.499 177.334 99.6455 176.792 99.9385C176.25 100.231 175.833 100.642 175.54 101.169C175.262 101.682 175.071 102.29 174.969 102.993C174.866 103.696 174.815 104.465 174.815 105.3ZM221.88 109.497C221.88 108.999 221.807 108.552 221.661 108.156C221.514 107.746 221.243 107.365 220.848 107.014C220.452 106.662 219.881 106.311 219.134 105.959C218.401 105.593 217.435 105.212 216.233 104.816C214.827 104.348 213.472 103.82 212.168 103.234C210.865 102.634 209.7 101.938 208.675 101.147C207.649 100.341 206.836 99.4038 206.236 98.3345C205.635 97.2505 205.335 95.9907 205.335 94.5552C205.335 93.1782 205.643 91.9404 206.258 90.8418C206.873 89.7285 207.73 88.7837 208.829 88.0073C209.942 87.2163 211.246 86.6157 212.74 86.2056C214.234 85.7808 215.867 85.5684 217.64 85.5684C219.983 85.5684 222.049 85.9785 223.836 86.7988C225.638 87.6045 227.044 88.7544 228.055 90.2485C229.08 91.728 229.593 93.4785 229.593 95.5H221.924C221.924 94.6943 221.756 93.9839 221.419 93.3687C221.097 92.7534 220.606 92.27 219.947 91.9185C219.288 91.5669 218.46 91.3911 217.464 91.3911C216.497 91.3911 215.684 91.5376 215.025 91.8306C214.366 92.1235 213.868 92.519 213.531 93.0171C213.194 93.5005 213.025 94.0352 213.025 94.6211C213.025 95.1045 213.157 95.5439 213.421 95.9395C213.699 96.3203 214.087 96.6792 214.585 97.0161C215.098 97.353 215.713 97.6753 216.431 97.9829C217.164 98.2905 217.984 98.5908 218.892 98.8838C220.591 99.4258 222.1 100.034 223.418 100.708C224.751 101.367 225.872 102.121 226.78 102.971C227.703 103.806 228.399 104.758 228.868 105.827C229.351 106.896 229.593 108.105 229.593 109.453C229.593 110.888 229.314 112.163 228.758 113.276C228.201 114.389 227.403 115.334 226.363 116.11C225.323 116.872 224.078 117.451 222.627 117.846C221.177 118.242 219.559 118.439 217.771 118.439C216.131 118.439 214.512 118.234 212.916 117.824C211.333 117.399 209.898 116.755 208.609 115.891C207.32 115.012 206.287 113.891 205.511 112.529C204.749 111.152 204.368 109.519 204.368 107.629H212.103C212.103 108.566 212.227 109.357 212.476 110.002C212.725 110.646 213.091 111.167 213.575 111.562C214.058 111.943 214.651 112.221 215.354 112.397C216.058 112.558 216.863 112.639 217.771 112.639C218.753 112.639 219.544 112.5 220.145 112.221C220.745 111.928 221.185 111.547 221.463 111.079C221.741 110.595 221.88 110.068 221.88 109.497ZM245.743 94.2256V99.3672H231.417V94.2256H245.743ZM234.427 88.3149H241.832V110.244C241.832 110.874 241.905 111.364 242.051 111.716C242.198 112.053 242.447 112.294 242.798 112.441C243.165 112.573 243.648 112.639 244.249 112.639C244.673 112.639 245.025 112.631 245.303 112.617C245.582 112.587 245.845 112.551 246.094 112.507V117.802C245.464 118.007 244.805 118.161 244.117 118.264C243.428 118.381 242.696 118.439 241.919 118.439C240.337 118.439 238.982 118.19 237.854 117.692C236.741 117.194 235.892 116.411 235.306 115.341C234.72 114.272 234.427 112.88 234.427 111.167V88.3149ZM261.036 112.023V102.224C261.036 101.55 260.94 100.971 260.75 100.488C260.56 100.004 260.259 99.6309 259.849 99.3672C259.439 99.0889 258.89 98.9497 258.201 98.9497C257.645 98.9497 257.168 99.0449 256.773 99.2354C256.377 99.4258 256.077 99.7114 255.872 100.092C255.667 100.473 255.564 100.957 255.564 101.542H248.16C248.16 100.444 248.401 99.4258 248.885 98.4883C249.383 97.5361 250.086 96.7085 250.994 96.0054C251.917 95.3022 253.016 94.7603 254.29 94.3794C255.579 93.9839 257.015 93.7861 258.597 93.7861C260.486 93.7861 262.171 94.1011 263.65 94.731C265.145 95.3608 266.324 96.3057 267.188 97.5654C268.052 98.8105 268.484 100.378 268.484 102.268V112.001C268.484 113.554 268.572 114.733 268.748 115.539C268.924 116.33 269.173 117.026 269.495 117.626V118H262.068C261.717 117.268 261.453 116.374 261.277 115.319C261.116 114.25 261.036 113.151 261.036 112.023ZM261.937 103.476L261.98 107.431H258.707C258.018 107.431 257.432 107.526 256.949 107.717C256.48 107.907 256.099 108.171 255.806 108.508C255.528 108.83 255.323 109.196 255.191 109.606C255.074 110.017 255.015 110.449 255.015 110.903C255.015 111.342 255.118 111.738 255.323 112.089C255.542 112.426 255.835 112.69 256.202 112.88C256.568 113.071 256.978 113.166 257.432 113.166C258.252 113.166 258.948 113.012 259.52 112.705C260.105 112.382 260.552 111.994 260.86 111.54C261.167 111.086 261.321 110.661 261.321 110.266L262.947 113.298C262.654 113.884 262.317 114.477 261.937 115.078C261.57 115.678 261.109 116.235 260.552 116.748C260.01 117.246 259.344 117.656 258.553 117.978C257.762 118.286 256.802 118.439 255.674 118.439C254.209 118.439 252.862 118.139 251.631 117.539C250.416 116.938 249.441 116.103 248.709 115.034C247.977 113.95 247.61 112.705 247.61 111.298C247.61 110.068 247.83 108.969 248.27 108.002C248.724 107.036 249.405 106.215 250.313 105.542C251.221 104.868 252.378 104.355 253.785 104.003C255.191 103.652 256.846 103.476 258.75 103.476H261.937ZM282.635 112.727C283.323 112.727 283.909 112.602 284.393 112.353C284.891 112.089 285.264 111.723 285.513 111.254C285.777 110.771 285.901 110.192 285.887 109.519H292.852C292.867 111.306 292.427 112.873 291.534 114.221C290.655 115.554 289.454 116.594 287.93 117.341C286.421 118.073 284.715 118.439 282.811 118.439C280.95 118.439 279.324 118.139 277.933 117.539C276.541 116.923 275.376 116.074 274.439 114.99C273.516 113.891 272.82 112.609 272.352 111.145C271.897 109.68 271.67 108.09 271.67 106.376V105.871C271.67 104.157 271.897 102.568 272.352 101.103C272.82 99.6235 273.516 98.3418 274.439 97.2578C275.376 96.1592 276.534 95.3096 277.911 94.709C279.302 94.0938 280.921 93.7861 282.767 93.7861C284.744 93.7861 286.487 94.1597 287.996 94.9067C289.52 95.6538 290.713 96.7378 291.578 98.1587C292.442 99.5796 292.867 101.301 292.852 103.322H285.887C285.901 102.604 285.792 101.96 285.557 101.389C285.323 100.817 284.957 100.363 284.458 100.026C283.975 99.6748 283.353 99.499 282.591 99.499C281.829 99.499 281.214 99.6675 280.745 100.004C280.276 100.341 279.917 100.81 279.668 101.411C279.434 101.997 279.273 102.67 279.185 103.432C279.112 104.194 279.075 105.007 279.075 105.871V106.376C279.075 107.255 279.112 108.083 279.185 108.859C279.273 109.621 279.441 110.295 279.69 110.881C279.939 111.452 280.298 111.906 280.767 112.243C281.236 112.565 281.858 112.727 282.635 112.727ZM303.487 84.228V118H296.082V84.228H303.487ZM318.692 94.2256L308.365 106.333L302.959 111.738L299.729 107.036L304.234 101.169L309.815 94.2256H318.692ZM310.76 118L304.41 107.167L309.881 103.278L319.241 118H310.76Z" fill="#424241"/>
<path d="M1363 15C1363 6.71573 1356.28 0 1348 0H1134V167H1348C1356.28 167 1363 160.284 1363 152V15Z" fill="#E24C3F"/>
<path fill-rule="evenodd" clip-rule="evenodd" d="M1218.5 55C1218.37 55 1218.24 55.0527 1218.15 55.1464C1218.05 55.2402 1218 55.3674 1218 55.5V111.5C1218 111.633 1218.05 111.76 1218.15 111.854C1218.24 111.947 1218.37 112 1218.5 112H1278C1278.13 112 1278.26 111.947 1278.35 111.854C1278.45 111.76 1278.5 111.633 1278.5 111.5V66C1278.5 65.8674 1278.45 65.7402 1278.35 65.6464C1278.26 65.5527 1278.13 65.5 1278 65.5H1248.25C1247.36 65.5 1246.52 65.1045 1245.95 64.4206L1238.09 55H1218.5ZM1213.9 50.9038C1215.12 49.6848 1216.78 49 1218.5 49H1239.5C1240.39 49 1241.23 49.3955 1241.8 50.0794L1249.66 59.5H1278C1279.72 59.5 1281.38 60.1848 1282.6 61.4038C1283.82 62.6228 1284.5 64.2761 1284.5 66V111.5C1284.5 113.224 1283.82 114.877 1282.6 116.096C1281.38 117.315 1279.72 118 1278 118H1218.5C1216.78 118 1215.12 117.315 1213.9 116.096C1212.68 114.877 1212 113.224 1212 111.5V55.5C1212 53.7761 1212.68 52.1228 1213.9 50.9038Z" fill="white"/>
<path fill-rule="evenodd" clip-rule="evenodd" d="M1243.72 77.5251C1245.09 78.892 1245.09 81.108 1243.72 82.4749L1237.45 88.75L1243.72 95.0251C1245.09 96.392 1245.09 98.608 1243.72 99.9749C1242.36 101.342 1240.14 101.342 1238.78 99.9749L1230.03 91.2249C1228.66 89.858 1228.66 87.642 1230.03 86.2751L1238.78 77.5251C1240.14 76.1583 1242.36 76.1583 1243.72 77.5251Z" fill="white"/>
<path fill-rule="evenodd" clip-rule="evenodd" d="M1252.03 99.9749C1250.66 98.608 1250.66 96.392 1252.03 95.0251L1258.3 88.75L1252.03 82.4749C1250.66 81.108 1250.66 78.892 1252.03 77.5251C1253.39 76.1583 1255.61 76.1583 1256.97 77.5251L1265.72 86.2751C1267.09 87.642 1267.09 89.858 1265.72 91.2249L1256.97 99.9749C1255.61 101.342 1253.39 101.342 1252.03 99.9749Z" fill="white"/>
</svg>
