<svg width="1363" height="167" viewBox="0 0 1363 167" fill="none" xmlns="http://www.w3.org/2000/svg">
<rect width="1363" height="167" rx="15" fill="#F0F0F0"/>
<path d="M0 15C0 6.71573 6.71573 0 15 0H37V167H15C6.71573 167 0 160.284 0 152V15Z" fill="#424241"/>
<path d="M100.906 54.9219L93.3945 52.2383V49.0859L103.602 53.375V55.6367L100.906 54.9219ZM93.3945 57.1719L100.918 54.4297L103.602 53.7852V56.0352L93.3945 60.3242V57.1719ZM121.789 56.3398H125.293C125.223 57.4883 124.906 58.5078 124.344 59.3984C123.789 60.2891 123.012 60.9844 122.012 61.4844C121.02 61.9844 119.824 62.2344 118.426 62.2344C117.332 62.2344 116.352 62.0469 115.484 61.6719C114.617 61.2891 113.875 60.7422 113.258 60.0312C112.648 59.3203 112.184 58.4609 111.863 57.4531C111.543 56.4453 111.383 55.3164 111.383 54.0664V52.8828C111.383 51.6328 111.547 50.5039 111.875 49.4961C112.211 48.4805 112.688 47.6172 113.305 46.9062C113.93 46.1953 114.676 45.6484 115.543 45.2656C116.41 44.8828 117.379 44.6914 118.449 44.6914C119.871 44.6914 121.07 44.9492 122.047 45.4648C123.031 45.9805 123.793 46.6914 124.332 47.5977C124.879 48.5039 125.207 49.5352 125.316 50.6914H121.801C121.762 50.0039 121.625 49.4219 121.391 48.9453C121.156 48.4609 120.801 48.0977 120.324 47.8555C119.855 47.6055 119.23 47.4805 118.449 47.4805C117.863 47.4805 117.352 47.5898 116.914 47.8086C116.477 48.0273 116.109 48.3594 115.812 48.8047C115.516 49.25 115.293 49.8125 115.145 50.4922C115.004 51.1641 114.934 51.9531 114.934 52.8594V54.0664C114.934 54.9492 115 55.7266 115.133 56.3984C115.266 57.0625 115.469 57.625 115.742 58.0859C116.023 58.5391 116.383 58.8828 116.82 59.1172C117.266 59.3438 117.801 59.457 118.426 59.457C119.16 59.457 119.766 59.3398 120.242 59.1055C120.719 58.8711 121.082 58.5234 121.332 58.0625C121.59 57.6016 121.742 57.0273 121.789 56.3398ZM130.953 44V62H127.566V44H130.953ZM140.586 59.1406V53.4922C140.586 53.0859 140.52 52.7383 140.387 52.4492C140.254 52.1523 140.047 51.9219 139.766 51.7578C139.492 51.5938 139.137 51.5117 138.699 51.5117C138.324 51.5117 138 51.5781 137.727 51.7109C137.453 51.8359 137.242 52.0195 137.094 52.2617C136.945 52.4961 136.871 52.7734 136.871 53.0938H133.496C133.496 52.5547 133.621 52.043 133.871 51.5586C134.121 51.0742 134.484 50.6484 134.961 50.2812C135.438 49.9062 136.004 49.6133 136.66 49.4023C137.324 49.1914 138.066 49.0859 138.887 49.0859C139.871 49.0859 140.746 49.25 141.512 49.5781C142.277 49.9062 142.879 50.3984 143.316 51.0547C143.762 51.7109 143.984 52.5312 143.984 53.5156V58.9414C143.984 59.6367 144.027 60.207 144.113 60.6523C144.199 61.0898 144.324 61.4727 144.488 61.8008V62H141.078C140.914 61.6562 140.789 61.2266 140.703 60.7109C140.625 60.1875 140.586 59.6641 140.586 59.1406ZM141.031 54.2773L141.055 56.1875H139.168C138.723 56.1875 138.336 56.2383 138.008 56.3398C137.68 56.4414 137.41 56.5859 137.199 56.7734C136.988 56.9531 136.832 57.1641 136.73 57.4062C136.637 57.6484 136.59 57.9141 136.59 58.2031C136.59 58.4922 136.656 58.7539 136.789 58.9883C136.922 59.2148 137.113 59.3945 137.363 59.5273C137.613 59.6523 137.906 59.7148 138.242 59.7148C138.75 59.7148 139.191 59.6133 139.566 59.4102C139.941 59.207 140.23 58.957 140.434 58.6602C140.645 58.3633 140.754 58.082 140.762 57.8164L141.652 59.2461C141.527 59.5664 141.355 59.8984 141.137 60.2422C140.926 60.5859 140.656 60.9102 140.328 61.2148C140 61.5117 139.605 61.7578 139.145 61.9531C138.684 62.1406 138.137 62.2344 137.504 62.2344C136.699 62.2344 135.969 62.0742 135.312 61.7539C134.664 61.4258 134.148 60.9766 133.766 60.4062C133.391 59.8281 133.203 59.1719 133.203 58.4375C133.203 57.7734 133.328 57.1836 133.578 56.668C133.828 56.1523 134.195 55.7188 134.68 55.3672C135.172 55.0078 135.785 54.7383 136.52 54.5586C137.254 54.3711 138.105 54.2773 139.074 54.2773H141.031ZM153.441 58.4961C153.441 58.2539 153.371 58.0352 153.23 57.8398C153.09 57.6445 152.828 57.4648 152.445 57.3008C152.07 57.1289 151.527 56.9727 150.816 56.832C150.176 56.6914 149.578 56.5156 149.023 56.3047C148.477 56.0859 148 55.8242 147.594 55.5195C147.195 55.2148 146.883 54.8555 146.656 54.4414C146.43 54.0195 146.316 53.5391 146.316 53C146.316 52.4688 146.43 51.9688 146.656 51.5C146.891 51.0312 147.223 50.6172 147.652 50.2578C148.09 49.8906 148.621 49.6055 149.246 49.4023C149.879 49.1914 150.59 49.0859 151.379 49.0859C152.48 49.0859 153.426 49.2617 154.215 49.6133C155.012 49.9648 155.621 50.4492 156.043 51.0664C156.473 51.6758 156.688 52.3711 156.688 53.1523H153.312C153.312 52.8242 153.242 52.5312 153.102 52.2734C152.969 52.0078 152.758 51.8008 152.469 51.6523C152.188 51.4961 151.82 51.418 151.367 51.418C150.992 51.418 150.668 51.4844 150.395 51.6172C150.121 51.7422 149.91 51.9141 149.762 52.1328C149.621 52.3438 149.551 52.5781 149.551 52.8359C149.551 53.0312 149.59 53.207 149.668 53.3633C149.754 53.5117 149.891 53.6484 150.078 53.7734C150.266 53.8984 150.508 54.0156 150.805 54.125C151.109 54.2266 151.484 54.3203 151.93 54.4062C152.844 54.5938 153.66 54.8398 154.379 55.1445C155.098 55.4414 155.668 55.8477 156.09 56.3633C156.512 56.8711 156.723 57.5391 156.723 58.3672C156.723 58.9297 156.598 59.4453 156.348 59.9141C156.098 60.3828 155.738 60.793 155.27 61.1445C154.801 61.4883 154.238 61.7578 153.582 61.9531C152.934 62.1406 152.203 62.2344 151.391 62.2344C150.211 62.2344 149.211 62.0234 148.391 61.6016C147.578 61.1797 146.961 60.6445 146.539 59.9961C146.125 59.3398 145.918 58.668 145.918 57.9805H149.117C149.133 58.4414 149.25 58.8125 149.469 59.0938C149.695 59.375 149.98 59.5781 150.324 59.7031C150.676 59.8281 151.055 59.8906 151.461 59.8906C151.898 59.8906 152.262 59.832 152.551 59.7148C152.84 59.5898 153.059 59.4258 153.207 59.2227C153.363 59.0117 153.441 58.7695 153.441 58.4961ZM165.77 58.4961C165.77 58.2539 165.699 58.0352 165.559 57.8398C165.418 57.6445 165.156 57.4648 164.773 57.3008C164.398 57.1289 163.855 56.9727 163.145 56.832C162.504 56.6914 161.906 56.5156 161.352 56.3047C160.805 56.0859 160.328 55.8242 159.922 55.5195C159.523 55.2148 159.211 54.8555 158.984 54.4414C158.758 54.0195 158.645 53.5391 158.645 53C158.645 52.4688 158.758 51.9688 158.984 51.5C159.219 51.0312 159.551 50.6172 159.98 50.2578C160.418 49.8906 160.949 49.6055 161.574 49.4023C162.207 49.1914 162.918 49.0859 163.707 49.0859C164.809 49.0859 165.754 49.2617 166.543 49.6133C167.34 49.9648 167.949 50.4492 168.371 51.0664C168.801 51.6758 169.016 52.3711 169.016 53.1523H165.641C165.641 52.8242 165.57 52.5312 165.43 52.2734C165.297 52.0078 165.086 51.8008 164.797 51.6523C164.516 51.4961 164.148 51.418 163.695 51.418C163.32 51.418 162.996 51.4844 162.723 51.6172C162.449 51.7422 162.238 51.9141 162.09 52.1328C161.949 52.3438 161.879 52.5781 161.879 52.8359C161.879 53.0312 161.918 53.207 161.996 53.3633C162.082 53.5117 162.219 53.6484 162.406 53.7734C162.594 53.8984 162.836 54.0156 163.133 54.125C163.438 54.2266 163.812 54.3203 164.258 54.4062C165.172 54.5938 165.988 54.8398 166.707 55.1445C167.426 55.4414 167.996 55.8477 168.418 56.3633C168.84 56.8711 169.051 57.5391 169.051 58.3672C169.051 58.9297 168.926 59.4453 168.676 59.9141C168.426 60.3828 168.066 60.793 167.598 61.1445C167.129 61.4883 166.566 61.7578 165.91 61.9531C165.262 62.1406 164.531 62.2344 163.719 62.2344C162.539 62.2344 161.539 62.0234 160.719 61.6016C159.906 61.1797 159.289 60.6445 158.867 59.9961C158.453 59.3398 158.246 58.668 158.246 57.9805H161.445C161.461 58.4414 161.578 58.8125 161.797 59.0938C162.023 59.375 162.309 59.5781 162.652 59.7031C163.004 59.8281 163.383 59.8906 163.789 59.8906C164.227 59.8906 164.59 59.832 164.879 59.7148C165.168 59.5898 165.387 59.4258 165.535 59.2227C165.691 59.0117 165.77 58.7695 165.77 58.4961ZM174.805 49.3203V62H171.418V49.3203H174.805ZM171.207 46.0156C171.207 45.5234 171.379 45.1172 171.723 44.7969C172.066 44.4766 172.527 44.3164 173.105 44.3164C173.676 44.3164 174.133 44.4766 174.477 44.7969C174.828 45.1172 175.004 45.5234 175.004 46.0156C175.004 46.5078 174.828 46.9141 174.477 47.2344C174.133 47.5547 173.676 47.7148 173.105 47.7148C172.527 47.7148 172.066 47.5547 171.723 47.2344C171.379 46.9141 171.207 46.5078 171.207 46.0156ZM181.895 62H178.496V48.1953C178.496 47.2344 178.684 46.4258 179.059 45.7695C179.441 45.1055 179.977 44.6055 180.664 44.2695C181.359 43.9258 182.184 43.7539 183.137 43.7539C183.449 43.7539 183.75 43.7773 184.039 43.8242C184.328 43.8633 184.609 43.9141 184.883 43.9766L184.848 46.5195C184.699 46.4805 184.543 46.4531 184.379 46.4375C184.215 46.4219 184.023 46.4141 183.805 46.4141C183.398 46.4141 183.051 46.4844 182.762 46.625C182.48 46.7578 182.266 46.957 182.117 47.2227C181.969 47.4883 181.895 47.8125 181.895 48.1953V62ZM184.426 49.3203V51.7109H176.609V49.3203H184.426ZM189.957 60.5703L193.32 49.3203H196.941L191.844 63.9102C191.734 64.2305 191.586 64.5742 191.398 64.9414C191.219 65.3086 190.973 65.6562 190.66 65.9844C190.355 66.3203 189.969 66.5938 189.5 66.8047C189.039 67.0156 188.473 67.1211 187.801 67.1211C187.48 67.1211 187.219 67.1016 187.016 67.0625C186.812 67.0234 186.57 66.9688 186.289 66.8984V64.4258C186.375 64.4258 186.465 64.4258 186.559 64.4258C186.652 64.4336 186.742 64.4375 186.828 64.4375C187.273 64.4375 187.637 64.3867 187.918 64.2852C188.199 64.1836 188.426 64.0273 188.598 63.8164C188.77 63.6133 188.906 63.3477 189.008 63.0195L189.957 60.5703ZM188.551 49.3203L191.305 58.5078L191.785 62.082L189.488 62.3281L184.93 49.3203H188.551ZM205.438 47.8555L200.797 62H197.059L203.398 44.9375H205.777L205.438 47.8555ZM209.293 62L204.641 47.8555L204.266 44.9375H206.668L213.043 62H209.293ZM209.082 55.6484V58.4023H200.07V55.6484H209.082ZM218.363 44.9375V62H214.859V44.9375H218.363Z" fill="#888888"/>
<path d="M115.994 98.708V104.641H99.5806V98.708H115.994ZM102.151 86.0078V118H94.439V86.0078H102.151ZM121.18 86.0078V118H113.489V86.0078H121.18ZM124.805 106.354V105.893C124.805 104.15 125.054 102.546 125.552 101.081C126.05 99.6016 126.783 98.3198 127.75 97.2358C128.716 96.1519 129.91 95.3096 131.331 94.709C132.752 94.0938 134.393 93.7861 136.253 93.7861C138.128 93.7861 139.776 94.0938 141.197 94.709C142.632 95.3096 143.833 96.1519 144.8 97.2358C145.767 98.3198 146.5 99.6016 146.998 101.081C147.496 102.546 147.745 104.15 147.745 105.893V106.354C147.745 108.083 147.496 109.687 146.998 111.167C146.5 112.631 145.767 113.913 144.8 115.012C143.833 116.096 142.64 116.938 141.219 117.539C139.798 118.139 138.157 118.439 136.297 118.439C134.437 118.439 132.789 118.139 131.353 117.539C129.917 116.938 128.716 116.096 127.75 115.012C126.783 113.913 126.05 112.631 125.552 111.167C125.054 109.687 124.805 108.083 124.805 106.354ZM132.21 105.893V106.354C132.21 107.248 132.276 108.083 132.408 108.859C132.54 109.636 132.759 110.317 133.067 110.903C133.375 111.474 133.792 111.921 134.319 112.243C134.847 112.565 135.506 112.727 136.297 112.727C137.073 112.727 137.718 112.565 138.23 112.243C138.758 111.921 139.175 111.474 139.483 110.903C139.791 110.317 140.01 109.636 140.142 108.859C140.274 108.083 140.34 107.248 140.34 106.354V105.893C140.34 105.029 140.274 104.216 140.142 103.454C140.01 102.678 139.791 101.997 139.483 101.411C139.175 100.81 138.758 100.341 138.23 100.004C137.703 99.6675 137.044 99.499 136.253 99.499C135.477 99.499 134.825 99.6675 134.297 100.004C133.785 100.341 133.375 100.81 133.067 101.411C132.759 101.997 132.54 102.678 132.408 103.454C132.276 104.216 132.21 105.029 132.21 105.893ZM158.27 110.925L162.664 94.2256H167.3L165.652 102.597L161.302 118H157.588L158.27 110.925ZM156.534 94.2256L159.258 110.793L159.566 118H155.062L149.437 94.2256H156.534ZM171.211 110.441L173.958 94.2256H181.055L175.474 118H170.97L171.211 110.441ZM167.828 94.2256L172.266 110.881L172.947 118H169.19L164.927 102.641L163.345 94.2256H167.828ZM209.466 86.0078V118H201.753V86.0078H209.466ZM219.09 86.0078V91.9624H192.349V86.0078H219.09ZM216.475 106.354V105.893C216.475 104.15 216.724 102.546 217.222 101.081C217.72 99.6016 218.453 98.3198 219.419 97.2358C220.386 96.1519 221.58 95.3096 223.001 94.709C224.422 94.0938 226.062 93.7861 227.923 93.7861C229.798 93.7861 231.446 94.0938 232.867 94.709C234.302 95.3096 235.503 96.1519 236.47 97.2358C237.437 98.3198 238.169 99.6016 238.667 101.081C239.166 102.546 239.415 104.15 239.415 105.893V106.354C239.415 108.083 239.166 109.687 238.667 111.167C238.169 112.631 237.437 113.913 236.47 115.012C235.503 116.096 234.31 116.938 232.889 117.539C231.468 118.139 229.827 118.439 227.967 118.439C226.106 118.439 224.458 118.139 223.023 117.539C221.587 116.938 220.386 116.096 219.419 115.012C218.453 113.913 217.72 112.631 217.222 111.167C216.724 109.687 216.475 108.083 216.475 106.354ZM223.88 105.893V106.354C223.88 107.248 223.946 108.083 224.078 108.859C224.209 109.636 224.429 110.317 224.737 110.903C225.044 111.474 225.462 111.921 225.989 112.243C226.517 112.565 227.176 112.727 227.967 112.727C228.743 112.727 229.388 112.565 229.9 112.243C230.428 111.921 230.845 111.474 231.153 110.903C231.46 110.317 231.68 109.636 231.812 108.859C231.944 108.083 232.01 107.248 232.01 106.354V105.893C232.01 105.029 231.944 104.216 231.812 103.454C231.68 102.678 231.46 101.997 231.153 101.411C230.845 100.81 230.428 100.341 229.9 100.004C229.373 99.6675 228.714 99.499 227.923 99.499C227.146 99.499 226.495 99.6675 225.967 100.004C225.455 100.341 225.044 100.81 224.737 101.411C224.429 101.997 224.209 102.678 224.078 103.454C223.946 104.216 223.88 105.029 223.88 105.893ZM254.268 86.0078H266.858C269.319 86.0078 271.458 86.374 273.274 87.1064C275.091 87.8389 276.49 88.9229 277.471 90.3584C278.467 91.7939 278.965 93.5664 278.965 95.6758C278.965 97.5068 278.68 99.0376 278.108 100.268C277.537 101.499 276.739 102.517 275.713 103.322C274.703 104.113 273.523 104.765 272.176 105.278L269.649 106.706H259.08L259.036 100.751H266.858C267.84 100.751 268.653 100.576 269.297 100.224C269.942 99.8726 270.425 99.3745 270.748 98.73C271.084 98.0708 271.253 97.2871 271.253 96.3789C271.253 95.4561 271.084 94.665 270.748 94.0059C270.411 93.3467 269.913 92.8413 269.253 92.4897C268.609 92.1382 267.811 91.9624 266.858 91.9624H261.98V118H254.268V86.0078ZM271.78 118L264.705 103.85L272.879 103.806L280.042 117.67V118H271.78ZM297.159 112.221V94.2256H304.585V118H297.642L297.159 112.221ZM297.862 107.387L299.795 107.343C299.795 108.94 299.605 110.419 299.224 111.782C298.843 113.129 298.279 114.301 297.532 115.297C296.8 116.293 295.892 117.07 294.808 117.626C293.738 118.168 292.5 118.439 291.094 118.439C289.922 118.439 288.846 118.278 287.864 117.956C286.897 117.619 286.062 117.099 285.359 116.396C284.656 115.678 284.107 114.763 283.711 113.649C283.331 112.521 283.14 111.174 283.14 109.606V94.2256H290.545V109.65C290.545 110.178 290.611 110.632 290.743 111.013C290.875 111.394 291.065 111.716 291.314 111.979C291.563 112.229 291.871 112.419 292.237 112.551C292.618 112.668 293.05 112.727 293.533 112.727C294.646 112.727 295.518 112.492 296.148 112.023C296.778 111.555 297.217 110.917 297.466 110.112C297.73 109.306 297.862 108.398 297.862 107.387ZM315.945 99.3013V118H308.541V94.2256H315.484L315.945 99.3013ZM315.066 105.3L313.331 105.344C313.331 103.527 313.55 101.909 313.99 100.488C314.429 99.0522 315.052 97.8364 315.857 96.8403C316.663 95.8442 317.623 95.0898 318.736 94.5771C319.864 94.0498 321.116 93.7861 322.493 93.7861C323.592 93.7861 324.595 93.9473 325.503 94.2695C326.426 94.5918 327.217 95.1118 327.876 95.8296C328.55 96.5474 329.063 97.4995 329.415 98.686C329.781 99.8579 329.964 101.308 329.964 103.037V118H322.515V103.015C322.515 102.062 322.383 101.337 322.12 100.839C321.856 100.327 321.475 99.9751 320.977 99.7847C320.479 99.5942 319.871 99.499 319.153 99.499C318.392 99.499 317.747 99.6455 317.22 99.9385C316.692 100.231 316.268 100.642 315.945 101.169C315.638 101.682 315.411 102.29 315.264 102.993C315.132 103.696 315.066 104.465 315.066 105.3ZM345.85 107.871H339.544C339.544 106.582 339.632 105.446 339.808 104.465C339.998 103.469 340.32 102.575 340.774 101.784C341.229 100.993 341.844 100.261 342.62 99.5869C343.309 99.0156 343.902 98.4663 344.4 97.939C344.898 97.4116 345.279 96.877 345.542 96.335C345.806 95.793 345.938 95.2144 345.938 94.5991C345.938 93.8374 345.828 93.2148 345.608 92.7314C345.403 92.248 345.088 91.8892 344.664 91.6548C344.253 91.4058 343.733 91.2812 343.104 91.2812C342.591 91.2812 342.107 91.4058 341.653 91.6548C341.214 91.9038 340.855 92.292 340.577 92.8193C340.298 93.332 340.145 94.0132 340.115 94.8628H332.667C332.71 92.6802 333.194 90.9077 334.117 89.5454C335.054 88.1685 336.299 87.165 337.852 86.5352C339.419 85.8906 341.17 85.5684 343.104 85.5684C345.242 85.5684 347.081 85.8979 348.619 86.5571C350.157 87.2163 351.336 88.1978 352.156 89.5015C352.977 90.7905 353.387 92.3799 353.387 94.2695C353.387 95.5293 353.145 96.6279 352.662 97.5654C352.193 98.4883 351.556 99.3525 350.75 100.158C349.959 100.949 349.073 101.799 348.091 102.707C347.242 103.454 346.663 104.216 346.355 104.992C346.048 105.754 345.879 106.713 345.85 107.871ZM338.643 114.55C338.643 113.496 339.024 112.617 339.786 111.914C340.547 111.196 341.536 110.837 342.752 110.837C343.968 110.837 344.957 111.196 345.718 111.914C346.48 112.617 346.861 113.496 346.861 114.55C346.861 115.605 346.48 116.491 345.718 117.209C344.957 117.912 343.968 118.264 342.752 118.264C341.536 118.264 340.547 117.912 339.786 117.209C339.024 116.491 338.643 115.605 338.643 114.55Z" fill="#424241"/>
<path d="M1363 15C1363 6.71573 1356.28 0 1348 0H1134V167H1348C1356.28 167 1363 160.284 1363 152V15Z" fill="#E24C3F"/>
<path d="M1260.77 81.3079C1263.96 81.3079 1267.09 82.2553 1269.74 84.0303C1272.4 85.8053 1274.47 88.3282 1275.69 91.2799C1276.92 94.2316 1277.24 97.4796 1276.61 100.613C1275.99 103.747 1274.45 106.625 1272.19 108.884C1269.93 111.143 1267.05 112.682 1263.92 113.305C1260.79 113.928 1257.54 113.608 1254.59 112.386C1251.64 111.163 1249.11 109.093 1247.34 106.436C1245.56 103.78 1244.62 100.657 1244.62 97.4617C1244.62 93.1774 1246.32 89.0686 1249.35 86.0392C1252.38 83.0098 1256.48 81.3079 1260.77 81.3079ZM1260.77 75.9233C1256.51 75.9233 1252.35 77.1865 1248.8 79.5532C1245.26 81.9198 1242.5 85.2837 1240.87 89.2193C1239.24 93.1549 1238.81 97.4856 1239.64 101.664C1240.48 105.842 1242.53 109.679 1245.54 112.692C1248.55 115.704 1252.39 117.755 1256.57 118.586C1260.75 119.417 1265.08 118.991 1269.01 117.361C1272.95 115.73 1276.31 112.97 1278.68 109.428C1281.04 105.886 1282.31 101.722 1282.31 97.4617C1282.31 91.7493 1280.04 86.271 1276 82.2317C1271.96 78.1925 1266.48 75.9233 1260.77 75.9233Z" fill="white"/>
<path d="M1274.23 49H1220.38C1218.96 49 1217.59 49.5673 1216.58 50.5771C1215.57 51.5869 1215 52.9565 1215 54.3846V108.231C1215 109.659 1215.57 111.028 1216.58 112.038C1217.59 113.048 1218.96 113.615 1220.38 113.615H1231.15V108.231H1220.38V70.5384H1279.62V54.3846C1279.62 52.9565 1279.05 51.5869 1278.04 50.5771C1277.03 49.5673 1275.66 49 1274.23 49ZM1220.38 65.1538V54.3846H1274.23V65.1538H1220.38Z" fill="white"/>
<path d="M1255.38 89.3849V105.539L1268.85 97.4618L1255.38 89.3849Z" fill="white"/>
</svg>
