<svg width="1363" height="301" viewBox="0 0 1363 301" fill="none" xmlns="http://www.w3.org/2000/svg">
<rect width="1363" height="301" rx="15" fill="#F0F0F0"/>
<path d="M0 15C0 6.71573 6.71573 0 15 0H37V301H15C6.71573 301 0 294.284 0 286V15Z" fill="#E24C3F"/>
<path d="M117.217 130.76H126.617C126.491 133.482 125.757 135.881 124.415 137.958C123.072 140.034 121.21 141.655 118.829 142.818C116.465 143.964 113.672 144.537 110.45 144.537C107.836 144.537 105.499 144.098 103.44 143.221C101.399 142.344 99.6628 141.082 98.2305 139.435C96.8161 137.787 95.7329 135.791 94.981 133.446C94.2469 131.1 93.8799 128.46 93.8799 125.523V123.402C93.8799 120.466 94.2648 117.825 95.0347 115.479C95.8224 113.116 96.9325 111.111 98.3647 109.464C99.8149 107.799 101.552 106.528 103.575 105.65C105.598 104.773 107.845 104.334 110.315 104.334C113.717 104.334 116.591 104.943 118.936 106.161C121.281 107.378 123.099 109.052 124.388 111.183C125.677 113.295 126.438 115.703 126.67 118.407H117.271C117.235 116.939 116.985 115.712 116.519 114.728C116.054 113.725 115.319 112.973 114.317 112.472C113.314 111.97 111.98 111.72 110.315 111.72C109.152 111.72 108.14 111.935 107.281 112.364C106.421 112.794 105.705 113.474 105.132 114.405C104.559 115.336 104.13 116.545 103.843 118.031C103.575 119.499 103.44 121.271 103.44 123.348V125.523C103.44 127.6 103.566 129.373 103.816 130.841C104.067 132.309 104.47 133.508 105.025 134.439C105.58 135.37 106.296 136.06 107.173 136.507C108.069 136.937 109.161 137.152 110.45 137.152C111.882 137.152 113.09 136.928 114.075 136.48C115.06 136.015 115.821 135.317 116.358 134.386C116.895 133.437 117.181 132.228 117.217 130.76ZM140.206 102.75V144H131.128V102.75H140.206ZM160.884 136.695V124.718C160.884 123.894 160.768 123.187 160.535 122.596C160.302 122.005 159.935 121.549 159.434 121.227C158.933 120.886 158.261 120.716 157.42 120.716C156.74 120.716 156.158 120.833 155.674 121.065C155.191 121.298 154.824 121.647 154.573 122.113C154.323 122.578 154.197 123.169 154.197 123.885H145.147C145.147 122.542 145.442 121.298 146.033 120.152C146.642 118.989 147.501 117.977 148.611 117.118C149.739 116.258 151.082 115.596 152.64 115.13C154.215 114.647 155.97 114.405 157.903 114.405C160.213 114.405 162.272 114.79 164.08 115.56C165.906 116.33 167.347 117.485 168.404 119.024C169.46 120.546 169.988 122.462 169.988 124.771V136.668C169.988 138.566 170.096 140.007 170.311 140.992C170.525 141.959 170.83 142.809 171.224 143.543V144H162.146C161.717 143.105 161.395 142.013 161.18 140.724C160.983 139.417 160.884 138.074 160.884 136.695ZM161.985 126.249L162.039 131.083H158.038C157.196 131.083 156.48 131.199 155.889 131.432C155.316 131.664 154.851 131.987 154.493 132.398C154.153 132.792 153.902 133.24 153.741 133.741C153.597 134.243 153.526 134.771 153.526 135.326C153.526 135.863 153.651 136.346 153.902 136.776C154.17 137.188 154.528 137.51 154.976 137.743C155.424 137.975 155.925 138.092 156.48 138.092C157.483 138.092 158.333 137.904 159.031 137.528C159.747 137.134 160.293 136.66 160.669 136.104C161.045 135.549 161.233 135.03 161.233 134.547L163.221 138.253C162.863 138.969 162.451 139.694 161.985 140.428C161.538 141.162 160.974 141.843 160.293 142.469C159.631 143.078 158.816 143.579 157.85 143.973C156.883 144.349 155.71 144.537 154.332 144.537C152.541 144.537 150.894 144.17 149.39 143.436C147.904 142.702 146.714 141.681 145.818 140.375C144.923 139.05 144.476 137.528 144.476 135.809C144.476 134.305 144.744 132.962 145.281 131.781C145.836 130.599 146.669 129.597 147.779 128.773C148.889 127.949 150.303 127.323 152.022 126.893C153.741 126.463 155.764 126.249 158.091 126.249H161.985ZM190.237 135.836C190.237 135.335 190.067 134.905 189.727 134.547C189.405 134.171 188.832 133.831 188.008 133.526C187.185 133.204 186.03 132.882 184.544 132.56C183.13 132.255 181.796 131.852 180.542 131.351C179.307 130.85 178.224 130.241 177.293 129.525C176.362 128.809 175.628 127.958 175.091 126.974C174.572 125.989 174.312 124.861 174.312 123.59C174.312 122.354 174.572 121.191 175.091 120.099C175.628 118.989 176.407 118.013 177.427 117.171C178.466 116.312 179.728 115.641 181.214 115.157C182.7 114.656 184.392 114.405 186.29 114.405C188.903 114.405 191.159 114.808 193.057 115.614C194.955 116.402 196.414 117.512 197.435 118.944C198.473 120.358 198.992 121.996 198.992 123.858H189.942C189.942 123.124 189.817 122.498 189.566 121.979C189.333 121.459 188.948 121.065 188.411 120.797C187.874 120.51 187.158 120.367 186.263 120.367C185.636 120.367 185.063 120.484 184.544 120.716C184.043 120.949 183.64 121.271 183.335 121.683C183.031 122.095 182.879 122.578 182.879 123.133C182.879 123.527 182.968 123.885 183.147 124.208C183.344 124.512 183.64 124.798 184.034 125.067C184.428 125.318 184.929 125.55 185.538 125.765C186.146 125.962 186.88 126.141 187.74 126.302C189.691 126.66 191.517 127.171 193.218 127.833C194.919 128.495 196.298 129.435 197.354 130.653C198.428 131.87 198.965 133.508 198.965 135.567C198.965 136.856 198.67 138.047 198.079 139.139C197.488 140.213 196.638 141.162 195.528 141.986C194.418 142.792 193.084 143.418 191.526 143.866C189.969 144.313 188.214 144.537 186.263 144.537C183.488 144.537 181.142 144.045 179.227 143.06C177.311 142.057 175.861 140.804 174.876 139.3C173.909 137.778 173.426 136.239 173.426 134.681H181.858C181.894 135.576 182.109 136.31 182.503 136.883C182.915 137.456 183.461 137.877 184.141 138.146C184.821 138.414 185.609 138.548 186.504 138.548C187.328 138.548 188.008 138.432 188.545 138.199C189.1 137.966 189.521 137.653 189.808 137.259C190.094 136.847 190.237 136.373 190.237 135.836ZM218.436 135.836C218.436 135.335 218.265 134.905 217.925 134.547C217.603 134.171 217.03 133.831 216.207 133.526C215.383 133.204 214.228 132.882 212.742 132.56C211.328 132.255 209.994 131.852 208.741 131.351C207.505 130.85 206.422 130.241 205.491 129.525C204.56 128.809 203.826 127.958 203.289 126.974C202.77 125.989 202.51 124.861 202.51 123.59C202.51 122.354 202.77 121.191 203.289 120.099C203.826 118.989 204.605 118.013 205.625 117.171C206.664 116.312 207.926 115.641 209.412 115.157C210.898 114.656 212.59 114.405 214.488 114.405C217.102 114.405 219.358 114.808 221.255 115.614C223.153 116.402 224.612 117.512 225.633 118.944C226.671 120.358 227.19 121.996 227.19 123.858H218.14C218.14 123.124 218.015 122.498 217.764 121.979C217.531 121.459 217.146 121.065 216.609 120.797C216.072 120.51 215.356 120.367 214.461 120.367C213.834 120.367 213.261 120.484 212.742 120.716C212.241 120.949 211.838 121.271 211.534 121.683C211.229 122.095 211.077 122.578 211.077 123.133C211.077 123.527 211.167 123.885 211.346 124.208C211.543 124.512 211.838 124.798 212.232 125.067C212.626 125.318 213.127 125.55 213.736 125.765C214.345 125.962 215.079 126.141 215.938 126.302C217.889 126.66 219.716 127.171 221.417 127.833C223.117 128.495 224.496 129.435 225.552 130.653C226.626 131.87 227.164 133.508 227.164 135.567C227.164 136.856 226.868 138.047 226.277 139.139C225.687 140.213 224.836 141.162 223.726 141.986C222.616 142.792 221.282 143.418 219.725 143.866C218.167 144.313 216.412 144.537 214.461 144.537C211.686 144.537 209.34 144.045 207.425 143.06C205.509 142.057 204.059 140.804 203.074 139.3C202.107 137.778 201.624 136.239 201.624 134.681H210.057C210.092 135.576 210.307 136.31 210.701 136.883C211.113 137.456 211.659 137.877 212.339 138.146C213.02 138.414 213.807 138.548 214.703 138.548C215.526 138.548 216.207 138.432 216.744 138.199C217.299 137.966 217.719 137.653 218.006 137.259C218.292 136.847 218.436 136.373 218.436 135.836ZM240.967 114.942V144H231.89V114.942H240.967ZM231.353 107.45C231.353 106.161 231.819 105.104 232.75 104.281C233.681 103.457 234.889 103.045 236.375 103.045C237.861 103.045 239.069 103.457 240 104.281C240.931 105.104 241.397 106.161 241.397 107.45C241.397 108.739 240.931 109.795 240 110.619C239.069 111.442 237.861 111.854 236.375 111.854C234.889 111.854 233.681 111.442 232.75 110.619C231.819 109.795 231.353 108.739 231.353 107.45ZM257.645 144H248.541V112.579C248.541 110.323 248.997 108.425 249.91 106.886C250.823 105.346 252.112 104.182 253.777 103.395C255.442 102.589 257.412 102.186 259.686 102.186C260.473 102.186 261.216 102.24 261.915 102.347C262.613 102.455 263.293 102.589 263.956 102.75L263.982 109.41C263.66 109.321 263.329 109.258 262.989 109.222C262.649 109.186 262.228 109.168 261.727 109.168C260.849 109.168 260.106 109.303 259.498 109.571C258.889 109.822 258.423 110.207 258.101 110.726C257.797 111.227 257.645 111.845 257.645 112.579V144ZM263.284 114.942V121.227H244.351V114.942H263.284ZM275.45 140.589L282.969 114.942H292.691L281.009 148.324C280.758 149.058 280.427 149.846 280.015 150.687C279.603 151.546 279.039 152.361 278.323 153.131C277.607 153.901 276.685 154.527 275.557 155.011C274.447 155.494 273.069 155.736 271.421 155.736C270.544 155.736 269.9 155.691 269.488 155.602C269.094 155.53 268.485 155.396 267.662 155.199V148.727C267.894 148.727 268.091 148.727 268.252 148.727C268.431 148.727 268.628 148.727 268.843 148.727C269.81 148.727 270.58 148.628 271.153 148.431C271.744 148.234 272.191 147.948 272.496 147.572C272.818 147.196 273.069 146.739 273.248 146.202L275.45 140.589ZM273.543 114.942L279.263 135.272L280.257 144.859H274.188L263.848 114.942H273.543ZM312.054 113.116L302.52 144H292.396L306.763 104.898H313.182L312.054 113.116ZM319.949 144L310.389 113.116L309.153 104.898H315.652L330.101 144H319.949ZM319.573 129.417V136.695H299.512V129.417H319.573ZM342.991 104.898V144H333.592V104.898H342.991Z" fill="black"/>
<path d="M104.288 72.3608V55.1172H109.397V72.3608C109.397 74.0243 109.033 75.4541 108.304 76.6504C107.575 77.8353 106.578 78.7467 105.313 79.3848C104.06 80.0228 102.647 80.3418 101.075 80.3418C99.4455 80.3418 98.0042 80.0684 96.751 79.5215C95.4977 78.9746 94.5122 78.1372 93.7944 77.0093C93.0767 75.87 92.7178 74.4287 92.7178 72.6855H97.8618C97.8618 73.597 97.9871 74.3205 98.2378 74.856C98.4998 75.3914 98.8701 75.7731 99.3486 76.001C99.8271 76.2288 100.403 76.3428 101.075 76.3428C101.724 76.3428 102.288 76.189 102.767 75.8813C103.245 75.5737 103.615 75.1237 103.877 74.5312C104.151 73.9388 104.288 73.2153 104.288 72.3608ZM121.976 80.3418C120.54 80.3418 119.253 80.1139 118.113 79.6582C116.974 79.1911 116.006 78.5474 115.208 77.7271C114.422 76.9067 113.818 75.9554 113.396 74.873C112.975 73.7793 112.764 72.6172 112.764 71.3867V70.7031C112.764 69.3018 112.964 68.02 113.362 66.8579C113.761 65.6958 114.331 64.6875 115.071 63.833C115.823 62.9785 116.735 62.3234 117.806 61.8677C118.877 61.4006 120.084 61.167 121.429 61.167C122.739 61.167 123.901 61.3835 124.915 61.8164C125.929 62.2493 126.778 62.8646 127.461 63.6621C128.156 64.4596 128.681 65.4167 129.034 66.5332C129.387 67.6383 129.563 68.8688 129.563 70.2246V72.2754H114.866V68.9941H124.727V68.6182C124.727 67.9346 124.602 67.325 124.351 66.7896C124.112 66.2427 123.747 65.8097 123.257 65.4907C122.767 65.1717 122.141 65.0122 121.377 65.0122C120.728 65.0122 120.17 65.1546 119.703 65.4395C119.236 65.7243 118.854 66.123 118.558 66.6357C118.273 67.1484 118.056 67.7523 117.908 68.4473C117.771 69.1309 117.703 69.8828 117.703 70.7031V71.3867C117.703 72.1273 117.806 72.8109 118.011 73.4375C118.227 74.0641 118.529 74.6053 118.917 75.061C119.315 75.5168 119.794 75.87 120.352 76.1206C120.922 76.3713 121.565 76.4966 122.283 76.4966C123.172 76.4966 123.998 76.3257 124.761 75.9839C125.536 75.6307 126.202 75.1009 126.761 74.3945L129.153 76.9922C128.766 77.5505 128.236 78.0859 127.564 78.5986C126.903 79.1113 126.106 79.5329 125.171 79.8633C124.237 80.1823 123.172 80.3418 121.976 80.3418ZM142.364 74.8901C142.364 74.5369 142.261 74.2179 142.056 73.9331C141.851 73.6483 141.469 73.3862 140.911 73.147C140.364 72.8963 139.572 72.6685 138.536 72.4634C137.601 72.2583 136.73 72.002 135.921 71.6943C135.123 71.3753 134.428 70.9937 133.836 70.5493C133.255 70.105 132.799 69.5809 132.469 68.9771C132.138 68.3618 131.973 67.6611 131.973 66.875C131.973 66.1003 132.138 65.3711 132.469 64.6875C132.811 64.0039 133.295 63.4001 133.921 62.876C134.559 62.3405 135.334 61.9246 136.246 61.6284C137.168 61.3208 138.205 61.167 139.356 61.167C140.962 61.167 142.341 61.4233 143.492 61.936C144.654 62.4487 145.542 63.1551 146.158 64.0552C146.784 64.9438 147.098 65.9578 147.098 67.0972H142.176C142.176 66.6187 142.073 66.1914 141.868 65.8154C141.674 65.4281 141.367 65.1261 140.945 64.9097C140.535 64.6818 140 64.5679 139.339 64.5679C138.792 64.5679 138.319 64.6647 137.92 64.8584C137.522 65.0407 137.214 65.2913 136.998 65.6104C136.792 65.918 136.69 66.2598 136.69 66.6357C136.69 66.9206 136.747 67.1769 136.861 67.4048C136.986 67.6213 137.186 67.8206 137.459 68.0029C137.732 68.1852 138.086 68.3561 138.519 68.5156C138.963 68.6637 139.51 68.8005 140.159 68.9258C141.492 69.1992 142.683 69.5581 143.731 70.0024C144.779 70.4354 145.611 71.0278 146.226 71.7798C146.841 72.5203 147.149 73.4945 147.149 74.7021C147.149 75.5225 146.967 76.2744 146.602 76.958C146.237 77.6416 145.713 78.2397 145.03 78.7524C144.346 79.2537 143.526 79.6468 142.569 79.9316C141.623 80.2051 140.558 80.3418 139.373 80.3418C137.653 80.3418 136.194 80.0342 134.998 79.4189C133.813 78.8037 132.913 78.0233 132.298 77.0776C131.694 76.1206 131.392 75.1408 131.392 74.1382H136.058C136.08 74.8104 136.251 75.3516 136.57 75.7617C136.901 76.1719 137.317 76.4681 137.818 76.6504C138.331 76.8327 138.883 76.9238 139.476 76.9238C140.114 76.9238 140.643 76.8384 141.065 76.6675C141.486 76.4852 141.806 76.2459 142.022 75.9497C142.25 75.6421 142.364 75.2889 142.364 74.8901ZM160.342 74.8901C160.342 74.5369 160.24 74.2179 160.035 73.9331C159.83 73.6483 159.448 73.3862 158.89 73.147C158.343 72.8963 157.551 72.6685 156.514 72.4634C155.58 72.2583 154.708 72.002 153.899 71.6943C153.102 71.3753 152.407 70.9937 151.814 70.5493C151.233 70.105 150.778 69.5809 150.447 68.9771C150.117 68.3618 149.952 67.6611 149.952 66.875C149.952 66.1003 150.117 65.3711 150.447 64.6875C150.789 64.0039 151.273 63.4001 151.9 62.876C152.538 62.3405 153.313 61.9246 154.224 61.6284C155.147 61.3208 156.184 61.167 157.334 61.167C158.941 61.167 160.319 61.4233 161.47 61.936C162.632 62.4487 163.521 63.1551 164.136 64.0552C164.763 64.9438 165.076 65.9578 165.076 67.0972H160.154C160.154 66.6187 160.052 66.1914 159.847 65.8154C159.653 65.4281 159.345 65.1261 158.924 64.9097C158.514 64.6818 157.978 64.5679 157.317 64.5679C156.771 64.5679 156.298 64.6647 155.899 64.8584C155.5 65.0407 155.193 65.2913 154.976 65.6104C154.771 65.918 154.668 66.2598 154.668 66.6357C154.668 66.9206 154.725 67.1769 154.839 67.4048C154.965 67.6213 155.164 67.8206 155.438 68.0029C155.711 68.1852 156.064 68.3561 156.497 68.5156C156.941 68.6637 157.488 68.8005 158.138 68.9258C159.471 69.1992 160.661 69.5581 161.709 70.0024C162.758 70.4354 163.589 71.0278 164.205 71.7798C164.82 72.5203 165.127 73.4945 165.127 74.7021C165.127 75.5225 164.945 76.2744 164.581 76.958C164.216 77.6416 163.692 78.2397 163.008 78.7524C162.325 79.2537 161.504 79.6468 160.547 79.9316C159.602 80.2051 158.536 80.3418 157.352 80.3418C155.631 80.3418 154.173 80.0342 152.977 79.4189C151.792 78.8037 150.892 78.0233 150.276 77.0776C149.673 76.1206 149.371 75.1408 149.371 74.1382H154.036C154.059 74.8104 154.23 75.3516 154.549 75.7617C154.879 76.1719 155.295 76.4681 155.796 76.6504C156.309 76.8327 156.862 76.9238 157.454 76.9238C158.092 76.9238 158.622 76.8384 159.043 76.6675C159.465 76.4852 159.784 76.2459 160 75.9497C160.228 75.6421 160.342 75.2889 160.342 74.8901ZM173.809 77.915L178.714 61.5088H183.995L176.561 82.7856C176.401 83.2528 176.185 83.7541 175.911 84.2896C175.649 84.825 175.29 85.332 174.834 85.8105C174.39 86.3005 173.826 86.6992 173.143 87.0068C172.47 87.3145 171.644 87.4683 170.665 87.4683C170.197 87.4683 169.816 87.4398 169.52 87.3828C169.223 87.3258 168.87 87.2461 168.46 87.1436V83.5376C168.585 83.5376 168.716 83.5376 168.853 83.5376C168.99 83.549 169.121 83.5547 169.246 83.5547C169.896 83.5547 170.425 83.4806 170.835 83.3325C171.246 83.1844 171.576 82.9565 171.827 82.6489C172.077 82.3527 172.277 81.9653 172.425 81.4868L173.809 77.915ZM171.758 61.5088L175.774 74.9072L176.475 80.1196L173.125 80.4785L166.478 61.5088H171.758ZM197.325 55.1172H201.666L208.057 73.3862L214.449 55.1172H218.79L209.8 80H206.314L197.325 55.1172ZM194.983 55.1172H199.307L200.093 72.9248V80H194.983V55.1172ZM216.807 55.1172H221.148V80H216.021V72.9248L216.807 55.1172ZM235.315 75.8301V67.5928C235.315 67.0003 235.219 66.4933 235.025 66.0718C234.831 65.6388 234.529 65.3027 234.119 65.0635C233.72 64.8242 233.202 64.7046 232.564 64.7046C232.017 64.7046 231.544 64.8014 231.146 64.9951C230.747 65.1774 230.439 65.4451 230.223 65.7983C230.006 66.1401 229.898 66.5446 229.898 67.0117H224.976C224.976 66.2256 225.158 65.4793 225.523 64.7729C225.888 64.0666 226.417 63.4456 227.112 62.9102C227.807 62.3633 228.633 61.936 229.59 61.6284C230.559 61.3208 231.641 61.167 232.837 61.167C234.273 61.167 235.549 61.4062 236.666 61.8848C237.782 62.3633 238.659 63.0811 239.297 64.0381C239.947 64.9951 240.271 66.1914 240.271 67.627V75.5396C240.271 76.5535 240.334 77.3853 240.459 78.0347C240.585 78.6727 240.767 79.231 241.006 79.7095V80H236.033C235.794 79.4987 235.612 78.8721 235.486 78.1201C235.372 77.3568 235.315 76.5934 235.315 75.8301ZM235.965 68.7378L235.999 71.5234H233.248C232.598 71.5234 232.034 71.5975 231.556 71.7456C231.077 71.8937 230.684 72.1045 230.376 72.3779C230.069 72.64 229.841 72.9476 229.693 73.3008C229.556 73.654 229.488 74.0413 229.488 74.4629C229.488 74.8844 229.585 75.2661 229.778 75.6079C229.972 75.9383 230.251 76.2004 230.616 76.394C230.98 76.5763 231.408 76.6675 231.897 76.6675C232.638 76.6675 233.282 76.5194 233.829 76.2231C234.375 75.9269 234.797 75.5623 235.093 75.1294C235.401 74.6965 235.56 74.2863 235.572 73.8989L236.871 75.9839C236.688 76.451 236.438 76.9352 236.119 77.4365C235.811 77.9378 235.418 78.4106 234.939 78.855C234.461 79.2879 233.886 79.6468 233.213 79.9316C232.541 80.2051 231.744 80.3418 230.821 80.3418C229.647 80.3418 228.582 80.1082 227.625 79.6411C226.679 79.1626 225.927 78.5075 225.369 77.6758C224.822 76.8327 224.549 75.8757 224.549 74.8047C224.549 73.8363 224.731 72.9761 225.096 72.2241C225.46 71.4722 225.996 70.8398 226.702 70.3271C227.42 69.8031 228.314 69.41 229.385 69.1479C230.456 68.8745 231.698 68.7378 233.111 68.7378H235.965ZM253.123 61.5088V64.9951H242.356V61.5088H253.123ZM245.022 56.9458H249.944V74.4287C249.944 74.9642 250.013 75.3743 250.149 75.6592C250.298 75.944 250.514 76.1434 250.799 76.2573C251.084 76.3599 251.443 76.4111 251.875 76.4111C252.183 76.4111 252.457 76.3997 252.696 76.377C252.946 76.3428 253.157 76.3086 253.328 76.2744L253.345 79.8975C252.924 80.0342 252.468 80.1424 251.978 80.2222C251.488 80.3019 250.947 80.3418 250.354 80.3418C249.272 80.3418 248.326 80.1652 247.518 79.812C246.72 79.4474 246.105 78.8664 245.672 78.0688C245.239 77.2713 245.022 76.2231 245.022 74.9243V56.9458ZM264.983 61.5088V64.9951H254.217V61.5088H264.983ZM256.883 56.9458H261.805V74.4287C261.805 74.9642 261.873 75.3743 262.01 75.6592C262.158 75.944 262.374 76.1434 262.659 76.2573C262.944 76.3599 263.303 76.4111 263.736 76.4111C264.043 76.4111 264.317 76.3997 264.556 76.377C264.807 76.3428 265.018 76.3086 265.188 76.2744L265.206 79.8975C264.784 80.0342 264.328 80.1424 263.838 80.2222C263.348 80.3019 262.807 80.3418 262.215 80.3418C261.132 80.3418 260.187 80.1652 259.378 79.812C258.58 79.4474 257.965 78.8664 257.532 78.0688C257.099 77.2713 256.883 76.2231 256.883 74.9243V56.9458ZM277.767 75.8301V67.5928C277.767 67.0003 277.67 66.4933 277.476 66.0718C277.282 65.6388 276.98 65.3027 276.57 65.0635C276.172 64.8242 275.653 64.7046 275.015 64.7046C274.468 64.7046 273.995 64.8014 273.597 64.9951C273.198 65.1774 272.89 65.4451 272.674 65.7983C272.457 66.1401 272.349 66.5446 272.349 67.0117H267.427C267.427 66.2256 267.61 65.4793 267.974 64.7729C268.339 64.0666 268.868 63.4456 269.563 62.9102C270.258 62.3633 271.084 61.936 272.042 61.6284C273.01 61.3208 274.092 61.167 275.289 61.167C276.724 61.167 278 61.4062 279.117 61.8848C280.233 62.3633 281.111 63.0811 281.749 64.0381C282.398 64.9951 282.723 66.1914 282.723 67.627V75.5396C282.723 76.5535 282.785 77.3853 282.911 78.0347C283.036 78.6727 283.218 79.231 283.458 79.7095V80H278.484C278.245 79.4987 278.063 78.8721 277.938 78.1201C277.824 77.3568 277.767 76.5934 277.767 75.8301ZM278.416 68.7378L278.45 71.5234H275.699C275.049 71.5234 274.485 71.5975 274.007 71.7456C273.528 71.8937 273.135 72.1045 272.828 72.3779C272.52 72.64 272.292 72.9476 272.144 73.3008C272.007 73.654 271.939 74.0413 271.939 74.4629C271.939 74.8844 272.036 75.2661 272.229 75.6079C272.423 75.9383 272.702 76.2004 273.067 76.394C273.431 76.5763 273.859 76.6675 274.349 76.6675C275.089 76.6675 275.733 76.5194 276.28 76.2231C276.827 75.9269 277.248 75.5623 277.544 75.1294C277.852 74.6965 278.012 74.2863 278.023 73.8989L279.322 75.9839C279.139 76.451 278.889 76.9352 278.57 77.4365C278.262 77.9378 277.869 78.4106 277.391 78.855C276.912 79.2879 276.337 79.6468 275.665 79.9316C274.992 80.2051 274.195 80.3418 273.272 80.3418C272.098 80.3418 271.033 80.1082 270.076 79.6411C269.131 79.1626 268.379 78.5075 267.82 77.6758C267.273 76.8327 267 75.8757 267 74.8047C267 73.8363 267.182 72.9761 267.547 72.2241C267.911 71.4722 268.447 70.8398 269.153 70.3271C269.871 69.8031 270.765 69.41 271.836 69.1479C272.907 68.8745 274.149 68.7378 275.562 68.7378H278.416Z" fill="#888888"/>
<rect x="92" y="181" width="1179" height="80" rx="13.3333" fill="#CCCCCC"/>
<rect x="107" y="196.333" width="208" height="49.3333" rx="4.66667" fill="#888888" stroke="#888888" stroke-width="4"/>
<path d="M171.823 213.167H177.792C178.958 213.167 179.972 213.34 180.833 213.687C181.694 214.035 182.358 214.549 182.823 215.229C183.295 215.91 183.531 216.75 183.531 217.75C183.531 218.618 183.396 219.344 183.125 219.927C182.854 220.51 182.476 220.993 181.99 221.375C181.51 221.75 180.951 222.059 180.312 222.302L179.115 222.979H174.104L174.083 220.156H177.792C178.257 220.156 178.642 220.073 178.948 219.906C179.253 219.74 179.483 219.503 179.635 219.198C179.795 218.885 179.875 218.514 179.875 218.083C179.875 217.646 179.795 217.271 179.635 216.958C179.476 216.646 179.24 216.406 178.927 216.24C178.622 216.073 178.243 215.99 177.792 215.99H175.479V228.333H171.823V213.167ZM180.125 228.333L176.771 221.625L180.646 221.604L184.042 228.177V228.333H180.125ZM191.031 228.542C190.115 228.542 189.295 228.399 188.573 228.115C187.851 227.823 187.24 227.424 186.74 226.917C186.247 226.41 185.868 225.826 185.604 225.167C185.347 224.507 185.219 223.809 185.219 223.073V222.677C185.219 221.851 185.333 221.087 185.562 220.385C185.792 219.677 186.132 219.059 186.583 218.531C187.035 218.003 187.601 217.594 188.281 217.302C188.962 217.003 189.753 216.854 190.656 216.854C191.455 216.854 192.17 216.983 192.802 217.24C193.434 217.497 193.969 217.865 194.406 218.344C194.851 218.823 195.187 219.403 195.417 220.083C195.653 220.764 195.771 221.528 195.771 222.375V223.802H186.562V221.604H192.344V221.333C192.351 220.958 192.285 220.639 192.146 220.375C192.014 220.111 191.819 219.91 191.562 219.771C191.306 219.632 190.993 219.562 190.625 219.562C190.243 219.562 189.927 219.646 189.677 219.812C189.434 219.979 189.243 220.208 189.104 220.5C188.972 220.785 188.878 221.115 188.823 221.49C188.767 221.865 188.74 222.26 188.74 222.677V223.073C188.74 223.49 188.795 223.868 188.906 224.208C189.024 224.549 189.191 224.84 189.406 225.083C189.628 225.319 189.892 225.503 190.198 225.635C190.51 225.767 190.865 225.833 191.26 225.833C191.74 225.833 192.212 225.743 192.677 225.562C193.142 225.382 193.542 225.083 193.875 224.667L195.469 226.562C195.24 226.889 194.913 227.205 194.49 227.51C194.073 227.816 193.573 228.066 192.99 228.26C192.406 228.448 191.753 228.542 191.031 228.542ZM203.052 225.5V220.854C203.052 220.535 203.007 220.26 202.917 220.031C202.826 219.802 202.684 219.625 202.49 219.5C202.295 219.368 202.035 219.302 201.708 219.302C201.444 219.302 201.219 219.347 201.031 219.437C200.844 219.528 200.701 219.663 200.604 219.844C200.507 220.024 200.458 220.253 200.458 220.531H196.948C196.948 220.01 197.062 219.528 197.292 219.083C197.528 218.632 197.861 218.24 198.292 217.906C198.729 217.573 199.25 217.316 199.854 217.135C200.465 216.948 201.146 216.854 201.896 216.854C202.792 216.854 203.59 217.003 204.292 217.302C205 217.601 205.559 218.049 205.969 218.646C206.378 219.236 206.583 219.979 206.583 220.875V225.49C206.583 226.226 206.625 226.785 206.708 227.167C206.792 227.542 206.91 227.872 207.062 228.156V228.333H203.542C203.375 227.986 203.25 227.562 203.167 227.062C203.09 226.556 203.052 226.035 203.052 225.5ZM203.479 221.448L203.5 223.323H201.948C201.622 223.323 201.344 223.368 201.115 223.458C200.892 223.549 200.712 223.674 200.573 223.833C200.441 223.986 200.344 224.16 200.281 224.354C200.226 224.549 200.198 224.753 200.198 224.969C200.198 225.177 200.247 225.365 200.344 225.531C200.448 225.691 200.587 225.816 200.76 225.906C200.934 225.997 201.128 226.042 201.344 226.042C201.733 226.042 202.062 225.969 202.333 225.823C202.611 225.67 202.823 225.486 202.969 225.271C203.115 225.056 203.187 224.854 203.187 224.667L203.958 226.104C203.819 226.382 203.66 226.663 203.479 226.948C203.306 227.233 203.087 227.497 202.823 227.74C202.566 227.976 202.25 228.17 201.875 228.323C201.5 228.469 201.045 228.542 200.51 228.542C199.816 228.542 199.177 228.399 198.594 228.115C198.017 227.83 197.556 227.434 197.208 226.927C196.861 226.413 196.687 225.823 196.687 225.156C196.687 224.573 196.792 224.052 197 223.594C197.215 223.135 197.538 222.747 197.969 222.427C198.399 222.108 198.948 221.865 199.615 221.698C200.281 221.531 201.066 221.448 201.969 221.448H203.479ZM213.292 225.833C213.618 225.833 213.896 225.774 214.125 225.656C214.361 225.531 214.538 225.358 214.656 225.135C214.781 224.906 214.84 224.632 214.833 224.312H218.135C218.142 225.16 217.934 225.903 217.51 226.542C217.094 227.174 216.524 227.667 215.802 228.021C215.087 228.368 214.278 228.542 213.375 228.542C212.493 228.542 211.722 228.399 211.062 228.115C210.403 227.823 209.851 227.42 209.406 226.906C208.969 226.385 208.639 225.778 208.417 225.083C208.201 224.389 208.094 223.635 208.094 222.823V222.583C208.094 221.771 208.201 221.017 208.417 220.323C208.639 219.622 208.969 219.014 209.406 218.5C209.851 217.979 210.399 217.576 211.052 217.292C211.712 217 212.479 216.854 213.354 216.854C214.292 216.854 215.118 217.031 215.833 217.385C216.556 217.74 217.122 218.253 217.531 218.927C217.941 219.601 218.142 220.417 218.135 221.375H214.833C214.84 221.035 214.788 220.729 214.677 220.458C214.566 220.187 214.392 219.972 214.156 219.812C213.927 219.646 213.632 219.562 213.271 219.562C212.91 219.562 212.618 219.642 212.396 219.802C212.174 219.962 212.003 220.184 211.885 220.469C211.774 220.747 211.698 221.066 211.656 221.427C211.622 221.788 211.604 222.174 211.604 222.583V222.823C211.604 223.24 211.622 223.632 211.656 224C211.698 224.361 211.778 224.681 211.896 224.958C212.014 225.229 212.184 225.444 212.406 225.604C212.628 225.757 212.924 225.833 213.292 225.833ZM225.573 217.062V219.5H218.781V217.062H225.573ZM220.208 214.26H223.719V224.656C223.719 224.955 223.753 225.187 223.823 225.354C223.892 225.514 224.01 225.628 224.177 225.698C224.351 225.76 224.58 225.792 224.865 225.792C225.066 225.792 225.233 225.788 225.365 225.781C225.497 225.767 225.622 225.75 225.74 225.729V228.24C225.441 228.337 225.128 228.41 224.802 228.458C224.476 228.514 224.128 228.542 223.76 228.542C223.01 228.542 222.368 228.424 221.833 228.187C221.306 227.951 220.903 227.58 220.625 227.073C220.347 226.566 220.208 225.906 220.208 225.094V214.26ZM233.167 223.573V213.167H236.812V223.573C236.812 224.587 236.58 225.465 236.115 226.208C235.656 226.951 235.031 227.528 234.24 227.937C233.455 228.34 232.573 228.542 231.594 228.542C230.58 228.542 229.677 228.372 228.885 228.031C228.101 227.691 227.483 227.167 227.031 226.458C226.587 225.75 226.365 224.847 226.365 223.75H230.031C230.031 224.264 230.09 224.667 230.208 224.958C230.326 225.243 230.5 225.444 230.729 225.562C230.965 225.674 231.253 225.729 231.594 225.729C231.927 225.729 232.208 225.646 232.437 225.479C232.674 225.306 232.854 225.059 232.979 224.74C233.104 224.413 233.167 224.024 233.167 223.573ZM246.948 224.302C246.948 224.066 246.913 223.854 246.844 223.667C246.774 223.472 246.646 223.292 246.458 223.125C246.271 222.958 246 222.792 245.646 222.625C245.299 222.451 244.84 222.271 244.271 222.083C243.604 221.861 242.962 221.611 242.344 221.333C241.726 221.049 241.174 220.719 240.687 220.344C240.201 219.962 239.816 219.517 239.531 219.01C239.247 218.497 239.104 217.899 239.104 217.219C239.104 216.566 239.25 215.979 239.542 215.458C239.833 214.931 240.24 214.483 240.76 214.115C241.288 213.74 241.906 213.455 242.615 213.26C243.323 213.059 244.097 212.958 244.937 212.958C246.049 212.958 247.028 213.153 247.875 213.542C248.729 213.924 249.396 214.469 249.875 215.177C250.361 215.878 250.604 216.708 250.604 217.667H246.969C246.969 217.285 246.889 216.948 246.729 216.656C246.576 216.365 246.344 216.135 246.031 215.969C245.719 215.802 245.326 215.719 244.854 215.719C244.396 215.719 244.01 215.788 243.698 215.927C243.385 216.066 243.149 216.253 242.99 216.49C242.83 216.719 242.75 216.972 242.75 217.25C242.75 217.479 242.812 217.687 242.937 217.875C243.069 218.056 243.253 218.226 243.49 218.385C243.733 218.545 244.024 218.698 244.365 218.844C244.712 218.99 245.101 219.132 245.531 219.271C246.337 219.528 247.052 219.816 247.677 220.135C248.309 220.448 248.84 220.806 249.271 221.208C249.708 221.604 250.038 222.056 250.26 222.562C250.49 223.069 250.604 223.642 250.604 224.281C250.604 224.962 250.472 225.566 250.208 226.094C249.944 226.622 249.566 227.069 249.073 227.437C248.58 227.799 247.99 228.073 247.302 228.26C246.615 228.448 245.847 228.542 245 228.542C244.222 228.542 243.455 228.444 242.698 228.25C241.948 228.049 241.267 227.743 240.656 227.333C240.045 226.917 239.556 226.385 239.187 225.74C238.826 225.087 238.646 224.312 238.646 223.417H242.312C242.312 223.861 242.372 224.236 242.49 224.542C242.608 224.847 242.781 225.094 243.01 225.281C243.24 225.462 243.521 225.594 243.854 225.677C244.187 225.753 244.569 225.792 245 225.792C245.465 225.792 245.84 225.726 246.125 225.594C246.41 225.455 246.618 225.274 246.75 225.052C246.882 224.823 246.948 224.573 246.948 224.302Z" fill="white"/>
<rect x="339" y="196.333" width="208" height="49.3333" rx="4.66667" fill="#888888" stroke="#888888" stroke-width="4"/>
<path d="M402.104 225.521V228.333H394.021V225.521H402.104ZM395.323 213.167V228.333H391.667V213.167H395.323ZM401.062 219.187V221.906H394.021V219.187H401.062ZM402.135 213.167V215.99H394.021V213.167H402.135ZM407.146 212.333V228.333H403.625V212.333H407.146ZM414.771 228.542C413.854 228.542 413.035 228.399 412.312 228.115C411.59 227.823 410.979 227.424 410.479 226.917C409.986 226.41 409.608 225.826 409.344 225.167C409.087 224.507 408.958 223.809 408.958 223.073V222.677C408.958 221.851 409.073 221.087 409.302 220.385C409.531 219.677 409.872 219.059 410.323 218.531C410.774 218.003 411.34 217.594 412.021 217.302C412.701 217.003 413.493 216.854 414.396 216.854C415.194 216.854 415.91 216.983 416.542 217.24C417.174 217.497 417.708 217.865 418.146 218.344C418.59 218.823 418.927 219.403 419.156 220.083C419.392 220.764 419.51 221.528 419.51 222.375V223.802H410.302V221.604H416.083V221.333C416.09 220.958 416.024 220.639 415.885 220.375C415.753 220.111 415.559 219.91 415.302 219.771C415.045 219.632 414.733 219.562 414.365 219.562C413.983 219.562 413.667 219.646 413.417 219.812C413.174 219.979 412.983 220.208 412.844 220.5C412.712 220.785 412.618 221.115 412.562 221.49C412.507 221.865 412.479 222.26 412.479 222.677V223.073C412.479 223.49 412.535 223.868 412.646 224.208C412.764 224.549 412.931 224.84 413.146 225.083C413.368 225.319 413.632 225.503 413.937 225.635C414.25 225.767 414.604 225.833 415 225.833C415.479 225.833 415.951 225.743 416.417 225.562C416.882 225.382 417.281 225.083 417.615 224.667L419.208 226.562C418.979 226.889 418.653 227.205 418.229 227.51C417.812 227.816 417.312 228.066 416.729 228.26C416.146 228.448 415.493 228.542 414.771 228.542ZM425.698 225.833C426.024 225.833 426.302 225.774 426.531 225.656C426.767 225.531 426.944 225.358 427.062 225.135C427.187 224.906 427.247 224.632 427.24 224.312H430.542C430.549 225.16 430.34 225.903 429.917 226.542C429.5 227.174 428.931 227.667 428.208 228.021C427.493 228.368 426.684 228.542 425.781 228.542C424.899 228.542 424.128 228.399 423.469 228.115C422.809 227.823 422.257 227.42 421.812 226.906C421.375 226.385 421.045 225.778 420.823 225.083C420.608 224.389 420.5 223.635 420.5 222.823V222.583C420.5 221.771 420.608 221.017 420.823 220.323C421.045 219.622 421.375 219.014 421.812 218.5C422.257 217.979 422.806 217.576 423.458 217.292C424.118 217 424.885 216.854 425.76 216.854C426.698 216.854 427.524 217.031 428.24 217.385C428.962 217.74 429.528 218.253 429.937 218.927C430.347 219.601 430.549 220.417 430.542 221.375H427.24C427.247 221.035 427.194 220.729 427.083 220.458C426.972 220.187 426.799 219.972 426.562 219.812C426.333 219.646 426.038 219.562 425.677 219.562C425.316 219.562 425.024 219.642 424.802 219.802C424.58 219.962 424.41 220.184 424.292 220.469C424.181 220.747 424.104 221.066 424.062 221.427C424.028 221.788 424.01 222.174 424.01 222.583V222.823C424.01 223.24 424.028 223.632 424.062 224C424.104 224.361 424.184 224.681 424.302 224.958C424.42 225.229 424.59 225.444 424.812 225.604C425.035 225.757 425.33 225.833 425.698 225.833ZM437.979 217.062V219.5H431.187V217.062H437.979ZM432.615 214.26H436.125V224.656C436.125 224.955 436.16 225.187 436.229 225.354C436.299 225.514 436.417 225.628 436.583 225.698C436.757 225.76 436.986 225.792 437.271 225.792C437.472 225.792 437.639 225.788 437.771 225.781C437.903 225.767 438.028 225.75 438.146 225.729V228.24C437.847 228.337 437.535 228.41 437.208 228.458C436.882 228.514 436.535 228.542 436.167 228.542C435.417 228.542 434.774 228.424 434.24 228.187C433.712 227.951 433.309 227.58 433.031 227.073C432.753 226.566 432.615 225.906 432.615 225.094V214.26ZM442.917 219.854V228.333H439.406V217.062H442.687L442.917 219.854ZM446.25 216.979L446.187 220.24C446.049 220.226 445.861 220.208 445.625 220.187C445.389 220.167 445.191 220.156 445.031 220.156C444.622 220.156 444.267 220.205 443.969 220.302C443.677 220.392 443.434 220.531 443.24 220.719C443.052 220.899 442.913 221.128 442.823 221.406C442.74 221.684 442.701 222.007 442.708 222.375L442.073 221.958C442.073 221.201 442.146 220.514 442.292 219.896C442.444 219.271 442.66 218.733 442.937 218.281C443.215 217.823 443.552 217.472 443.948 217.229C444.344 216.979 444.788 216.854 445.281 216.854C445.455 216.854 445.625 216.865 445.792 216.885C445.965 216.906 446.118 216.937 446.25 216.979ZM446.646 222.812V222.594C446.646 221.767 446.764 221.007 447 220.312C447.236 219.611 447.583 219.003 448.042 218.49C448.5 217.976 449.066 217.576 449.74 217.292C450.413 217 451.191 216.854 452.073 216.854C452.962 216.854 453.743 217 454.417 217.292C455.097 217.576 455.667 217.976 456.125 218.49C456.583 219.003 456.931 219.611 457.167 220.312C457.403 221.007 457.521 221.767 457.521 222.594V222.812C457.521 223.632 457.403 224.392 457.167 225.094C456.931 225.788 456.583 226.396 456.125 226.917C455.667 227.431 455.101 227.83 454.427 228.115C453.753 228.399 452.976 228.542 452.094 228.542C451.212 228.542 450.431 228.399 449.75 228.115C449.069 227.83 448.5 227.431 448.042 226.917C447.583 226.396 447.236 225.788 447 225.094C446.764 224.392 446.646 223.632 446.646 222.812ZM450.156 222.594V222.812C450.156 223.236 450.188 223.632 450.25 224C450.313 224.368 450.417 224.691 450.563 224.969C450.708 225.24 450.906 225.451 451.156 225.604C451.406 225.757 451.719 225.833 452.094 225.833C452.462 225.833 452.767 225.757 453.01 225.604C453.26 225.451 453.458 225.24 453.604 224.969C453.75 224.691 453.854 224.368 453.917 224C453.979 223.632 454.01 223.236 454.01 222.812V222.594C454.01 222.184 453.979 221.799 453.917 221.437C453.854 221.069 453.75 220.747 453.604 220.469C453.458 220.184 453.26 219.962 453.01 219.802C452.76 219.642 452.448 219.562 452.073 219.562C451.705 219.562 451.396 219.642 451.146 219.802C450.903 219.962 450.708 220.184 450.563 220.469C450.417 220.747 450.313 221.069 450.25 221.437C450.188 221.799 450.156 222.184 450.156 222.594ZM462.531 219.469V228.333H459.021V217.062H462.313L462.531 219.469ZM462.115 222.312L461.292 222.333C461.292 221.472 461.396 220.705 461.604 220.031C461.813 219.351 462.108 218.774 462.49 218.302C462.872 217.83 463.326 217.472 463.854 217.229C464.389 216.979 464.983 216.854 465.635 216.854C466.156 216.854 466.632 216.931 467.063 217.083C467.5 217.236 467.875 217.483 468.188 217.823C468.507 218.163 468.75 218.615 468.917 219.177C469.09 219.733 469.177 220.42 469.177 221.24V228.333H465.646V221.229C465.646 220.778 465.583 220.434 465.458 220.198C465.333 219.955 465.153 219.788 464.917 219.698C464.681 219.608 464.392 219.562 464.052 219.562C463.691 219.562 463.385 219.632 463.135 219.771C462.885 219.91 462.684 220.104 462.531 220.354C462.385 220.597 462.278 220.885 462.208 221.219C462.146 221.552 462.115 221.917 462.115 222.312ZM477.323 223.573V213.167H480.969V223.573C480.969 224.587 480.736 225.465 480.271 226.208C479.812 226.951 479.187 227.528 478.396 227.937C477.611 228.34 476.729 228.542 475.75 228.542C474.736 228.542 473.833 228.372 473.042 228.031C472.257 227.691 471.639 227.167 471.187 226.458C470.743 225.75 470.521 224.847 470.521 223.75H474.187C474.187 224.264 474.247 224.667 474.365 224.958C474.483 225.243 474.656 225.444 474.885 225.562C475.122 225.674 475.41 225.729 475.75 225.729C476.083 225.729 476.365 225.646 476.594 225.479C476.83 225.306 477.01 225.059 477.135 224.74C477.26 224.413 477.323 224.024 477.323 223.573ZM491.104 224.302C491.104 224.066 491.069 223.854 491 223.667C490.931 223.472 490.802 223.292 490.615 223.125C490.427 222.958 490.156 222.792 489.802 222.625C489.455 222.451 488.997 222.271 488.427 222.083C487.76 221.861 487.118 221.611 486.5 221.333C485.882 221.049 485.33 220.719 484.844 220.344C484.358 219.962 483.972 219.517 483.687 219.01C483.403 218.497 483.26 217.899 483.26 217.219C483.26 216.566 483.406 215.979 483.698 215.458C483.99 214.931 484.396 214.483 484.917 214.115C485.444 213.74 486.062 213.455 486.771 213.26C487.479 213.059 488.253 212.958 489.094 212.958C490.205 212.958 491.184 213.153 492.031 213.542C492.885 213.924 493.552 214.469 494.031 215.177C494.517 215.878 494.76 216.708 494.76 217.667H491.125C491.125 217.285 491.045 216.948 490.885 216.656C490.733 216.365 490.5 216.135 490.187 215.969C489.875 215.802 489.483 215.719 489.01 215.719C488.552 215.719 488.167 215.788 487.854 215.927C487.542 216.066 487.306 216.253 487.146 216.49C486.986 216.719 486.906 216.972 486.906 217.25C486.906 217.479 486.969 217.687 487.094 217.875C487.226 218.056 487.41 218.226 487.646 218.385C487.889 218.545 488.181 218.698 488.521 218.844C488.868 218.99 489.257 219.132 489.687 219.271C490.493 219.528 491.208 219.816 491.833 220.135C492.465 220.448 492.997 220.806 493.427 221.208C493.865 221.604 494.194 222.056 494.417 222.562C494.646 223.069 494.76 223.642 494.76 224.281C494.76 224.962 494.628 225.566 494.365 226.094C494.101 226.622 493.722 227.069 493.229 227.437C492.736 227.799 492.146 228.073 491.458 228.26C490.771 228.448 490.003 228.542 489.156 228.542C488.378 228.542 487.611 228.444 486.854 228.25C486.104 228.049 485.424 227.743 484.812 227.333C484.201 226.917 483.712 226.385 483.344 225.74C482.983 225.087 482.802 224.312 482.802 223.417H486.469C486.469 223.861 486.528 224.236 486.646 224.542C486.764 224.847 486.937 225.094 487.167 225.281C487.396 225.462 487.677 225.594 488.01 225.677C488.344 225.753 488.726 225.792 489.156 225.792C489.622 225.792 489.997 225.726 490.281 225.594C490.566 225.455 490.774 225.274 490.906 225.052C491.038 224.823 491.104 224.573 491.104 224.302Z" fill="white"/>
<rect x="571" y="196.333" width="208" height="49.3333" rx="4.66667" fill="#888888" stroke="#888888" stroke-width="4"/>
<path d="M651.073 225.521V228.333H643.406V225.521H651.073ZM644.708 213.167V228.333H641.052V213.167H644.708ZM658.302 225.5V220.854C658.302 220.535 658.257 220.26 658.167 220.031C658.076 219.802 657.934 219.625 657.74 219.5C657.545 219.368 657.285 219.302 656.958 219.302C656.694 219.302 656.469 219.347 656.281 219.437C656.094 219.528 655.951 219.663 655.854 219.844C655.757 220.024 655.708 220.253 655.708 220.531H652.198C652.198 220.01 652.312 219.528 652.542 219.083C652.778 218.632 653.111 218.24 653.542 217.906C653.979 217.573 654.5 217.316 655.104 217.135C655.715 216.948 656.396 216.854 657.146 216.854C658.042 216.854 658.84 217.003 659.542 217.302C660.25 217.601 660.809 218.049 661.219 218.646C661.628 219.236 661.833 219.979 661.833 220.875V225.49C661.833 226.226 661.875 226.785 661.958 227.167C662.042 227.542 662.16 227.872 662.312 228.156V228.333H658.792C658.625 227.986 658.5 227.562 658.417 227.062C658.34 226.556 658.302 226.035 658.302 225.5ZM658.729 221.448L658.75 223.323H657.198C656.872 223.323 656.594 223.368 656.365 223.458C656.142 223.549 655.962 223.674 655.823 223.833C655.691 223.986 655.594 224.16 655.531 224.354C655.476 224.549 655.448 224.753 655.448 224.969C655.448 225.177 655.497 225.365 655.594 225.531C655.698 225.691 655.837 225.816 656.01 225.906C656.184 225.997 656.378 226.042 656.594 226.042C656.983 226.042 657.312 225.969 657.583 225.823C657.861 225.67 658.073 225.486 658.219 225.271C658.365 225.056 658.437 224.854 658.437 224.667L659.208 226.104C659.069 226.382 658.91 226.663 658.729 226.948C658.556 227.233 658.337 227.497 658.073 227.74C657.816 227.976 657.5 228.17 657.125 228.323C656.75 228.469 656.295 228.542 655.76 228.542C655.066 228.542 654.427 228.399 653.844 228.115C653.267 227.83 652.806 227.434 652.458 226.927C652.111 226.413 651.937 225.823 651.937 225.156C651.937 224.573 652.042 224.052 652.25 223.594C652.465 223.135 652.788 222.747 653.219 222.427C653.649 222.108 654.198 221.865 654.865 221.698C655.531 221.531 656.316 221.448 657.219 221.448H658.729ZM667.323 219.854V228.333H663.812V217.062H667.094L667.323 219.854ZM670.656 216.979L670.594 220.24C670.455 220.226 670.267 220.208 670.031 220.187C669.795 220.167 669.597 220.156 669.437 220.156C669.028 220.156 668.674 220.205 668.375 220.302C668.083 220.392 667.84 220.531 667.646 220.719C667.458 220.899 667.319 221.128 667.229 221.406C667.146 221.684 667.108 222.007 667.115 222.375L666.479 221.958C666.479 221.201 666.552 220.514 666.698 219.896C666.851 219.271 667.066 218.733 667.344 218.281C667.622 217.823 667.958 217.472 668.354 217.229C668.75 216.979 669.194 216.854 669.687 216.854C669.861 216.854 670.031 216.865 670.198 216.885C670.372 216.906 670.524 216.937 670.656 216.979ZM677.406 225.5V220.854C677.406 220.535 677.361 220.26 677.271 220.031C677.181 219.802 677.038 219.625 676.844 219.5C676.649 219.368 676.389 219.302 676.063 219.302C675.799 219.302 675.573 219.347 675.385 219.437C675.198 219.528 675.056 219.663 674.958 219.844C674.861 220.024 674.813 220.253 674.813 220.531H671.302C671.302 220.01 671.417 219.528 671.646 219.083C671.882 218.632 672.215 218.24 672.646 217.906C673.083 217.573 673.604 217.316 674.208 217.135C674.819 216.948 675.5 216.854 676.25 216.854C677.146 216.854 677.944 217.003 678.646 217.302C679.354 217.601 679.913 218.049 680.323 218.646C680.733 219.236 680.938 219.979 680.938 220.875V225.49C680.938 226.226 680.979 226.785 681.063 227.167C681.146 227.542 681.264 227.872 681.417 228.156V228.333H677.896C677.729 227.986 677.604 227.562 677.521 227.062C677.444 226.556 677.406 226.035 677.406 225.5ZM677.833 221.448L677.854 223.323H676.302C675.976 223.323 675.698 223.368 675.469 223.458C675.247 223.549 675.066 223.674 674.927 223.833C674.795 223.986 674.698 224.16 674.635 224.354C674.58 224.549 674.552 224.753 674.552 224.969C674.552 225.177 674.601 225.365 674.698 225.531C674.802 225.691 674.941 225.816 675.115 225.906C675.288 225.997 675.483 226.042 675.698 226.042C676.087 226.042 676.417 225.969 676.688 225.823C676.965 225.67 677.177 225.486 677.323 225.271C677.469 225.056 677.542 224.854 677.542 224.667L678.313 226.104C678.174 226.382 678.014 226.663 677.833 226.948C677.66 227.233 677.441 227.497 677.177 227.74C676.92 227.976 676.604 228.17 676.229 228.323C675.854 228.469 675.399 228.542 674.865 228.542C674.17 228.542 673.531 228.399 672.948 228.115C672.372 227.83 671.91 227.434 671.563 226.927C671.215 226.413 671.042 225.823 671.042 225.156C671.042 224.573 671.146 224.052 671.354 223.594C671.569 223.135 671.892 222.747 672.323 222.427C672.753 222.108 673.302 221.865 673.969 221.698C674.635 221.531 675.42 221.448 676.323 221.448H677.833ZM686.781 225.927L689 217.062H692.698L689.01 228.333H686.823L686.781 225.927ZM685.469 217.062L687.656 225.927L687.635 228.333H685.437L681.76 217.062H685.469ZM699.052 228.542C698.135 228.542 697.316 228.399 696.594 228.115C695.872 227.823 695.26 227.424 694.76 226.917C694.267 226.41 693.889 225.826 693.625 225.167C693.368 224.507 693.24 223.809 693.24 223.073V222.677C693.24 221.851 693.354 221.087 693.583 220.385C693.812 219.677 694.153 219.059 694.604 218.531C695.056 218.003 695.622 217.594 696.302 217.302C696.983 217.003 697.774 216.854 698.677 216.854C699.476 216.854 700.191 216.983 700.823 217.24C701.455 217.497 701.99 217.865 702.427 218.344C702.872 218.823 703.208 219.403 703.437 220.083C703.674 220.764 703.792 221.528 703.792 222.375V223.802H694.583V221.604H700.365V221.333C700.372 220.958 700.306 220.639 700.167 220.375C700.035 220.111 699.84 219.91 699.583 219.771C699.326 219.632 699.014 219.562 698.646 219.562C698.264 219.562 697.948 219.646 697.698 219.812C697.455 219.979 697.264 220.208 697.125 220.5C696.993 220.785 696.899 221.115 696.844 221.49C696.788 221.865 696.76 222.26 696.76 222.677V223.073C696.76 223.49 696.816 223.868 696.927 224.208C697.045 224.549 697.212 224.84 697.427 225.083C697.649 225.319 697.913 225.503 698.219 225.635C698.531 225.767 698.885 225.833 699.281 225.833C699.76 225.833 700.233 225.743 700.698 225.562C701.163 225.382 701.562 225.083 701.896 224.667L703.49 226.562C703.26 226.889 702.934 227.205 702.51 227.51C702.094 227.816 701.594 228.066 701.01 228.26C700.427 228.448 699.774 228.542 699.052 228.542ZM708.927 212.333V228.333H705.406V212.333H708.927Z" fill="white"/>
<rect x="803" y="196.333" width="208" height="49.3333" rx="4.66667" fill="#888888" stroke="#888888" stroke-width="4"/>
<path d="M875.26 213.167H878.24L881.625 223.719L885.01 213.167H887.99L882.833 228.333H880.417L875.26 213.167ZM873.448 213.167H876.531L877.104 224.792V228.333H873.448V213.167ZM886.719 213.167H889.812V228.333H886.146V224.792L886.719 213.167ZM895.448 227.01L898.365 217.062H902.135L897.604 230.01C897.507 230.295 897.378 230.601 897.219 230.927C897.059 231.26 896.84 231.576 896.563 231.875C896.285 232.174 895.927 232.417 895.49 232.604C895.059 232.792 894.524 232.885 893.885 232.885C893.545 232.885 893.295 232.868 893.135 232.833C892.983 232.806 892.747 232.753 892.427 232.677V230.167C892.517 230.167 892.594 230.167 892.656 230.167C892.726 230.167 892.802 230.167 892.885 230.167C893.26 230.167 893.559 230.128 893.781 230.052C894.01 229.976 894.184 229.865 894.302 229.719C894.427 229.573 894.524 229.396 894.594 229.187L895.448 227.01ZM894.708 217.062L896.927 224.948L897.313 228.667H894.958L890.948 217.062H894.708ZM911.031 224.302C911.031 224.066 910.997 223.854 910.927 223.667C910.858 223.472 910.729 223.292 910.542 223.125C910.354 222.958 910.083 222.792 909.729 222.625C909.382 222.451 908.924 222.271 908.354 222.083C907.688 221.861 907.045 221.611 906.427 221.333C905.809 221.049 905.257 220.719 904.771 220.344C904.285 219.962 903.899 219.517 903.615 219.01C903.33 218.497 903.188 217.899 903.188 217.219C903.188 216.566 903.333 215.979 903.625 215.458C903.917 214.931 904.323 214.483 904.844 214.115C905.372 213.74 905.99 213.455 906.698 213.26C907.406 213.059 908.181 212.958 909.021 212.958C910.132 212.958 911.111 213.153 911.958 213.542C912.813 213.924 913.479 214.469 913.958 215.177C914.444 215.878 914.688 216.708 914.688 217.667H911.052C911.052 217.285 910.972 216.948 910.813 216.656C910.66 216.365 910.427 216.135 910.115 215.969C909.802 215.802 909.41 215.719 908.938 215.719C908.479 215.719 908.094 215.788 907.781 215.927C907.469 216.066 907.233 216.253 907.073 216.49C906.913 216.719 906.833 216.972 906.833 217.25C906.833 217.479 906.896 217.687 907.021 217.875C907.153 218.056 907.337 218.226 907.573 218.385C907.816 218.545 908.108 218.698 908.448 218.844C908.795 218.99 909.184 219.132 909.615 219.271C910.42 219.528 911.135 219.816 911.76 220.135C912.392 220.448 912.924 220.806 913.354 221.208C913.792 221.604 914.122 222.056 914.344 222.562C914.573 223.069 914.688 223.642 914.688 224.281C914.688 224.962 914.556 225.566 914.292 226.094C914.028 226.622 913.649 227.069 913.156 227.437C912.663 227.799 912.073 228.073 911.385 228.26C910.698 228.448 909.931 228.542 909.083 228.542C908.306 228.542 907.538 228.444 906.781 228.25C906.031 228.049 905.351 227.743 904.74 227.333C904.128 226.917 903.639 226.385 903.271 225.74C902.91 225.087 902.729 224.312 902.729 223.417H906.396C906.396 223.861 906.455 224.236 906.573 224.542C906.691 224.847 906.865 225.094 907.094 225.281C907.323 225.462 907.604 225.594 907.938 225.677C908.271 225.753 908.653 225.792 909.083 225.792C909.549 225.792 909.924 225.726 910.208 225.594C910.493 225.455 910.701 225.274 910.833 225.052C910.965 224.823 911.031 224.573 911.031 224.302ZM925.031 225.833L929.26 229.187L926.99 231.104L922.833 227.75L925.031 225.833ZM929.437 220.448V221.062C929.437 222.222 929.274 223.264 928.948 224.187C928.628 225.104 928.17 225.889 927.573 226.542C926.983 227.187 926.285 227.684 925.479 228.031C924.674 228.372 923.785 228.542 922.812 228.542C921.833 228.542 920.937 228.372 920.125 228.031C919.319 227.684 918.618 227.187 918.021 226.542C917.431 225.889 916.972 225.104 916.646 224.187C916.326 223.264 916.167 222.222 916.167 221.062V220.448C916.167 219.288 916.326 218.247 916.646 217.323C916.972 216.399 917.427 215.615 918.01 214.969C918.601 214.316 919.299 213.819 920.104 213.479C920.917 213.132 921.812 212.958 922.792 212.958C923.764 212.958 924.653 213.132 925.458 213.479C926.271 213.819 926.972 214.316 927.562 214.969C928.16 215.615 928.622 216.399 928.948 217.323C929.274 218.247 929.437 219.288 929.437 220.448ZM925.719 221.062V220.427C925.719 219.677 925.653 219.017 925.521 218.448C925.396 217.872 925.208 217.389 924.958 217C924.708 216.611 924.399 216.319 924.031 216.125C923.67 215.924 923.257 215.823 922.792 215.823C922.306 215.823 921.882 215.924 921.521 216.125C921.16 216.319 920.858 216.611 920.615 217C920.372 217.389 920.187 217.872 920.062 218.448C919.944 219.017 919.885 219.677 919.885 220.427V221.062C919.885 221.806 919.944 222.465 920.062 223.042C920.187 223.611 920.372 224.094 920.615 224.49C920.865 224.885 921.17 225.184 921.531 225.385C921.899 225.587 922.326 225.687 922.812 225.687C923.278 225.687 923.691 225.587 924.052 225.385C924.413 225.184 924.715 224.885 924.958 224.49C925.208 224.094 925.396 223.611 925.521 223.042C925.653 222.465 925.719 221.806 925.719 221.062ZM941.323 225.521V228.333H933.656V225.521H941.323ZM934.958 213.167V228.333H931.302V213.167H934.958Z" fill="white"/>
<rect x="1035" y="196.333" width="208" height="49.3333" rx="4.66667" fill="#888888" stroke="#888888" stroke-width="4"/>
<path d="M1102.33 213.167V228.333H1098.68V213.167H1102.33ZM1108.23 219.479V222.292H1101.29V219.479H1108.23ZM1108.82 213.167V215.99H1101.29V213.167H1108.82ZM1113.89 217.062V228.333H1110.36V217.062H1113.89ZM1110.16 214.156C1110.16 213.656 1110.34 213.247 1110.7 212.927C1111.06 212.608 1111.53 212.448 1112.1 212.448C1112.68 212.448 1113.15 212.608 1113.51 212.927C1113.87 213.247 1114.05 213.656 1114.05 214.156C1114.05 214.656 1113.87 215.066 1113.51 215.385C1113.15 215.705 1112.68 215.865 1112.1 215.865C1111.53 215.865 1111.06 215.705 1110.7 215.385C1110.34 215.066 1110.16 214.656 1110.16 214.156ZM1119.59 219.854V228.333H1116.08V217.062H1119.36L1119.59 219.854ZM1122.93 216.979L1122.86 220.24C1122.73 220.226 1122.54 220.208 1122.3 220.187C1122.07 220.167 1121.87 220.156 1121.71 220.156C1121.3 220.156 1120.94 220.205 1120.65 220.302C1120.35 220.392 1120.11 220.531 1119.92 220.719C1119.73 220.899 1119.59 221.128 1119.5 221.406C1119.42 221.684 1119.38 222.007 1119.39 222.375L1118.75 221.958C1118.75 221.201 1118.82 220.514 1118.97 219.896C1119.12 219.271 1119.34 218.733 1119.61 218.281C1119.89 217.823 1120.23 217.472 1120.63 217.229C1121.02 216.979 1121.47 216.854 1121.96 216.854C1122.13 216.854 1122.3 216.865 1122.47 216.885C1122.64 216.906 1122.8 216.937 1122.93 216.979ZM1129.39 228.542C1128.47 228.542 1127.65 228.399 1126.93 228.115C1126.2 227.823 1125.59 227.424 1125.09 226.917C1124.6 226.41 1124.22 225.826 1123.96 225.167C1123.7 224.507 1123.57 223.809 1123.57 223.073V222.677C1123.57 221.851 1123.69 221.087 1123.92 220.385C1124.15 219.677 1124.49 219.059 1124.94 218.531C1125.39 218.003 1125.95 217.594 1126.64 217.302C1127.32 217.003 1128.11 216.854 1129.01 216.854C1129.81 216.854 1130.52 216.983 1131.16 217.24C1131.79 217.497 1132.32 217.865 1132.76 218.344C1133.2 218.823 1133.54 219.403 1133.77 220.083C1134.01 220.764 1134.13 221.528 1134.13 222.375V223.802H1124.92V221.604H1130.7V221.333C1130.7 220.958 1130.64 220.639 1130.5 220.375C1130.37 220.111 1130.17 219.91 1129.92 219.771C1129.66 219.632 1129.35 219.562 1128.98 219.562C1128.6 219.562 1128.28 219.646 1128.03 219.812C1127.79 219.979 1127.6 220.208 1127.46 220.5C1127.33 220.785 1127.23 221.115 1127.18 221.49C1127.12 221.865 1127.09 222.26 1127.09 222.677V223.073C1127.09 223.49 1127.15 223.868 1127.26 224.208C1127.38 224.549 1127.55 224.84 1127.76 225.083C1127.98 225.319 1128.25 225.503 1128.55 225.635C1128.86 225.767 1129.22 225.833 1129.61 225.833C1130.09 225.833 1130.57 225.743 1131.03 225.562C1131.5 225.382 1131.9 225.083 1132.23 224.667L1133.82 226.562C1133.59 226.889 1133.27 227.205 1132.84 227.51C1132.43 227.816 1131.93 228.066 1131.34 228.26C1130.76 228.448 1130.11 228.542 1129.39 228.542ZM1135.58 212.333H1139.09V225.562L1138.73 228.333H1135.58V212.333ZM1146.01 222.573V222.792C1146.01 223.646 1145.92 224.424 1145.75 225.125C1145.58 225.826 1145.31 226.434 1144.95 226.948C1144.59 227.455 1144.13 227.847 1143.58 228.125C1143.03 228.403 1142.39 228.542 1141.64 228.542C1140.95 228.542 1140.37 228.396 1139.89 228.104C1139.4 227.806 1138.99 227.396 1138.67 226.875C1138.34 226.347 1138.08 225.74 1137.88 225.052C1137.67 224.358 1137.51 223.615 1137.4 222.823V222.562C1137.51 221.778 1137.67 221.042 1137.88 220.354C1138.08 219.66 1138.34 219.052 1138.67 218.531C1138.99 218.003 1139.4 217.594 1139.88 217.302C1140.36 217.003 1140.94 216.854 1141.61 216.854C1142.37 216.854 1143.02 216.997 1143.57 217.281C1144.13 217.566 1144.59 217.965 1144.95 218.479C1145.31 218.993 1145.58 219.597 1145.75 220.292C1145.92 220.986 1146.01 221.747 1146.01 222.573ZM1142.5 222.792V222.573C1142.5 222.163 1142.48 221.778 1142.43 221.417C1142.38 221.056 1142.29 220.736 1142.17 220.458C1142.04 220.181 1141.86 219.962 1141.64 219.802C1141.41 219.642 1141.11 219.562 1140.74 219.562C1140.36 219.562 1140.05 219.625 1139.79 219.75C1139.54 219.875 1139.34 220.056 1139.19 220.292C1139.04 220.521 1138.94 220.806 1138.88 221.146C1138.81 221.479 1138.78 221.858 1138.79 222.281V223.104C1138.78 223.681 1138.83 224.174 1138.95 224.583C1139.07 224.993 1139.27 225.306 1139.56 225.521C1139.85 225.736 1140.25 225.844 1140.76 225.844C1141.14 225.844 1141.44 225.771 1141.67 225.625C1141.9 225.479 1142.08 225.271 1142.2 225C1142.32 224.729 1142.4 224.406 1142.44 224.031C1142.48 223.656 1142.5 223.243 1142.5 222.792ZM1153.43 225.5V220.854C1153.43 220.535 1153.38 220.26 1153.29 220.031C1153.2 219.802 1153.06 219.625 1152.86 219.5C1152.67 219.368 1152.41 219.302 1152.08 219.302C1151.82 219.302 1151.59 219.347 1151.41 219.437C1151.22 219.528 1151.08 219.663 1150.98 219.844C1150.88 220.024 1150.83 220.253 1150.83 220.531H1147.32C1147.32 220.01 1147.44 219.528 1147.67 219.083C1147.9 218.632 1148.24 218.24 1148.67 217.906C1149.1 217.573 1149.62 217.316 1150.23 217.135C1150.84 216.948 1151.52 216.854 1152.27 216.854C1153.17 216.854 1153.97 217.003 1154.67 217.302C1155.37 217.601 1155.93 218.049 1156.34 218.646C1156.75 219.236 1156.96 219.979 1156.96 220.875V225.49C1156.96 226.226 1157 226.785 1157.08 227.167C1157.17 227.542 1157.28 227.872 1157.44 228.156V228.333H1153.92C1153.75 227.986 1153.62 227.562 1153.54 227.062C1153.47 226.556 1153.43 226.035 1153.43 225.5ZM1153.85 221.448L1153.87 223.323H1152.32C1152 223.323 1151.72 223.368 1151.49 223.458C1151.27 223.549 1151.09 223.674 1150.95 223.833C1150.82 223.986 1150.72 224.16 1150.66 224.354C1150.6 224.549 1150.57 224.753 1150.57 224.969C1150.57 225.177 1150.62 225.365 1150.72 225.531C1150.82 225.691 1150.96 225.816 1151.14 225.906C1151.31 225.997 1151.5 226.042 1151.72 226.042C1152.11 226.042 1152.44 225.969 1152.71 225.823C1152.99 225.67 1153.2 225.486 1153.34 225.271C1153.49 225.056 1153.56 224.854 1153.56 224.667L1154.33 226.104C1154.19 226.382 1154.03 226.663 1153.85 226.948C1153.68 227.233 1153.46 227.497 1153.2 227.74C1152.94 227.976 1152.62 228.17 1152.25 228.323C1151.87 228.469 1151.42 228.542 1150.89 228.542C1150.19 228.542 1149.55 228.399 1148.97 228.115C1148.39 227.83 1147.93 227.434 1147.58 226.927C1147.24 226.413 1147.06 225.823 1147.06 225.156C1147.06 224.573 1147.17 224.052 1147.37 223.594C1147.59 223.135 1147.91 222.747 1148.34 222.427C1148.77 222.108 1149.32 221.865 1149.99 221.698C1150.66 221.531 1151.44 221.448 1152.34 221.448H1153.85ZM1164.81 225.167C1164.81 224.972 1164.75 224.806 1164.61 224.667C1164.49 224.521 1164.27 224.389 1163.95 224.271C1163.63 224.146 1163.18 224.021 1162.6 223.896C1162.06 223.778 1161.54 223.622 1161.05 223.427C1160.57 223.233 1160.15 222.997 1159.79 222.719C1159.43 222.441 1159.15 222.111 1158.94 221.729C1158.74 221.347 1158.64 220.91 1158.64 220.417C1158.64 219.937 1158.74 219.486 1158.94 219.062C1159.15 218.632 1159.45 218.253 1159.84 217.927C1160.25 217.594 1160.74 217.333 1161.31 217.146C1161.89 216.951 1162.55 216.854 1163.28 216.854C1164.3 216.854 1165.17 217.01 1165.91 217.323C1166.64 217.628 1167.21 218.059 1167.6 218.615C1168.01 219.163 1168.21 219.799 1168.21 220.521H1164.7C1164.7 220.236 1164.65 219.993 1164.55 219.792C1164.46 219.59 1164.31 219.437 1164.1 219.333C1163.9 219.222 1163.62 219.167 1163.27 219.167C1163.03 219.167 1162.81 219.212 1162.6 219.302C1162.41 219.392 1162.25 219.517 1162.14 219.677C1162.02 219.837 1161.96 220.024 1161.96 220.24C1161.96 220.392 1161.99 220.531 1162.06 220.656C1162.14 220.774 1162.25 220.885 1162.41 220.99C1162.56 221.087 1162.75 221.177 1162.99 221.26C1163.23 221.337 1163.51 221.406 1163.84 221.469C1164.6 221.608 1165.31 221.806 1165.97 222.062C1166.63 222.319 1167.16 222.684 1167.57 223.156C1167.99 223.628 1168.2 224.264 1168.2 225.062C1168.2 225.562 1168.08 226.024 1167.85 226.448C1167.62 226.865 1167.3 227.233 1166.86 227.552C1166.43 227.865 1165.92 228.108 1165.31 228.281C1164.71 228.455 1164.03 228.542 1163.27 228.542C1162.19 228.542 1161.28 228.351 1160.54 227.969C1159.8 227.58 1159.24 227.094 1158.85 226.51C1158.48 225.92 1158.29 225.323 1158.29 224.719H1161.56C1161.58 225.066 1161.66 225.351 1161.81 225.573C1161.97 225.795 1162.18 225.958 1162.45 226.062C1162.71 226.167 1163.02 226.219 1163.36 226.219C1163.68 226.219 1163.95 226.174 1164.16 226.083C1164.37 225.993 1164.53 225.872 1164.65 225.719C1164.76 225.559 1164.81 225.375 1164.81 225.167ZM1175.3 228.542C1174.39 228.542 1173.57 228.399 1172.84 228.115C1172.12 227.823 1171.51 227.424 1171.01 226.917C1170.52 226.41 1170.14 225.826 1169.87 225.167C1169.62 224.507 1169.49 223.809 1169.49 223.073V222.677C1169.49 221.851 1169.6 221.087 1169.83 220.385C1170.06 219.677 1170.4 219.059 1170.85 218.531C1171.31 218.003 1171.87 217.594 1172.55 217.302C1173.23 217.003 1174.02 216.854 1174.93 216.854C1175.73 216.854 1176.44 216.983 1177.07 217.24C1177.7 217.497 1178.24 217.865 1178.68 218.344C1179.12 218.823 1179.46 219.403 1179.69 220.083C1179.92 220.764 1180.04 221.528 1180.04 222.375V223.802H1170.83V221.604H1176.61V221.333C1176.62 220.958 1176.56 220.639 1176.42 220.375C1176.28 220.111 1176.09 219.91 1175.83 219.771C1175.58 219.632 1175.26 219.562 1174.9 219.562C1174.51 219.562 1174.2 219.646 1173.95 219.812C1173.7 219.979 1173.51 220.208 1173.37 220.5C1173.24 220.785 1173.15 221.115 1173.09 221.49C1173.04 221.865 1173.01 222.26 1173.01 222.677V223.073C1173.01 223.49 1173.07 223.868 1173.18 224.208C1173.3 224.549 1173.46 224.84 1173.68 225.083C1173.9 225.319 1174.16 225.503 1174.47 225.635C1174.78 225.767 1175.14 225.833 1175.53 225.833C1176.01 225.833 1176.48 225.743 1176.95 225.562C1177.41 225.382 1177.81 225.083 1178.15 224.667L1179.74 226.562C1179.51 226.889 1179.18 227.205 1178.76 227.51C1178.34 227.816 1177.84 228.066 1177.26 228.26C1176.68 228.448 1176.02 228.542 1175.3 228.542Z" fill="white"/>
</svg>
