<svg xmlns="http://www.w3.org/2000/svg" xmlns:xlink="http://www.w3.org/1999/xlink" width="500" zoomAndPan="magnify" viewBox="0 0 375 374.999991" height="500" preserveAspectRatio="xMidYMid meet" version="1.0"><defs><clipPath id="b88657fa8d"><path d="M 8.800781 3 L 367 3 L 367 362 L 8.800781 362 Z M 8.800781 3 " clip-rule="nonzero"/></clipPath></defs><path fill="#ef4136" d="M 359.109375 182.625 C 359.109375 185.429688 359.039062 188.234375 358.902344 191.035156 C 358.765625 193.839844 358.558594 196.636719 358.285156 199.425781 C 358.007812 202.21875 357.664062 205.003906 357.253906 207.777344 C 356.839844 210.554688 356.363281 213.316406 355.816406 216.070312 C 355.265625 218.820312 354.652344 221.558594 353.972656 224.277344 C 353.289062 227 352.542969 229.703125 351.726562 232.386719 C 350.914062 235.070312 350.03125 237.734375 349.085938 240.375 C 348.144531 243.019531 347.132812 245.636719 346.058594 248.226562 C 344.984375 250.820312 343.847656 253.382812 342.648438 255.917969 C 341.449219 258.457031 340.1875 260.960938 338.867188 263.433594 C 337.542969 265.910156 336.160156 268.347656 334.71875 270.753906 C 333.277344 273.160156 331.777344 275.53125 330.21875 277.863281 C 328.660156 280.195312 327.042969 282.488281 325.375 284.742188 C 323.703125 286.996094 321.976562 289.207031 320.195312 291.375 C 318.417969 293.546875 316.585938 295.667969 314.699219 297.746094 C 312.816406 299.828125 310.882812 301.859375 308.898438 303.839844 C 306.914062 305.824219 304.882812 307.757812 302.804688 309.644531 C 300.726562 311.527344 298.601562 313.359375 296.433594 315.140625 C 294.265625 316.917969 292.054688 318.644531 289.800781 320.316406 C 287.546875 321.988281 285.253906 323.601562 282.921875 325.160156 C 280.589844 326.71875 278.21875 328.21875 275.8125 329.664062 C 273.40625 331.105469 270.964844 332.488281 268.492188 333.808594 C 266.019531 335.132812 263.511719 336.394531 260.976562 337.59375 C 258.441406 338.792969 255.875 339.929688 253.285156 341.003906 C 250.691406 342.074219 248.074219 343.085938 245.433594 344.03125 C 242.792969 344.976562 240.128906 345.855469 237.445312 346.667969 C 234.761719 347.484375 232.058594 348.230469 229.335938 348.914062 C 226.613281 349.59375 223.878906 350.210938 221.125 350.757812 C 218.375 351.304688 215.609375 351.785156 212.835938 352.195312 C 210.0625 352.609375 207.277344 352.949219 204.484375 353.226562 C 201.691406 353.5 198.894531 353.707031 196.09375 353.84375 C 193.292969 353.984375 190.488281 354.050781 187.683594 354.050781 C 184.875 354.050781 182.074219 353.984375 179.269531 353.84375 C 176.46875 353.707031 173.671875 353.5 170.878906 353.226562 C 168.085938 352.949219 165.304688 352.609375 162.527344 352.195312 C 159.753906 351.785156 156.992188 351.304688 154.238281 350.757812 C 151.488281 350.210938 148.75 349.59375 146.027344 348.914062 C 143.308594 348.230469 140.605469 347.484375 137.921875 346.667969 C 135.234375 345.855469 132.570312 344.976562 129.929688 344.03125 C 127.289062 343.085938 124.671875 342.074219 122.082031 341.003906 C 119.488281 339.929688 116.925781 338.792969 114.386719 337.59375 C 111.851562 336.394531 109.347656 335.132812 106.871094 333.808594 C 104.398438 332.488281 101.957031 331.105469 99.550781 329.664062 C 97.144531 328.21875 94.777344 326.71875 92.441406 325.160156 C 90.109375 323.601562 87.816406 321.988281 85.5625 320.316406 C 83.308594 318.644531 81.097656 316.917969 78.929688 315.140625 C 76.761719 313.359375 74.636719 311.527344 72.558594 309.644531 C 70.480469 307.757812 68.449219 305.824219 66.464844 303.839844 C 64.480469 301.859375 62.546875 299.828125 60.664062 297.746094 C 58.78125 295.667969 56.949219 293.546875 55.167969 291.375 C 53.386719 289.207031 51.664062 286.996094 49.992188 284.742188 C 48.320312 282.488281 46.707031 280.195312 45.148438 277.863281 C 43.589844 275.53125 42.085938 273.160156 40.644531 270.753906 C 39.203125 268.347656 37.820312 265.910156 36.496094 263.433594 C 35.175781 260.960938 33.914062 258.457031 32.714844 255.917969 C 31.515625 253.382812 30.378906 250.820312 29.304688 248.226562 C 28.230469 245.636719 27.222656 243.019531 26.277344 240.375 C 25.332031 237.734375 24.453125 235.070312 23.636719 232.386719 C 22.824219 229.703125 22.074219 227 21.394531 224.277344 C 20.710938 221.558594 20.097656 218.820312 19.550781 216.070312 C 19.003906 213.316406 18.523438 210.554688 18.113281 207.777344 C 17.699219 205.003906 17.355469 202.21875 17.082031 199.425781 C 16.804688 196.636719 16.601562 193.839844 16.460938 191.035156 C 16.324219 188.234375 16.257812 185.429688 16.257812 182.625 C 16.257812 179.820312 16.324219 177.015625 16.460938 174.214844 C 16.601562 171.410156 16.804688 168.613281 17.082031 165.824219 C 17.355469 163.03125 17.699219 160.246094 18.113281 157.472656 C 18.523438 154.695312 19.003906 151.933594 19.550781 149.179688 C 20.097656 146.429688 20.710938 143.691406 21.394531 140.972656 C 22.074219 138.25 22.824219 135.546875 23.636719 132.863281 C 24.453125 130.179688 25.332031 127.515625 26.277344 124.875 C 27.222656 122.230469 28.230469 119.613281 29.304688 117.023438 C 30.378906 114.429688 31.515625 111.867188 32.714844 109.332031 C 33.914062 106.792969 35.175781 104.289062 36.496094 101.816406 C 37.820312 99.339844 39.203125 96.902344 40.644531 94.496094 C 42.085938 92.085938 43.589844 89.71875 45.148438 87.386719 C 46.707031 85.054688 48.320312 82.761719 49.992188 80.507812 C 51.664062 78.253906 53.386719 76.042969 55.167969 73.875 C 56.949219 71.703125 58.78125 69.582031 60.664062 67.503906 C 62.546875 65.421875 64.480469 63.390625 66.464844 61.410156 C 68.449219 59.425781 70.480469 57.492188 72.558594 55.605469 C 74.636719 53.722656 76.761719 51.890625 78.929688 50.109375 C 81.097656 48.332031 83.308594 46.605469 85.5625 44.933594 C 87.816406 43.261719 90.109375 41.648438 92.441406 40.089844 C 94.777344 38.53125 97.144531 37.03125 99.550781 35.585938 C 101.957031 34.144531 104.398438 32.761719 106.871094 31.441406 C 109.347656 30.117188 111.851562 28.855469 114.386719 27.65625 C 116.925781 26.457031 119.488281 25.320312 122.082031 24.246094 C 124.671875 23.175781 127.289062 22.164062 129.929688 21.21875 C 132.570312 20.273438 135.234375 19.394531 137.921875 18.582031 C 140.605469 17.765625 143.308594 17.019531 146.027344 16.335938 C 148.75 15.65625 151.488281 15.039062 154.238281 14.492188 C 156.992188 13.945312 159.753906 13.464844 162.527344 13.054688 C 165.304688 12.640625 168.085938 12.300781 170.878906 12.023438 C 173.671875 11.75 176.46875 11.542969 179.269531 11.40625 C 182.074219 11.265625 184.875 11.199219 187.683594 11.199219 C 190.488281 11.199219 193.292969 11.265625 196.09375 11.40625 C 198.894531 11.542969 201.691406 11.75 204.484375 12.023438 C 207.277344 12.300781 210.0625 12.640625 212.835938 13.054688 C 215.609375 13.464844 218.375 13.945312 221.125 14.492188 C 223.878906 15.039062 226.613281 15.65625 229.335938 16.335938 C 232.058594 17.019531 234.761719 17.765625 237.445312 18.582031 C 240.128906 19.394531 242.792969 20.273438 245.433594 21.21875 C 248.074219 22.164062 250.691406 23.175781 253.285156 24.246094 C 255.875 25.320312 258.441406 26.457031 260.976562 27.65625 C 263.511719 28.855469 266.019531 30.117188 268.492188 31.441406 C 270.964844 32.761719 273.40625 34.144531 275.8125 35.585938 C 278.21875 37.03125 280.589844 38.53125 282.921875 40.089844 C 285.253906 41.648438 287.546875 43.261719 289.800781 44.933594 C 292.054688 46.605469 294.265625 48.332031 296.433594 50.109375 C 298.601562 51.890625 300.726562 53.722656 302.804688 55.605469 C 304.882812 57.492188 306.914062 59.425781 308.898438 61.410156 C 310.882812 63.390625 312.816406 65.421875 314.699219 67.503906 C 316.585938 69.582031 318.417969 71.703125 320.195312 73.875 C 321.976562 76.042969 323.703125 78.253906 325.375 80.507812 C 327.042969 82.761719 328.660156 85.054688 330.21875 87.386719 C 331.777344 89.71875 333.277344 92.085938 334.71875 94.496094 C 336.160156 96.902344 337.542969 99.339844 338.867188 101.816406 C 340.1875 104.289062 341.449219 106.792969 342.648438 109.332031 C 343.847656 111.867188 344.984375 114.429688 346.058594 117.023438 C 347.132812 119.613281 348.144531 122.230469 349.085938 124.875 C 350.03125 127.515625 350.914062 130.179688 351.726562 132.863281 C 352.542969 135.546875 353.289062 138.25 353.972656 140.972656 C 354.652344 143.691406 355.265625 146.429688 355.816406 149.179688 C 356.363281 151.933594 356.839844 154.695312 357.253906 157.472656 C 357.664062 160.246094 358.007812 163.03125 358.285156 165.824219 C 358.558594 168.613281 358.765625 171.410156 358.902344 174.214844 C 359.039062 177.015625 359.109375 179.820312 359.109375 182.625 Z M 359.109375 182.625 " fill-opacity="1" fill-rule="nonzero"/><path fill="#be3c36" d="M 332.878906 91.527344 C 333.816406 93.988281 334.703125 96.464844 335.527344 98.964844 C 336.355469 101.460938 337.125 103.976562 337.835938 106.511719 C 338.546875 109.042969 339.199219 111.59375 339.792969 114.15625 C 340.386719 116.722656 340.921875 119.296875 341.394531 121.886719 C 341.871094 124.472656 342.285156 127.070312 342.640625 129.679688 C 342.996094 132.285156 343.292969 134.902344 343.527344 137.523438 C 343.761719 140.144531 343.933594 142.769531 344.050781 145.398438 C 344.164062 148.027344 344.214844 150.65625 344.210938 153.289062 C 344.203125 155.917969 344.132812 158.550781 344.007812 161.179688 C 343.878906 163.804688 343.6875 166.429688 343.441406 169.050781 C 343.191406 171.667969 342.882812 174.28125 342.511719 176.886719 C 342.144531 179.492188 341.714844 182.089844 341.222656 184.675781 C 340.734375 187.261719 340.1875 189.832031 339.578125 192.394531 C 338.972656 194.953125 338.304688 197.5 337.582031 200.03125 C 336.855469 202.558594 336.074219 205.070312 335.234375 207.566406 C 334.394531 210.058594 333.496094 212.53125 332.542969 214.984375 C 331.585938 217.4375 330.578125 219.867188 329.511719 222.273438 C 328.445312 224.675781 327.324219 227.058594 326.148438 229.410156 C 324.972656 231.765625 323.742188 234.09375 322.460938 236.390625 C 321.175781 238.6875 319.84375 240.953125 318.453125 243.191406 C 317.066406 245.425781 315.628906 247.628906 314.140625 249.800781 C 312.652344 251.96875 311.113281 254.105469 309.527344 256.203125 C 307.941406 258.300781 306.304688 260.363281 304.621094 262.386719 C 302.941406 264.410156 301.214844 266.394531 299.441406 268.339844 C 297.667969 270.285156 295.847656 272.1875 293.988281 274.046875 C 292.128906 275.90625 290.222656 277.722656 288.28125 279.496094 C 286.335938 281.269531 284.351562 282.996094 282.324219 284.679688 C 280.300781 286.359375 278.238281 287.992188 276.140625 289.582031 C 274.039062 291.167969 271.90625 292.703125 269.734375 294.191406 C 267.566406 295.679688 265.363281 297.117188 263.125 298.503906 C 260.890625 299.890625 258.621094 301.226562 256.324219 302.507812 C 254.027344 303.792969 251.699219 305.019531 249.34375 306.195312 C 246.992188 307.371094 244.609375 308.492188 242.203125 309.554688 C 239.796875 310.621094 237.367188 311.632812 234.914062 312.585938 C 232.464844 313.539062 229.988281 314.4375 227.496094 315.277344 C 225 316.117188 222.488281 316.898438 219.960938 317.621094 C 217.429688 318.34375 214.882812 319.011719 212.324219 319.617188 C 209.761719 320.222656 207.191406 320.773438 204.605469 321.261719 C 202.019531 321.75 199.421875 322.175781 196.816406 322.546875 C 194.210938 322.914062 191.597656 323.222656 188.980469 323.472656 C 186.359375 323.71875 183.734375 323.910156 181.105469 324.035156 C 178.476562 324.164062 175.847656 324.230469 173.214844 324.238281 C 170.585938 324.242188 167.953125 324.191406 165.324219 324.074219 C 162.695312 323.960938 160.070312 323.785156 157.449219 323.550781 C 154.828125 323.3125 152.214844 323.019531 149.609375 322.664062 C 147 322.308594 144.402344 321.890625 141.816406 321.414062 C 139.226562 320.941406 136.652344 320.40625 134.085938 319.8125 C 131.523438 319.214844 128.976562 318.5625 126.441406 317.851562 C 123.90625 317.140625 121.390625 316.371094 118.894531 315.542969 C 116.394531 314.714844 113.917969 313.832031 111.460938 312.890625 C 109.003906 311.949219 106.570312 310.949219 104.15625 309.898438 C 101.746094 308.84375 99.359375 307.734375 97 306.570312 C 94.640625 305.40625 92.308594 304.191406 90.003906 302.917969 C 87.699219 301.648438 85.425781 300.324219 83.183594 298.949219 C 80.9375 297.574219 78.726562 296.148438 76.550781 294.667969 C 74.371094 293.191406 72.230469 291.664062 70.121094 290.089844 C 68.015625 288.511719 65.945312 286.886719 63.914062 285.21875 C 61.878906 283.546875 59.886719 281.828125 57.933594 280.066406 C 55.980469 278.300781 54.070312 276.492188 52.199219 274.644531 C 50.328125 272.792969 48.503906 270.898438 46.71875 268.960938 C 44.9375 267.027344 43.199219 265.050781 41.507812 263.035156 C 39.816406 261.019531 38.171875 258.96875 36.574219 256.875 C 34.976562 254.785156 33.425781 252.65625 31.925781 250.496094 C 30.429688 248.332031 28.980469 246.136719 27.582031 243.90625 C 28.644531 246.691406 29.78125 249.445312 30.988281 252.167969 C 32.199219 254.890625 33.476562 257.582031 34.824219 260.238281 C 36.171875 262.898438 37.589844 265.515625 39.074219 268.101562 C 40.5625 270.683594 42.113281 273.226562 43.730469 275.730469 C 45.347656 278.230469 47.03125 280.691406 48.777344 283.105469 C 50.523438 285.519531 52.328125 287.886719 54.199219 290.207031 C 56.066406 292.527344 57.996094 294.796875 59.984375 297.015625 C 61.972656 299.238281 64.015625 301.402344 66.117188 303.515625 C 68.21875 305.628906 70.371094 307.6875 72.582031 309.6875 C 74.789062 311.6875 77.046875 313.632812 79.355469 315.515625 C 81.667969 317.398438 84.023438 319.21875 86.429688 320.980469 C 88.832031 322.738281 91.28125 324.433594 93.773438 326.066406 C 96.265625 327.699219 98.800781 329.265625 101.375 330.765625 C 103.949219 332.269531 106.5625 333.699219 109.210938 335.0625 C 111.859375 336.429688 114.542969 337.722656 117.257812 338.945312 C 119.976562 340.171875 122.722656 341.324219 125.5 342.40625 C 128.277344 343.484375 131.078125 344.492188 133.910156 345.429688 C 136.738281 346.363281 139.589844 347.222656 142.464844 348.007812 C 145.339844 348.796875 148.230469 349.507812 151.140625 350.140625 C 154.054688 350.777344 156.980469 351.335938 159.917969 351.820312 C 162.859375 352.300781 165.8125 352.707031 168.773438 353.035156 C 171.734375 353.363281 174.703125 353.617188 177.675781 353.789062 C 180.652344 353.964844 183.628906 354.058594 186.609375 354.078125 C 189.589844 354.097656 192.566406 354.039062 195.542969 353.902344 C 198.519531 353.765625 201.492188 353.550781 204.457031 353.261719 C 207.421875 352.96875 210.378906 352.601562 213.324219 352.15625 C 216.269531 351.710938 219.203125 351.1875 222.121094 350.589844 C 225.042969 349.988281 227.941406 349.316406 230.828125 348.566406 C 233.710938 347.816406 236.574219 346.992188 239.414062 346.09375 C 242.253906 345.191406 245.070312 344.21875 247.859375 343.175781 C 250.652344 342.128906 253.410156 341.011719 256.144531 339.820312 C 258.875 338.628906 261.574219 337.371094 264.242188 336.039062 C 266.90625 334.707031 269.535156 333.308594 272.128906 331.839844 C 274.722656 330.375 277.277344 328.839844 279.789062 327.238281 C 282.300781 325.636719 284.773438 323.972656 287.199219 322.242188 C 289.625 320.511719 292.003906 318.71875 294.335938 316.867188 C 296.671875 315.011719 298.953125 313.097656 301.1875 311.125 C 303.417969 309.152344 305.597656 307.125 307.726562 305.039062 C 309.855469 302.949219 311.925781 300.808594 313.941406 298.613281 C 315.957031 296.421875 317.914062 294.175781 319.8125 291.878906 C 321.710938 289.582031 323.546875 287.238281 325.324219 284.84375 C 327.101562 282.453125 328.8125 280.015625 330.460938 277.53125 C 332.113281 275.050781 333.695312 272.527344 335.210938 269.964844 C 336.730469 267.398438 338.179688 264.796875 339.5625 262.15625 C 340.941406 259.515625 342.253906 256.84375 343.496094 254.132812 C 344.738281 251.425781 345.910156 248.6875 347.011719 245.917969 C 348.109375 243.148438 349.136719 240.351562 350.089844 237.527344 C 351.042969 234.707031 351.925781 231.859375 352.730469 228.992188 C 353.535156 226.121094 354.265625 223.234375 354.917969 220.328125 C 355.574219 217.417969 356.152344 214.496094 356.65625 211.5625 C 357.15625 208.625 357.582031 205.675781 357.929688 202.714844 C 358.28125 199.757812 358.550781 196.789062 358.746094 193.816406 C 358.9375 190.84375 359.054688 187.867188 359.09375 184.886719 C 359.132812 181.90625 359.09375 178.929688 358.976562 175.953125 C 358.859375 172.972656 358.667969 170 358.394531 167.035156 C 358.125 164.066406 357.773438 161.109375 357.347656 158.160156 C 356.921875 155.210938 356.421875 152.273438 355.839844 149.351562 C 355.261719 146.429688 354.605469 143.523438 353.875 140.632812 C 353.144531 137.746094 352.339844 134.875 351.460938 132.03125 C 350.582031 129.183594 349.625 126.359375 348.597656 123.5625 C 347.570312 120.765625 346.472656 118 345.300781 115.257812 C 344.128906 112.519531 342.886719 109.8125 341.574219 107.136719 C 340.261719 104.460938 338.878906 101.824219 337.429688 99.21875 C 335.980469 96.617188 334.460938 94.054688 332.878906 91.527344 Z M 332.878906 91.527344 " fill-opacity="1" fill-rule="nonzero"/><g clip-path="url(#b88657fa8d)"><path fill="#000000" d="M 187.683594 3.746094 C 184.753906 3.746094 181.828125 3.816406 178.90625 3.960938 C 175.980469 4.105469 173.0625 4.320312 170.148438 4.605469 C 167.234375 4.894531 164.332031 5.25 161.433594 5.679688 C 158.539062 6.109375 155.65625 6.613281 152.785156 7.183594 C 149.914062 7.753906 147.058594 8.394531 144.21875 9.105469 C 141.378906 9.816406 138.558594 10.597656 135.757812 11.449219 C 132.953125 12.296875 130.175781 13.214844 127.417969 14.203125 C 124.664062 15.1875 121.933594 16.242188 119.226562 17.363281 C 116.523438 18.480469 113.847656 19.667969 111.203125 20.917969 C 108.554688 22.171875 105.941406 23.488281 103.359375 24.867188 C 100.777344 26.246094 98.230469 27.691406 95.71875 29.195312 C 93.207031 30.699219 90.734375 32.265625 88.300781 33.890625 C 85.867188 35.519531 83.476562 37.203125 81.125 38.949219 C 78.773438 40.691406 76.464844 42.492188 74.203125 44.347656 C 71.9375 46.207031 69.722656 48.117188 67.554688 50.082031 C 65.386719 52.050781 63.265625 54.066406 61.195312 56.136719 C 59.125 58.207031 57.105469 60.328125 55.140625 62.496094 C 53.175781 64.664062 51.265625 66.882812 49.40625 69.144531 C 47.550781 71.40625 45.75 73.714844 44.003906 76.066406 C 42.261719 78.417969 40.574219 80.8125 38.949219 83.246094 C 37.324219 85.679688 35.757812 88.152344 34.253906 90.664062 C 32.746094 93.171875 31.304688 95.71875 29.925781 98.300781 C 28.542969 100.882812 27.230469 103.496094 25.976562 106.144531 C 24.726562 108.789062 23.539062 111.464844 22.417969 114.171875 C 21.296875 116.875 20.246094 119.605469 19.257812 122.363281 C 18.273438 125.117188 17.355469 127.898438 16.503906 130.699219 C 15.65625 133.5 14.875 136.320312 14.164062 139.160156 C 13.453125 142 12.8125 144.855469 12.238281 147.726562 C 11.667969 150.597656 11.167969 153.480469 10.738281 156.378906 C 10.308594 159.273438 9.949219 162.179688 9.664062 165.089844 C 9.378906 168.003906 9.160156 170.921875 9.019531 173.847656 C 8.875 176.773438 8.800781 179.699219 8.800781 182.625 C 8.800781 185.550781 8.875 188.476562 9.019531 191.402344 C 9.160156 194.328125 9.378906 197.246094 9.664062 200.160156 C 9.949219 203.070312 10.308594 205.976562 10.738281 208.871094 C 11.167969 211.769531 11.667969 214.652344 12.238281 217.523438 C 12.8125 220.394531 13.453125 223.25 14.164062 226.089844 C 14.875 228.929688 15.65625 231.75 16.503906 234.550781 C 17.355469 237.351562 18.273438 240.132812 19.257812 242.886719 C 20.246094 245.644531 21.296875 248.375 22.417969 251.078125 C 23.539062 253.785156 24.726562 256.460938 25.976562 259.105469 C 27.230469 261.753906 28.542969 264.367188 29.925781 266.949219 C 31.304688 269.53125 32.746094 272.078125 34.253906 274.585938 C 35.757812 277.097656 37.324219 279.570312 38.949219 282.003906 C 40.574219 284.4375 42.261719 286.832031 44.003906 289.183594 C 45.75 291.535156 47.550781 293.84375 49.40625 296.105469 C 51.265625 298.367188 53.175781 300.585938 55.140625 302.753906 C 57.105469 304.921875 59.125 307.042969 61.195312 309.113281 C 63.265625 311.183594 65.386719 313.199219 67.554688 315.167969 C 69.722656 317.132812 71.9375 319.042969 74.203125 320.902344 C 76.464844 322.757812 78.773438 324.558594 81.125 326.300781 C 83.476562 328.046875 85.867188 329.730469 88.300781 331.359375 C 90.734375 332.984375 93.207031 334.550781 95.71875 336.054688 C 98.230469 337.558594 100.777344 339.003906 103.359375 340.382812 C 105.941406 341.761719 108.554688 343.078125 111.203125 344.332031 C 113.847656 345.582031 116.523438 346.769531 119.226562 347.886719 C 121.933594 349.007812 124.664062 350.0625 127.417969 351.046875 C 130.175781 352.035156 132.953125 352.953125 135.757812 353.800781 C 138.558594 354.652344 141.378906 355.433594 144.21875 356.144531 C 147.058594 356.855469 149.914062 357.496094 152.785156 358.066406 C 155.65625 358.636719 158.539062 359.140625 161.433594 359.570312 C 164.332031 360 167.234375 360.355469 170.148438 360.644531 C 173.0625 360.929688 175.980469 361.144531 178.90625 361.289062 C 181.828125 361.433594 184.753906 361.503906 187.683594 361.503906 C 190.609375 361.503906 193.535156 361.433594 196.460938 361.289062 C 199.382812 361.144531 202.300781 360.929688 205.214844 360.644531 C 208.128906 360.355469 211.035156 360 213.929688 359.570312 C 216.824219 359.140625 219.707031 358.636719 222.578125 358.066406 C 225.453125 357.496094 228.308594 356.855469 231.148438 356.144531 C 233.988281 355.433594 236.808594 354.652344 239.609375 353.800781 C 242.410156 352.953125 245.1875 352.035156 247.945312 351.046875 C 250.703125 350.0625 253.433594 349.007812 256.136719 347.886719 C 258.839844 346.769531 261.515625 345.582031 264.164062 344.332031 C 266.808594 343.078125 269.421875 341.761719 272.003906 340.382812 C 274.585938 339.003906 277.132812 337.558594 279.644531 336.054688 C 282.15625 334.550781 284.628906 332.984375 287.0625 331.359375 C 289.496094 329.730469 291.890625 328.046875 294.242188 326.300781 C 296.59375 324.558594 298.898438 322.757812 301.164062 320.902344 C 303.425781 319.042969 305.640625 317.132812 307.8125 315.167969 C 309.980469 313.199219 312.097656 311.183594 314.167969 309.113281 C 316.238281 307.042969 318.257812 304.921875 320.222656 302.753906 C 322.1875 300.585938 324.101562 298.367188 325.957031 296.105469 C 327.816406 293.84375 329.617188 291.535156 331.359375 289.183594 C 333.105469 286.832031 334.789062 284.4375 336.414062 282.003906 C 338.042969 279.570312 339.609375 277.097656 341.113281 274.585938 C 342.617188 272.078125 344.058594 269.53125 345.441406 266.949219 C 346.820312 264.367188 348.136719 261.753906 349.386719 259.105469 C 350.640625 256.460938 351.824219 253.785156 352.945312 251.078125 C 354.066406 248.375 355.121094 245.644531 356.105469 242.886719 C 357.089844 240.132812 358.007812 237.351562 358.859375 234.550781 C 359.710938 231.75 360.488281 228.929688 361.203125 226.089844 C 361.914062 223.25 362.554688 220.394531 363.125 217.523438 C 363.695312 214.652344 364.195312 211.769531 364.625 208.871094 C 365.054688 205.976562 365.414062 203.070312 365.699219 200.160156 C 365.988281 197.246094 366.203125 194.328125 366.347656 191.402344 C 366.488281 188.476562 366.5625 185.550781 366.5625 182.625 C 366.558594 179.699219 366.484375 176.773438 366.335938 173.851562 C 366.191406 170.929688 365.972656 168.011719 365.683594 165.097656 C 365.390625 162.1875 365.03125 159.28125 364.597656 156.386719 C 364.167969 153.492188 363.664062 150.613281 363.089844 147.742188 C 362.519531 144.871094 361.875 142.015625 361.160156 139.179688 C 360.449219 136.339844 359.664062 133.523438 358.8125 130.722656 C 357.960938 127.921875 357.042969 125.144531 356.054688 122.390625 C 355.066406 119.632812 354.011719 116.90625 352.890625 114.203125 C 351.769531 111.5 350.582031 108.824219 349.328125 106.179688 C 348.078125 103.535156 346.761719 100.921875 345.378906 98.34375 C 344 95.761719 342.554688 93.214844 341.050781 90.707031 C 339.546875 88.199219 337.980469 85.726562 336.351562 83.292969 C 334.726562 80.859375 333.039062 78.46875 331.296875 76.117188 C 329.554688 73.769531 327.753906 71.460938 325.894531 69.199219 C 324.039062 66.9375 322.128906 64.722656 320.160156 62.554688 C 318.195312 60.386719 316.179688 58.265625 314.109375 56.199219 C 312.039062 54.128906 309.921875 52.109375 307.753906 50.144531 C 305.585938 48.179688 303.371094 46.269531 301.105469 44.410156 C 298.84375 42.554688 296.539062 40.753906 294.1875 39.011719 C 291.839844 37.265625 289.445312 35.582031 287.015625 33.953125 C 284.582031 32.328125 282.109375 30.761719 279.601562 29.257812 C 277.089844 27.75 274.546875 26.308594 271.964844 24.925781 C 269.382812 23.546875 266.773438 22.230469 264.128906 20.976562 C 261.480469 19.726562 258.808594 18.539062 256.105469 17.417969 C 253.402344 16.296875 250.671875 15.242188 247.917969 14.253906 C 245.164062 13.265625 242.386719 12.34375 239.585938 11.492188 C 236.785156 10.640625 233.964844 9.859375 231.128906 9.144531 C 228.289062 8.433594 225.4375 7.789062 222.566406 7.214844 C 219.695312 6.644531 216.8125 6.140625 213.917969 5.707031 C 211.023438 5.277344 208.121094 4.914062 205.210938 4.625 C 202.296875 4.335938 199.378906 4.117188 196.457031 3.96875 C 193.535156 3.824219 190.609375 3.75 187.683594 3.746094 Z M 187.683594 346.597656 C 185 346.597656 182.316406 346.53125 179.636719 346.402344 C 176.957031 346.269531 174.28125 346.070312 171.609375 345.808594 C 168.941406 345.546875 166.277344 345.21875 163.621094 344.824219 C 160.96875 344.429688 158.324219 343.972656 155.691406 343.449219 C 153.0625 342.921875 150.441406 342.335938 147.839844 341.683594 C 145.238281 341.03125 142.652344 340.316406 140.082031 339.539062 C 137.515625 338.757812 134.96875 337.917969 132.441406 337.011719 C 129.914062 336.109375 127.410156 335.144531 124.933594 334.117188 C 122.453125 333.089844 120 332.003906 117.574219 330.855469 C 115.148438 329.707031 112.753906 328.5 110.386719 327.234375 C 108.019531 325.972656 105.683594 324.648438 103.382812 323.269531 C 101.082031 321.890625 98.816406 320.453125 96.582031 318.964844 C 94.351562 317.472656 92.160156 315.929688 90.003906 314.328125 C 87.847656 312.730469 85.734375 311.082031 83.660156 309.378906 C 81.585938 307.675781 79.554688 305.921875 77.566406 304.121094 C 75.578125 302.320312 73.632812 300.46875 71.734375 298.570312 C 69.839844 296.675781 67.988281 294.730469 66.1875 292.742188 C 64.382812 290.753906 62.632812 288.722656 60.929688 286.648438 C 59.226562 284.574219 57.578125 282.460938 55.976562 280.304688 C 54.378906 278.148438 52.835938 275.953125 51.34375 273.722656 C 49.851562 271.492188 48.417969 269.226562 47.039062 266.925781 C 45.660156 264.621094 44.335938 262.289062 43.070312 259.921875 C 41.804688 257.554688 40.601562 255.160156 39.453125 252.734375 C 38.304688 250.304688 37.21875 247.855469 36.191406 245.375 C 35.164062 242.894531 34.199219 240.390625 33.292969 237.867188 C 32.390625 235.339844 31.550781 232.792969 30.769531 230.222656 C 29.992188 227.65625 29.277344 225.070312 28.625 222.46875 C 27.972656 219.863281 27.382812 217.246094 26.859375 214.613281 C 26.335938 211.984375 25.878906 209.339844 25.484375 206.683594 C 25.089844 204.03125 24.761719 201.367188 24.5 198.695312 C 24.234375 196.027344 24.039062 193.351562 23.90625 190.671875 C 23.773438 187.992188 23.710938 185.308594 23.710938 182.625 C 23.710938 179.941406 23.773438 177.257812 23.90625 174.578125 C 24.039062 171.898438 24.234375 169.222656 24.5 166.554688 C 24.761719 163.882812 25.089844 161.21875 25.484375 158.566406 C 25.878906 155.910156 26.335938 153.265625 26.859375 150.636719 C 27.382812 148.003906 27.972656 145.386719 28.625 142.78125 C 29.277344 140.179688 29.992188 137.59375 30.769531 135.027344 C 31.550781 132.457031 32.390625 129.910156 33.292969 127.382812 C 34.199219 124.859375 35.164062 122.355469 36.191406 119.875 C 37.21875 117.394531 38.304688 114.945312 39.453125 112.515625 C 40.601562 110.089844 41.804688 107.695312 43.070312 105.328125 C 44.335938 102.960938 45.660156 100.628906 47.039062 98.324219 C 48.417969 96.023438 49.851562 93.757812 51.34375 91.527344 C 52.835938 89.296875 54.378906 87.101562 55.976562 84.945312 C 57.578125 82.789062 59.226562 80.675781 60.929688 78.601562 C 62.632812 76.527344 64.382812 74.496094 66.1875 72.507812 C 67.988281 70.519531 69.839844 68.574219 71.734375 66.679688 C 73.632812 64.78125 75.578125 62.929688 77.566406 61.128906 C 79.554688 59.328125 81.585938 57.574219 83.660156 55.871094 C 85.734375 54.167969 87.847656 52.519531 90.003906 50.921875 C 92.160156 49.320312 94.351562 47.777344 96.582031 46.285156 C 98.816406 44.796875 101.082031 43.359375 103.382812 41.980469 C 105.683594 40.601562 108.019531 39.277344 110.386719 38.015625 C 112.753906 36.75 115.148438 35.542969 117.574219 34.394531 C 120 33.246094 122.453125 32.160156 124.933594 31.132812 C 127.410156 30.105469 129.914062 29.140625 132.441406 28.238281 C 134.96875 27.332031 137.515625 26.492188 140.082031 25.710938 C 142.652344 24.933594 145.238281 24.21875 147.839844 23.566406 C 150.441406 22.914062 153.0625 22.328125 155.691406 21.800781 C 158.324219 21.277344 160.96875 20.820312 163.621094 20.425781 C 166.277344 20.03125 168.941406 19.703125 171.609375 19.441406 C 174.28125 19.179688 176.957031 18.980469 179.636719 18.847656 C 182.316406 18.71875 185 18.652344 187.683594 18.652344 C 190.367188 18.652344 193.046875 18.71875 195.726562 18.847656 C 198.410156 18.980469 201.082031 19.179688 203.753906 19.441406 C 206.425781 19.703125 209.085938 20.03125 211.742188 20.425781 C 214.398438 20.820312 217.039062 21.277344 219.671875 21.800781 C 222.304688 22.328125 224.921875 22.914062 227.523438 23.566406 C 230.128906 24.21875 232.714844 24.933594 235.28125 25.710938 C 237.847656 26.492188 240.398438 27.332031 242.921875 28.238281 C 245.449219 29.140625 247.953125 30.105469 250.433594 31.132812 C 252.910156 32.160156 255.363281 33.246094 257.789062 34.394531 C 260.214844 35.542969 262.613281 36.75 264.980469 38.015625 C 267.34375 39.277344 269.679688 40.601562 271.980469 41.980469 C 274.28125 43.359375 276.550781 44.796875 278.78125 46.285156 C 281.011719 47.777344 283.207031 49.320312 285.359375 50.921875 C 287.515625 52.519531 289.632812 54.167969 291.707031 55.871094 C 293.78125 57.574219 295.8125 59.328125 297.800781 61.128906 C 299.789062 62.929688 301.730469 64.78125 303.628906 66.679688 C 305.527344 68.574219 307.375 70.519531 309.179688 72.507812 C 310.980469 74.496094 312.734375 76.527344 314.433594 78.601562 C 316.136719 80.675781 317.789062 82.789062 319.386719 84.945312 C 320.984375 87.101562 322.53125 89.296875 324.019531 91.527344 C 325.511719 93.757812 326.945312 96.023438 328.328125 98.324219 C 329.707031 100.628906 331.027344 102.960938 332.292969 105.328125 C 333.558594 107.695312 334.765625 110.089844 335.914062 112.515625 C 337.058594 114.945312 338.148438 117.394531 339.171875 119.875 C 340.199219 122.355469 341.167969 124.859375 342.070312 127.382812 C 342.972656 129.910156 343.816406 132.457031 344.59375 135.027344 C 345.375 137.59375 346.089844 140.179688 346.742188 142.78125 C 347.394531 145.386719 347.980469 148.003906 348.503906 150.636719 C 349.027344 153.265625 349.488281 155.910156 349.878906 158.566406 C 350.273438 161.21875 350.601562 163.882812 350.867188 166.554688 C 351.128906 169.222656 351.328125 171.898438 351.457031 174.578125 C 351.589844 177.257812 351.65625 179.941406 351.65625 182.625 C 351.652344 185.308594 351.582031 187.988281 351.449219 190.667969 C 351.316406 193.347656 351.113281 196.023438 350.847656 198.691406 C 350.582031 201.359375 350.253906 204.023438 349.855469 206.675781 C 349.460938 209.328125 349 211.972656 348.472656 214.601562 C 347.949219 217.230469 347.359375 219.847656 346.703125 222.449219 C 346.050781 225.050781 345.332031 227.636719 344.554688 230.203125 C 343.773438 232.769531 342.929688 235.316406 342.023438 237.839844 C 341.117188 240.367188 340.152344 242.867188 339.125 245.347656 C 338.097656 247.824219 337.007812 250.273438 335.859375 252.699219 C 334.710938 255.125 333.503906 257.519531 332.238281 259.882812 C 330.972656 262.25 329.652344 264.582031 328.269531 266.882812 C 326.890625 269.183594 325.457031 271.449219 323.964844 273.679688 C 322.472656 275.910156 320.929688 278.101562 319.328125 280.257812 C 317.730469 282.410156 316.082031 284.523438 314.378906 286.597656 C 312.675781 288.671875 310.925781 290.703125 309.121094 292.691406 C 307.320312 294.679688 305.472656 296.621094 303.574219 298.515625 C 301.675781 300.414062 299.734375 302.261719 297.746094 304.066406 C 295.761719 305.867188 293.730469 307.617188 291.65625 309.320312 C 289.582031 311.023438 287.46875 312.671875 285.3125 314.273438 C 283.160156 315.871094 280.96875 317.414062 278.738281 318.90625 C 276.507812 320.398438 274.242188 321.832031 271.941406 323.214844 C 269.640625 324.59375 267.308594 325.917969 264.941406 327.183594 C 262.578125 328.449219 260.183594 329.652344 257.757812 330.800781 C 255.332031 331.949219 252.882812 333.039062 250.402344 334.066406 C 247.925781 335.09375 245.421875 336.0625 242.898438 336.96875 C 240.375 337.871094 237.828125 338.714844 235.261719 339.496094 C 232.695312 340.277344 230.109375 340.992188 227.507812 341.648438 C 224.90625 342.300781 222.289062 342.890625 219.660156 343.417969 C 217.027344 343.941406 214.386719 344.402344 211.734375 344.800781 C 209.078125 345.195312 206.417969 345.527344 203.75 345.792969 C 201.078125 346.058594 198.40625 346.257812 195.726562 346.390625 C 193.046875 346.527344 190.363281 346.59375 187.683594 346.597656 Z M 187.683594 346.597656 " fill-opacity="1" fill-rule="nonzero"/></g><path fill="#000000" d="M 187.683594 204.984375 C 185.234375 204.996094 182.789062 205.101562 180.351562 205.304688 C 177.910156 205.503906 175.484375 205.800781 173.066406 206.191406 C 170.652344 206.582031 168.253906 207.066406 165.875 207.644531 C 163.496094 208.222656 161.144531 208.894531 158.816406 209.652344 C 156.492188 210.414062 154.195312 211.265625 151.9375 212.207031 C 149.675781 213.144531 147.457031 214.171875 145.277344 215.285156 C 143.097656 216.398438 140.960938 217.59375 138.875 218.871094 C 136.789062 220.152344 134.753906 221.511719 132.773438 222.949219 C 130.792969 224.386719 128.871094 225.898438 127.007812 227.484375 C 125.144531 229.074219 123.34375 230.730469 121.609375 232.460938 C 119.878906 234.1875 118.210938 235.980469 116.617188 237.835938 C 115.023438 239.695312 113.503906 241.609375 112.058594 243.585938 C 110.613281 245.5625 109.25 247.59375 107.960938 249.675781 C 106.675781 251.757812 105.472656 253.886719 104.351562 256.0625 C 103.230469 258.238281 102.195312 260.457031 101.25 262.710938 C 100.300781 264.96875 99.441406 267.257812 98.671875 269.582031 L 112.71875 274.546875 C 113.351562 272.578125 114.0625 270.636719 114.847656 268.722656 C 115.632812 266.8125 116.492188 264.933594 117.425781 263.085938 C 118.359375 261.242188 119.363281 259.4375 120.4375 257.671875 C 121.511719 255.902344 122.65625 254.183594 123.867188 252.507812 C 125.078125 250.832031 126.355469 249.207031 127.695312 247.628906 C 129.035156 246.054688 130.433594 244.535156 131.890625 243.070312 C 133.351562 241.605469 134.867188 240.199219 136.433594 238.851562 C 138.003906 237.507812 139.625 236.222656 141.296875 235.007812 C 142.96875 233.789062 144.683594 232.636719 146.445312 231.554688 C 148.207031 230.472656 150.007812 229.460938 151.847656 228.519531 C 153.691406 227.578125 155.566406 226.710938 157.476562 225.917969 C 159.386719 225.125 161.324219 224.40625 163.289062 223.765625 C 165.253906 223.125 167.242188 222.5625 169.253906 222.078125 C 171.265625 221.59375 173.289062 221.191406 175.332031 220.867188 C 177.375 220.542969 179.425781 220.296875 181.488281 220.136719 C 183.550781 219.972656 185.613281 219.890625 187.683594 219.890625 C 189.75 219.890625 191.816406 219.972656 193.875 220.136719 C 195.9375 220.296875 197.988281 220.542969 200.03125 220.867188 C 202.074219 221.191406 204.101562 221.59375 206.109375 222.078125 C 208.121094 222.5625 210.109375 223.125 212.074219 223.765625 C 214.042969 224.40625 215.980469 225.125 217.890625 225.917969 C 219.796875 226.710938 221.675781 227.578125 223.515625 228.519531 C 225.355469 229.460938 227.15625 230.472656 228.917969 231.554688 C 230.679688 232.636719 232.398438 233.789062 234.066406 235.007812 C 235.738281 236.222656 237.359375 237.507812 238.929688 238.851562 C 240.5 240.199219 242.015625 241.605469 243.472656 243.070312 C 244.933594 244.535156 246.332031 246.054688 247.671875 247.628906 C 249.011719 249.207031 250.285156 250.832031 251.496094 252.507812 C 252.707031 254.183594 253.851562 255.902344 254.925781 257.671875 C 256.003906 259.4375 257.007812 261.242188 257.941406 263.085938 C 258.875 264.933594 259.734375 266.8125 260.519531 268.722656 C 261.304688 270.636719 262.011719 272.578125 262.644531 274.546875 L 276.691406 269.582031 C 275.921875 267.257812 275.066406 264.96875 274.117188 262.710938 C 273.167969 260.457031 272.132812 258.238281 271.011719 256.0625 C 269.894531 253.886719 268.6875 251.757812 267.402344 249.675781 C 266.117188 247.59375 264.75 245.5625 263.304688 243.585938 C 261.859375 241.609375 260.339844 239.695312 258.746094 237.835938 C 257.152344 235.980469 255.488281 234.1875 253.753906 232.460938 C 252.019531 230.730469 250.222656 229.074219 248.359375 227.484375 C 246.496094 225.898438 244.574219 224.386719 242.589844 222.949219 C 240.609375 221.511719 238.578125 220.152344 236.488281 218.871094 C 234.402344 217.59375 232.269531 216.398438 230.089844 215.285156 C 227.910156 214.171875 225.6875 213.144531 223.429688 212.207031 C 221.167969 211.265625 218.875 210.414062 216.546875 209.652344 C 214.222656 208.894531 211.867188 208.222656 209.488281 207.644531 C 207.113281 207.066406 204.714844 206.582031 202.296875 206.191406 C 199.882812 205.800781 197.453125 205.503906 195.011719 205.304688 C 192.574219 205.101562 190.128906 204.996094 187.683594 204.984375 Z M 187.683594 204.984375 " fill-opacity="1" fill-rule="nonzero"/><path fill="#000000" d="M 94.890625 114.835938 L 101.558594 101.503906 L 161.183594 131.3125 L 154.519531 144.644531 Z M 94.890625 114.835938 " fill-opacity="1" fill-rule="nonzero"/><path fill="#000000" d="M 214.050781 131.234375 L 273.648438 101.4375 L 280.3125 114.761719 L 220.714844 144.5625 Z M 214.050781 131.234375 " fill-opacity="1" fill-rule="nonzero"/></svg>