<svg xmlns="http://www.w3.org/2000/svg" xmlns:xlink="http://www.w3.org/1999/xlink" width="500" zoomAndPan="magnify" viewBox="0 0 375 374.999991" height="500" preserveAspectRatio="xMidYMid meet" version="1.0"><path fill="#949494" d="M 92.640625 284.464844 C 97.734375 236.550781 138.261719 199.242188 187.511719 199.242188 C 236.738281 199.242188 277.265625 236.550781 282.359375 284.464844 Z M 187.5 90.535156 C 213.804688 90.535156 235.128906 111.859375 235.128906 138.167969 C 235.128906 164.472656 213.804688 185.796875 187.5 185.796875 C 161.195312 185.796875 139.871094 164.472656 139.871094 138.167969 C 139.871094 111.859375 161.195312 90.535156 187.5 90.535156 Z M 187.5 0 C 83.945312 0 0 83.945312 0 187.5 C 0 291.054688 83.945312 375 187.5 375 C 291.054688 375 375 291.054688 375 187.5 C 375 83.945312 291.054688 0 187.5 0 " fill-opacity="1" fill-rule="nonzero"/></svg>