<svg xmlns="http://www.w3.org/2000/svg" xmlns:xlink="http://www.w3.org/1999/xlink" width="500" zoomAndPan="magnify" viewBox="0 0 375 374.999991" height="500" preserveAspectRatio="xMidYMid meet" version="1.0"><rect x="-37.5" width="450" fill="#ffffff" y="-37.499999" height="449.999989" fill-opacity="1"/><rect x="-37.5" width="450" fill="#ffffff" y="-37.499999" height="449.999989" fill-opacity="1"/><rect x="-37.5" width="450" fill="#ffffff" y="-37.499999" height="449.999989" fill-opacity="1"/><path fill="#949494" d="M 187.269531 0 C 184.195312 0 181.125 0.0742188 178.050781 0.226562 C 174.980469 0.378906 171.914062 0.601562 168.855469 0.90625 C 165.796875 1.207031 162.746094 1.582031 159.703125 2.035156 C 156.664062 2.484375 153.632812 3.011719 150.617188 3.609375 C 147.601562 4.210938 144.601562 4.882812 141.621094 5.628906 C 138.636719 6.378906 135.675781 7.199219 132.734375 8.089844 C 129.792969 8.980469 126.871094 9.945312 123.976562 10.980469 C 121.082031 12.019531 118.214844 13.125 115.375 14.300781 C 112.535156 15.476562 109.722656 16.722656 106.945312 18.039062 C 104.164062 19.351562 101.417969 20.734375 98.707031 22.183594 C 95.996094 23.632812 93.320312 25.148438 90.683594 26.730469 C 88.046875 28.308594 85.449219 29.953125 82.894531 31.664062 C 80.335938 33.371094 77.824219 35.140625 75.355469 36.972656 C 72.882812 38.804688 70.460938 40.695312 68.085938 42.644531 C 65.707031 44.597656 63.378906 46.605469 61.101562 48.667969 C 58.824219 50.734375 56.597656 52.851562 54.421875 55.027344 C 52.25 57.203125 50.128906 59.425781 48.066406 61.707031 C 46 63.984375 43.992188 66.3125 42.042969 68.6875 C 40.089844 71.066406 38.199219 73.488281 36.367188 75.957031 C 34.535156 78.425781 32.765625 80.941406 31.058594 83.496094 C 29.351562 86.054688 27.707031 88.652344 26.125 91.289062 C 24.542969 93.925781 23.027344 96.601562 21.578125 99.3125 C 20.128906 102.023438 18.75 104.769531 17.433594 107.546875 C 16.121094 110.328125 14.875 113.136719 13.695312 115.976562 C 12.519531 118.820312 11.414062 121.6875 10.378906 124.582031 C 9.34375 127.476562 8.378906 130.394531 7.484375 133.335938 C 6.59375 136.28125 5.773438 139.242188 5.027344 142.226562 C 4.277344 145.207031 3.605469 148.207031 3.003906 151.222656 C 2.40625 154.238281 1.878906 157.265625 1.429688 160.308594 C 0.976562 163.347656 0.601562 166.398438 0.300781 169.460938 C 0 172.519531 -0.226562 175.585938 -0.378906 178.65625 C -0.527344 181.726562 -0.605469 184.800781 -0.605469 187.875 C -0.605469 190.949219 -0.527344 194.023438 -0.378906 197.09375 C -0.226562 200.164062 0 203.230469 0.300781 206.289062 C 0.601562 209.351562 0.976562 212.402344 1.429688 215.441406 C 1.878906 218.484375 2.40625 221.511719 3.003906 224.527344 C 3.605469 227.542969 4.277344 230.542969 5.027344 233.523438 C 5.773438 236.507812 6.59375 239.46875 7.484375 242.414062 C 8.378906 245.355469 9.34375 248.273438 10.378906 251.167969 C 11.414062 254.0625 12.519531 256.929688 13.695312 259.773438 C 14.875 262.613281 16.121094 265.421875 17.433594 268.203125 C 18.75 270.980469 20.128906 273.726562 21.578125 276.4375 C 23.027344 279.148438 24.542969 281.824219 26.125 284.460938 C 27.707031 287.097656 29.351562 289.695312 31.058594 292.253906 C 32.765625 294.808594 34.535156 297.324219 36.367188 299.792969 C 38.199219 302.261719 40.089844 304.683594 42.042969 307.0625 C 43.992188 309.4375 46 311.765625 48.066406 314.042969 C 50.128906 316.324219 52.25 318.546875 54.421875 320.722656 C 56.597656 322.898438 58.824219 325.015625 61.101562 327.082031 C 63.378906 329.144531 65.707031 331.152344 68.085938 333.105469 C 70.460938 335.054688 72.882812 336.945312 75.355469 338.777344 C 77.824219 340.609375 80.335938 342.378906 82.894531 344.085938 C 85.449219 345.796875 88.046875 347.441406 90.683594 349.019531 C 93.320312 350.601562 95.996094 352.117188 98.707031 353.566406 C 101.417969 355.015625 104.164062 356.398438 106.945312 357.710938 C 109.722656 359.027344 112.535156 360.273438 115.375 361.449219 C 118.214844 362.625 121.082031 363.730469 123.976562 364.765625 C 126.871094 365.804688 129.792969 366.765625 132.734375 367.660156 C 135.675781 368.550781 138.636719 369.371094 141.621094 370.121094 C 144.601562 370.867188 147.601562 371.539062 150.617188 372.140625 C 153.632812 372.738281 156.664062 373.265625 159.703125 373.714844 C 162.746094 374.167969 165.796875 374.542969 168.855469 374.84375 C 171.914062 375.148438 174.980469 375.371094 178.050781 375.523438 C 181.125 375.675781 184.195312 375.75 187.269531 375.75 C 190.34375 375.75 193.417969 375.675781 196.488281 375.523438 C 199.558594 375.371094 202.625 375.148438 205.6875 374.84375 C 208.746094 374.542969 211.796875 374.167969 214.835938 373.714844 C 217.878906 373.265625 220.90625 372.738281 223.921875 372.140625 C 226.9375 371.539062 229.9375 370.867188 232.921875 370.121094 C 235.902344 369.371094 238.867188 368.550781 241.808594 367.660156 C 244.75 366.765625 247.667969 365.804688 250.5625 364.765625 C 253.457031 363.730469 256.328125 362.625 259.167969 361.449219 C 262.007812 360.273438 264.816406 359.027344 267.597656 357.710938 C 270.378906 356.398438 273.121094 355.015625 275.835938 353.566406 C 278.546875 352.117188 281.21875 350.601562 283.859375 349.019531 C 286.496094 347.441406 289.09375 345.796875 291.648438 344.085938 C 294.203125 342.378906 296.71875 340.609375 299.1875 338.777344 C 301.65625 336.945312 304.082031 335.054688 306.457031 333.105469 C 308.835938 331.152344 311.160156 329.144531 313.441406 327.082031 C 315.71875 325.015625 317.945312 322.898438 320.117188 320.722656 C 322.292969 318.546875 324.410156 316.324219 326.476562 314.042969 C 328.542969 311.765625 330.550781 309.4375 332.5 307.0625 C 334.449219 304.683594 336.339844 302.261719 338.171875 299.792969 C 340.003906 297.324219 341.773438 294.808594 343.484375 292.253906 C 345.191406 289.695312 346.835938 287.097656 348.417969 284.460938 C 349.996094 281.824219 351.511719 279.148438 352.960938 276.4375 C 354.410156 273.726562 355.792969 270.980469 357.109375 268.203125 C 358.421875 265.421875 359.667969 262.613281 360.84375 259.773438 C 362.019531 256.929688 363.128906 254.0625 364.164062 251.167969 C 365.199219 248.273438 366.164062 245.355469 367.054688 242.414062 C 367.949219 239.46875 368.769531 236.507812 369.515625 233.523438 C 370.261719 230.542969 370.9375 227.542969 371.535156 224.527344 C 372.136719 221.511719 372.660156 218.484375 373.113281 215.441406 C 373.5625 212.402344 373.941406 209.351562 374.242188 206.289062 C 374.542969 203.230469 374.769531 200.164062 374.917969 197.09375 C 375.070312 194.023438 375.144531 190.949219 375.144531 187.875 C 375.140625 184.800781 375.0625 181.730469 374.90625 178.660156 C 374.753906 175.589844 374.523438 172.527344 374.21875 169.46875 C 373.914062 166.410156 373.535156 163.359375 373.078125 160.320312 C 372.625 157.28125 372.097656 154.253906 371.496094 151.238281 C 370.890625 148.226562 370.214844 145.226562 369.464844 142.246094 C 368.71875 139.265625 367.894531 136.304688 367 133.367188 C 366.105469 130.425781 365.140625 127.507812 364.101562 124.613281 C 363.0625 121.722656 361.957031 118.855469 360.777344 116.015625 C 359.601562 113.179688 358.351562 110.371094 357.039062 107.59375 C 355.722656 104.8125 354.339844 102.070312 352.886719 99.359375 C 351.4375 96.652344 349.921875 93.976562 348.339844 91.34375 C 346.761719 88.707031 345.113281 86.109375 343.40625 83.554688 C 341.699219 81 339.929688 78.488281 338.097656 76.019531 C 336.265625 73.550781 334.375 71.128906 332.425781 68.753906 C 330.472656 66.378906 328.464844 64.054688 326.402344 61.777344 C 324.335938 59.5 322.21875 57.273438 320.046875 55.101562 C 317.871094 52.925781 315.648438 50.808594 313.371094 48.742188 C 311.09375 46.679688 308.765625 44.671875 306.390625 42.722656 C 304.015625 40.769531 301.59375 38.878906 299.125 37.050781 C 296.65625 35.21875 294.144531 33.449219 291.589844 31.738281 C 289.035156 30.03125 286.4375 28.386719 283.804688 26.804688 C 281.167969 25.222656 278.496094 23.707031 275.785156 22.257812 C 273.074219 20.808594 270.332031 19.425781 267.554688 18.109375 C 264.777344 16.792969 261.96875 15.546875 259.128906 14.367188 C 256.289062 13.191406 253.425781 12.082031 250.53125 11.042969 C 247.636719 10.007812 244.722656 9.039062 241.78125 8.144531 C 238.839844 7.25 235.878906 6.429688 232.898438 5.679688 C 229.917969 4.929688 226.921875 4.253906 223.90625 3.652344 C 220.890625 3.046875 217.867188 2.519531 214.824219 2.066406 C 211.785156 1.613281 208.738281 1.230469 205.679688 0.925781 C 202.621094 0.621094 199.554688 0.394531 196.484375 0.238281 C 193.414062 0.0820312 190.34375 0.00390625 187.269531 0 Z M 187.269531 211.359375 C 180.664062 211.210938 174.070312 211.398438 167.480469 211.925781 C 160.894531 212.453125 154.351562 213.3125 147.855469 214.511719 C 141.355469 215.707031 134.9375 217.234375 128.59375 219.089844 C 122.253906 220.945312 116.023438 223.117188 109.902344 225.609375 C 103.785156 228.101562 97.808594 230.902344 91.976562 234.007812 C 86.144531 237.113281 80.484375 240.507812 75 244.191406 C 69.515625 247.878906 64.234375 251.832031 59.152344 256.058594 C 54.074219 260.285156 49.222656 264.761719 44.601562 269.484375 C 43.046875 266.761719 41.570312 263.996094 40.167969 261.191406 C 38.769531 258.386719 37.453125 255.542969 36.21875 252.660156 C 34.980469 249.777344 33.828125 246.863281 32.757812 243.917969 C 31.691406 240.96875 30.707031 237.992188 29.808594 234.988281 C 28.910156 231.984375 28.097656 228.957031 27.371094 225.910156 C 26.644531 222.859375 26.007812 219.789062 25.457031 216.703125 C 24.90625 213.617188 24.445312 210.515625 24.070312 207.402344 C 23.699219 204.289062 23.414062 201.167969 23.222656 198.039062 C 23.027344 194.910156 22.921875 191.777344 22.90625 188.640625 C 22.894531 185.507812 22.96875 182.375 23.132812 179.242188 C 23.296875 176.109375 23.550781 172.988281 23.894531 169.871094 C 24.238281 166.753906 24.667969 163.648438 25.1875 160.558594 C 25.710938 157.464844 26.320312 154.390625 27.015625 151.335938 C 27.710938 148.277344 28.496094 145.242188 29.367188 142.230469 C 30.238281 139.21875 31.191406 136.234375 32.234375 133.277344 C 33.273438 130.320312 34.398438 127.394531 35.609375 124.5 C 36.816406 121.605469 38.105469 118.75 39.480469 115.929688 C 40.851562 113.113281 42.300781 110.335938 43.832031 107.597656 C 45.363281 104.863281 46.972656 102.171875 48.65625 99.527344 C 50.34375 96.882812 52.101562 94.289062 53.933594 91.746094 C 55.769531 89.203125 57.671875 86.714844 59.648438 84.277344 C 61.625 81.84375 63.667969 79.46875 65.78125 77.148438 C 67.890625 74.832031 70.066406 72.578125 72.308594 70.382812 C 74.550781 68.191406 76.851562 66.0625 79.214844 64.003906 C 81.574219 61.941406 83.996094 59.949219 86.472656 58.027344 C 88.949219 56.101562 91.476562 54.253906 94.058594 52.472656 C 96.644531 50.695312 99.273438 48.992188 101.953125 47.367188 C 104.632812 45.738281 107.359375 44.1875 110.125 42.714844 C 112.894531 41.246094 115.703125 39.851562 118.550781 38.542969 C 121.398438 37.230469 124.28125 36.003906 127.203125 34.855469 C 130.121094 33.710938 133.070312 32.648438 136.046875 31.671875 C 139.027344 30.695312 142.03125 29.804688 145.0625 28.996094 C 148.09375 28.191406 151.140625 27.472656 154.214844 26.84375 C 157.285156 26.210938 160.371094 25.667969 163.472656 25.214844 C 166.574219 24.761719 169.6875 24.394531 172.8125 24.117188 C 175.933594 23.84375 179.0625 23.65625 182.195312 23.558594 C 185.328125 23.460938 188.464844 23.453125 191.597656 23.535156 C 194.730469 23.617188 197.859375 23.789062 200.984375 24.050781 C 204.109375 24.3125 207.222656 24.664062 210.328125 25.101562 C 213.433594 25.542969 216.523438 26.070312 219.597656 26.6875 C 222.671875 27.304688 225.722656 28.007812 228.757812 28.796875 C 231.792969 29.589844 234.800781 30.464844 237.785156 31.429688 C 240.765625 32.394531 243.722656 33.441406 246.644531 34.574219 C 249.570312 35.707031 252.457031 36.921875 255.3125 38.21875 C 258.164062 39.515625 260.980469 40.894531 263.757812 42.351562 C 266.53125 43.8125 269.261719 45.347656 271.949219 46.964844 C 274.636719 48.578125 277.277344 50.269531 279.867188 52.035156 C 282.457031 53.800781 284.996094 55.640625 287.480469 57.550781 C 289.96875 59.460938 292.394531 61.445312 294.769531 63.492188 C 297.140625 65.542969 299.453125 67.660156 301.703125 69.84375 C 303.953125 72.027344 306.140625 74.269531 308.261719 76.578125 C 310.386719 78.886719 312.441406 81.253906 314.429688 83.679688 C 316.414062 86.105469 318.332031 88.585938 320.175781 91.121094 C 322.023438 93.65625 323.792969 96.242188 325.492188 98.875 C 327.1875 101.511719 328.808594 104.195312 330.351562 106.925781 C 331.894531 109.65625 333.359375 112.425781 334.746094 115.238281 C 336.132812 118.050781 337.433594 120.902344 338.65625 123.789062 C 339.878906 126.675781 341.019531 129.597656 342.074219 132.550781 C 343.128906 135.503906 344.097656 138.484375 344.984375 141.492188 C 345.867188 144.5 346.664062 147.53125 347.375 150.585938 C 348.085938 153.640625 348.710938 156.710938 349.246094 159.800781 C 349.78125 162.890625 350.230469 165.992188 350.585938 169.105469 C 350.945312 172.222656 351.214844 175.34375 351.390625 178.476562 C 351.570312 181.605469 351.660156 184.738281 351.660156 187.875 C 351.675781 195.003906 351.222656 202.101562 350.304688 209.171875 C 349.386719 216.242188 348.011719 223.222656 346.179688 230.109375 C 344.34375 237 342.070312 243.738281 339.351562 250.328125 C 336.632812 256.921875 333.496094 263.304688 329.9375 269.484375 C 325.316406 264.761719 320.46875 260.285156 315.386719 256.058594 C 310.308594 251.832031 305.027344 247.878906 299.542969 244.191406 C 294.058594 240.507812 288.398438 237.113281 282.566406 234.007812 C 276.734375 230.902344 270.757812 228.101562 264.636719 225.609375 C 258.519531 223.117188 252.289062 220.945312 245.945312 219.089844 C 239.605469 217.234375 233.183594 215.707031 226.6875 214.511719 C 220.1875 213.3125 213.644531 212.453125 207.058594 211.925781 C 200.472656 211.398438 193.875 211.210938 187.269531 211.359375 Z M 187.269531 211.359375 " fill-opacity="1" fill-rule="nonzero"/><path fill="#949494" d="M 257.722656 117.421875 C 257.722656 118.574219 257.695312 119.726562 257.640625 120.878906 C 257.582031 122.03125 257.496094 123.179688 257.382812 124.328125 C 257.273438 125.476562 257.128906 126.617188 256.960938 127.757812 C 256.792969 128.898438 256.59375 130.035156 256.371094 131.167969 C 256.144531 132.296875 255.894531 133.421875 255.613281 134.539062 C 255.332031 135.660156 255.023438 136.769531 254.691406 137.875 C 254.355469 138.976562 253.992188 140.070312 253.605469 141.15625 C 253.21875 142.242188 252.800781 143.316406 252.359375 144.382812 C 251.917969 145.449219 251.453125 146.503906 250.960938 147.542969 C 250.464844 148.585938 249.949219 149.617188 249.40625 150.632812 C 248.859375 151.648438 248.292969 152.652344 247.699219 153.640625 C 247.109375 154.632812 246.492188 155.605469 245.851562 156.5625 C 245.210938 157.523438 244.546875 158.464844 243.859375 159.390625 C 243.171875 160.316406 242.464844 161.226562 241.730469 162.117188 C 241 163.007812 240.246094 163.882812 239.472656 164.734375 C 238.699219 165.589844 237.902344 166.425781 237.089844 167.238281 C 236.273438 168.054688 235.4375 168.851562 234.585938 169.625 C 233.730469 170.398438 232.855469 171.152344 231.964844 171.882812 C 231.074219 172.613281 230.164062 173.324219 229.238281 174.011719 C 228.3125 174.695312 227.371094 175.359375 226.414062 176 C 225.453125 176.640625 224.480469 177.257812 223.492188 177.851562 C 222.5 178.445312 221.5 179.011719 220.480469 179.554688 C 219.464844 180.097656 218.4375 180.617188 217.394531 181.109375 C 216.351562 181.605469 215.296875 182.070312 214.230469 182.511719 C 213.167969 182.953125 212.089844 183.367188 211.003906 183.757812 C 209.921875 184.144531 208.824219 184.507812 207.722656 184.839844 C 206.617188 185.175781 205.507812 185.484375 204.390625 185.761719 C 203.269531 186.042969 202.144531 186.296875 201.015625 186.519531 C 199.882812 186.746094 198.75 186.941406 197.609375 187.113281 C 196.46875 187.28125 195.324219 187.421875 194.175781 187.535156 C 193.027344 187.648438 191.878906 187.734375 190.726562 187.789062 C 189.574219 187.847656 188.421875 187.875 187.269531 187.875 C 186.117188 187.875 184.964844 187.847656 183.8125 187.789062 C 182.664062 187.734375 181.511719 187.648438 180.363281 187.535156 C 179.21875 187.421875 178.074219 187.28125 176.933594 187.113281 C 175.792969 186.941406 174.65625 186.746094 173.527344 186.519531 C 172.394531 186.296875 171.269531 186.042969 170.152344 185.761719 C 169.035156 185.484375 167.921875 185.175781 166.820312 184.839844 C 165.714844 184.507812 164.621094 184.144531 163.535156 183.757812 C 162.449219 183.367188 161.375 182.953125 160.308594 182.511719 C 159.246094 182.070312 158.191406 181.605469 157.148438 181.109375 C 156.105469 180.617188 155.078125 180.097656 154.058594 179.554688 C 153.042969 179.011719 152.039062 178.445312 151.050781 177.851562 C 150.0625 177.257812 149.085938 176.640625 148.128906 176 C 147.171875 175.359375 146.226562 174.695312 145.300781 174.011719 C 144.375 173.324219 143.46875 172.613281 142.574219 171.882812 C 141.683594 171.152344 140.8125 170.398438 139.957031 169.625 C 139.101562 168.851562 138.269531 168.054688 137.453125 167.238281 C 136.636719 166.425781 135.84375 165.589844 135.070312 164.734375 C 134.292969 163.882812 133.542969 163.007812 132.808594 162.117188 C 132.078125 161.226562 131.367188 160.316406 130.683594 159.390625 C 129.996094 158.464844 129.332031 157.523438 128.691406 156.5625 C 128.050781 155.605469 127.433594 154.632812 126.839844 153.640625 C 126.25 152.652344 125.679688 151.648438 125.136719 150.632812 C 124.59375 149.617188 124.074219 148.585938 123.582031 147.542969 C 123.089844 146.503906 122.621094 145.449219 122.179688 144.382812 C 121.738281 143.316406 121.324219 142.242188 120.9375 141.15625 C 120.546875 140.070312 120.1875 138.976562 119.851562 137.875 C 119.515625 136.769531 119.210938 135.660156 118.929688 134.539062 C 118.648438 133.421875 118.394531 132.296875 118.171875 131.167969 C 117.945312 130.035156 117.75 128.898438 117.582031 127.757812 C 117.410156 126.617188 117.269531 125.476562 117.15625 124.328125 C 117.042969 123.179688 116.960938 122.03125 116.902344 120.878906 C 116.847656 119.726562 116.816406 118.574219 116.816406 117.421875 C 116.816406 116.269531 116.847656 115.117188 116.902344 113.964844 C 116.960938 112.8125 117.042969 111.664062 117.15625 110.515625 C 117.269531 109.367188 117.410156 108.226562 117.582031 107.085938 C 117.75 105.945312 117.945312 104.808594 118.171875 103.675781 C 118.394531 102.546875 118.648438 101.421875 118.929688 100.304688 C 119.210938 99.183594 119.515625 98.074219 119.851562 96.96875 C 120.1875 95.867188 120.546875 94.773438 120.9375 93.6875 C 121.324219 92.601562 121.738281 91.527344 122.179688 90.460938 C 122.621094 89.394531 123.089844 88.339844 123.582031 87.300781 C 124.074219 86.257812 124.59375 85.226562 125.136719 84.210938 C 125.679688 83.195312 126.25 82.191406 126.839844 81.203125 C 127.433594 80.210938 128.050781 79.238281 128.691406 78.28125 C 129.332031 77.320312 129.996094 76.378906 130.683594 75.453125 C 131.367188 74.527344 132.078125 73.617188 132.808594 72.726562 C 133.542969 71.835938 134.292969 70.960938 135.070312 70.109375 C 135.84375 69.253906 136.636719 68.417969 137.453125 67.605469 C 138.269531 66.789062 139.101562 65.992188 139.957031 65.21875 C 140.8125 64.445312 141.683594 63.691406 142.574219 62.960938 C 143.46875 62.230469 144.375 61.519531 145.300781 60.832031 C 146.226562 60.148438 147.171875 59.484375 148.128906 58.84375 C 149.085938 58.203125 150.0625 57.585938 151.050781 56.992188 C 152.039062 56.398438 153.042969 55.832031 154.058594 55.289062 C 155.078125 54.746094 156.105469 54.226562 157.148438 53.734375 C 158.191406 53.238281 159.246094 52.773438 160.308594 52.332031 C 161.375 51.890625 162.449219 51.476562 163.535156 51.085938 C 164.621094 50.699219 165.714844 50.335938 166.820312 50.003906 C 167.921875 49.667969 169.035156 49.359375 170.152344 49.082031 C 171.269531 48.800781 172.394531 48.546875 173.527344 48.324219 C 174.65625 48.097656 175.792969 47.902344 176.933594 47.730469 C 178.074219 47.5625 179.21875 47.421875 180.363281 47.308594 C 181.511719 47.195312 182.664062 47.109375 183.8125 47.054688 C 184.964844 46.996094 186.117188 46.96875 187.269531 46.96875 C 188.421875 46.96875 189.574219 46.996094 190.726562 47.054688 C 191.878906 47.109375 193.027344 47.195312 194.175781 47.308594 C 195.324219 47.421875 196.46875 47.5625 197.609375 47.730469 C 198.75 47.902344 199.882812 48.097656 201.015625 48.324219 C 202.144531 48.546875 203.269531 48.800781 204.390625 49.082031 C 205.507812 49.359375 206.617188 49.667969 207.722656 50.003906 C 208.824219 50.335938 209.921875 50.699219 211.003906 51.085938 C 212.089844 51.476562 213.167969 51.890625 214.230469 52.332031 C 215.296875 52.773438 216.351562 53.238281 217.394531 53.734375 C 218.4375 54.226562 219.464844 54.746094 220.480469 55.289062 C 221.5 55.832031 222.5 56.398438 223.492188 56.992188 C 224.480469 57.585938 225.453125 58.203125 226.414062 58.84375 C 227.371094 59.484375 228.3125 60.148438 229.238281 60.832031 C 230.164062 61.519531 231.074219 62.230469 231.964844 62.960938 C 232.855469 63.691406 233.730469 64.445312 234.585938 65.21875 C 235.4375 65.992188 236.273438 66.789062 237.089844 67.605469 C 237.902344 68.417969 238.699219 69.253906 239.472656 70.109375 C 240.246094 70.960938 241 71.835938 241.730469 72.726562 C 242.464844 73.617188 243.171875 74.527344 243.859375 75.453125 C 244.546875 76.378906 245.210938 77.320312 245.851562 78.28125 C 246.492188 79.238281 247.109375 80.210938 247.699219 81.203125 C 248.292969 82.191406 248.859375 83.195312 249.40625 84.210938 C 249.949219 85.226562 250.464844 86.257812 250.960938 87.300781 C 251.453125 88.339844 251.917969 89.394531 252.359375 90.460938 C 252.800781 91.527344 253.21875 92.601562 253.605469 93.6875 C 253.992188 94.773438 254.355469 95.867188 254.691406 96.96875 C 255.023438 98.074219 255.332031 99.183594 255.613281 100.304688 C 255.894531 101.421875 256.144531 102.546875 256.371094 103.675781 C 256.59375 104.808594 256.792969 105.945312 256.960938 107.085938 C 257.128906 108.226562 257.273438 109.367188 257.382812 110.515625 C 257.496094 111.664062 257.582031 112.8125 257.640625 113.964844 C 257.695312 115.117188 257.722656 116.269531 257.722656 117.421875 Z M 257.722656 117.421875 " fill-opacity="1" fill-rule="nonzero"/></svg>