<svg xmlns="http://www.w3.org/2000/svg" xmlns:xlink="http://www.w3.org/1999/xlink" zoomAndPan="magnify" preserveAspectRatio="xMidYMid meet" version="1.0" viewBox="222.75 235.76 285.25 285.24"><defs><clipPath id="e56062754c"><path d="M 222.75 235.757812 L 508 235.757812 L 508 521 L 222.75 521 Z M 222.75 235.757812 " clip-rule="nonzero"/></clipPath></defs><path fill="#41d847" d="M 501.554688 378.167969 C 501.554688 380.398438 501.5 382.628906 501.390625 384.859375 C 501.28125 387.089844 501.117188 389.3125 500.898438 391.535156 C 500.679688 393.757812 500.40625 395.972656 500.078125 398.179688 C 499.75 400.386719 499.367188 402.585938 498.933594 404.777344 C 498.496094 406.964844 498.007812 409.140625 497.464844 411.308594 C 496.921875 413.472656 496.328125 415.625 495.679688 417.761719 C 495.03125 419.894531 494.332031 422.015625 493.582031 424.117188 C 492.828125 426.21875 492.023438 428.300781 491.171875 430.363281 C 490.316406 432.425781 489.414062 434.464844 488.457031 436.484375 C 487.503906 438.5 486.5 440.492188 485.449219 442.460938 C 484.394531 444.429688 483.296875 446.375 482.148438 448.289062 C 481 450.203125 479.808594 452.085938 478.566406 453.945312 C 477.328125 455.800781 476.042969 457.625 474.710938 459.417969 C 473.382812 461.210938 472.007812 462.96875 470.59375 464.695312 C 469.175781 466.421875 467.71875 468.109375 466.21875 469.765625 C 464.722656 471.417969 463.183594 473.035156 461.605469 474.613281 C 460.027344 476.191406 458.410156 477.730469 456.753906 479.230469 C 455.101562 480.726562 453.410156 482.183594 451.6875 483.601562 C 449.960938 485.015625 448.203125 486.390625 446.410156 487.71875 C 444.617188 489.050781 442.792969 490.335938 440.933594 491.574219 C 439.078125 492.816406 437.195312 494.007812 435.277344 495.15625 C 433.363281 496.304688 431.421875 497.402344 429.453125 498.457031 C 427.484375 499.507812 425.492188 500.511719 423.472656 501.464844 C 421.457031 502.421875 419.417969 503.324219 417.355469 504.179688 C 415.292969 505.035156 413.210938 505.835938 411.109375 506.589844 C 409.007812 507.339844 406.886719 508.039062 404.75 508.6875 C 402.617188 509.335938 400.464844 509.933594 398.300781 510.472656 C 396.132812 511.015625 393.957031 511.503906 391.765625 511.941406 C 389.578125 512.375 387.378906 512.757812 385.171875 513.085938 C 382.964844 513.414062 380.75 513.6875 378.527344 513.90625 C 376.304688 514.125 374.082031 514.289062 371.851562 514.398438 C 369.621094 514.507812 367.390625 514.5625 365.15625 514.5625 C 362.925781 514.5625 360.695312 514.507812 358.464844 514.398438 C 356.234375 514.289062 354.011719 514.125 351.789062 513.90625 C 349.566406 513.6875 347.351562 513.414062 345.144531 513.085938 C 342.9375 512.757812 340.738281 512.375 338.546875 511.941406 C 336.359375 511.503906 334.183594 511.015625 332.015625 510.472656 C 329.851562 509.933594 327.699219 509.335938 325.566406 508.6875 C 323.429688 508.039062 321.308594 507.339844 319.207031 506.589844 C 317.105469 505.835938 315.023438 505.035156 312.960938 504.179688 C 310.898438 503.324219 308.859375 502.421875 306.839844 501.464844 C 304.824219 500.511719 302.832031 499.507812 300.863281 498.457031 C 298.894531 497.402344 296.953125 496.304688 295.035156 495.15625 C 293.121094 494.007812 291.238281 492.816406 289.382812 491.574219 C 287.523438 490.335938 285.699219 489.050781 283.90625 487.71875 C 282.113281 486.390625 280.355469 485.015625 278.628906 483.601562 C 276.902344 482.183594 275.214844 480.726562 273.5625 479.230469 C 271.90625 477.730469 270.289062 476.191406 268.710938 474.613281 C 267.132812 473.035156 265.59375 471.417969 264.097656 469.765625 C 262.597656 468.109375 261.140625 466.421875 259.722656 464.695312 C 258.308594 462.96875 256.933594 461.210938 255.605469 459.417969 C 254.273438 457.625 252.988281 455.800781 251.75 453.945312 C 250.507812 452.085938 249.316406 450.203125 248.167969 448.289062 C 247.019531 446.375 245.921875 444.429688 244.867188 442.460938 C 243.816406 440.492188 242.8125 438.5 241.859375 436.484375 C 240.902344 434.464844 240 432.425781 239.144531 430.363281 C 238.292969 428.300781 237.488281 426.21875 236.734375 424.117188 C 235.984375 422.015625 235.285156 419.894531 234.636719 417.761719 C 233.988281 415.625 233.394531 413.472656 232.851562 411.308594 C 232.308594 409.140625 231.820312 406.964844 231.382812 404.777344 C 230.949219 402.585938 230.566406 400.386719 230.238281 398.179688 C 229.910156 395.972656 229.636719 393.757812 229.417969 391.535156 C 229.199219 389.3125 229.035156 387.089844 228.925781 384.859375 C 228.816406 382.628906 228.761719 380.398438 228.761719 378.167969 C 228.761719 375.933594 228.816406 373.703125 228.925781 371.472656 C 229.035156 369.246094 229.199219 367.019531 229.417969 364.796875 C 229.636719 362.574219 229.910156 360.359375 230.238281 358.152344 C 230.566406 355.945312 230.949219 353.746094 231.382812 351.558594 C 231.820312 349.367188 232.308594 347.191406 232.851562 345.023438 C 233.394531 342.859375 233.988281 340.710938 234.636719 338.574219 C 235.285156 336.4375 235.984375 334.316406 236.734375 332.214844 C 237.488281 330.113281 238.292969 328.03125 239.144531 325.96875 C 240 323.90625 240.902344 321.867188 241.859375 319.851562 C 242.8125 317.832031 243.816406 315.839844 244.867188 313.871094 C 245.921875 311.902344 247.019531 309.960938 248.167969 308.046875 C 249.316406 306.128906 250.507812 304.246094 251.75 302.390625 C 252.988281 300.535156 254.273438 298.707031 255.605469 296.914062 C 256.933594 295.121094 258.308594 293.363281 259.722656 291.636719 C 261.140625 289.914062 262.597656 288.222656 264.097656 286.570312 C 265.59375 284.914062 267.132812 283.300781 268.710938 281.71875 C 270.289062 280.140625 271.90625 278.601562 273.5625 277.105469 C 275.214844 275.605469 276.902344 274.148438 278.628906 272.730469 C 280.355469 271.316406 282.113281 269.941406 283.90625 268.613281 C 285.699219 267.28125 287.523438 266 289.382812 264.757812 C 291.238281 263.519531 293.121094 262.324219 295.035156 261.175781 C 296.953125 260.027344 298.894531 258.929688 300.863281 257.875 C 302.832031 256.824219 304.824219 255.820312 306.839844 254.867188 C 308.859375 253.914062 310.898438 253.007812 312.960938 252.152344 C 315.023438 251.300781 317.105469 250.496094 319.207031 249.746094 C 321.308594 248.992188 323.429688 248.292969 325.566406 247.644531 C 327.699219 246.996094 329.851562 246.402344 332.015625 245.859375 C 334.183594 245.316406 336.359375 244.828125 338.546875 244.390625 C 340.738281 243.957031 342.9375 243.574219 345.144531 243.246094 C 347.351562 242.921875 349.566406 242.648438 351.789062 242.429688 C 354.011719 242.210938 356.234375 242.046875 358.464844 241.933594 C 360.695312 241.824219 362.925781 241.769531 365.15625 241.769531 C 367.390625 241.769531 369.621094 241.824219 371.851562 241.933594 C 374.082031 242.046875 376.304688 242.210938 378.527344 242.429688 C 380.75 242.648438 382.964844 242.921875 385.171875 243.246094 C 387.378906 243.574219 389.578125 243.957031 391.765625 244.390625 C 393.957031 244.828125 396.132812 245.316406 398.300781 245.859375 C 400.464844 246.402344 402.617188 246.996094 404.75 247.644531 C 406.886719 248.292969 409.007812 248.992188 411.109375 249.746094 C 413.210938 250.496094 415.292969 251.300781 417.355469 252.152344 C 419.417969 253.007812 421.457031 253.914062 423.472656 254.867188 C 425.492188 255.820312 427.484375 256.824219 429.453125 257.875 C 431.421875 258.929688 433.363281 260.027344 435.277344 261.175781 C 437.195312 262.324219 439.078125 263.519531 440.933594 264.757812 C 442.792969 266 444.617188 267.28125 446.410156 268.613281 C 448.203125 269.941406 449.960938 271.316406 451.6875 272.730469 C 453.410156 274.148438 455.101562 275.605469 456.753906 277.105469 C 458.410156 278.601562 460.027344 280.140625 461.605469 281.71875 C 463.183594 283.300781 464.722656 284.914062 466.21875 286.570312 C 467.71875 288.222656 469.175781 289.914062 470.59375 291.636719 C 472.007812 293.363281 473.382812 295.121094 474.710938 296.914062 C 476.042969 298.707031 477.328125 300.535156 478.566406 302.390625 C 479.808594 304.246094 481 306.128906 482.148438 308.046875 C 483.296875 309.960938 484.394531 311.902344 485.449219 313.871094 C 486.5 315.839844 487.503906 317.832031 488.457031 319.851562 C 489.414062 321.867188 490.316406 323.90625 491.171875 325.96875 C 492.023438 328.03125 492.828125 330.113281 493.582031 332.214844 C 494.332031 334.316406 495.03125 336.4375 495.679688 338.574219 C 496.328125 340.710938 496.921875 342.859375 497.464844 345.023438 C 498.007812 347.191406 498.496094 349.367188 498.933594 351.558594 C 499.367188 353.746094 499.75 355.945312 500.078125 358.152344 C 500.40625 360.359375 500.679688 362.574219 500.898438 364.796875 C 501.117188 367.019531 501.28125 369.246094 501.390625 371.472656 C 501.5 373.703125 501.554688 375.933594 501.554688 378.167969 Z M 501.554688 378.167969 " fill-opacity="1" fill-rule="nonzero"/><path fill="#32ad37" d="M 480.824219 305.695312 C 507.722656 376.109375 472.597656 454.910156 402.183594 481.964844 C 341.265625 505.226562 272.433594 482.28125 237.78125 427.058594 C 264.679688 497.472656 343.636719 532.757812 414.050781 505.699219 C 484.464844 478.644531 519.75 399.84375 492.691406 329.429688 C 489.527344 321.203125 485.414062 313.132812 480.824219 305.695312 Z M 480.824219 305.695312 " fill-opacity="1" fill-rule="nonzero"/><g clip-path="url(#e56062754c)"><path fill="#000000" d="M 365.15625 235.757812 C 286.515625 235.757812 222.75 299.527344 222.75 378.167969 C 222.75 456.808594 286.515625 520.574219 365.15625 520.574219 C 443.800781 520.574219 507.566406 456.808594 507.566406 378.167969 C 507.40625 299.527344 443.800781 235.917969 365.15625 235.757812 Z M 365.15625 508.707031 C 293.003906 508.707031 234.617188 450.320312 234.617188 378.167969 C 234.617188 306.011719 293.003906 247.625 365.15625 247.625 C 437.3125 247.625 495.699219 306.011719 495.699219 378.167969 C 495.539062 450.160156 437.152344 508.550781 365.15625 508.707031 Z M 365.15625 508.707031 " fill-opacity="1" fill-rule="nonzero"/></g><path fill="#000000" d="M 365.15625 461.238281 C 329.082031 461.238281 299.96875 431.964844 299.96875 396.046875 L 288.097656 396.046875 C 288.097656 438.609375 322.59375 473.261719 365.316406 473.261719 C 408.039062 473.261719 442.53125 438.769531 442.53125 396.046875 L 430.664062 396.046875 C 430.347656 431.964844 401.234375 461.238281 365.15625 461.238281 Z M 365.15625 461.238281 " fill-opacity="1" fill-rule="nonzero"/><path fill="#000000" d="M 317.6875 330.695312 C 327.5 330.695312 335.410156 338.609375 335.410156 348.417969 L 347.277344 348.417969 C 347.277344 331.964844 333.988281 318.671875 317.53125 318.671875 C 301.074219 318.671875 287.78125 331.964844 287.78125 348.417969 L 299.648438 348.417969 C 299.96875 338.609375 307.878906 330.695312 317.6875 330.695312 Z M 317.6875 330.695312 " fill-opacity="1" fill-rule="nonzero"/><path fill="#000000" d="M 412.628906 318.828125 C 396.171875 318.828125 383.039062 332.121094 382.878906 348.578125 L 394.746094 348.578125 C 394.746094 338.765625 402.660156 330.855469 412.46875 330.855469 C 422.28125 330.855469 430.191406 338.765625 430.191406 348.578125 L 442.058594 348.578125 C 442.214844 332.121094 429.082031 318.828125 412.628906 318.828125 Z M 412.628906 318.828125 " fill-opacity="1" fill-rule="nonzero"/></svg>