<svg xmlns="http://www.w3.org/2000/svg" xmlns:xlink="http://www.w3.org/1999/xlink" width="500" zoomAndPan="magnify" viewBox="0 0 375 374.999991" height="500" preserveAspectRatio="xMidYMid meet" version="1.0"><defs><g/><clipPath id="0c02ac4f51"><path d="M 56.269531 172.628906 L 102.769531 172.628906 L 102.769531 213 L 56.269531 213 Z M 56.269531 172.628906 " clip-rule="nonzero"/></clipPath></defs><path fill="#e24c3f" d="M 79.644531 190.019531 C 81.195312 190.019531 82.449219 191.28125 82.449219 192.835938 C 82.449219 194.390625 81.195312 195.652344 79.644531 195.652344 C 78.09375 195.652344 76.835938 194.390625 76.835938 192.835938 C 76.835938 191.28125 78.09375 190.019531 79.644531 190.019531 Z M 64.964844 176.359375 C 66.640625 176.359375 68 177.722656 68 179.40625 C 68 181.085938 66.640625 182.453125 64.964844 182.453125 C 63.292969 182.453125 61.933594 181.085938 61.933594 179.40625 C 61.933594 177.722656 63.292969 176.359375 64.964844 176.359375 " fill-opacity="1" fill-rule="evenodd"/><g clip-path="url(#0c02ac4f51)"><path fill="#949494" d="M 64.714844 175.804688 C 65.03125 174.851562 65.550781 174.109375 66.261719 173.609375 C 67.371094 172.832031 68.902344 172.628906 70.78125 173.089844 C 73.378906 173.726562 76.703125 175.636719 80.503906 178.875 L 81.0625 179.3125 L 80.503906 179.816406 C 79.207031 181.039062 77.894531 182.429688 76.605469 183.964844 C 77.78125 183.894531 78.984375 183.859375 80.203125 183.859375 L 80.765625 183.859375 L 80.765625 186.335938 L 85.371094 186.335938 L 85.371094 187.460938 L 79.644531 187.460938 L 79.644531 184.988281 C 78.277344 185 76.9375 185.058594 75.628906 185.15625 C 74.828125 186.15625 74.039062 187.214844 73.269531 188.316406 C 72.226562 189.816406 71.273438 191.316406 70.421875 192.796875 C 71.273438 194.277344 72.226562 195.78125 73.269531 197.28125 C 74.039062 198.382812 74.828125 199.441406 75.628906 200.441406 C 77.113281 200.554688 78.644531 200.613281 80.203125 200.613281 L 86.679688 200.613281 L 86.679688 203.109375 L 94.367188 203.109375 L 94.367188 204.234375 L 85.558594 204.234375 L 85.558594 201.738281 L 80.203125 201.738281 C 78.984375 201.738281 77.78125 201.703125 76.605469 201.632812 C 78.042969 203.34375 79.507812 204.875 80.949219 206.199219 L 81.414062 206.65625 L 80.964844 207.140625 C 77.578125 210.535156 74.058594 212.324219 71.191406 212.800781 C 69.164062 213.136719 67.445312 212.820312 66.261719 211.988281 C 64.621094 210.835938 64.023438 208.328125 64.515625 204.992188 C 64.742188 203.46875 65.1875 201.765625 65.839844 199.9375 C 63.117188 199.179688 60.84375 198.214844 59.222656 197.113281 C 57.339844 195.832031 56.3125 194.339844 56.3125 192.800781 C 56.3125 191.257812 57.339844 189.765625 59.222656 188.484375 C 60.84375 187.382812 63.117188 186.417969 65.839844 185.660156 C 65.511719 184.746094 65.238281 183.859375 65.015625 183.015625 C 65 183.015625 64.984375 183.015625 64.964844 183.015625 C 62.980469 183.015625 61.371094 181.398438 61.371094 179.40625 C 61.371094 177.496094 62.847656 175.933594 64.714844 175.804688 Z M 83.597656 205.375 L 83.597656 204.0625 L 82.476562 204.0625 L 82.476562 207.347656 C 81.847656 207.578125 81.394531 208.1875 81.394531 208.898438 C 81.394531 209.808594 82.128906 210.546875 83.035156 210.546875 C 83.941406 210.546875 84.679688 209.808594 84.679688 208.898438 C 84.679688 208.1875 84.226562 207.578125 83.597656 207.347656 L 83.597656 206.5 L 90.234375 206.5 L 90.234375 209.707031 C 89.605469 209.9375 89.152344 210.546875 89.152344 211.257812 C 89.152344 212.167969 89.890625 212.90625 90.792969 212.90625 C 91.699219 212.90625 92.4375 212.167969 92.4375 211.257812 C 92.4375 210.546875 91.984375 209.9375 91.355469 209.707031 L 91.355469 208.375 L 94.777344 208.375 L 94.777344 207.25 L 91.355469 207.25 L 91.355469 205.375 Z M 87.503906 212.34375 L 87.503906 208.230469 L 86.382812 208.230469 L 86.382812 212.34375 Z M 66.925781 200.226562 C 66.285156 202.003906 65.84375 203.671875 65.625 205.15625 C 65.410156 206.613281 65.402344 207.890625 65.636719 208.929688 C 65.851562 209.875 66.257812 210.609375 66.90625 211.066406 C 67.886719 211.757812 69.324219 211.96875 71.007812 211.691406 C 73.605469 211.261719 76.753906 209.65625 79.824219 206.6875 C 78.238281 205.199219 76.628906 203.460938 75.058594 201.523438 C 72.121094 201.28125 69.367188 200.832031 66.925781 200.226562 Z M 90.792969 210.734375 C 91.082031 210.734375 91.316406 210.96875 91.316406 211.257812 C 91.316406 211.546875 91.082031 211.78125 90.792969 211.78125 C 90.507812 211.78125 90.273438 211.546875 90.273438 211.257812 C 90.273438 210.96875 90.507812 210.734375 90.792969 210.734375 Z M 83.035156 208.375 C 83.324219 208.375 83.558594 208.609375 83.558594 208.898438 C 83.558594 209.1875 83.324219 209.421875 83.035156 209.421875 C 82.75 209.421875 82.515625 209.1875 82.515625 208.898438 C 82.515625 208.609375 82.75 208.375 83.035156 208.375 Z M 91.109375 200.292969 L 89.273438 200.292969 L 89.273438 195.617188 L 90.394531 195.617188 L 90.394531 199.167969 L 91.109375 199.167969 C 91.339844 198.535156 91.945312 198.082031 92.652344 198.082031 C 93.558594 198.082031 94.296875 198.820312 94.296875 199.730469 C 94.296875 200.640625 93.558594 201.378906 92.652344 201.378906 C 91.945312 201.378906 91.339844 200.925781 91.109375 200.292969 Z M 69.789062 193.933594 C 68.808594 195.738281 67.980469 197.5 67.320312 199.171875 C 69.378906 199.675781 71.667969 200.0625 74.097656 200.308594 C 73.507812 199.542969 72.925781 198.746094 72.351562 197.925781 C 71.421875 196.59375 70.566406 195.257812 69.789062 193.933594 Z M 92.652344 199.207031 C 92.941406 199.207031 93.175781 199.441406 93.175781 199.730469 C 93.175781 200.019531 92.941406 200.253906 92.652344 200.253906 C 92.367188 200.253906 92.132812 200.019531 92.132812 199.730469 C 92.132812 199.441406 92.367188 199.207031 92.652344 199.207031 Z M 83.691406 197.773438 L 83.691406 195.652344 L 84.8125 195.652344 L 84.8125 198.898438 L 79.582031 198.898438 L 79.582031 197.773438 Z M 66.230469 186.710938 C 64.523438 187.183594 63 187.738281 61.710938 188.359375 C 60.34375 189.019531 59.25 189.75 58.5 190.539062 C 57.824219 191.253906 57.433594 192.007812 57.433594 192.800781 C 57.433594 193.589844 57.824219 194.34375 58.5 195.058594 C 59.25 195.847656 60.34375 196.578125 61.710938 197.238281 C 63 197.859375 64.527344 198.414062 66.234375 198.886719 C 66.988281 196.949219 67.960938 194.898438 69.136719 192.800781 C 67.960938 190.699219 66.988281 188.648438 66.230469 186.710938 Z M 95.625 188.085938 C 95.855469 187.453125 96.457031 187 97.167969 187 C 98.074219 187 98.808594 187.738281 98.808594 188.648438 C 98.808594 189.558594 98.074219 190.296875 97.167969 190.296875 C 96.457031 190.296875 95.855469 189.84375 95.625 189.210938 L 93.960938 189.210938 L 93.960938 192.238281 L 102.738281 192.238281 L 102.738281 193.363281 L 96.980469 193.363281 L 96.980469 195.148438 L 97.835938 195.148438 C 98.035156 194.46875 98.664062 193.96875 99.410156 193.96875 C 100.3125 193.96875 101.050781 194.707031 101.050781 195.617188 C 101.050781 196.527344 100.3125 197.265625 99.410156 197.265625 C 98.734375 197.265625 98.152344 196.859375 97.902344 196.273438 L 95.859375 196.273438 L 95.859375 193.363281 L 92.839844 193.363281 L 92.839844 188.085938 Z M 82.96875 193.363281 L 88.734375 193.363281 L 88.734375 190.582031 L 90.765625 190.582031 L 90.765625 189.457031 L 85.292969 189.457031 L 85.292969 190.582031 L 87.613281 190.582031 L 87.613281 192.238281 L 82.957031 192.238281 C 82.675781 190.65625 81.296875 189.457031 79.644531 189.457031 C 77.785156 189.457031 76.277344 190.972656 76.277344 192.835938 C 76.277344 194.703125 77.785156 196.214844 79.644531 196.214844 C 81.324219 196.214844 82.71875 194.976562 82.96875 193.363281 Z M 99.410156 195.09375 C 99.695312 195.09375 99.929688 195.328125 99.929688 195.617188 C 99.929688 195.90625 99.695312 196.140625 99.410156 196.140625 C 99.121094 196.140625 98.886719 195.90625 98.886719 195.617188 C 98.886719 195.328125 99.121094 195.09375 99.410156 195.09375 Z M 79.644531 190.582031 C 80.882812 190.582031 81.890625 191.589844 81.890625 192.835938 C 81.890625 194.082031 80.882812 195.089844 79.644531 195.089844 C 78.40625 195.089844 77.398438 194.082031 77.398438 192.835938 C 77.398438 191.589844 78.40625 190.582031 79.644531 190.582031 Z M 74.097656 185.289062 C 71.667969 185.535156 69.382812 185.921875 67.324219 186.425781 C 67.984375 188.097656 68.808594 189.859375 69.789062 191.664062 C 70.566406 190.339844 71.421875 189.003906 72.351562 187.671875 C 72.925781 186.851562 73.507812 186.054688 74.097656 185.289062 Z M 97.167969 188.125 C 97.453125 188.125 97.6875 188.359375 97.6875 188.648438 C 97.6875 188.9375 97.453125 189.171875 97.167969 189.171875 C 96.878906 189.171875 96.644531 188.9375 96.644531 188.648438 C 96.644531 188.359375 96.878906 188.125 97.167969 188.125 Z M 90.777344 186.375 L 87.425781 186.375 L 87.425781 182.210938 L 88.546875 182.210938 L 88.546875 185.25 L 90.777344 185.25 C 91.007812 184.617188 91.609375 184.164062 92.320312 184.164062 C 93.226562 184.164062 93.960938 184.902344 93.960938 185.8125 C 93.960938 186.722656 93.226562 187.460938 92.320312 187.460938 C 91.609375 187.460938 91.007812 187.007812 90.777344 186.375 Z M 92.320312 185.289062 C 92.609375 185.289062 92.839844 185.523438 92.839844 185.8125 C 92.839844 186.101562 92.609375 186.335938 92.320312 186.335938 C 92.03125 186.335938 91.800781 186.101562 91.800781 185.8125 C 91.800781 185.523438 92.03125 185.289062 92.320312 185.289062 Z M 79.347656 179.367188 C 75.898438 176.496094 72.894531 174.765625 70.515625 174.183594 C 69.015625 173.816406 67.789062 173.910156 66.90625 174.53125 C 66.441406 174.855469 66.101562 175.324219 65.867188 175.910156 C 67.417969 176.3125 68.5625 177.726562 68.5625 179.40625 C 68.5625 180.992188 67.542969 182.339844 66.125 182.824219 C 66.339844 183.640625 66.609375 184.492188 66.925781 185.371094 C 69.367188 184.765625 72.121094 184.316406 75.058594 184.074219 C 76.472656 182.332031 77.914062 180.75 79.347656 179.367188 Z M 82.414062 179.285156 C 81.785156 179.054688 81.332031 178.445312 81.332031 177.734375 C 81.332031 176.824219 82.070312 176.085938 82.976562 176.085938 C 83.878906 176.085938 84.617188 176.824219 84.617188 177.734375 C 84.617188 178.445312 84.164062 179.054688 83.535156 179.285156 L 83.535156 182.773438 L 80.140625 182.773438 L 80.140625 181.648438 L 82.414062 181.648438 Z M 94.523438 182.210938 L 94.523438 179.773438 L 93.402344 179.773438 L 93.402344 182.210938 Z M 64.964844 176.921875 C 66.332031 176.921875 67.441406 178.035156 67.441406 179.40625 C 67.441406 180.777344 66.332031 181.890625 64.964844 181.890625 C 63.601562 181.890625 62.492188 180.777344 62.492188 179.40625 C 62.492188 178.035156 63.601562 176.921875 64.964844 176.921875 Z M 90.234375 176.097656 C 89.605469 175.867188 89.152344 175.257812 89.152344 174.546875 C 89.152344 173.636719 89.890625 172.898438 90.792969 172.898438 C 91.699219 172.898438 92.4375 173.636719 92.4375 174.546875 C 92.4375 175.257812 91.984375 175.867188 91.355469 176.097656 L 91.355469 180.984375 L 90.234375 180.984375 L 90.234375 179.382812 L 86.117188 179.382812 L 86.117188 173.984375 L 87.238281 173.984375 L 87.238281 178.257812 L 90.234375 178.257812 Z M 82.976562 177.210938 C 83.261719 177.210938 83.496094 177.445312 83.496094 177.734375 C 83.496094 178.023438 83.261719 178.257812 82.976562 178.257812 C 82.6875 178.257812 82.453125 178.023438 82.453125 177.734375 C 82.453125 177.445312 82.6875 177.210938 82.976562 177.210938 Z M 94.894531 177.132812 L 93.027344 177.132812 L 93.027344 178.257812 L 94.894531 178.257812 Z M 90.792969 174.023438 C 91.082031 174.023438 91.316406 174.257812 91.316406 174.546875 C 91.316406 174.835938 91.082031 175.070312 90.792969 175.070312 C 90.507812 175.070312 90.273438 174.835938 90.273438 174.546875 C 90.273438 174.257812 90.507812 174.023438 90.792969 174.023438 " fill-opacity="1" fill-rule="evenodd"/></g><g fill="#e24c3f" fill-opacity="1"><g transform="translate(110.171459, 203.999987)"><g><path d="M 16.78125 0.4375 C 13.945312 0.4375 11.453125 -0.148438 9.296875 -1.328125 C 7.140625 -2.503906 5.453125 -4.269531 4.234375 -6.625 C 3.023438 -8.976562 2.421875 -11.882812 2.421875 -15.34375 C 2.421875 -18.800781 3.023438 -21.707031 4.234375 -24.0625 C 5.453125 -26.425781 7.140625 -28.195312 9.296875 -29.375 C 11.453125 -30.550781 13.945312 -31.140625 16.78125 -31.140625 C 19.726562 -31.140625 22.234375 -30.5625 24.296875 -29.40625 C 26.367188 -28.25 27.84375 -26.488281 28.71875 -24.125 L 24.296875 -21.421875 L 23.765625 -21.4375 C 23.109375 -23.03125 22.21875 -24.171875 21.09375 -24.859375 C 19.96875 -25.554688 18.53125 -25.90625 16.78125 -25.90625 C 14.226562 -25.90625 12.238281 -25.0625 10.8125 -23.375 C 9.382812 -21.6875 8.671875 -19.007812 8.671875 -15.34375 C 8.671875 -11.695312 9.382812 -9.03125 10.8125 -7.34375 C 12.238281 -5.65625 14.226562 -4.8125 16.78125 -4.8125 C 20.769531 -4.8125 23.210938 -6.75 24.109375 -10.625 L 24.625 -10.625 L 29.09375 -8.296875 C 28.257812 -5.378906 26.828125 -3.191406 24.796875 -1.734375 C 22.765625 -0.285156 20.09375 0.4375 16.78125 0.4375 Z M 16.78125 0.4375 "/></g></g></g><g fill="#e24c3f" fill-opacity="1"><g transform="translate(140.27712, 203.999987)"><g><path d="M 9.609375 0.4375 C 7.523438 0.4375 5.929688 -0.125 4.828125 -1.25 C 3.734375 -2.375 3.1875 -4.085938 3.1875 -6.390625 L 3.1875 -32.453125 L 9 -32.453125 L 9 -6.609375 C 9 -5.203125 9.585938 -4.5 10.765625 -4.5 C 11.109375 -4.5 11.46875 -4.550781 11.84375 -4.65625 L 12.140625 -4.578125 L 12.65625 -0.109375 C 12.332031 0.0546875 11.90625 0.1875 11.375 0.28125 C 10.84375 0.382812 10.253906 0.4375 9.609375 0.4375 Z M 9.609375 0.4375 "/></g></g></g><g fill="#e24c3f" fill-opacity="1"><g transform="translate(153.587434, 203.999987)"><g><path d="M 9.03125 0.4375 C 7.539062 0.4375 6.25 0.164062 5.15625 -0.375 C 4.070312 -0.925781 3.234375 -1.726562 2.640625 -2.78125 C 2.054688 -3.84375 1.765625 -5.113281 1.765625 -6.59375 C 1.765625 -7.96875 2.054688 -9.117188 2.640625 -10.046875 C 3.234375 -10.972656 4.144531 -11.734375 5.375 -12.328125 C 6.601562 -12.929688 8.210938 -13.390625 10.203125 -13.703125 C 11.585938 -13.929688 12.640625 -14.175781 13.359375 -14.4375 C 14.085938 -14.707031 14.578125 -15.007812 14.828125 -15.34375 C 15.078125 -15.6875 15.203125 -16.113281 15.203125 -16.625 C 15.203125 -17.363281 14.941406 -17.929688 14.421875 -18.328125 C 13.898438 -18.722656 13.039062 -18.921875 11.84375 -18.921875 C 10.550781 -18.921875 9.320312 -18.632812 8.15625 -18.0625 C 7 -17.488281 5.992188 -16.734375 5.140625 -15.796875 L 4.71875 -15.796875 L 2.28125 -19.46875 C 3.457031 -20.769531 4.894531 -21.78125 6.59375 -22.5 C 8.289062 -23.226562 10.140625 -23.59375 12.140625 -23.59375 C 15.203125 -23.59375 17.414062 -22.941406 18.78125 -21.640625 C 20.15625 -20.335938 20.84375 -18.492188 20.84375 -16.109375 L 20.84375 -6.046875 C 20.84375 -5.015625 21.300781 -4.5 22.21875 -4.5 C 22.5625 -4.5 22.90625 -4.5625 23.25 -4.6875 L 23.53125 -4.59375 L 23.953125 -0.546875 C 23.628906 -0.335938 23.179688 -0.164062 22.609375 -0.03125 C 22.035156 0.101562 21.40625 0.171875 20.71875 0.171875 C 19.332031 0.171875 18.25 -0.09375 17.46875 -0.625 C 16.695312 -1.15625 16.144531 -1.988281 15.8125 -3.125 L 15.375 -3.171875 C 14.238281 -0.765625 12.125 0.4375 9.03125 0.4375 Z M 10.875 -3.90625 C 12.21875 -3.90625 13.289062 -4.351562 14.09375 -5.25 C 14.90625 -6.15625 15.3125 -7.414062 15.3125 -9.03125 L 15.3125 -11.375 L 14.90625 -11.46875 C 14.550781 -11.1875 14.09375 -10.953125 13.53125 -10.765625 C 12.96875 -10.578125 12.15625 -10.390625 11.09375 -10.203125 C 9.832031 -9.992188 8.921875 -9.632812 8.359375 -9.125 C 7.804688 -8.613281 7.53125 -7.890625 7.53125 -6.953125 C 7.53125 -5.953125 7.820312 -5.191406 8.40625 -4.671875 C 9 -4.160156 9.820312 -3.90625 10.875 -3.90625 Z M 10.875 -3.90625 "/></g></g></g><g fill="#e24c3f" fill-opacity="1"><g transform="translate(178.003677, 203.999987)"><g><path d="M 10.828125 0.4375 C 9.253906 0.4375 7.804688 0.253906 6.484375 -0.109375 C 5.171875 -0.484375 4.046875 -0.992188 3.109375 -1.640625 C 2.179688 -2.296875 1.492188 -3.046875 1.046875 -3.890625 L 4.28125 -7.375 L 4.71875 -7.375 C 5.488281 -6.332031 6.398438 -5.550781 7.453125 -5.03125 C 8.503906 -4.519531 9.644531 -4.265625 10.875 -4.265625 C 12.007812 -4.265625 12.863281 -4.46875 13.4375 -4.875 C 14.007812 -5.28125 14.296875 -5.859375 14.296875 -6.609375 C 14.296875 -7.203125 14.085938 -7.695312 13.671875 -8.09375 C 13.265625 -8.488281 12.597656 -8.800781 11.671875 -9.03125 L 8.609375 -9.765625 C 6.316406 -10.304688 4.640625 -11.140625 3.578125 -12.265625 C 2.523438 -13.398438 2 -14.832031 2 -16.5625 C 2 -18.007812 2.363281 -19.265625 3.09375 -20.328125 C 3.832031 -21.390625 4.867188 -22.195312 6.203125 -22.75 C 7.535156 -23.3125 9.09375 -23.59375 10.875 -23.59375 C 12.957031 -23.59375 14.6875 -23.289062 16.0625 -22.6875 C 17.4375 -22.09375 18.507812 -21.289062 19.28125 -20.28125 L 16.171875 -16.921875 L 15.75 -16.921875 C 15.101562 -17.648438 14.375 -18.179688 13.5625 -18.515625 C 12.757812 -18.847656 11.863281 -19.015625 10.875 -19.015625 C 8.582031 -19.015625 7.4375 -18.300781 7.4375 -16.875 C 7.4375 -16.28125 7.648438 -15.789062 8.078125 -15.40625 C 8.503906 -15.03125 9.253906 -14.722656 10.328125 -14.484375 L 13.1875 -13.859375 C 15.539062 -13.359375 17.257812 -12.550781 18.34375 -11.4375 C 19.425781 -10.320312 19.96875 -8.828125 19.96875 -6.953125 C 19.96875 -5.484375 19.601562 -4.1875 18.875 -3.0625 C 18.144531 -1.945312 17.09375 -1.082031 15.71875 -0.46875 C 14.351562 0.132812 12.722656 0.4375 10.828125 0.4375 Z M 10.828125 0.4375 "/></g></g></g><g fill="#e24c3f" fill-opacity="1"><g transform="translate(199.354769, 203.999987)"><g><path d="M 10.828125 0.4375 C 9.253906 0.4375 7.804688 0.253906 6.484375 -0.109375 C 5.171875 -0.484375 4.046875 -0.992188 3.109375 -1.640625 C 2.179688 -2.296875 1.492188 -3.046875 1.046875 -3.890625 L 4.28125 -7.375 L 4.71875 -7.375 C 5.488281 -6.332031 6.398438 -5.550781 7.453125 -5.03125 C 8.503906 -4.519531 9.644531 -4.265625 10.875 -4.265625 C 12.007812 -4.265625 12.863281 -4.46875 13.4375 -4.875 C 14.007812 -5.28125 14.296875 -5.859375 14.296875 -6.609375 C 14.296875 -7.203125 14.085938 -7.695312 13.671875 -8.09375 C 13.265625 -8.488281 12.597656 -8.800781 11.671875 -9.03125 L 8.609375 -9.765625 C 6.316406 -10.304688 4.640625 -11.140625 3.578125 -12.265625 C 2.523438 -13.398438 2 -14.832031 2 -16.5625 C 2 -18.007812 2.363281 -19.265625 3.09375 -20.328125 C 3.832031 -21.390625 4.867188 -22.195312 6.203125 -22.75 C 7.535156 -23.3125 9.09375 -23.59375 10.875 -23.59375 C 12.957031 -23.59375 14.6875 -23.289062 16.0625 -22.6875 C 17.4375 -22.09375 18.507812 -21.289062 19.28125 -20.28125 L 16.171875 -16.921875 L 15.75 -16.921875 C 15.101562 -17.648438 14.375 -18.179688 13.5625 -18.515625 C 12.757812 -18.847656 11.863281 -19.015625 10.875 -19.015625 C 8.582031 -19.015625 7.4375 -18.300781 7.4375 -16.875 C 7.4375 -16.28125 7.648438 -15.789062 8.078125 -15.40625 C 8.503906 -15.03125 9.253906 -14.722656 10.328125 -14.484375 L 13.1875 -13.859375 C 15.539062 -13.359375 17.257812 -12.550781 18.34375 -11.4375 C 19.425781 -10.320312 19.96875 -8.828125 19.96875 -6.953125 C 19.96875 -5.484375 19.601562 -4.1875 18.875 -3.0625 C 18.144531 -1.945312 17.09375 -1.082031 15.71875 -0.46875 C 14.351562 0.132812 12.722656 0.4375 10.828125 0.4375 Z M 10.828125 0.4375 "/></g></g></g><g fill="#e24c3f" fill-opacity="1"><g transform="translate(220.70586, 203.999987)"><g><path d="M 6.234375 -25.9375 C 5.179688 -25.9375 4.328125 -26.253906 3.671875 -26.890625 C 3.015625 -27.523438 2.6875 -28.347656 2.6875 -29.359375 C 2.6875 -30.347656 3.015625 -31.160156 3.671875 -31.796875 C 4.328125 -32.429688 5.179688 -32.75 6.234375 -32.75 C 6.929688 -32.75 7.550781 -32.601562 8.09375 -32.3125 C 8.644531 -32.019531 9.070312 -31.617188 9.375 -31.109375 C 9.675781 -30.597656 9.828125 -30.015625 9.828125 -29.359375 C 9.828125 -28.691406 9.675781 -28.097656 9.375 -27.578125 C 9.070312 -27.066406 8.644531 -26.664062 8.09375 -26.375 C 7.550781 -26.082031 6.929688 -25.9375 6.234375 -25.9375 Z M 9.15625 0 L 3.34375 0 L 3.34375 -23.15625 L 9.15625 -23.15625 Z M 9.15625 0 "/></g></g></g><g fill="#e24c3f" fill-opacity="1"><g transform="translate(233.176406, 203.999987)"><g><path d="M 9.53125 -25.28125 C 9.53125 -24.59375 9.644531 -23.882812 9.875 -23.15625 L 16.484375 -23.15625 L 16.484375 -18.546875 L 9.875 -18.546875 L 9.875 0 L 4.046875 0 L 4.046875 -18.546875 L 0.78125 -18.546875 L 0.78125 -23.15625 L 4.046875 -23.15625 C 3.816406 -24.132812 3.703125 -25.0625 3.703125 -25.9375 C 3.703125 -27.40625 4.035156 -28.660156 4.703125 -29.703125 C 5.378906 -30.742188 6.34375 -31.535156 7.59375 -32.078125 C 8.851562 -32.628906 10.351562 -32.90625 12.09375 -32.90625 C 14.65625 -32.90625 16.566406 -32.460938 17.828125 -31.578125 L 16.46875 -27.296875 L 16.015625 -27.21875 C 15.148438 -27.832031 14.039062 -28.140625 12.6875 -28.140625 C 11.632812 -28.140625 10.84375 -27.882812 10.3125 -27.375 C 9.789062 -26.863281 9.53125 -26.164062 9.53125 -25.28125 Z M 9.53125 -25.28125 "/></g></g></g><g fill="#e24c3f" fill-opacity="1"><g transform="translate(249.887777, 203.999987)"><g><path d="M 18.453125 -23.15625 L 24.375 -23.15625 L 15.078125 1.453125 C 14.335938 3.441406 13.519531 5.039062 12.625 6.25 C 11.738281 7.457031 10.6875 8.351562 9.46875 8.9375 C 8.257812 9.53125 6.8125 9.828125 5.125 9.828125 C 4.125 9.828125 3.222656 9.75 2.421875 9.59375 C 1.617188 9.4375 0.96875 9.234375 0.46875 8.984375 L 1.390625 4.28125 L 1.765625 4.15625 C 2.109375 4.34375 2.539062 4.488281 3.0625 4.59375 C 3.582031 4.707031 4.113281 4.765625 4.65625 4.765625 C 5.59375 4.765625 6.375 4.640625 7 4.390625 C 7.625 4.148438 8.148438 3.742188 8.578125 3.171875 C 9.015625 2.609375 9.40625 1.820312 9.75 0.8125 L 0.5 -23.15625 L 6.59375 -23.15625 L 12.34375 -7.0625 L 12.828125 -7.0625 L 12.78125 -6.890625 Z M 18.453125 -23.15625 "/></g></g></g><g fill="#949494" fill-opacity="1"><g transform="translate(274.737855, 203.999987)"><g><path d="M 29.453125 0 L 23.078125 0 L 20.765625 -7.078125 L 9 -7.078125 L 6.703125 0 L 0.46875 0 L 11.0625 -30.703125 L 18.859375 -30.703125 Z M 14.59375 -24.296875 L 10.640625 -12.171875 L 19.078125 -12.171875 L 15.125 -24.296875 Z M 14.59375 -24.296875 "/></g></g></g><g fill="#949494" fill-opacity="1"><g transform="translate(304.654574, 203.999987)"><g><path d="M 10.0625 0 L 3.984375 0 L 3.984375 -30.703125 L 10.0625 -30.703125 Z M 10.0625 0 "/></g></g></g></svg>