<svg xmlns="http://www.w3.org/2000/svg" xmlns:xlink="http://www.w3.org/1999/xlink" width="990" zoomAndPan="magnify" viewBox="0 0 742.5 767.999994" height="1024" preserveAspectRatio="xMidYMid meet" version="1.0"><defs><clipPath id="ae9ed7a732"><path d="M 313 465 L 682.5 465 L 682.5 734 L 313 734 Z M 313 465 " clip-rule="nonzero"/></clipPath><clipPath id="3bb8d31892"><path d="M 257 706 L 334 706 L 334 767.742188 L 257 767.742188 Z M 257 706 " clip-rule="nonzero"/></clipPath><clipPath id="2fd9617343"><path d="M 230 690 L 325 690 L 325 767.742188 L 230 767.742188 Z M 230 690 " clip-rule="nonzero"/></clipPath></defs><path fill="#d63847" d="M 273.359375 285.742188 C 272.644531 285.128906 261.910156 274.394531 240.195312 306.601562 C 215.382812 329.503906 129.25 435.660156 121.136719 457.609375 C 113.027344 479.558594 74.375 720.890625 89.167969 733.101562 C 103.960938 745.320312 236.617188 749.613281 240.914062 747.226562 C 245.207031 744.84375 271.988281 710.011719 271.71875 709.054688 C 271.453125 708.101562 480.457031 683.292969 479.984375 680.429688 C 479.503906 677.566406 415.5625 420.871094 412.222656 415.144531 C 408.878906 409.421875 340.648438 333.332031 340.648438 333.332031 L 328.9375 309.699219 L 273.359375 285.742188 " fill-opacity="1" fill-rule="nonzero"/><path fill="#972a36" d="M 211.230469 736.453125 C 207.113281 735.585938 203.0625 734.875 198.984375 733.769531 C 195.414062 732.800781 191.847656 731.527344 188.15625 731.175781 C 187.1875 731.085938 186.464844 732.835938 187.378906 733.34375 C 193.910156 736.949219 202.570312 738.714844 209.691406 740.75 C 212.191406 741.460938 213.648438 736.964844 211.230469 736.453125 " fill-opacity="1" fill-rule="nonzero"/><path fill="#972a36" d="M 248.46875 691.011719 C 243.734375 687.511719 234.9375 686.214844 229.339844 684.3125 C 223.035156 682.171875 216.75 679.992188 210.46875 677.785156 C 200.34375 674.226562 190.132812 670.773438 179.867188 667.582031 C 182.589844 636.152344 183.402344 604.507812 185.542969 573.035156 C 186.558594 558.144531 188.902344 543.761719 192.390625 529.25 C 193.769531 523.53125 195.402344 517.347656 196.539062 511.085938 C 198.386719 509.476562 200.242188 507.886719 202.03125 506.207031 C 203.941406 504.417969 206.121094 502.75 207.203125 500.316406 C 207.617188 499.382812 206.851562 497.710938 205.636719 498.183594 C 203.21875 499.121094 201.582031 501.320312 199.828125 503.152344 C 198.984375 504.039062 198.167969 504.945312 197.351562 505.855469 C 198.117188 499.828125 198.226562 493.824219 197 488.179688 C 196.542969 486.078125 194.117188 486.65625 193.816406 488.550781 C 191.46875 503.183594 190.453125 517.851562 187.601562 532.492188 C 184.871094 546.523438 182.542969 560.308594 181.710938 574.609375 C 179.929688 605.238281 177.933594 636.105469 177.292969 666.789062 C 175.785156 666.328125 174.277344 665.851562 172.765625 665.402344 C 171.769531 665.105469 170.769531 664.820312 169.765625 664.535156 C 167.050781 660.269531 163.890625 656.464844 160.167969 652.996094 C 156.273438 649.367188 151.851562 645.203125 146.914062 643.105469 C 145.5625 642.53125 144.460938 644.675781 145.265625 645.675781 C 148.402344 649.546875 152.890625 652.375 156.652344 655.617188 C 159.382812 657.96875 161.992188 660.46875 164.417969 663.128906 C 156.023438 661.105469 147.390625 660.035156 138.871094 661.84375 C 136.871094 662.269531 136.464844 666.246094 138.871094 666.183594 C 159.921875 665.671875 178.621094 672.859375 198.441406 679.070312 C 205.140625 681.167969 211.867188 683.1875 218.589844 685.222656 C 209.078125 691.738281 199.460938 699.542969 193.113281 709.117188 C 186.246094 719.484375 186.261719 733.855469 185.769531 745.835938 C 185.691406 747.785156 188.128906 747.726562 188.367188 745.917969 C 189.878906 734.234375 188.476562 720.964844 195.332031 710.832031 C 201.5625 701.621094 212.796875 691.519531 222.898438 687.148438 C 223.144531 687.039062 223.339844 686.890625 223.503906 686.714844 C 224.417969 686.996094 225.335938 687.269531 226.25 687.550781 C 230.878906 688.980469 235.507812 690.414062 240.144531 691.820312 C 244.253906 693.070312 245.03125 692.800781 247.320312 696.925781 C 249.914062 701.59375 249.472656 705.632812 249.039062 710.886719 C 248.828125 713.488281 252.285156 713.414062 252.507812 710.992188 C 253.097656 704.617188 254.207031 695.253906 248.46875 691.011719 " fill-opacity="1" fill-rule="nonzero"/><path fill="#972a36" d="M 342.910156 336.648438 C 342.402344 334.109375 339.007812 335.300781 339.46875 337.558594 C 343.324219 356.332031 345.613281 374.203125 343.25 393.378906 C 341.300781 409.183594 339.765625 425.316406 337.242188 441.085938 C 332.785156 433.035156 327.878906 425.210938 322.371094 417.835938 C 322.382812 417.820312 322.398438 417.816406 322.410156 417.796875 C 325.5 412.613281 322.101562 400.53125 316.929688 397.503906 C 315.703125 396.777344 314.769531 398.183594 315.050781 399.316406 C 315.828125 402.464844 317.824219 405.230469 318.667969 408.417969 C 318.933594 409.421875 319.054688 410.503906 319.140625 411.601562 C 318.480469 411.140625 317.585938 411.0625 316.753906 411.832031 C 310.605469 417.507812 305.015625 423.804688 299.292969 429.910156 C 296.820312 432.535156 294.363281 435.164062 291.910156 437.800781 C 290.351562 439.476562 284.179688 448.21875 282.089844 448.355469 C 276.058594 448.75 271.285156 433.066406 269.386719 428.851562 C 266.058594 421.449219 262.972656 413.929688 260.101562 406.339844 C 248.640625 376.0625 240.847656 344.617188 235.855469 312.648438 C 235.582031 310.882812 233.300781 311.71875 233.492188 313.273438 C 238.265625 352.0625 248.832031 389.929688 264.191406 425.855469 C 267.609375 433.84375 270.804688 442.570312 275.328125 450 C 277.175781 453.019531 279.210938 455.402344 282.945312 453.929688 C 285.195312 453.046875 287.070312 450.0625 288.652344 448.394531 C 292.355469 444.46875 296.074219 440.558594 299.769531 436.621094 C 305.632812 430.386719 311.628906 424.230469 317.191406 417.714844 C 323.964844 427.847656 330.648438 437.933594 336.621094 448.589844 C 337.617188 450.378906 339.945312 448.613281 340.082031 447.164062 C 341.863281 428.015625 345.992188 409.066406 347.976562 389.917969 C 349.859375 371.828125 346.460938 354.324219 342.910156 336.648438 " fill-opacity="1" fill-rule="nonzero"/><path fill="#e6ddd5" d="M 301.992188 428.984375 C 302.945312 430.890625 307.71875 437.8125 312.015625 438.765625 C 312.015625 491.484375 301.992188 706.914062 301.992188 706.914062 C 301.992188 706.914062 335.394531 707.21875 337.78125 702.652344 C 340.164062 698.082031 324.894531 446.796875 323.304688 437.730469 C 323.78125 437.890625 330.925781 431.683594 330.058594 428.984375 C 329.1875 426.277344 318.507812 414.003906 316.785156 413.714844 C 315.058594 413.425781 301.992188 428.984375 301.992188 428.984375 " fill-opacity="1" fill-rule="nonzero"/><path fill="#161717" d="M 454.792969 282.550781 C 453.859375 265.316406 450.910156 248.226562 446.308594 231.59375 C 442.363281 217.355469 437.53125 202.738281 427.675781 191.417969 C 426.203125 189.726562 424.152344 192.207031 425.167969 193.828125 C 439.320312 216.328125 444.789062 243.484375 447.449219 269.636719 C 448.785156 282.679688 450.511719 297.328125 447.910156 310.28125 C 444.527344 327.125 431.121094 325.753906 418.65625 331.738281 C 416.574219 332.734375 416.335938 337.589844 419.304688 337.34375 C 430.820312 336.390625 443.585938 333.011719 449.921875 322.558594 C 456.875 311.078125 455.484375 295.347656 454.792969 282.550781 " fill-opacity="1" fill-rule="nonzero"/><path fill="#161717" d="M 423.65625 142.691406 C 430.203125 139.132812 446.082031 184.441406 432.28125 201.921875 C 422.941406 211.878906 416.738281 141.976562 423.65625 142.691406 " fill-opacity="1" fill-rule="nonzero"/><path fill="#161717" d="M 408.03125 327.757812 C 408.03125 327.757812 403.257812 333.246094 408.507812 341 C 413.757812 348.75 432.902344 342.492188 430.519531 331.636719 C 428.132812 320.78125 416.324219 319.050781 408.03125 327.757812 " fill-opacity="1" fill-rule="nonzero"/><path fill="#f78e64" d="M 267.871094 275.109375 C 267.871094 275.109375 263.5 293.316406 261.746094 296.179688 C 260 299.042969 312.695312 397.015625 314.582031 396.378906 C 316.464844 395.742188 332.054688 331.808594 332.054688 331.808594 L 336.574219 315.585938 C 336.574219 315.585938 417.308594 314.140625 430.722656 280.050781 C 444.132812 245.96875 428.761719 178.492188 427.492188 155.90625 C 426.214844 133.324219 421.941406 86.246094 417.082031 83.066406 C 412.222656 79.886719 245.527344 120.179688 234.070312 142.496094 C 222.621094 164.816406 267.871094 275.109375 267.871094 275.109375 " fill-opacity="1" fill-rule="nonzero"/><path fill="#8e2e2c" d="M 266.546875 150.101562 C 266.546875 150.101562 283.71875 176.433594 285.765625 177.296875 C 287.816406 178.160156 298.652344 131.730469 298.652344 131.730469 C 298.652344 131.730469 300.800781 144.378906 301.992188 144.613281 C 303.1875 144.851562 325.613281 124.335938 325.613281 124.335938 C 325.613281 124.335938 326.804688 142.523438 328.238281 142.496094 C 329.667969 142.464844 351.382812 120.28125 351.382812 120.28125 C 351.382812 120.28125 354.007812 131.253906 355.675781 132.445312 C 357.34375 133.636719 379.773438 116.941406 386.929688 107.160156 C 387.40625 107.160156 388.121094 123.144531 392.414062 122.425781 C 396.710938 121.710938 418.425781 106.445312 419.617188 98.335938 C 418.902344 98.570312 422.71875 108.59375 424.152344 108.59375 C 425.582031 108.59375 442.757812 92.265625 432.261719 63.09375 C 421.765625 33.921875 383.839844 0.253906 322.039062 26.511719 C 281.234375 42.03125 273.296875 50.402344 273.296875 50.402344 C 273.296875 50.402344 216.816406 47.519531 212.042969 122.902344 C 212.042969 126.003906 217.53125 123.144531 217.53125 123.144531 C 217.53125 123.144531 213.949219 173.242188 226.359375 211.886719 C 238.765625 250.535156 266.679688 276.066406 267.871094 275.109375 C 269.0625 274.15625 272.792969 226.140625 273.296875 222.328125 C 273.804688 218.519531 253.320312 225.792969 243.777344 192.480469 C 234.230469 159.167969 251.617188 130.058594 266.546875 150.101562 " fill-opacity="1" fill-rule="nonzero"/><path fill="#8e2e2c" d="M 284.972656 196.9375 C 285.234375 196.511719 299.765625 245.605469 314.558594 267.714844 C 315.191406 268.035156 302.308594 282.664062 299.765625 279.640625 C 297.21875 276.621094 299.765625 259.445312 299.765625 259.445312 C 299.765625 259.445312 288.3125 271.050781 286.402344 267.238281 C 284.496094 263.417969 287.042969 248.46875 287.042969 248.46875 C 287.042969 248.46875 281.949219 256.421875 280.359375 253.878906 C 278.765625 251.335938 280.042969 232.246094 282.425781 227.15625 C 282.105469 227.636719 276.542969 231.613281 275.269531 230.179688 C 273.996094 228.746094 279.246094 206.164062 284.972656 196.9375 " fill-opacity="1" fill-rule="nonzero"/><path fill="#38393b" d="M 289.769531 190.359375 C 289.769531 190.359375 288.175781 153.199219 263.203125 154.292969 C 238.234375 155.382812 237.964844 198.667969 254.4375 217.246094 C 270.90625 235.828125 292.421875 220.746094 289.769531 190.359375 " fill-opacity="1" fill-rule="nonzero"/><path fill="#161717" d="M 280.917969 191.46875 C 280.917969 191.46875 279.675781 158.71875 260.214844 159.683594 C 240.757812 160.644531 240.550781 198.789062 253.382812 215.167969 C 266.21875 231.542969 282.988281 218.246094 280.917969 191.46875 " fill-opacity="1" fill-rule="nonzero"/><path fill="#ffffff" d="M 259.777344 164.960938 C 259.777344 164.960938 266.539062 169.097656 268.683594 179.273438 C 269.003906 180.542969 273.21875 179.191406 273.296875 177.445312 C 273.378906 175.695312 269.242188 162.574219 259.777344 164.960938 " fill-opacity="1" fill-rule="nonzero"/><path fill="#ffffff" d="M 269.398438 185.875 C 269.398438 185.875 269.242188 191.285156 270.832031 192.234375 C 272.421875 193.191406 274.292969 191.082031 274.492188 190.449219 C 274.6875 189.8125 274.769531 184.878906 274.492188 184.523438 C 274.210938 184.164062 269.402344 185.164062 269.398438 185.875 " fill-opacity="1" fill-rule="nonzero"/><path fill="#161717" d="M 260.507812 162.25 C 260.507812 162.25 253.269531 57.042969 315.78125 29.050781 C 315.78125 29.050781 318.765625 29.308594 322.039062 26.507812 C 289.257812 23.605469 236.878906 48.222656 257.085938 163.6875 C 259.164062 165.277344 260.507812 162.25 260.507812 162.25 " fill-opacity="1" fill-rule="nonzero"/><path fill="#ffffff" d="M 300.894531 31.921875 C 302.664062 32.882812 281.859375 36.347656 268.289062 63.09375 C 271.46875 45.597656 291.828125 26.992188 300.894531 31.921875 " fill-opacity="1" fill-rule="nonzero"/><path fill="#9a2e3a" d="M 321.078125 270.097656 C 321.300781 269.570312 326.007812 257.785156 340.644531 264.105469 C 355.273438 270.417969 368.640625 270.839844 374.523438 266.175781 C 378.179688 264.691406 383.273438 284.09375 354.164062 290.617188 C 325.054688 297.136719 317.421875 278.6875 321.078125 270.097656 " fill-opacity="1" fill-rule="nonzero"/><path fill="#ffffff" d="M 340.644531 264.132812 C 331.089844 260.003906 325.78125 263.597656 323.175781 266.738281 C 323.21875 266.785156 329.480469 274.082031 345.335938 275.164062 C 361.242188 276.25 363.785156 269.324219 363.785156 269.324219 C 363.785156 269.324219 363.765625 269.316406 363.761719 269.3125 C 357.3125 269.488281 349.199219 267.824219 340.644531 264.132812 " fill-opacity="1" fill-rule="nonzero"/><path fill="#f46a7f" d="M 336.570312 291.433594 C 336.570312 291.433594 337.425781 281.175781 321.300781 280.050781 C 324.820312 287.59375 330.1875 290.894531 336.570312 291.433594 " fill-opacity="1" fill-rule="nonzero"/><path fill="#8e2e2c" d="M 330.304688 176.105469 C 330.304688 176.105469 354.960938 167.675781 365.140625 168.945312 C 375.316406 170.21875 373.25 155.269531 365.140625 151.933594 C 357.027344 148.589844 330.621094 158.289062 327.601562 164.015625 C 325.214844 167.992188 326.964844 176.105469 330.304688 176.105469 " fill-opacity="1" fill-rule="nonzero"/><path fill="#8e2e2c" d="M 408.242188 148.746094 C 408.242188 148.746094 405.859375 156.382812 409.359375 160.835938 C 412.859375 165.289062 422.71875 161.789062 427.175781 162.109375 C 431.628906 162.425781 432.238281 151.917969 429.226562 147.152344 C 426.21875 142.386719 408.945312 145.078125 408.242188 148.746094 " fill-opacity="1" fill-rule="nonzero"/><path fill="#bd6051" d="M 394.832031 224.199219 C 390.234375 215.230469 389.5625 207.777344 388.175781 197.929688 C 387.917969 196.113281 385.496094 196.585938 385.398438 198.253906 C 385.035156 204.921875 385.507812 211.933594 387.714844 218.292969 C 388.808594 221.441406 390.808594 223.882812 392.070312 226.851562 C 396.285156 236.742188 392.867188 243.546875 383.757812 248 C 382.964844 248.390625 383.148438 249.957031 384.167969 249.71875 C 392.105469 247.871094 397.757812 241.59375 397.660156 233.164062 C 397.625 229.765625 396.34375 227.140625 394.832031 224.199219 " fill-opacity="1" fill-rule="nonzero"/><path fill="#bd6051" d="M 385.417969 238.863281 C 384.96875 236.027344 380.429688 238.34375 379 238.875 C 377.96875 239.261719 377.277344 240.6875 377.683594 241.71875 C 378.15625 242.898438 379.4375 242.945312 380.453125 242.554688 C 381.660156 242.089844 382.894531 241.664062 384.054688 241.082031 C 384.808594 240.707031 385.558594 239.769531 385.417969 238.863281 " fill-opacity="1" fill-rule="nonzero"/><path fill="#040606" d="M 348.207031 198.476562 C 346.121094 196.777344 343.441406 198.390625 342.636719 200.621094 C 342.050781 202.25 341.984375 204.429688 342.222656 206.414062 C 342.015625 208.964844 342.039062 211.554688 342.121094 214.078125 C 342.230469 217.59375 346.636719 216.851562 347.625 214.277344 C 348.636719 211.636719 349.382812 208.847656 349.667969 206.03125 C 349.914062 203.632812 350.3125 200.199219 348.207031 198.476562 " fill-opacity="1" fill-rule="nonzero"/><path fill="#040606" d="M 419.324219 191.707031 C 417.238281 190.007812 414.5625 191.617188 413.757812 193.847656 C 413.171875 195.480469 413.105469 197.65625 413.34375 199.644531 C 413.132812 202.195312 413.160156 204.785156 413.234375 207.304688 C 413.351562 210.824219 417.761719 210.074219 418.742188 207.503906 C 419.753906 204.867188 420.5 202.074219 420.789062 199.257812 C 421.03125 196.863281 421.429688 193.421875 419.324219 191.707031 " fill-opacity="1" fill-rule="nonzero"/><path fill="#dd6e5a" d="M 336.574219 315.585938 C 336.574219 315.585938 294.824219 312.804688 279.5625 260.238281 C 284.335938 327.039062 333.179688 327.761719 333.179688 327.761719 L 336.574219 315.585938 " fill-opacity="1" fill-rule="nonzero"/><path fill="#6d2224" d="M 395.097656 45.785156 C 371.8125 20.433594 328.359375 21.882812 303.175781 42.960938 C 302.414062 43.597656 303.054688 45.296875 304.058594 44.621094 C 317.53125 35.550781 332.832031 29.867188 349.257812 30.488281 C 366.503906 31.140625 379.402344 38.570312 393.308594 47.957031 C 394.535156 48.777344 396.054688 46.828125 395.097656 45.785156 " fill-opacity="1" fill-rule="nonzero"/><path fill="#6d2224" d="M 403.195312 53.070312 C 402.101562 51.230469 399.503906 53.628906 400.292969 55.265625 C 404.539062 64.125 406.121094 72.839844 408.671875 82.203125 C 409.015625 83.464844 410.566406 82.597656 410.683594 81.675781 C 411.914062 72.003906 408.082031 61.289062 403.195312 53.070312 " fill-opacity="1" fill-rule="nonzero"/><path fill="#6d2224" d="M 368.160156 47.007812 C 367.394531 46.007812 366.082031 47.484375 366.734375 48.378906 C 380.355469 67.183594 370.90625 91.441406 361.671875 109.984375 C 360.773438 111.785156 362.84375 113.824219 364.050781 111.820312 C 375.386719 93.023438 382.769531 65.953125 368.160156 47.007812 " fill-opacity="1" fill-rule="nonzero"/><path fill="#6d2224" d="M 351.429688 86.332031 C 349.898438 92.1875 347.035156 98.101562 346.128906 104.058594 C 345.90625 105.515625 347.679688 106.066406 348.453125 104.890625 C 351.8125 99.789062 352.96875 92.757812 354.277344 86.871094 C 354.691406 85.003906 351.898438 84.535156 351.429688 86.332031 " fill-opacity="1" fill-rule="nonzero"/><path fill="#6d2224" d="M 295.511719 62.421875 C 281.371094 80.242188 278.988281 109.746094 282.589844 131.460938 C 282.785156 132.652344 284.132812 132.027344 284.128906 131.050781 C 284.015625 108.730469 282.316406 82.132812 296.75 63.382812 C 297.425781 62.507812 296.238281 61.507812 295.511719 62.421875 " fill-opacity="1" fill-rule="nonzero"/><path fill="#6d2224" d="M 310.253906 79.746094 C 308.011719 87.445312 305.191406 96.007812 304.765625 104.042969 C 304.691406 105.511719 306.570312 105.933594 307.019531 104.472656 C 309.402344 96.703125 310.484375 88.484375 312.738281 80.640625 C 313.273438 78.773438 310.808594 77.855469 310.253906 79.746094 " fill-opacity="1" fill-rule="nonzero"/><path fill="#6d2224" d="M 329.035156 48.9375 C 327.449219 47.839844 325.792969 50.628906 327.25 51.691406 C 337.121094 58.875 334.316406 76.707031 334.671875 87.214844 C 334.730469 88.945312 336.96875 88.3125 337.160156 86.925781 C 338.785156 75.253906 340.109375 56.625 329.035156 48.9375 " fill-opacity="1" fill-rule="nonzero"/><path fill="#6d2224" d="M 247.179688 67.035156 C 233.464844 77.472656 226.640625 99.894531 225.445312 116.414062 C 225.347656 117.742188 227.082031 118.105469 227.476562 116.796875 C 232.328125 100.605469 235.488281 81.101562 248.902344 69.425781 C 250.355469 68.167969 248.871094 65.746094 247.179688 67.035156 " fill-opacity="1" fill-rule="nonzero"/><path fill="#6d2224" d="M 247.355469 96.9375 C 243.878906 102.714844 240.085938 110.367188 240.546875 117.289062 C 240.652344 118.886719 242.644531 118.621094 243.097656 117.378906 C 244.175781 114.421875 244.515625 111.238281 245.515625 108.238281 C 246.609375 104.945312 248.023438 101.792969 249.734375 98.773438 C 250.753906 96.976562 248.535156 94.972656 247.355469 96.9375 " fill-opacity="1" fill-rule="nonzero"/><path fill="#6d2224" d="M 246.988281 224.984375 C 235.671875 202.304688 233.390625 180.285156 234.070312 155.136719 C 234.113281 153.644531 232.160156 153.65625 232.066406 155.074219 C 230.539062 178.585938 229.738281 206.796875 244.996094 226.488281 C 245.882812 227.632812 247.554688 226.128906 246.988281 224.984375 " fill-opacity="1" fill-rule="nonzero"/><path fill="#bd6051" d="M 327.152344 316.835938 C 326.921875 316.046875 325.890625 315.953125 325.371094 316.488281 C 323.851562 318.058594 323.160156 319.359375 322.53125 321.484375 C 321.230469 325.890625 320.59375 329.398438 317.945312 333.277344 C 314.917969 337.707031 314.507812 341.425781 315.03125 346.738281 C 315.214844 348.601562 317.535156 347.667969 317.46875 346.09375 C 317.269531 341.273438 318.003906 337.476562 321.324219 333.726562 C 322.789062 332.074219 324.167969 330.878906 325.148438 328.875 C 326.941406 325.210938 328.304688 320.820312 327.152344 316.835938 " fill-opacity="1" fill-rule="nonzero"/><path fill="#972a36" d="M 379.300781 616.898438 C 376.003906 616.542969 367.101562 617.011719 364.488281 615.078125 C 360.804688 612.355469 361.679688 607.871094 361.464844 603.734375 C 360.566406 586.128906 360.035156 568.050781 356.828125 550.6875 C 369.566406 546.371094 383.277344 552.777344 396.410156 552.074219 C 397.304688 560.738281 398.199219 569.402344 399.101562 578.066406 C 400.523438 591.679688 401.925781 605.296875 403.335938 618.914062 C 395.316406 618.394531 387.292969 617.761719 379.300781 616.898438 Z M 406.902344 621.855469 C 407.109375 621.136719 407.066406 620.363281 406.6875 619.800781 C 405.449219 608.113281 404.21875 596.421875 403.019531 584.734375 C 401.824219 573.066406 400.628906 561.398438 399.449219 549.730469 C 399.605469 549.046875 399.554688 548.351562 399.257812 547.84375 C 398.605469 541.386719 397.949219 534.9375 397.316406 528.480469 C 396.332031 518.472656 395.378906 508.453125 394.453125 498.4375 C 394.0625 494.195312 393.636719 489.96875 393.628906 485.792969 C 395.136719 484.742188 396.648438 483.699219 398.140625 482.621094 C 399.726562 481.480469 401.507812 480.398438 402.539062 478.703125 C 403.050781 477.859375 402.648438 476.453125 401.472656 476.710938 C 399.609375 477.113281 398.074219 478.597656 396.609375 479.746094 C 395.644531 480.496094 394.699219 481.265625 393.746094 482.035156 C 394.027344 477.929688 394.839844 473.882812 396.628906 469.921875 C 397.941406 467.015625 393.871094 465.582031 392.59375 468.476562 C 386.09375 483.234375 390.929688 500.910156 392.613281 516.25 C 393.742188 526.546875 394.824219 536.855469 395.894531 547.160156 C 382.007812 547.605469 368.628906 541.527344 355.238281 546.472656 C 353.558594 538.152344 352.761719 529.753906 350.417969 521.511719 C 350.019531 520.105469 348.035156 521.179688 348.285156 522.394531 C 350.066406 531.058594 352.285156 540.570312 351.621094 549.457031 C 351.496094 551.105469 352.742188 552.222656 354.277344 551.667969 C 355.457031 573.4375 359.335938 595.050781 358.453125 616.921875 C 358.398438 618.179688 358.957031 619.125 360.246094 619.34375 C 374.648438 621.789062 389.238281 623.011719 403.828125 623.589844 C 406.539062 649.628906 409.332031 675.65625 412.558594 701.632812 C 412.785156 703.453125 415.121094 702.578125 414.976562 700.996094 C 412.492188 674.597656 409.691406 648.230469 406.902344 621.855469 " fill-opacity="1" fill-rule="nonzero"/><path fill="#972a36" d="M 282.226562 594.496094 C 281.792969 606.828125 280.144531 619.078125 279.554688 631.378906 C 279.539062 631.382812 279.523438 631.382812 279.507812 631.390625 C 268.097656 635.75 256.335938 635.757812 244.386719 633.949219 C 238.851562 633.117188 230.808594 632.832031 225.726562 630.222656 C 218.847656 626.691406 219.214844 615.066406 218.472656 608.5625 C 216.742188 593.4375 217.449219 577.523438 215.425781 562.246094 C 237.65625 558.28125 259.695312 557.15625 282.230469 556.371094 C 282.433594 569.082031 282.671875 581.792969 282.226562 594.496094 Z M 287.394531 553.261719 C 287.039062 541.585938 287.292969 529.746094 284.914062 518.253906 C 284.375 515.648438 281.324219 516.90625 281.445312 519.167969 C 282.015625 529.820312 283.414062 540.324219 283.175781 550.992188 C 282.9375 551.074219 282.699219 551.242188 282.515625 551.46875 C 260.097656 552.097656 236.441406 551.703125 214.777344 557.96875 C 214.542969 556.605469 214.28125 555.246094 213.992188 553.894531 C 213.398438 546.933594 212.519531 540.027344 211.21875 533.140625 C 210.910156 531.507812 208.808594 532.265625 209.011719 533.726562 C 209.390625 536.503906 209.699219 539.273438 209.96875 542.042969 C 209.464844 542.152344 208.964844 542.824219 209.140625 543.457031 C 209.660156 545.351562 210.121094 547.242188 210.527344 549.132812 C 210.757812 552.9375 210.894531 556.753906 210.863281 560.605469 C 210.855469 561.75 211.433594 562.761719 212.625 562.699219 C 213.515625 571.226562 213.726562 579.8125 213.894531 588.550781 C 214.042969 596.132812 214.40625 603.683594 215.191406 611.222656 C 215.742188 616.535156 215.667969 623.164062 217.660156 628.191406 C 220.957031 636.515625 232.933594 636.667969 240.539062 637.980469 C 253.925781 640.296875 267.175781 640.753906 280.03125 635.847656 C 280.730469 635.578125 281.195312 634.976562 281.4375 634.292969 C 281.75 634.058594 282.011719 633.703125 282.109375 633.207031 C 287.066406 608.757812 287.09375 581.324219 284.742188 556.285156 C 284.820312 556.28125 284.894531 556.277344 284.972656 556.273438 C 286.59375 556.21875 287.441406 554.742188 287.394531 553.261719 " fill-opacity="1" fill-rule="nonzero"/><path fill="#972a36" d="M 252.019531 541.90625 C 251.492188 545.875 245.875 544.410156 246.449219 541.308594 C 246.664062 541.195312 246.863281 541.03125 247.003906 540.855469 C 247.890625 539.699219 248.167969 537.671875 249.96875 537.636719 C 252.148438 537.585938 252.230469 540.328125 252.019531 541.90625 Z M 250.6875 533.660156 C 247.878906 533.515625 244.519531 536.238281 244.5625 539.121094 C 242.945312 542.015625 243.609375 546.375 246.851562 547.898438 C 250.71875 549.710938 254.710938 546.679688 255.503906 542.890625 C 256.269531 539.207031 255.304688 533.890625 250.6875 533.660156 " fill-opacity="1" fill-rule="nonzero"/><path fill="#972a36" d="M 382.285156 538.496094 C 380.988281 539.816406 378.328125 540.214844 377.035156 538.675781 C 376.050781 537.507812 376.210938 535.445312 377.378906 534.476562 C 377.421875 534.441406 377.464844 534.414062 377.503906 534.386719 C 377.652344 534.277344 377.808594 534.171875 377.992188 534.105469 C 378.226562 534.011719 378.402344 533.832031 378.539062 533.625 C 378.59375 533.589844 378.644531 533.546875 378.710938 533.511719 C 379.527344 533.085938 380.664062 533.066406 381.492188 533.480469 C 383.320312 534.394531 383.691406 537.070312 382.285156 538.496094 Z M 383.574219 530.613281 C 382.039062 529.421875 380.03125 529.230469 378.230469 529.882812 C 376.621094 530.46875 374.996094 531.84375 375.175781 533.621094 C 373.839844 535.300781 373.476562 537.792969 374.40625 539.785156 C 376.117188 543.421875 381.082031 543.375 383.78125 540.921875 C 386.671875 538.300781 386.753906 533.082031 383.574219 530.613281 " fill-opacity="1" fill-rule="nonzero"/><path fill="#972a36" d="M 182.40625 479.863281 C 171.28125 466.296875 155.257812 456.292969 139.300781 448.957031 C 139.09375 448.777344 138.851562 448.632812 138.527344 448.582031 C 138.234375 448.453125 137.9375 448.332031 137.644531 448.210938 C 136.992188 447.914062 136.335938 447.621094 135.683594 447.335938 C 133.550781 446.40625 132.289062 450.183594 134.292969 451.207031 C 134.761719 451.445312 135.089844 451.613281 135.363281 451.742188 C 152.164062 459.84375 166.027344 470.648438 181.046875 481.515625 C 181.984375 482.195312 183.074219 480.671875 182.40625 479.863281 " fill-opacity="1" fill-rule="nonzero"/><path fill="#972a36" d="M 408.683594 438.996094 C 405.40625 442.492188 402.902344 447.511719 402 452.253906 C 401.710938 453.785156 403.859375 454.613281 404.578125 453.175781 C 405.636719 451.074219 406.402344 448.839844 407.433594 446.722656 C 408.476562 444.582031 409.558594 442.558594 410.476562 440.367188 C 410.941406 439.261719 409.621094 438 408.683594 438.996094 " fill-opacity="1" fill-rule="nonzero"/><path fill="#972a36" d="M 128.03125 537.023438 C 117.925781 569.058594 113.109375 603.292969 108.726562 636.507812 C 108.527344 638.019531 110.515625 637.941406 110.730469 636.570312 C 115.980469 603.265625 124.0625 570.53125 129.617188 537.320312 C 129.792969 536.257812 128.339844 536.042969 128.03125 537.023438 " fill-opacity="1" fill-rule="nonzero"/><path fill="#972a36" d="M 149.136719 566.515625 C 149.011719 564.457031 146.328125 565.460938 146.414062 567.234375 C 147.105469 582.066406 148.566406 598.425781 154.539062 612.207031 C 154.949219 613.148438 156.160156 612.457031 156.03125 611.589844 C 153.722656 596.429688 150.050781 581.921875 149.136719 566.515625 " fill-opacity="1" fill-rule="nonzero"/><path fill="#972a36" d="M 422.601562 525.570312 C 422.542969 523.976562 420.453125 524.75 420.496094 526.125 C 421.09375 545.128906 422.097656 564.792969 426.429688 583.359375 C 426.730469 584.660156 428.324219 584.074219 428.199219 582.894531 C 426.207031 563.726562 423.335938 544.871094 422.601562 525.570312 " fill-opacity="1" fill-rule="nonzero"/><path fill="#333436" d="M 314.769531 708.929688 L 464.753906 673.464844 L 449.960938 723.558594 L 314.769531 708.929688 " fill-opacity="1" fill-rule="nonzero"/><g clip-path="url(#ae9ed7a732)"><path fill="#191a1a" d="M 314.769531 708.929688 C 314.769531 708.929688 430.550781 714.65625 432.140625 714.339844 C 433.734375 714.015625 445.183594 508.375 447.089844 505.992188 C 449.007812 503.605469 682.34375 465.4375 682.34375 465.4375 C 682.34375 465.4375 657.53125 682.050781 654.667969 684.914062 C 651.804688 687.777344 433.734375 733.101562 433.734375 733.101562 C 433.734375 733.101562 314.019531 714.699219 313.515625 714.015625 C 313.011719 713.339844 313.171875 708.851562 314.769531 708.929688 " fill-opacity="1" fill-rule="nonzero"/></g><path fill="#636668" d="M 576.945312 603.210938 C 572.824219 609.539062 565.1875 611.878906 559.886719 608.429688 C 554.582031 604.976562 553.628906 597.050781 557.746094 590.71875 C 561.871094 584.386719 569.503906 582.050781 574.804688 585.5 C 580.109375 588.949219 581.066406 596.878906 576.945312 603.210938 " fill-opacity="1" fill-rule="nonzero"/><g clip-path="url(#3bb8d31892)"><path fill="#191a1a" d="M 275.21875 762.765625 C 275.21875 762.765625 304.804688 775.011719 323.253906 765.46875 C 341.707031 755.925781 333.277344 728.730469 308.464844 714.414062 C 283.648438 700.101562 269.175781 707.738281 260.109375 724.914062 C 251.042969 742.089844 266.644531 759.878906 275.21875 762.765625 " fill-opacity="1" fill-rule="nonzero"/></g><path fill="#0c0d0d" d="M 301.859375 733.023438 C 302.5 733.742188 318.777344 744.664062 326.78125 763.179688 C 326.800781 763.164062 327.933594 762.476562 328.199219 761.902344 C 323.574219 747.65625 308.066406 729.285156 300.667969 724.914062 C 293.273438 720.539062 305.757812 716.167969 305.757812 716.167969 L 300.828125 714.179688 C 300.828125 714.179688 272.992188 731.128906 271.71875 738.679688 C 271.640625 738.671875 275.933594 742.882812 275.933594 742.566406 C 275.933594 742.25 288.5 728.171875 292 727.855469 C 295.5 727.535156 301.859375 733.023438 301.859375 733.023438 " fill-opacity="1" fill-rule="nonzero"/><g clip-path="url(#2fd9617343)"><path fill="#f78e64" d="M 242.929688 711.871094 C 243.261719 711.53125 267.582031 688.652344 279.832031 690.242188 C 292.078125 691.832031 325.324219 722.527344 324.53125 726.503906 C 323.734375 730.480469 294.585938 721.097656 285.203125 710.601562 C 284.285156 709.410156 282.414062 709.367188 282.378906 710.441406 C 282.3125 712.238281 319.597656 736.363281 316.257812 747.179688 C 307.191406 751.632812 273.148438 732.386719 273.148438 732.386719 C 273.148438 732.386719 299.875 760.0625 297.488281 763.722656 C 295.101562 767.375 281.101562 760.222656 281.101562 760.222656 C 281.101562 760.222656 286.992188 769.128906 282.539062 770.082031 C 278.082031 771.035156 249.769531 764.515625 242.929688 761.175781 C 236.089844 757.835938 219.390625 735.886719 242.929688 711.871094 " fill-opacity="1" fill-rule="nonzero"/></g><path fill="#dd6e5a" d="M 281.101562 760.222656 C 281.101562 760.222656 258.242188 751.949219 251.914062 740.855469 C 246.191406 755.289062 282.496094 765.75 281.101562 760.222656 " fill-opacity="1" fill-rule="nonzero"/><path fill="#dd6e5a" d="M 255.648438 701.269531 C 255.648438 701.269531 247.351562 701.183594 243.417969 700.347656 C 239.480469 699.511719 201.664062 719.984375 210.132812 747.859375 C 218.367188 749.613281 234.710938 752.332031 234.710938 752.332031 C 234.710938 752.332031 237.816406 720.671875 255.648438 701.269531 " fill-opacity="1" fill-rule="nonzero"/></svg>