<svg xmlns="http://www.w3.org/2000/svg" xmlns:xlink="http://www.w3.org/1999/xlink" width="400" zoomAndPan="magnify" viewBox="0 0 300 299.999988" height="400" preserveAspectRatio="xMidYMid meet" version="1.0"><path fill="#575658" d="M 299.941406 300.003906 L 0.046875 300.003906 L 29.515625 271.597656 L 149.996094 271.976562 L 270.476562 271.597656 L 299.941406 300.003906 " fill-opacity="1" fill-rule="nonzero"/><path fill="#f03f2b" d="M 229.351562 206.304688 L 191.792969 136.902344 L 159.445312 136.902344 L 126.597656 65.617188 L 41.910156 65.617188 L 41.910156 82.5625 L 115.75 82.5625 L 148.597656 153.84375 L 181.695312 153.84375 L 214.832031 215.082031 L 200.601562 223.6875 L 237.707031 238.222656 L 242.074219 198.609375 L 229.351562 206.304688 " fill-opacity="1" fill-rule="nonzero"/><path fill="#5c4e3f" d="M 156.882812 92.890625 C 156.882812 92.890625 175.980469 103.578125 181.335938 103.515625 C 186.695312 103.457031 167.8125 74.992188 167.8125 74.992188 L 175.683594 68.871094 C 175.683594 68.871094 192.054688 87.769531 194.734375 102.339844 C 197.414062 116.914062 189.398438 121.675781 177.476562 119.59375 C 165.558594 117.507812 156.628906 111.601562 156.628906 111.601562 L 156.882812 92.890625 " fill-opacity="1" fill-rule="nonzero"/><path fill="#48484a" d="M 67.355469 215.210938 L 105.421875 215.210938 C 107.144531 215.210938 108.535156 213.816406 108.535156 212.097656 L 108.535156 186.109375 C 108.535156 184.390625 107.144531 182.996094 105.421875 182.996094 L 67.355469 182.996094 C 65.636719 182.996094 64.242188 184.390625 64.242188 186.109375 L 64.242188 212.097656 C 64.242188 213.816406 65.636719 215.210938 67.355469 215.210938 " fill-opacity="1" fill-rule="nonzero"/><path fill="#353939" d="M 107.769531 189.996094 C 107.769531 189.996094 107.695312 190.226562 107.558594 190.660156 C 107.421875 191.09375 107.214844 191.730469 106.96875 192.542969 C 106.46875 194.164062 105.761719 196.488281 104.957031 199.28125 C 104.855469 199.632812 104.753906 199.988281 104.648438 200.355469 C 104.539062 200.707031 104.441406 201.128906 104.308594 201.371094 C 104.011719 201.964844 103.488281 202.46875 102.832031 202.699219 C 102.5 202.820312 102.171875 202.871094 101.789062 202.855469 C 101.359375 202.847656 100.925781 202.835938 100.492188 202.828125 C 99.613281 202.804688 98.722656 202.800781 97.8125 202.785156 C 95.992188 202.765625 94.113281 202.726562 92.207031 202.722656 C 90.296875 202.714844 88.359375 202.707031 86.417969 202.699219 C 84.480469 202.707031 82.539062 202.714844 80.632812 202.722656 C 78.722656 202.722656 76.84375 202.765625 75.027344 202.785156 C 74.117188 202.800781 73.222656 202.800781 72.347656 202.824219 C 71.910156 202.835938 71.476562 202.84375 71.050781 202.851562 L 71.007812 202.855469 L 70.988281 202.855469 C 70.976562 202.855469 71.019531 202.855469 70.992188 202.855469 L 70.914062 202.851562 L 70.753906 202.851562 C 70.667969 202.839844 70.597656 202.835938 70.511719 202.824219 C 70.34375 202.792969 70.171875 202.757812 70.011719 202.691406 C 69.355469 202.460938 68.835938 201.949219 68.542969 201.355469 C 68.472656 201.199219 68.417969 201.0625 68.363281 200.882812 C 68.308594 200.695312 68.253906 200.511719 68.203125 200.332031 C 68.09375 199.96875 67.988281 199.613281 67.882812 199.265625 C 67.058594 196.472656 66.339844 194.15625 65.828125 192.535156 C 65.574219 191.726562 65.363281 191.09375 65.222656 190.65625 C 65.082031 190.226562 65.007812 189.996094 65.007812 189.996094 C 65.007812 189.996094 65.054688 190.230469 65.148438 190.679688 C 65.242188 191.125 65.371094 191.78125 65.550781 192.609375 C 65.90625 194.269531 66.425781 196.640625 67.085938 199.476562 C 67.167969 199.828125 67.253906 200.191406 67.339844 200.558594 C 67.378906 200.742188 67.425781 200.929688 67.46875 201.117188 C 67.511719 201.3125 67.582031 201.542969 67.664062 201.746094 C 68.011719 202.578125 68.710938 203.316406 69.613281 203.6875 C 69.835938 203.789062 70.074219 203.855469 70.316406 203.90625 C 70.4375 203.933594 70.582031 203.949219 70.707031 203.964844 L 70.867188 203.972656 L 70.945312 203.980469 L 71.050781 203.980469 C 71.476562 203.992188 71.910156 204 72.347656 204.011719 C 73.222656 204.035156 74.117188 204.035156 75.027344 204.050781 C 76.84375 204.070312 78.722656 204.113281 80.632812 204.113281 C 82.539062 204.121094 84.480469 204.128906 86.417969 204.136719 C 88.359375 204.128906 90.296875 204.121094 92.207031 204.109375 C 94.113281 204.109375 95.992188 204.066406 97.8125 204.050781 C 98.722656 204.035156 99.613281 204.03125 100.492188 204.007812 C 100.925781 204 101.359375 203.988281 101.789062 203.980469 C 101.886719 203.980469 102.027344 203.96875 102.148438 203.960938 C 102.269531 203.949219 102.394531 203.929688 102.515625 203.910156 C 102.757812 203.859375 102.996094 203.792969 103.222656 203.695312 C 104.128906 203.328125 104.828125 202.597656 105.179688 201.765625 C 105.378906 201.292969 105.414062 200.949219 105.507812 200.574219 C 105.589844 200.207031 105.675781 199.84375 105.753906 199.488281 C 106.394531 196.648438 106.898438 194.277344 107.242188 192.613281 C 107.421875 191.78125 107.542969 191.125 107.632812 190.679688 C 107.722656 190.234375 107.769531 189.996094 107.769531 189.996094 " fill-opacity="1" fill-rule="nonzero"/><path fill="#868988" d="M 99.65625 206.007812 L 100.589844 206.007812 C 101.367188 206.007812 101.996094 205.378906 101.996094 204.605469 L 101.996094 200.503906 C 101.996094 199.730469 101.367188 199.101562 100.589844 199.101562 L 99.65625 199.101562 C 98.882812 199.101562 98.253906 199.730469 98.253906 200.503906 L 98.253906 204.605469 C 98.253906 205.378906 98.882812 206.007812 99.65625 206.007812 " fill-opacity="1" fill-rule="nonzero"/><path fill="#868988" d="M 72.394531 206.007812 L 73.332031 206.007812 C 74.105469 206.007812 74.734375 205.378906 74.734375 204.605469 L 74.734375 200.503906 C 74.734375 199.730469 74.105469 199.101562 73.332031 199.101562 L 72.394531 199.101562 C 71.621094 199.101562 70.992188 199.730469 70.992188 200.503906 L 70.992188 204.605469 C 70.992188 205.378906 71.621094 206.007812 72.394531 206.007812 " fill-opacity="1" fill-rule="nonzero"/><path fill="#353939" d="M 102.351562 182.996094 L 102.351562 182.457031 L 98.828125 182.457031 C 98.828125 182.457031 98.683594 179.832031 96.457031 176.378906 C 94.226562 172.929688 86.835938 172.605469 86.835938 172.605469 L 86.835938 174.371094 C 86.835938 174.371094 91.0625 174.367188 92.789062 176.667969 C 94.515625 178.96875 94.585938 182.996094 94.585938 182.996094 L 102.351562 182.996094 " fill-opacity="1" fill-rule="nonzero"/><path fill="#353939" d="M 70.992188 182.996094 L 70.992188 182.457031 L 74.515625 182.457031 C 74.515625 182.457031 74.660156 179.832031 76.890625 176.378906 C 79.117188 172.929688 86.835938 172.605469 86.835938 172.605469 L 86.835938 174.371094 C 86.835938 174.371094 82.28125 174.367188 80.558594 176.667969 C 78.832031 178.96875 78.761719 182.996094 78.761719 182.996094 L 70.992188 182.996094 " fill-opacity="1" fill-rule="nonzero"/><path fill="#f2b36d" d="M 91.195312 167.320312 C 91.195312 167.320312 93.820312 173.160156 93.765625 173.769531 C 93.710938 174.375 92.480469 174.796875 92.480469 174.796875 C 92.480469 174.796875 92.292969 177.179688 91.480469 177.976562 C 90.660156 178.769531 81.5625 178.164062 80.472656 177.601562 C 79.382812 177.039062 82.199219 167.320312 82.199219 167.320312 L 91.195312 167.320312 " fill-opacity="1" fill-rule="nonzero"/><path fill="#5c4e3f" d="M 156.140625 91.90625 C 156.140625 91.90625 158.816406 93.535156 159.511719 96.015625 C 160.207031 98.496094 160.113281 102.863281 156.632812 111.605469 C 153.148438 120.34375 151.277344 131.664062 151.277344 131.664062 L 156.140625 91.90625 " fill-opacity="1" fill-rule="nonzero"/><path fill="#e2f1fb" d="M 152.339844 109.511719 L 155.394531 91.90625 L 134.292969 93.140625 L 147.199219 112.773438 L 152.339844 109.511719 " fill-opacity="1" fill-rule="nonzero"/><path fill="#251f1b" d="M 121.023438 272.550781 L 120.589844 282.824219 C 120.589844 282.824219 123.96875 283.289062 125.96875 283.050781 C 127.96875 282.816406 127.96875 282.816406 127.96875 282.816406 C 127.96875 282.816406 133.007812 283.507812 138.964844 283.742188 C 144.921875 283.980469 149.953125 283.292969 149.953125 283.292969 L 150.101562 279.835938 C 150.101562 279.835938 135.007812 275.605469 133.246094 274.761719 C 131.488281 273.917969 129.691406 271.597656 129.691406 271.597656 L 121.023438 272.550781 " fill-opacity="1" fill-rule="nonzero"/><path fill="#251f1b" d="M 161.328125 272.550781 L 160.890625 282.824219 C 160.890625 282.824219 164.273438 283.289062 166.273438 283.050781 C 168.269531 282.816406 168.269531 282.816406 168.269531 282.816406 C 168.269531 282.816406 173.308594 283.507812 179.265625 283.742188 C 185.222656 283.980469 190.257812 283.292969 190.257812 283.292969 L 190.402344 279.835938 C 190.402344 279.835938 175.308594 275.605469 173.550781 274.761719 C 171.789062 273.917969 169.996094 271.597656 169.996094 271.597656 L 161.328125 272.550781 " fill-opacity="1" fill-rule="nonzero"/><path fill="#39302a" d="M 118.714844 165.800781 C 118.714844 165.800781 119.597656 176.652344 126.648438 187.761719 C 133.695312 198.871094 140.414062 215.144531 138.867188 225.222656 C 137.316406 235.296875 120.265625 274.179688 120.265625 274.179688 L 133.632812 274.179688 C 133.632812 274.179688 151.523438 241.238281 153.332031 219.796875 C 155.140625 198.351562 142.894531 175.878906 142.894531 175.878906 L 144.78125 175.089844 C 144.78125 175.089844 174.128906 204.683594 172.0625 224.835938 C 169.996094 244.984375 160.566406 274.179688 160.566406 274.179688 L 172.660156 274.179688 C 172.660156 274.179688 187.433594 242.273438 185.367188 216.953125 C 183.300781 191.636719 156.300781 161.992188 156.300781 161.992188 L 140.246094 144.617188 L 118.714844 165.800781 " fill-opacity="1" fill-rule="nonzero"/><path fill="#5c4e3f" d="M 138.996094 85.050781 C 138.996094 85.050781 120.265625 82.871094 114.191406 110.515625 C 110.410156 127.742188 113.871094 154.433594 115.03125 160.441406 C 116.195312 166.449219 117.164062 170.324219 117.164062 170.324219 L 143.515625 165.671875 L 143.515625 150.558594 L 149.714844 163.347656 L 156.300781 161.992188 C 156.300781 161.992188 149.910156 147.265625 151.070312 133.703125 C 152.234375 120.140625 158.371094 99.210938 158.371094 99.210938 L 154.875 99.210938 L 147.199219 116.199219 L 140.246094 98.242188 L 138.996094 85.050781 " fill-opacity="1" fill-rule="nonzero"/><path fill="#f2b36d" d="M 153.773438 81.351562 L 152.128906 91.148438 C 152.128906 91.148438 150.105469 93.972656 145 92.429688 C 139.894531 90.886719 138.28125 86.988281 138.28125 86.988281 L 142.699219 74.996094 L 153.773438 81.351562 " fill-opacity="1" fill-rule="nonzero"/><path fill="#e57d52" d="M 139.707031 83.121094 C 139.707031 83.121094 143.0625 85.835938 147.648438 86.261719 C 152.234375 86.691406 153.050781 85.664062 153.050781 85.664062 L 153.257812 85.011719 L 142.257812 76.394531 L 139.707031 83.121094 " fill-opacity="1" fill-rule="nonzero"/><path fill="#f2b36d" d="M 170.496094 66.816406 L 168.394531 73.441406 C 168.394531 73.441406 163.972656 86.820312 157.089844 85.945312 C 150.207031 85.074219 143.671875 79.460938 142.257812 76.394531 C 140.84375 73.328125 141.148438 68.726562 141.148438 68.726562 C 141.148438 68.726562 137.78125 68.660156 137.472656 63.558594 C 137.167969 58.457031 139.53125 58.128906 139.53125 58.128906 C 139.53125 58.128906 141.101562 57.859375 142.449219 58.949219 C 143.796875 60.046875 143.976562 60.617188 143.976562 60.617188 C 143.976562 60.617188 144.257812 50.335938 147.257812 46.054688 C 150.257812 41.769531 161.507812 40.847656 168.578125 48.015625 C 175.648438 55.183594 170.496094 66.816406 170.496094 66.816406 " fill-opacity="1" fill-rule="nonzero"/><path fill="#e57d52" d="M 138.5 62.265625 C 138.5 62.265625 138.761719 60.066406 139.484375 59.808594 C 140.207031 59.550781 142.230469 60.9375 141.96875 63.625 C 141.707031 66.3125 140.742188 66.03125 140.183594 65.777344 C 139.621094 65.523438 139.34375 64.460938 139.933594 63.414062 C 140.519531 62.371094 140.972656 62.640625 140.972656 62.640625 C 140.972656 62.640625 140.785156 60.625 139.867188 60.542969 C 138.945312 60.464844 138.652344 62.355469 138.652344 62.355469 L 138.5 62.265625 " fill-opacity="1" fill-rule="nonzero"/><path fill="#452a1d" d="M 154.472656 64 C 154.757812 63.101562 154.453125 62.207031 153.789062 61.996094 C 153.128906 61.789062 152.363281 62.34375 152.078125 63.238281 C 151.796875 64.136719 152.097656 65.03125 152.761719 65.242188 C 153.421875 65.453125 154.191406 64.894531 154.472656 64 " fill-opacity="1" fill-rule="nonzero"/><path fill="#452a1d" d="M 167.023438 67.976562 C 167.304688 67.082031 167 66.1875 166.339844 65.976562 C 165.675781 65.765625 164.910156 66.324219 164.625 67.21875 C 164.34375 68.113281 164.648438 69.011719 165.308594 69.21875 C 165.972656 69.429688 166.738281 68.875 167.023438 67.976562 " fill-opacity="1" fill-rule="nonzero"/><path fill="#e57d52" d="M 162.40625 72.21875 C 162.667969 71.066406 161.746094 69.753906 161.449219 68.6875 C 161.265625 68.011719 161.117188 67.324219 161.117188 66.621094 C 161.113281 65.789062 161.398438 65.085938 161.59375 64.296875 C 161.609375 64.242188 161.542969 64.1875 161.496094 64.234375 C 160.308594 65.386719 160.371094 67.648438 160.71875 69.132812 C 160.8125 69.523438 160.933594 69.910156 161.066406 70.289062 C 161.25 70.796875 161.796875 71.707031 161.425781 72.230469 C 161.171875 72.582031 160.390625 72.621094 160.011719 72.609375 C 159.464844 72.59375 159.117188 72.359375 158.679688 72.066406 C 158.550781 71.980469 158.402344 72.082031 158.382812 72.21875 C 158.246094 73.210938 159.46875 73.558594 160.226562 73.523438 C 161.160156 73.480469 162.167969 73.246094 162.40625 72.21875 " fill-opacity="1" fill-rule="nonzero"/><path fill="#894e29" d="M 157.515625 58.570312 C 156.324219 57.929688 154.195312 58.222656 152.972656 58.515625 C 151.703125 58.824219 150.589844 59.515625 150.179688 60.570312 C 150.066406 60.613281 149.988281 60.710938 150.019531 60.847656 L 150.0625 61.0625 C 150.082031 61.148438 150.148438 61.214844 150.226562 61.257812 C 150.292969 61.515625 150.589844 61.695312 150.9375 61.597656 C 152.902344 61.050781 154.863281 60.847656 156.902344 60.566406 C 158.148438 60.394531 158.796875 59.261719 157.515625 58.570312 " fill-opacity="1" fill-rule="nonzero"/><path fill="#894e29" d="M 165.253906 62.976562 C 166.359375 64.339844 167.464844 65.597656 168.359375 67.125 C 168.519531 67.394531 168.820312 67.421875 169.027344 67.261719 C 169.101562 67.269531 169.183594 67.253906 169.25 67.199219 L 169.414062 67.0625 C 169.519531 66.972656 169.527344 66.855469 169.484375 66.753906 C 169.894531 65.710938 169.628906 64.550781 169.023438 63.601562 C 168.4375 62.6875 167.28125 61.265625 166.125 61.09375 C 164.882812 60.90625 164.578125 62.148438 165.253906 62.976562 " fill-opacity="1" fill-rule="nonzero"/><path fill="#894e29" d="M 144.359375 53.542969 C 144.445312 57.253906 145.226562 59.714844 143.585938 63.46875 C 143.585938 63.46875 145.707031 63.578125 145.828125 63.359375 C 145.945312 63.140625 146.945312 58.53125 146.484375 56.585938 C 146.023438 54.644531 146.0625 54.117188 146.101562 52.539062 C 146.140625 50.960938 147.199219 49.398438 147.199219 49.398438 C 147.199219 49.398438 144.273438 49.835938 144.359375 53.542969 " fill-opacity="1" fill-rule="nonzero"/><path fill="#894e29" d="M 177.175781 58.207031 C 178.789062 51.996094 177.84375 48.667969 177.058594 48.058594 C 176.277344 47.453125 170.507812 44.441406 165.511719 43.371094 C 160.511719 42.296875 158.992188 42.074219 158.992188 42.074219 L 163.582031 41.835938 C 163.582031 41.835938 158.375 39.003906 151.945312 39.53125 C 149.613281 39.722656 147.855469 40.019531 146.53125 40.34375 C 146.441406 40.378906 142.652344 41.875 144.136719 44.027344 C 145.644531 46.207031 149.851562 47.652344 149.851562 47.652344 C 149.851562 47.652344 147.921875 50.957031 153.003906 54.695312 C 154.714844 55.78125 156.84375 56.84375 159.4375 57.664062 C 168.207031 60.445312 171.566406 57.453125 171.566406 57.453125 C 171.566406 57.453125 170.371094 59.285156 170.394531 61.140625 C 170.425781 62.996094 171.339844 64.160156 171.339844 64.160156 L 170.496094 66.816406 C 170.496094 66.816406 175.566406 64.421875 177.175781 58.207031 " fill-opacity="1" fill-rule="nonzero"/><path fill="#662f1b" d="M 149.851562 47.652344 C 149.851562 47.652344 145.640625 46.207031 144.136719 44.027344 C 142.652344 41.871094 146.441406 40.378906 146.53125 40.34375 C 144.207031 40.914062 143.25 41.566406 142.988281 41.875 C 142.578125 42.359375 141.222656 44.855469 140.285156 49.4375 C 139.34375 54.015625 139.53125 58.128906 139.53125 58.128906 C 139.53125 58.128906 142.082031 59.144531 143.015625 60.410156 C 143.945312 61.683594 143.585938 63.46875 143.585938 63.46875 C 145.226562 59.714844 144.445312 57.25 144.359375 53.542969 C 144.273438 49.835938 147.199219 49.394531 147.199219 49.394531 C 147.199219 49.394531 148.921875 52.117188 153.003906 54.699219 C 147.921875 50.957031 149.851562 47.652344 149.851562 47.652344 " fill-opacity="1" fill-rule="nonzero"/><path fill="#a5724c" d="M 168.910156 54.832031 C 168.105469 54.832031 167.226562 54.796875 166.269531 54.722656 C 153.089844 53.730469 149.949219 48.558594 149.949219 48.558594 L 150.1875 47.8125 C 150.1875 47.8125 158.617188 50.628906 164.453125 50.628906 C 165.8125 50.628906 167.03125 50.476562 167.96875 50.097656 C 172.941406 48.105469 169.933594 45.121094 169.933594 45.121094 C 169.933594 45.121094 176.101562 47.671875 176.925781 48.535156 C 177.6875 49.332031 179.210938 54.832031 168.910156 54.832031 " fill-opacity="1" fill-rule="nonzero"/><path fill="#39302a" d="M 147.199219 116.199219 C 147.199219 116.199219 144.386719 123.238281 143.324219 133.410156 C 142.257812 143.582031 143.515625 150.558594 143.515625 150.558594 L 144.175781 151.917969 C 144.175781 151.917969 143.324219 142.292969 144.613281 132.34375 C 145.90625 122.398438 148.246094 116.199219 148.246094 116.199219 L 147.199219 116.199219 " fill-opacity="1" fill-rule="nonzero"/><path fill="#28221e" d="M 142.894531 175.875 L 142.160156 173.617188 L 156.011719 167.320312 L 148.246094 175.359375 L 157.222656 189.710938 L 144.78125 175.089844 L 142.894531 175.875 " fill-opacity="1" fill-rule="nonzero"/><path fill="#39302a" d="M 139.238281 84.390625 C 139.238281 84.390625 141.105469 92.023438 143.488281 100.804688 C 145.871094 109.585938 147.4375 115.390625 147.4375 115.390625 C 147.4375 115.390625 152.609375 105.582031 153.257812 99.695312 C 153.90625 93.808594 152.402344 89.539062 152.402344 89.539062 L 152.808594 87.101562 C 152.808594 87.101562 156.0625 88.398438 156.882812 92.890625 C 157.703125 97.378906 156.882812 103.109375 156.882812 103.109375 C 156.882812 103.109375 153.566406 104.523438 153.773438 104.898438 C 153.980469 105.269531 155.394531 106.535156 155.394531 106.535156 L 148.246094 116.199219 L 146.792969 117.3125 C 146.792969 117.3125 139.234375 107.648438 139.238281 107.425781 C 139.246094 107.203125 141.402344 104.601562 141.402344 104.601562 L 137.449219 103.855469 C 137.449219 103.855469 135.023438 95.992188 134.78125 90.683594 C 134.695312 88.800781 134.816406 87.402344 135.015625 86.390625 C 135.289062 84.980469 136.296875 83.828125 137.652344 83.355469 L 139.917969 82.570312 L 139.238281 84.390625 " fill-opacity="1" fill-rule="nonzero"/><path fill="#ffffff" d="M 139.238281 84.390625 C 139.238281 84.390625 142.558594 92.320312 147.171875 92.46875 C 151.785156 92.617188 152.496094 88.96875 152.496094 88.96875 C 152.496094 88.96875 153.335938 93.179688 153.375 95.1875 C 153.414062 97.195312 153.414062 97.195312 153.414062 97.195312 L 149.960938 99.425781 L 148.25 94.140625 L 146.027344 99.425781 L 142.78125 98.171875 L 139.238281 84.390625 " fill-opacity="1" fill-rule="nonzero"/><path fill="#f03f2b" d="M 148.25 94.144531 L 149.960938 99.425781 L 148.796875 99.941406 C 148.796875 99.941406 149.738281 103.855469 149.960938 105.902344 C 150.183594 107.949219 150.183594 109.734375 150.183594 109.734375 L 147.4375 115.390625 L 145.101562 106.753906 L 147.640625 99.800781 L 146.257812 98.878906 L 148.25 94.144531 " fill-opacity="1" fill-rule="nonzero"/><path fill="#8f1c21" d="M 155.277344 77.757812 C 155.277344 77.757812 154.757812 75.527344 157.78125 75.824219 C 160.808594 76.121094 161.355469 78.402344 159.867188 79.097656 C 158.378906 79.792969 155.792969 79.695312 155.277344 77.757812 " fill-opacity="1" fill-rule="nonzero"/><path fill="#df2226" d="M 155.65625 78.292969 C 155.710938 78.273438 156.007812 77.164062 157.953125 77.644531 C 159.898438 78.125 160.027344 78.847656 160.027344 78.847656 C 160.027344 78.847656 158.746094 79.582031 157.382812 79.238281 C 156.023438 78.898438 155.65625 78.292969 155.65625 78.292969 " fill-opacity="1" fill-rule="nonzero"/><path fill="#5c4e3f" d="M 126.824219 88.664062 C 126.824219 88.664062 104.535156 97.265625 90.246094 123.460938 C 75.957031 149.660156 80.421875 167.320312 80.421875 167.320312 L 92.925781 167.320312 C 92.925781 167.320312 93.617188 144.625 102.253906 131.660156 C 110.886719 118.699219 122.992188 112.773438 122.992188 112.773438 L 126.824219 88.664062 " fill-opacity="1" fill-rule="nonzero"/><path fill="#4a3d34" d="M 112.863281 119.769531 L 122.046875 113.277344 L 115.550781 122.421875 L 112.472656 135.367188 C 112.472656 135.367188 112.109375 122.480469 112.863281 119.769531 " fill-opacity="1" fill-rule="nonzero"/><path fill="#4a3d34" d="M 156.628906 111.605469 C 156.09375 111.085938 159.855469 100.839844 159.855469 100.839844 C 159.855469 100.839844 160.796875 111.421875 160.996094 111.785156 C 161.195312 112.152344 171.582031 118.214844 171.582031 118.214844 C 171.582031 118.214844 161.195312 116.019531 156.628906 111.605469 " fill-opacity="1" fill-rule="nonzero"/><path fill="#f2b36d" d="M 174.402344 69.867188 C 174.402344 69.867188 173.300781 69.109375 173.796875 67.359375 C 174.292969 65.613281 176.300781 62.039062 175.941406 57.375 C 175.582031 52.710938 172.542969 48.859375 171.582031 49.394531 C 170.621094 49.933594 171.261719 57.554688 171.117188 60.550781 C 170.972656 63.546875 167.84375 69.382812 167.941406 71.066406 C 168.039062 72.757812 169.15625 73.949219 169.15625 73.949219 L 174.402344 69.867188 " fill-opacity="1" fill-rule="nonzero"/><path fill="#ffffff" d="M 167.8125 74.992188 L 175.683594 68.871094 L 178.058594 71.769531 L 169.683594 77.640625 L 167.8125 74.992188 " fill-opacity="1" fill-rule="nonzero"/><path fill="#ffffff" d="M 80.421875 167.320312 L 92.925781 167.320312 L 93.179688 163.421875 L 79.886719 163.421875 L 80.421875 167.320312 " fill-opacity="1" fill-rule="nonzero"/></svg>