<svg xmlns="http://www.w3.org/2000/svg" xmlns:xlink="http://www.w3.org/1999/xlink" width="990" zoomAndPan="magnify" viewBox="0 0 742.5 767.999994" height="1024" preserveAspectRatio="xMidYMid meet" version="1.0"><defs><clipPath id="b8633ab7d9"><path d="M 0 0.257812 L 742 0.257812 L 742 742.757812 L 0 742.757812 Z M 0 0.257812 " clip-rule="nonzero"/></clipPath></defs><g clip-path="url(#b8633ab7d9)"><path fill="#ffd000" d="M 742.5 371.507812 C 742.5 377.585938 742.351562 383.65625 742.054688 389.726562 C 741.753906 395.792969 741.308594 401.851562 740.710938 407.898438 C 740.117188 413.945312 739.375 419.972656 738.480469 425.980469 C 737.589844 431.992188 736.550781 437.976562 735.367188 443.9375 C 734.179688 449.894531 732.851562 455.820312 731.375 461.714844 C 729.898438 467.609375 728.277344 473.460938 726.515625 479.277344 C 724.75 485.089844 722.84375 490.859375 720.796875 496.578125 C 718.75 502.300781 716.566406 507.964844 714.238281 513.578125 C 711.914062 519.191406 709.453125 524.746094 706.855469 530.238281 C 704.257812 535.730469 701.527344 541.15625 698.664062 546.515625 C 695.800781 551.871094 692.804688 557.15625 689.679688 562.367188 C 686.558594 567.582031 683.308594 572.710938 679.933594 577.765625 C 676.558594 582.816406 673.058594 587.78125 669.441406 592.660156 C 665.820312 597.542969 662.085938 602.332031 658.230469 607.027344 C 654.375 611.722656 650.410156 616.324219 646.328125 620.824219 C 642.246094 625.328125 638.058594 629.726562 633.761719 634.023438 C 629.46875 638.316406 625.066406 642.507812 620.566406 646.585938 C 616.0625 650.667969 611.464844 654.632812 606.769531 658.488281 C 602.070312 662.34375 597.285156 666.078125 592.402344 669.699219 C 587.523438 673.320312 582.558594 676.816406 577.503906 680.191406 C 572.453125 683.566406 567.320312 686.816406 562.109375 689.941406 C 556.898438 693.0625 551.613281 696.058594 546.257812 698.921875 C 540.898438 701.785156 535.472656 704.515625 529.980469 707.113281 C 524.488281 709.710938 518.933594 712.171875 513.320312 714.5 C 507.707031 716.824219 502.039062 719.007812 496.320312 721.054688 C 490.597656 723.101562 484.832031 725.007812 479.019531 726.773438 C 473.203125 728.535156 467.351562 730.15625 461.457031 731.632812 C 455.5625 733.109375 449.636719 734.441406 443.675781 735.625 C 437.71875 736.808594 431.734375 737.847656 425.722656 738.738281 C 419.714844 739.632812 413.683594 740.375 407.640625 740.972656 C 401.59375 741.566406 395.535156 742.011719 389.464844 742.3125 C 383.398438 742.609375 377.324219 742.757812 371.25 742.757812 C 365.175781 742.757812 359.101562 742.609375 353.035156 742.3125 C 346.964844 742.011719 340.90625 741.566406 334.859375 740.972656 C 328.816406 740.375 322.785156 739.632812 316.777344 738.738281 C 310.765625 737.847656 304.78125 736.808594 298.824219 735.625 C 292.863281 734.441406 286.9375 733.109375 281.042969 731.632812 C 275.148438 730.15625 269.296875 728.535156 263.480469 726.773438 C 257.667969 725.007812 251.898438 723.101562 246.179688 721.054688 C 240.457031 719.007812 234.792969 716.824219 229.179688 714.5 C 223.566406 712.171875 218.011719 709.710938 212.519531 707.113281 C 207.027344 704.515625 201.601562 701.785156 196.242188 698.921875 C 190.886719 696.058594 185.601562 693.0625 180.390625 689.941406 C 175.179688 686.816406 170.046875 683.566406 164.996094 680.191406 C 159.941406 676.816406 154.976562 673.320312 150.097656 669.699219 C 145.214844 666.078125 140.429688 662.34375 135.730469 658.488281 C 131.035156 654.632812 126.4375 650.667969 121.933594 646.585938 C 117.433594 642.507812 113.03125 638.316406 108.738281 634.023438 C 104.441406 629.726562 100.253906 625.328125 96.171875 620.824219 C 92.089844 616.324219 88.125 611.722656 84.269531 607.027344 C 80.414062 602.332031 76.679688 597.542969 73.058594 592.660156 C 69.441406 587.78125 65.941406 582.816406 62.566406 577.765625 C 59.191406 572.710938 55.941406 567.582031 52.816406 562.367188 C 49.695312 557.15625 46.699219 551.871094 43.835938 546.515625 C 40.972656 541.15625 38.242188 535.730469 35.644531 530.238281 C 33.046875 524.746094 30.585938 519.191406 28.257812 513.578125 C 25.933594 507.964844 23.75 502.300781 21.703125 496.578125 C 19.65625 490.859375 17.75 485.089844 15.984375 479.277344 C 14.222656 473.460938 12.601562 467.609375 11.125 461.714844 C 9.648438 455.820312 8.320312 449.894531 7.132812 443.9375 C 5.949219 437.976562 4.910156 431.992188 4.019531 425.980469 C 3.125 419.972656 2.382812 413.945312 1.789062 407.898438 C 1.191406 401.851562 0.746094 395.792969 0.445312 389.726562 C 0.148438 383.65625 0 377.585938 0 371.507812 C 0 365.433594 0.148438 359.359375 0.445312 353.292969 C 0.746094 347.222656 1.191406 341.167969 1.789062 335.121094 C 2.382812 329.074219 3.125 323.042969 4.019531 317.035156 C 4.910156 311.023438 5.949219 305.039062 7.132812 299.082031 C 8.320312 293.121094 9.648438 287.195312 11.125 281.300781 C 12.601562 275.410156 14.222656 269.554688 15.984375 263.738281 C 17.75 257.925781 19.65625 252.160156 21.703125 246.4375 C 23.75 240.71875 25.933594 235.050781 28.257812 229.4375 C 30.585938 223.824219 33.046875 218.269531 35.644531 212.777344 C 38.242188 207.285156 40.972656 201.859375 43.835938 196.503906 C 46.699219 191.144531 49.695312 185.859375 52.816406 180.648438 C 55.941406 175.4375 59.191406 170.304688 62.566406 165.253906 C 65.941406 160.199219 69.441406 155.234375 73.058594 150.355469 C 76.679688 145.476562 80.414062 140.6875 84.269531 135.988281 C 88.125 131.292969 92.089844 126.695312 96.171875 122.191406 C 100.253906 117.691406 104.441406 113.292969 108.738281 108.996094 C 113.03125 104.699219 117.433594 100.511719 121.933594 96.429688 C 126.4375 92.351562 131.035156 88.382812 135.730469 84.527344 C 140.429688 80.675781 145.214844 76.9375 150.097656 73.316406 C 154.976562 69.699219 159.941406 66.199219 164.996094 62.824219 C 170.046875 59.449219 175.179688 56.199219 180.390625 53.078125 C 185.601562 49.953125 190.886719 46.960938 196.242188 44.09375 C 201.601562 41.230469 207.027344 38.5 212.519531 35.902344 C 218.011719 33.304688 223.566406 30.84375 229.179688 28.519531 C 234.792969 26.191406 240.457031 24.007812 246.179688 21.960938 C 251.898438 19.914062 257.667969 18.007812 263.480469 16.246094 C 269.296875 14.480469 275.148438 12.859375 281.042969 11.382812 C 286.9375 9.90625 292.863281 8.578125 298.824219 7.390625 C 304.78125 6.207031 310.765625 5.167969 316.777344 4.277344 C 322.785156 3.386719 328.816406 2.640625 334.859375 2.046875 C 340.90625 1.449219 346.964844 1.003906 353.035156 0.707031 C 359.101562 0.40625 365.175781 0.257812 371.25 0.257812 C 377.324219 0.257812 383.398438 0.40625 389.464844 0.707031 C 395.535156 1.003906 401.59375 1.449219 407.640625 2.046875 C 413.683594 2.640625 419.714844 3.386719 425.722656 4.277344 C 431.734375 5.167969 437.71875 6.207031 443.675781 7.390625 C 449.636719 8.578125 455.5625 9.90625 461.457031 11.382812 C 467.351562 12.859375 473.203125 14.480469 479.019531 16.246094 C 484.832031 18.007812 490.597656 19.914062 496.320312 21.960938 C 502.039062 24.007812 507.707031 26.191406 513.320312 28.519531 C 518.933594 30.84375 524.488281 33.304688 529.980469 35.902344 C 535.472656 38.5 540.898438 41.230469 546.257812 44.09375 C 551.613281 46.960938 556.898438 49.953125 562.109375 53.078125 C 567.320312 56.199219 572.453125 59.449219 577.503906 62.824219 C 582.558594 66.199219 587.523438 69.699219 592.402344 73.316406 C 597.285156 76.9375 602.070312 80.675781 606.769531 84.527344 C 611.464844 88.382812 616.0625 92.351562 620.566406 96.429688 C 625.066406 100.511719 629.46875 104.699219 633.761719 108.996094 C 638.058594 113.292969 642.246094 117.691406 646.328125 122.191406 C 650.410156 126.695312 654.375 131.292969 658.230469 135.988281 C 662.085938 140.6875 665.820312 145.476562 669.441406 150.355469 C 673.058594 155.234375 676.558594 160.199219 679.933594 165.253906 C 683.308594 170.304688 686.558594 175.4375 689.679688 180.648438 C 692.804688 185.859375 695.800781 191.144531 698.664062 196.503906 C 701.527344 201.859375 704.257812 207.285156 706.855469 212.777344 C 709.453125 218.269531 711.914062 223.824219 714.238281 229.4375 C 716.566406 235.050781 718.75 240.71875 720.796875 246.4375 C 722.84375 252.160156 724.75 257.925781 726.515625 263.738281 C 728.277344 269.554688 729.898438 275.410156 731.375 281.300781 C 732.851562 287.195312 734.179688 293.121094 735.367188 299.082031 C 736.550781 305.039062 737.589844 311.023438 738.480469 317.035156 C 739.375 323.042969 740.117188 329.074219 740.710938 335.121094 C 741.308594 341.167969 741.753906 347.222656 742.054688 353.292969 C 742.351562 359.359375 742.5 365.433594 742.5 371.507812 Z M 742.5 371.507812 " fill-opacity="1" fill-rule="nonzero"/></g><path fill="#ffffff" d="M 554.28125 467.40625 C 494.34375 416.417969 476.632812 440.75 449.972656 469.554688 C 429.933594 489.59375 381.089844 447.367188 338.867188 405.144531 C 296.820312 360.773438 254.597656 311.929688 274.457031 291.890625 C 303.441406 263.085938 327.773438 245.195312 276.78125 183.109375 C 227.9375 121.027344 196.808594 169.871094 168 196.527344 C 139.195312 227.660156 168 345.207031 281.253906 462.933594 C 396.65625 580.660156 512.054688 609.464844 543.1875 578.335938 C 569.847656 551.855469 616.363281 518.578125 554.28125 467.40625 Z M 554.28125 467.40625 " fill-opacity="1" fill-rule="evenodd"/></svg>