<svg xmlns="http://www.w3.org/2000/svg" xmlns:xlink="http://www.w3.org/1999/xlink" width="990" zoomAndPan="magnify" viewBox="0 0 742.5 767.999994" height="1024" preserveAspectRatio="xMidYMid meet" version="1.0"><defs><clipPath id="032d286b0f"><path d="M 0 13.007812 L 742 13.007812 L 742 755.507812 L 0 755.507812 Z M 0 13.007812 " clip-rule="nonzero"/></clipPath></defs><g clip-path="url(#032d286b0f)"><path fill="#39b54a" d="M 742.5 384.257812 C 742.5 390.335938 742.351562 396.40625 742.054688 402.476562 C 741.753906 408.542969 741.308594 414.601562 740.710938 420.648438 C 740.117188 426.695312 739.375 432.722656 738.480469 438.730469 C 737.589844 444.742188 736.550781 450.726562 735.367188 456.6875 C 734.179688 462.644531 732.851562 468.570312 731.375 474.464844 C 729.898438 480.359375 728.277344 486.210938 726.515625 492.027344 C 724.75 497.839844 722.84375 503.609375 720.796875 509.328125 C 718.75 515.050781 716.566406 520.714844 714.238281 526.328125 C 711.914062 531.941406 709.453125 537.496094 706.855469 542.988281 C 704.257812 548.480469 701.527344 553.90625 698.664062 559.265625 C 695.800781 564.621094 692.804688 569.90625 689.679688 575.117188 C 686.558594 580.332031 683.308594 585.460938 679.933594 590.515625 C 676.558594 595.566406 673.058594 600.53125 669.441406 605.410156 C 665.820312 610.292969 662.085938 615.082031 658.230469 619.777344 C 654.375 624.472656 650.410156 629.074219 646.328125 633.574219 C 642.246094 638.078125 638.058594 642.476562 633.761719 646.773438 C 629.46875 651.066406 625.066406 655.257812 620.566406 659.335938 C 616.0625 663.417969 611.464844 667.382812 606.769531 671.238281 C 602.070312 675.09375 597.285156 678.828125 592.402344 682.449219 C 587.523438 686.070312 582.558594 689.566406 577.503906 692.941406 C 572.453125 696.316406 567.320312 699.566406 562.109375 702.691406 C 556.898438 705.8125 551.613281 708.808594 546.257812 711.671875 C 540.898438 714.535156 535.472656 717.265625 529.980469 719.863281 C 524.488281 722.460938 518.933594 724.921875 513.320312 727.25 C 507.707031 729.574219 502.039062 731.757812 496.320312 733.804688 C 490.597656 735.851562 484.832031 737.757812 479.019531 739.523438 C 473.203125 741.285156 467.351562 742.90625 461.457031 744.382812 C 455.5625 745.859375 449.636719 747.191406 443.675781 748.375 C 437.71875 749.558594 431.734375 750.597656 425.722656 751.488281 C 419.714844 752.382812 413.683594 753.125 407.640625 753.722656 C 401.59375 754.316406 395.535156 754.761719 389.464844 755.0625 C 383.398438 755.359375 377.324219 755.507812 371.25 755.507812 C 365.175781 755.507812 359.101562 755.359375 353.035156 755.0625 C 346.964844 754.761719 340.90625 754.316406 334.859375 753.722656 C 328.816406 753.125 322.785156 752.382812 316.777344 751.488281 C 310.765625 750.597656 304.78125 749.558594 298.824219 748.375 C 292.863281 747.191406 286.9375 745.859375 281.042969 744.382812 C 275.148438 742.90625 269.296875 741.285156 263.480469 739.523438 C 257.667969 737.757812 251.898438 735.851562 246.179688 733.804688 C 240.457031 731.757812 234.792969 729.574219 229.179688 727.25 C 223.566406 724.921875 218.011719 722.460938 212.519531 719.863281 C 207.027344 717.265625 201.601562 714.535156 196.242188 711.671875 C 190.886719 708.808594 185.601562 705.8125 180.390625 702.691406 C 175.179688 699.566406 170.046875 696.316406 164.996094 692.941406 C 159.941406 689.566406 154.976562 686.070312 150.097656 682.449219 C 145.214844 678.828125 140.429688 675.09375 135.730469 671.238281 C 131.035156 667.382812 126.4375 663.417969 121.933594 659.335938 C 117.433594 655.257812 113.03125 651.066406 108.738281 646.773438 C 104.441406 642.476562 100.253906 638.078125 96.171875 633.574219 C 92.089844 629.074219 88.125 624.472656 84.269531 619.777344 C 80.414062 615.082031 76.679688 610.292969 73.058594 605.410156 C 69.441406 600.53125 65.941406 595.566406 62.566406 590.515625 C 59.191406 585.460938 55.941406 580.332031 52.816406 575.117188 C 49.695312 569.90625 46.699219 564.621094 43.835938 559.265625 C 40.972656 553.90625 38.242188 548.480469 35.644531 542.988281 C 33.046875 537.496094 30.585938 531.941406 28.257812 526.328125 C 25.933594 520.714844 23.75 515.050781 21.703125 509.328125 C 19.65625 503.609375 17.75 497.839844 15.984375 492.027344 C 14.222656 486.210938 12.601562 480.359375 11.125 474.464844 C 9.648438 468.570312 8.320312 462.644531 7.132812 456.6875 C 5.949219 450.726562 4.910156 444.742188 4.019531 438.730469 C 3.125 432.722656 2.382812 426.695312 1.789062 420.648438 C 1.191406 414.601562 0.746094 408.542969 0.445312 402.476562 C 0.148438 396.40625 0 390.335938 0 384.257812 C 0 378.183594 0.148438 372.109375 0.445312 366.042969 C 0.746094 359.972656 1.191406 353.917969 1.789062 347.871094 C 2.382812 341.824219 3.125 335.792969 4.019531 329.785156 C 4.910156 323.773438 5.949219 317.789062 7.132812 311.832031 C 8.320312 305.871094 9.648438 299.945312 11.125 294.050781 C 12.601562 288.160156 14.222656 282.304688 15.984375 276.488281 C 17.75 270.675781 19.65625 264.910156 21.703125 259.1875 C 23.75 253.46875 25.933594 247.800781 28.257812 242.1875 C 30.585938 236.574219 33.046875 231.019531 35.644531 225.527344 C 38.242188 220.035156 40.972656 214.609375 43.835938 209.253906 C 46.699219 203.894531 49.695312 198.609375 52.816406 193.398438 C 55.941406 188.1875 59.191406 183.054688 62.566406 178.003906 C 65.941406 172.949219 69.441406 167.984375 73.058594 163.105469 C 76.679688 158.226562 80.414062 153.4375 84.269531 148.738281 C 88.125 144.042969 92.089844 139.445312 96.171875 134.941406 C 100.253906 130.441406 104.441406 126.042969 108.738281 121.746094 C 113.03125 117.449219 117.433594 113.261719 121.933594 109.179688 C 126.4375 105.101562 131.035156 101.132812 135.730469 97.277344 C 140.429688 93.425781 145.214844 89.6875 150.097656 86.066406 C 154.976562 82.449219 159.941406 78.949219 164.996094 75.574219 C 170.046875 72.199219 175.179688 68.949219 180.390625 65.828125 C 185.601562 62.703125 190.886719 59.710938 196.242188 56.84375 C 201.601562 53.980469 207.027344 51.25 212.519531 48.652344 C 218.011719 46.054688 223.566406 43.59375 229.179688 41.269531 C 234.792969 38.941406 240.457031 36.757812 246.179688 34.710938 C 251.898438 32.664062 257.667969 30.757812 263.480469 28.996094 C 269.296875 27.230469 275.148438 25.609375 281.042969 24.132812 C 286.9375 22.65625 292.863281 21.328125 298.824219 20.140625 C 304.78125 18.957031 310.765625 17.917969 316.777344 17.027344 C 322.785156 16.136719 328.816406 15.390625 334.859375 14.796875 C 340.90625 14.199219 346.964844 13.753906 353.035156 13.457031 C 359.101562 13.15625 365.175781 13.007812 371.25 13.007812 C 377.324219 13.007812 383.398438 13.15625 389.464844 13.457031 C 395.535156 13.753906 401.59375 14.199219 407.640625 14.796875 C 413.683594 15.390625 419.714844 16.136719 425.722656 17.027344 C 431.734375 17.917969 437.71875 18.957031 443.675781 20.140625 C 449.636719 21.328125 455.5625 22.65625 461.457031 24.132812 C 467.351562 25.609375 473.203125 27.230469 479.019531 28.996094 C 484.832031 30.757812 490.597656 32.664062 496.320312 34.710938 C 502.039062 36.757812 507.707031 38.941406 513.320312 41.269531 C 518.933594 43.59375 524.488281 46.054688 529.980469 48.652344 C 535.472656 51.25 540.898438 53.980469 546.257812 56.84375 C 551.613281 59.710938 556.898438 62.703125 562.109375 65.828125 C 567.320312 68.949219 572.453125 72.199219 577.503906 75.574219 C 582.558594 78.949219 587.523438 82.449219 592.402344 86.066406 C 597.285156 89.6875 602.070312 93.425781 606.769531 97.277344 C 611.464844 101.132812 616.0625 105.101562 620.566406 109.179688 C 625.066406 113.261719 629.46875 117.449219 633.761719 121.746094 C 638.058594 126.042969 642.246094 130.441406 646.328125 134.941406 C 650.410156 139.445312 654.375 144.042969 658.230469 148.738281 C 662.085938 153.4375 665.820312 158.226562 669.441406 163.105469 C 673.058594 167.984375 676.558594 172.949219 679.933594 178.003906 C 683.308594 183.054688 686.558594 188.1875 689.679688 193.398438 C 692.804688 198.609375 695.800781 203.894531 698.664062 209.253906 C 701.527344 214.609375 704.257812 220.035156 706.855469 225.527344 C 709.453125 231.019531 711.914062 236.574219 714.238281 242.1875 C 716.566406 247.800781 718.75 253.46875 720.796875 259.1875 C 722.84375 264.910156 724.75 270.675781 726.515625 276.488281 C 728.277344 282.304688 729.898438 288.160156 731.375 294.050781 C 732.851562 299.945312 734.179688 305.871094 735.367188 311.832031 C 736.550781 317.789062 737.589844 323.773438 738.480469 329.785156 C 739.375 335.792969 740.117188 341.824219 740.710938 347.871094 C 741.308594 353.917969 741.753906 359.972656 742.054688 366.042969 C 742.351562 372.109375 742.5 378.183594 742.5 384.257812 Z M 742.5 384.257812 " fill-opacity="1" fill-rule="nonzero"/></g><path fill="#ffffff" d="M 554.28125 480.15625 C 494.34375 429.167969 476.632812 453.5 449.972656 482.304688 C 429.933594 502.34375 381.089844 460.117188 338.867188 417.894531 C 296.820312 373.523438 254.597656 324.679688 274.457031 304.640625 C 303.441406 275.835938 327.773438 257.945312 276.78125 195.859375 C 227.9375 133.777344 196.808594 182.621094 168 209.277344 C 139.195312 240.410156 168 357.957031 281.253906 475.683594 C 396.65625 593.410156 512.054688 622.214844 543.1875 591.085938 C 569.847656 564.605469 616.363281 531.328125 554.28125 480.15625 Z M 554.28125 480.15625 " fill-opacity="1" fill-rule="evenodd"/></svg>