<svg xmlns="http://www.w3.org/2000/svg" xmlns:xlink="http://www.w3.org/1999/xlink" width="500" zoomAndPan="magnify" viewBox="0 0 375 374.999991" height="500" preserveAspectRatio="xMidYMid meet" version="1.0"><defs><clipPath id="93c28adbe3"><path d="M 173 0 L 374.890625 0 L 374.890625 191.527344 L 173 191.527344 Z M 173 0 " clip-rule="nonzero"/></clipPath><clipPath id="fa36926ad2"><path d="M 0.109375 1.398438 L 368.804688 1.398438 L 368.804688 349.464844 L 0.109375 349.464844 Z M 0.109375 1.398438 " clip-rule="nonzero"/></clipPath></defs><path fill="#ffffff" d="M 195.546875 165.976562 C 195.265625 167.933594 195.265625 169.613281 195.40625 170.800781 C 195.617188 173.105469 195.753906 174.996094 197.15625 176.253906 C 197.992188 177.023438 198.972656 177.300781 199.601562 177.371094 L 199.601562 179.816406 C 199.464844 182.402344 200.933594 184.5 202.613281 184.992188 C 204.78125 185.550781 207.929688 183.453125 208.207031 179.816406 C 207.929688 178.699219 207.648438 177.230469 207.578125 175.554688 C 207.507812 173.457031 207.859375 171.640625 208.207031 170.382812 C 209.398438 169.890625 209.886719 168.703125 209.539062 167.933594 C 209.257812 167.234375 208.347656 167.027344 208.207031 167.027344 C 207.300781 166.746094 205.96875 166.257812 204.570312 165.207031 C 203.519531 164.371094 202.75 163.53125 202.332031 162.832031 C 201.980469 163.390625 201.003906 164.648438 199.253906 165.417969 C 197.644531 166.1875 196.175781 166.117188 195.546875 165.976562 Z M 94.382812 186.878906 L 78.082031 277.117188 C 79.832031 277.609375 82.140625 278.097656 84.796875 278.308594 C 87.734375 278.515625 90.183594 278.238281 92.074219 277.886719 C 94.871094 266.773438 97.601562 255.171875 100.117188 243.007812 C 102.917969 229.375 105.296875 216.234375 107.253906 203.652344 C 108.445312 227.980469 109.5625 252.234375 110.753906 276.558594 C 112.433594 276.980469 114.390625 277.257812 116.558594 277.46875 C 119.847656 277.679688 122.785156 277.398438 125.023438 277.046875 C 125.65625 264.535156 125.933594 251.464844 125.933594 237.835938 C 125.863281 219.519531 125.164062 202.117188 123.976562 185.757812 C 119.429688 186.457031 114.25 187.015625 108.585938 187.226562 C 103.40625 187.367188 98.648438 187.226562 94.382812 186.878906 Z M 116.488281 127.042969 C 115.648438 128.089844 115.511719 129.140625 115.441406 129.628906 C 114.601562 129.28125 113.621094 129.699219 113.269531 130.609375 C 112.921875 131.445312 113.339844 132.425781 114.25 132.773438 C 114.320312 133.472656 114.390625 135.152344 113.203125 136.410156 C 112.292969 137.386719 111.101562 137.667969 109.421875 137.949219 C 107.816406 138.226562 106.414062 138.15625 105.574219 138.085938 L 105.574219 142.140625 C 106.414062 142.5625 108.023438 143.121094 110.125 143.121094 C 112.082031 143.121094 113.621094 142.5625 114.53125 142.140625 L 114.53125 138.925781 C 116.488281 139.136719 117.46875 138.578125 117.890625 138.226562 C 119.289062 137.039062 119.148438 134.871094 118.9375 130.816406 C 118.796875 128.652344 118.589844 126.902344 118.378906 125.714844 C 117.820312 125.785156 117.121094 126.203125 116.488281 127.042969 Z M 221.222656 192.121094 L 212.824219 193.796875 L 175.535156 202.464844 L 171.617188 207.988281 L 172.320312 211.550781 L 225.839844 211.902344 L 226.746094 206.867188 Z M 210.167969 218.191406 L 190.929688 219.382812 C 178.964844 218.054688 175.886719 222.316406 174.277344 224.132812 C 172.667969 225.953125 171.6875 232.800781 171.6875 232.800781 L 172.109375 255.660156 L 171.617188 276.628906 L 183.933594 277.1875 L 185.75 233.429688 L 189.808594 234.480469 L 191.136719 277.1875 L 203.589844 277.1875 L 203.589844 234.480469 L 211.148438 233.988281 L 218.28125 228.609375 L 220.871094 220.011719 Z M 142.726562 211.972656 L 142.726562 281.523438 L 145.105469 281.523438 L 145.105469 216.234375 L 239.902344 216.234375 L 239.902344 281.523438 L 264.175781 281.523438 L 264.175781 211.972656 Z M 202.402344 143.398438 L 136.148438 143.398438 L 136.148438 97.265625 L 202.402344 97.265625 Z M 136.636719 155.980469 C 135.378906 155.980469 134.328125 157.03125 134.328125 158.289062 L 134.328125 173.175781 C 134.328125 174.433594 135.378906 175.484375 136.636719 175.484375 L 178.964844 175.484375 C 179.175781 175.484375 179.316406 175.554688 179.453125 175.695312 L 182.953125 180.097656 L 182.8125 176.113281 C 182.8125 175.972656 182.882812 175.761719 182.953125 175.695312 C 183.09375 175.554688 183.230469 175.484375 183.371094 175.484375 C 184.632812 175.484375 185.679688 174.433594 185.679688 173.175781 L 185.679688 158.289062 C 185.679688 157.03125 184.632812 155.980469 183.371094 155.980469 L 136.636719 155.980469 " fill-opacity="1" fill-rule="nonzero"/><path fill="#0f0e0c" d="M 136.429688 142.769531 L 201.492188 142.769531 L 201.492188 97.824219 L 136.429688 97.824219 Z M 202.121094 144.027344 L 135.867188 144.027344 C 135.519531 144.027344 135.238281 143.75 135.238281 143.398438 L 135.238281 97.265625 C 135.238281 96.917969 135.519531 96.636719 135.867188 96.636719 L 202.121094 96.636719 C 202.472656 96.636719 202.75 96.917969 202.75 97.265625 L 202.75 143.398438 C 202.679688 143.75 202.402344 144.027344 202.121094 144.027344 Z M 186.589844 254.820312 L 190.226562 237.066406 L 190.226562 236.855469 L 212.335938 236.855469 L 212.335938 237.066406 L 216.464844 254.820312 Z M 224.648438 281.3125 L 214.296875 236.925781 L 219.820312 236.925781 C 220.589844 236.644531 221.152344 236.015625 221.222656 235.316406 C 221.359375 234.269531 220.382812 233.082031 218.84375 232.941406 C 217.164062 232.664062 215.484375 232.453125 213.875 232.171875 L 187.710938 232.171875 L 184.773438 233.570312 L 185.679688 236.925781 L 188.410156 236.925781 L 183.863281 259.085938 C 183.792969 259.574219 184.070312 260.0625 184.5625 260.132812 L 184.769531 260.132812 C 185.191406 260.132812 185.542969 259.851562 185.679688 259.433594 L 186.242188 256.707031 L 217.023438 256.707031 L 222.898438 281.800781 C 222.96875 282.222656 223.390625 282.5 223.808594 282.5 L 224.019531 282.5 C 224.4375 282.292969 224.71875 281.800781 224.648438 281.3125 " fill-opacity="1" fill-rule="nonzero"/><g clip-path="url(#93c28adbe3)"><path fill="#e24c3f" d="M 259.839844 30.230469 C 242.070312 20.234375 225.628906 16.042969 214.574219 14.15625 C 215.34375 11.21875 216.042969 8.285156 216.8125 5.347656 C 211.847656 3.390625 204.710938 1.152344 195.964844 0.3125 C 186.660156 -0.523438 178.894531 0.453125 173.578125 1.574219 C 174.277344 23.3125 174.90625 45.050781 175.605469 66.789062 C 179.664062 66.859375 184.210938 67.207031 189.109375 67.90625 C 193.308594 68.539062 197.15625 69.304688 200.652344 70.144531 C 208.558594 72.101562 219.050781 75.597656 230.386719 82.097656 C 239.96875 87.621094 247.316406 93.699219 252.632812 98.804688 C 266.625 85.101562 280.617188 71.402344 294.609375 57.769531 C 287.335938 49.875 275.929688 39.320312 259.839844 30.230469 Z M 374.644531 191.210938 L 287.824219 185.828125 C 288.171875 175.625 287.472656 157.03125 278.519531 136.339844 C 270.613281 118.027344 259.699219 105.652344 252.5625 98.875 C 273.132812 78.742188 293.628906 58.679688 314.199219 38.546875 C 326.652344 50.503906 347.710938 73.917969 361.5625 109.707031 C 374.855469 143.957031 375.484375 174.15625 374.644531 191.210938 " fill-opacity="1" fill-rule="nonzero"/></g><path fill="#e24c3f" d="M 219.191406 147.804688 L 219.191406 160.804688 L 222.128906 157.589844 L 237.941406 157.589844 L 237.941406 147.804688 Z M 136.5 172.476562 L 184.421875 172.476562 C 183.230469 169.753906 181.273438 166.46875 178.824219 166.398438 C 176.027344 166.328125 175.1875 170.382812 172.25 170.660156 C 167.421875 171.148438 164.902344 160.105469 160.003906 160.457031 C 155.878906 160.734375 153.429688 165.976562 151.332031 168.914062 C 150.980469 169.402344 150.628906 169.890625 150.140625 170.171875 C 146.503906 172.617188 142.796875 165.070312 138.878906 166.957031 C 137.199219 167.863281 136.636719 170.449219 136.5 172.476562 Z M 168.121094 125.996094 L 162.105469 125.996094 L 162.105469 134.800781 L 168.121094 134.800781 Z M 176.585938 123.546875 L 170.570312 123.546875 L 170.570312 134.800781 L 176.585938 134.800781 Z M 184.839844 118.445312 L 178.824219 118.445312 L 178.824219 134.800781 L 184.839844 134.800781 Z M 193.445312 108.660156 L 187.429688 108.660156 L 187.429688 134.730469 L 193.445312 134.730469 Z M 159.164062 134.3125 L 153.148438 134.3125 L 153.148438 119.144531 L 159.164062 119.144531 L 159.164062 134.3125 " fill-opacity="1" fill-rule="nonzero"/><path fill="#ffffff" d="M 151.46875 119.5625 C 154.6875 115.089844 156.4375 112.921875 156.789062 113.132812 C 157.066406 113.273438 156.296875 115.230469 154.410156 118.863281 C 154.757812 118.933594 158.1875 119.5625 158.328125 121.03125 C 158.394531 121.453125 158.117188 121.871094 156.648438 123.410156 C 155.597656 124.527344 154.6875 125.433594 153.988281 126.066406 C 153.5 125.644531 152.9375 125.226562 152.167969 124.804688 C 151.609375 124.386719 150.980469 124.175781 150.421875 123.96875 C 150.351562 123.269531 150.28125 122.289062 150.140625 121.03125 C 149.792969 117.886719 149.441406 116.417969 149.722656 116.347656 C 149.859375 116.277344 150.28125 116.835938 151.46875 119.5625 " fill-opacity="1" fill-rule="nonzero"/><g clip-path="url(#fa36926ad2)"><path fill="#0f0e0c" d="M 222.691406 155.214844 L 235.285156 155.214844 L 235.285156 154.582031 L 222.691406 154.582031 Z M 222.691406 153.324219 L 235.285156 153.324219 L 235.285156 152.695312 L 222.691406 152.695312 Z M 235.285156 150.808594 L 222.691406 150.808594 L 222.691406 151.4375 L 235.285156 151.4375 Z M 137.898438 164.441406 C 140.484375 163.53125 143.074219 163.25 145.664062 163.460938 C 149.371094 163.8125 151.46875 165.277344 153.5 166.675781 C 155.457031 168.003906 157.277344 169.332031 160.285156 169.332031 L 160.355469 169.332031 C 163.292969 169.332031 165.113281 168.074219 167.070312 166.746094 C 169.171875 165.347656 171.269531 163.878906 175.117188 163.53125 C 177.566406 163.320312 180.015625 163.601562 182.53125 164.371094 C 182.882812 164.441406 183.164062 164.300781 183.300781 163.949219 C 183.371094 163.601562 183.230469 163.320312 182.882812 163.179688 C 180.222656 162.34375 177.566406 162.0625 174.976562 162.273438 C 170.847656 162.621094 168.46875 164.300781 166.371094 165.699219 C 164.484375 166.957031 162.875 168.144531 160.285156 168.074219 C 157.695312 168.074219 156.085938 166.957031 154.199219 165.628906 C 152.167969 164.230469 149.792969 162.550781 145.734375 162.203125 C 143.003906 161.921875 140.277344 162.273438 137.476562 163.25 C 137.128906 163.390625 136.988281 163.671875 137.128906 164.019531 C 137.269531 164.371094 137.617188 164.578125 137.898438 164.441406 Z M 183.441406 155.980469 L 136.636719 155.980469 C 135.378906 155.980469 134.328125 157.03125 134.328125 158.289062 L 134.328125 173.175781 C 134.328125 174.433594 135.378906 175.484375 136.636719 175.484375 L 178.964844 175.484375 C 179.175781 175.484375 179.316406 175.554688 179.453125 175.695312 L 182.953125 180.097656 L 182.8125 176.113281 C 182.8125 175.972656 182.882812 175.761719 182.953125 175.695312 C 183.09375 175.554688 183.230469 175.484375 183.371094 175.484375 C 184.632812 175.484375 185.679688 174.433594 185.679688 173.175781 L 185.679688 158.289062 C 185.75 156.960938 184.703125 155.980469 183.441406 155.980469 Z M 136.636719 154.722656 L 183.441406 154.722656 C 185.402344 154.722656 187.011719 156.332031 187.011719 158.289062 L 187.011719 173.175781 C 187.011719 174.925781 185.75 176.394531 184.070312 176.671875 L 184.210938 181.914062 C 184.210938 182.195312 184.070312 182.402344 183.792969 182.472656 C 183.722656 182.472656 183.652344 182.542969 183.582031 182.542969 C 183.371094 182.542969 183.230469 182.472656 183.09375 182.335938 L 178.613281 176.742188 L 136.570312 176.742188 C 134.609375 176.742188 133 175.132812 133 173.175781 L 133 158.289062 C 133.070312 156.332031 134.679688 154.722656 136.636719 154.722656 Z M 202.890625 276.699219 L 202.890625 275.300781 L 191.558594 275.300781 C 191.558594 275.789062 191.628906 276.210938 191.628906 276.699219 Z M 199.253906 274.042969 L 202.820312 274.042969 L 202.75 231.894531 C 202.75 231.542969 203.03125 231.265625 203.382812 231.265625 C 203.730469 231.265625 204.011719 231.542969 204.011719 231.894531 L 204.011719 233.992188 C 206.53125 234.269531 209.046875 233.921875 211.214844 232.941406 C 213.804688 231.824219 215.695312 229.9375 217.023438 227.980469 L 203.941406 228.117188 C 203.382812 228.117188 201.421875 228.117188 200.023438 229.585938 C 199.324219 230.285156 198.972656 231.125 198.832031 231.683594 Z M 189.320312 233.851562 C 189.25 232.523438 189.179688 231.195312 188.96875 229.867188 L 188.96875 229.796875 C 188.96875 229.515625 188.898438 229.238281 188.828125 228.886719 C 187.570312 228.328125 185.960938 227.910156 184.703125 228.539062 C 183.164062 229.375 182.671875 231.613281 182.53125 233.429688 C 181.902344 239.371094 181.414062 254.890625 181.203125 274.113281 L 183.441406 274.113281 L 185.191406 231.542969 C 185.191406 231.195312 185.542969 230.914062 185.820312 230.984375 C 186.171875 230.984375 186.449219 231.265625 186.378906 231.613281 L 186.3125 233.152344 Z M 183.300781 276.699219 L 183.371094 275.300781 L 172.25 275.300781 C 172.25 275.789062 172.25 276.210938 172.179688 276.699219 Z M 204.011719 235.25 L 204.082031 274.671875 L 204.082031 277.328125 C 204.082031 277.46875 204.011719 277.675781 203.871094 277.746094 C 203.730469 277.886719 203.589844 277.957031 203.449219 277.957031 L 202.820312 277.957031 L 202.820312 281.59375 L 186.589844 281.59375 C 186.800781 281.101562 187.082031 280.402344 187.710938 279.914062 C 188.480469 279.285156 189.25 279.074219 190.089844 278.867188 C 190.71875 278.65625 191.558594 278.375 192.46875 278.027344 L 190.929688 278.027344 C 190.578125 278.027344 190.367188 277.746094 190.296875 277.46875 C 189.949219 270.269531 189.527344 263.136719 189.039062 256.289062 C 188.757812 252.375 188.898438 248.390625 189.039062 244.476562 C 189.179688 241.46875 189.25 238.324219 189.179688 235.25 L 186.101562 234.480469 L 184.351562 277.46875 C 184.351562 277.816406 184.070312 278.027344 183.722656 278.027344 L 182.601562 278.027344 L 182.601562 281.660156 L 166.371094 281.660156 C 166.582031 281.171875 166.863281 280.472656 167.492188 279.984375 C 168.261719 279.355469 169.03125 279.144531 169.871094 278.9375 C 170.5 278.726562 171.339844 278.445312 172.25 278.097656 L 171.339844 278.097656 C 171.199219 278.097656 170.988281 278.027344 170.917969 277.886719 C 170.78125 277.746094 170.710938 277.609375 170.78125 277.46875 C 171.339844 264.816406 171.410156 252.515625 171.128906 240.910156 L 171.128906 240.070312 C 170.917969 232.59375 170.710938 226.160156 175.328125 222.105469 C 178.476562 219.242188 183.441406 218.191406 189.527344 219.101562 C 189.878906 219.171875 190.089844 219.449219 190.019531 219.800781 C 189.949219 220.148438 189.667969 220.359375 189.320312 220.289062 C 185.332031 219.730469 179.734375 219.660156 176.097656 223.015625 C 171.96875 226.71875 172.109375 232.941406 172.320312 240.070312 L 172.320312 240.910156 C 172.597656 251.535156 172.527344 262.789062 172.109375 274.324219 L 179.804688 274.324219 C 180.015625 255.101562 180.503906 239.511719 181.132812 233.5 C 181.273438 232.101562 181.625 228.886719 184 227.699219 C 185.261719 227.070312 186.800781 227.070312 188.621094 227.769531 C 188.550781 226.023438 188.828125 223.855469 190.296875 222.039062 C 191.769531 220.148438 194.285156 219.03125 197.574219 218.753906 C 197.925781 218.753906 198.203125 218.960938 198.203125 219.3125 C 198.203125 219.660156 197.992188 219.941406 197.644531 219.941406 C 194.707031 220.148438 192.46875 221.128906 191.207031 222.734375 C 189.878906 224.484375 189.738281 226.652344 189.878906 228.257812 C 190.089844 228.46875 190.089844 228.679688 190.019531 228.957031 C 190.019531 228.957031 190.019531 229.027344 189.949219 229.027344 C 189.949219 229.308594 190.019531 229.515625 190.019531 229.726562 L 190.019531 229.867188 C 190.648438 234.757812 190.4375 239.722656 190.296875 244.546875 C 190.160156 248.390625 190.019531 252.375 190.296875 256.21875 C 190.71875 262.089844 191.066406 268.101562 191.347656 274.253906 L 197.925781 274.253906 L 197.433594 231.824219 L 197.433594 231.683594 C 197.714844 230.636719 198.273438 229.726562 198.972656 228.957031 C 200.792969 227.140625 203.101562 227.140625 203.800781 227.140625 L 217.652344 227 C 219.542969 223.714844 219.960938 220.429688 220.03125 220.21875 C 220.101562 219.871094 220.382812 219.660156 220.730469 219.660156 C 221.082031 219.730469 221.292969 220.011719 221.292969 220.359375 C 221.292969 220.640625 220.800781 224.132812 218.703125 227.769531 C 218.703125 227.839844 218.632812 227.910156 218.5625 227.980469 C 217.09375 230.425781 214.925781 232.800781 211.707031 234.199219 C 209.816406 235.039062 207.789062 235.457031 205.691406 235.457031 C 205.128906 235.316406 204.570312 235.25 204.011719 235.25 Z M 263.617188 212.601562 L 143.355469 212.601562 L 143.355469 280.894531 L 144.542969 280.894531 L 144.542969 216.234375 C 144.542969 215.886719 144.824219 215.605469 145.171875 215.605469 L 239.96875 215.605469 C 240.320312 215.605469 240.601562 215.886719 240.601562 216.234375 L 240.601562 280.894531 L 263.6875 280.894531 Z M 172.878906 211.414062 L 178.753906 211.414062 L 175.886719 203.582031 C 175.117188 204.421875 174.417969 205.332031 173.71875 206.238281 C 172.457031 207.847656 172.320312 208.265625 172.25 208.6875 C 172.039062 209.664062 172.457031 210.644531 172.878906 211.414062 Z M 222.0625 192.609375 C 222.96875 194.917969 223.738281 196.664062 224.089844 197.503906 L 224.4375 198.269531 C 226.816406 203.933594 227.585938 205.890625 227.308594 208.617188 C 227.238281 209.523438 227.027344 210.433594 226.679688 211.34375 L 264.246094 211.34375 C 264.597656 211.34375 264.875 211.621094 264.875 211.972656 L 264.875 281.523438 C 264.875 281.871094 264.597656 282.152344 264.246094 282.152344 L 239.96875 282.152344 C 239.621094 282.152344 239.339844 281.871094 239.339844 281.523438 L 239.339844 216.863281 L 145.734375 216.863281 L 145.734375 281.523438 C 145.734375 281.871094 145.453125 282.152344 145.105469 282.152344 L 142.726562 282.152344 C 142.375 282.152344 142.09375 281.871094 142.09375 281.523438 L 142.09375 211.972656 C 142.09375 211.621094 142.375 211.34375 142.726562 211.34375 L 171.480469 211.34375 C 170.988281 210.292969 170.847656 209.316406 171.058594 208.335938 C 171.199219 207.707031 171.480469 207.148438 172.738281 205.402344 C 173.507812 204.351562 174.347656 203.375 175.1875 202.394531 C 175.257812 202.324219 175.328125 202.253906 175.464844 202.253906 L 170.359375 188.066406 C 179.035156 187.996094 187.640625 187.996094 196.316406 187.925781 C 198.695312 195.476562 201.074219 203.09375 203.449219 210.644531 L 218.773438 210.785156 L 218.773438 211.273438 L 225.488281 211.273438 C 225.839844 210.363281 226.046875 209.386719 226.1875 208.40625 C 226.398438 205.960938 225.628906 204.144531 223.390625 198.691406 L 223.039062 197.921875 C 222.691406 197.011719 221.921875 195.265625 221.011719 193.027344 C 220.871094 192.75 221.011719 192.328125 221.359375 192.261719 C 221.570312 192.191406 221.921875 192.328125 222.0625 192.609375 Z M 213.804688 167.726562 C 213.316406 166.746094 212.125 165.417969 209.117188 164.71875 C 208.207031 161.292969 205.691406 158.707031 202.679688 158.289062 C 200.09375 157.867188 198.0625 159.195312 197.503906 159.546875 C 194.214844 161.785156 194.007812 165.699219 194.007812 166.117188 C 194.214844 166.957031 194.496094 167.726562 194.707031 168.5625 C 194.707031 169.332031 194.707031 170.101562 194.777344 170.871094 C 194.984375 173.246094 195.125 175.273438 196.734375 176.742188 C 197.363281 177.300781 198.132812 177.722656 198.972656 177.929688 L 198.972656 179.886719 C 198.972656 180.238281 199.253906 180.515625 199.601562 180.515625 C 199.953125 180.515625 200.234375 180.238281 200.234375 179.886719 L 200.234375 177.441406 C 200.234375 177.160156 200.023438 176.882812 199.742188 176.8125 C 198.902344 176.671875 198.132812 176.324219 197.574219 175.832031 C 196.316406 174.714844 196.246094 173.039062 196.035156 170.730469 C 195.894531 169.402344 195.964844 168.003906 196.105469 166.605469 C 197.015625 166.675781 198.273438 166.535156 199.535156 165.976562 C 200.792969 165.417969 201.773438 164.578125 202.332031 163.878906 C 202.890625 164.578125 203.519531 165.140625 204.21875 165.699219 C 205.339844 166.605469 206.667969 167.234375 208.070312 167.585938 C 208.070312 167.585938 208.769531 167.726562 208.90625 168.144531 C 209.117188 168.632812 208.769531 169.472656 207.929688 169.820312 C 207.789062 169.890625 207.648438 170.03125 207.578125 170.242188 C 207.089844 171.988281 206.878906 173.804688 206.949219 175.625 C 207.019531 177.089844 207.230469 178.558594 207.578125 180.027344 C 207.648438 180.308594 207.929688 180.445312 208.136719 180.445312 L 208.277344 180.445312 C 208.558594 180.375 208.699219 180.167969 208.699219 179.957031 C 210.378906 180.167969 213.527344 180.867188 216.535156 183.3125 C 217.863281 184.429688 218.914062 185.621094 219.683594 186.808594 C 221.429688 186.25 221.851562 185.6875 221.921875 185.269531 C 222.0625 184.359375 220.382812 184.011719 219.472656 182.265625 C 218.421875 180.308594 219.753906 179.117188 218.773438 177.511719 C 217.652344 175.625 215.625 176.53125 214.363281 174.714844 C 212.964844 172.617188 215.132812 170.242188 213.804688 167.726562 Z M 195.894531 103.136719 C 191.976562 102.089844 188.199219 102.019531 184.773438 102.996094 C 180.152344 104.253906 177.777344 106.84375 175.605469 109.148438 C 173.648438 111.246094 171.96875 113.0625 168.960938 113.414062 C 165.8125 113.832031 163.644531 112.363281 161.054688 110.6875 C 158.328125 108.871094 155.246094 106.84375 150.5625 107.050781 C 147.273438 107.191406 144.054688 108.449219 140.90625 110.6875 C 140.625 110.894531 140.554688 111.246094 140.765625 111.527344 C 140.976562 111.804688 141.324219 111.875 141.605469 111.664062 C 144.542969 109.566406 147.550781 108.449219 150.628906 108.308594 C 154.898438 108.101562 157.695312 109.988281 160.425781 111.734375 C 162.804688 113.273438 165.042969 114.742188 167.980469 114.742188 C 168.332031 114.742188 168.75 114.742188 169.171875 114.671875 C 172.597656 114.25 174.488281 112.222656 176.515625 109.988281 C 178.613281 107.679688 180.855469 105.375 185.121094 104.1875 C 188.339844 103.277344 191.90625 103.347656 195.617188 104.324219 C 195.964844 104.394531 196.246094 104.1875 196.386719 103.90625 C 196.386719 103.558594 196.175781 103.207031 195.894531 103.136719 Z M 166.792969 134.453125 L 160.773438 134.453125 C 160.425781 134.453125 160.144531 134.730469 160.144531 135.082031 C 160.144531 135.429688 160.425781 135.710938 160.773438 135.710938 L 166.792969 135.710938 C 167.140625 135.710938 167.421875 135.429688 167.421875 135.082031 C 167.421875 134.730469 167.140625 134.453125 166.792969 134.453125 Z M 175.1875 134.453125 L 169.171875 134.453125 C 168.820312 134.453125 168.539062 134.730469 168.539062 135.082031 C 168.539062 135.429688 168.820312 135.710938 169.171875 135.710938 L 175.1875 135.710938 C 175.535156 135.710938 175.816406 135.429688 175.816406 135.082031 C 175.816406 134.730469 175.535156 134.453125 175.1875 134.453125 Z M 183.511719 134.453125 L 177.496094 134.453125 C 177.144531 134.453125 176.867188 134.730469 176.867188 135.082031 C 176.867188 135.429688 177.144531 135.710938 177.496094 135.710938 L 183.511719 135.710938 C 183.863281 135.710938 184.140625 135.429688 184.140625 135.082031 C 184.140625 134.730469 183.792969 134.453125 183.511719 134.453125 Z M 186.101562 135.640625 L 192.117188 135.640625 C 192.46875 135.640625 192.746094 135.363281 192.746094 135.011719 C 192.746094 134.664062 192.46875 134.382812 192.117188 134.382812 L 186.101562 134.382812 C 185.75 134.382812 185.472656 134.664062 185.472656 135.011719 C 185.472656 135.363281 185.75 135.640625 186.101562 135.640625 Z M 166.160156 124.875 L 161.40625 124.875 L 161.40625 132.496094 L 166.160156 132.496094 Z M 167.421875 133.054688 C 167.421875 133.402344 167.140625 133.683594 166.792969 133.683594 L 160.773438 133.683594 C 160.425781 133.683594 160.144531 133.402344 160.144531 133.054688 L 160.144531 124.246094 C 160.144531 123.898438 160.425781 123.617188 160.773438 123.617188 L 166.792969 123.617188 C 167.140625 123.617188 167.421875 123.898438 167.421875 124.246094 Z M 174.628906 122.429688 L 169.871094 122.429688 L 169.871094 132.425781 L 174.628906 132.425781 Z M 175.816406 133.054688 C 175.816406 133.402344 175.535156 133.683594 175.1875 133.683594 L 169.171875 133.683594 C 168.820312 133.683594 168.539062 133.402344 168.539062 133.054688 L 168.539062 121.800781 C 168.539062 121.453125 168.820312 121.171875 169.171875 121.171875 L 175.1875 121.171875 C 175.535156 121.171875 175.816406 121.453125 175.816406 121.800781 Z M 182.882812 117.328125 L 178.125 117.328125 L 178.125 132.425781 L 182.882812 132.425781 Z M 184.070312 133.054688 C 184.070312 133.402344 183.792969 133.683594 183.441406 133.683594 L 177.425781 133.683594 C 177.074219 133.683594 176.796875 133.402344 176.796875 133.054688 L 176.796875 116.699219 C 176.796875 116.347656 177.074219 116.070312 177.425781 116.070312 L 183.441406 116.070312 C 183.792969 116.070312 184.070312 116.347656 184.070312 116.699219 Z M 186.730469 132.425781 L 191.488281 132.425781 L 191.488281 107.542969 L 186.730469 107.542969 Z M 185.472656 133.054688 L 185.472656 106.980469 C 185.472656 106.632812 185.75 106.351562 186.101562 106.351562 L 192.117188 106.351562 C 192.46875 106.351562 192.746094 106.632812 192.746094 106.980469 L 192.746094 133.054688 C 192.746094 133.402344 192.46875 133.683594 192.117188 133.683594 L 186.101562 133.683594 C 185.75 133.683594 185.472656 133.402344 185.472656 133.054688 Z M 94.453125 186.25 C 94.101562 186.179688 93.824219 186.386719 93.753906 186.738281 L 77.453125 276.980469 C 77.382812 277.257812 77.589844 277.609375 77.871094 277.679688 L 80.390625 278.308594 C 80.390625 278.9375 80.390625 279.566406 80.320312 280.195312 C 81.160156 280.542969 82.277344 280.964844 83.539062 281.171875 C 85.425781 281.523438 87.105469 281.523438 88.296875 281.453125 C 88.503906 280.613281 88.785156 279.703125 88.996094 278.867188 C 90.042969 278.796875 91.09375 278.65625 92.144531 278.445312 C 92.351562 278.375 92.5625 278.238281 92.632812 278.027344 C 95.570312 266.492188 98.230469 254.75 100.679688 243.148438 C 102.988281 232.03125 105.085938 220.777344 106.90625 209.523438 L 110.125 276.558594 C 110.125 276.839844 110.332031 277.046875 110.613281 277.117188 C 111.453125 277.328125 112.363281 277.46875 113.269531 277.609375 L 113.269531 281.453125 C 119.359375 281.453125 125.515625 281.382812 131.601562 281.382812 C 131.460938 280.753906 131.25 279.84375 130.480469 279.285156 C 129.640625 278.585938 128.59375 278.726562 127.613281 278.726562 C 126.5625 278.726562 125.164062 278.515625 123.414062 277.746094 C 123.976562 277.675781 124.605469 277.609375 125.164062 277.46875 C 125.445312 277.398438 125.65625 277.1875 125.65625 276.910156 C 126.285156 263.90625 126.5625 250.695312 126.5625 237.625 C 126.492188 220.289062 125.863281 202.746094 124.605469 185.480469 C 124.605469 185.128906 124.324219 184.921875 123.976562 184.921875 C 123.625 184.921875 123.414062 185.199219 123.414062 185.550781 C 124.675781 202.816406 125.304688 220.289062 125.375 237.554688 C 125.445312 250.417969 125.164062 263.417969 124.535156 276.28125 C 121.945312 276.699219 119.289062 276.839844 116.699219 276.628906 C 114.949219 276.488281 113.132812 276.28125 111.382812 275.859375 L 107.882812 203.445312 C 107.882812 203.164062 107.605469 202.882812 107.324219 202.882812 C 106.976562 202.882812 106.765625 203.09375 106.695312 203.375 C 104.667969 216.515625 102.21875 229.726562 99.558594 242.726562 C 97.179688 254.191406 94.523438 265.792969 91.652344 277.1875 C 89.414062 277.539062 87.175781 277.675781 84.867188 277.539062 C 82.839844 277.398438 80.808594 277.046875 78.78125 276.558594 L 94.941406 186.808594 C 95.011719 186.667969 94.800781 186.320312 94.453125 186.25 Z M 119.636719 118.515625 C 118.796875 118.164062 118.167969 119.003906 116.140625 119.285156 C 114.742188 119.492188 114.25 119.214844 112.640625 119.144531 C 111.59375 119.074219 108.375 118.933594 105.714844 120.683594 C 104.945312 121.171875 103.617188 122.21875 102.636719 124.246094 C 102.148438 124.527344 101.449219 124.945312 101.027344 125.785156 C 100.257812 127.460938 101.589844 129.28125 103.128906 132.914062 C 103.617188 134.035156 104.246094 135.710938 104.875 137.878906 L 104.875 142.070312 C 104.875 142.421875 105.15625 142.699219 105.503906 142.699219 C 105.855469 142.699219 106.136719 142.421875 106.136719 142.070312 L 106.136719 138.648438 C 107.253906 138.714844 108.375 138.648438 109.492188 138.4375 C 111.242188 138.15625 112.570312 137.878906 113.621094 136.6875 C 114.8125 135.363281 114.878906 133.542969 114.8125 132.566406 C 114.8125 132.355469 114.671875 132.144531 114.460938 132.074219 C 113.902344 131.867188 113.621094 131.238281 113.832031 130.679688 C 113.902344 130.398438 114.109375 130.1875 114.390625 130.117188 C 114.671875 129.980469 114.949219 129.980469 115.230469 130.117188 C 115.441406 130.1875 115.582031 130.1875 115.789062 130.050781 C 115.929688 129.980469 116.070312 129.769531 116.070312 129.558594 C 116.140625 129 116.351562 128.160156 116.980469 127.324219 C 117.1875 127.042969 117.46875 126.761719 117.820312 126.554688 C 118.027344 127.953125 118.167969 129.351562 118.238281 130.746094 C 118.519531 134.730469 118.589844 136.757812 117.398438 137.667969 C 116.769531 138.226562 115.789062 138.4375 114.53125 138.226562 C 114.390625 138.226562 114.179688 138.226562 114.039062 138.367188 C 113.902344 138.507812 113.832031 138.648438 113.832031 138.785156 L 113.832031 142 C 113.832031 142.351562 114.109375 142.632812 114.460938 142.632812 C 114.8125 142.632812 115.089844 142.351562 115.089844 142 L 115.089844 139.414062 C 116.417969 139.484375 117.46875 139.136719 118.238281 138.507812 C 119.847656 137.109375 119.707031 134.664062 119.496094 130.539062 C 119.429688 128.929688 119.21875 127.324219 118.9375 125.785156 C 119.636719 125.015625 120.476562 123.828125 120.6875 122.21875 C 120.828125 121.242188 120.757812 119.003906 119.636719 118.515625 Z M 353.585938 112.433594 C 343.371094 86.011719 327.210938 61.6875 306.785156 41.90625 L 278.730469 69.375 L 245.988281 101.390625 L 246.546875 101.949219 C 246.898438 102.296875 247.246094 102.648438 247.597656 102.929688 C 247.875 103.207031 248.085938 103.488281 248.367188 103.695312 C 248.785156 104.117188 249.207031 104.605469 249.625 105.023438 C 249.835938 105.234375 249.976562 105.445312 250.183594 105.652344 C 250.675781 106.144531 251.164062 106.703125 251.585938 107.261719 L 252.003906 107.679688 C 252.5625 108.308594 253.054688 108.871094 253.613281 109.5 C 253.683594 109.566406 253.753906 109.636719 253.824219 109.777344 C 255.011719 111.175781 256.203125 112.644531 257.320312 114.113281 C 257.390625 114.179688 257.390625 114.25 257.460938 114.320312 C 257.949219 114.949219 258.441406 115.648438 258.929688 116.277344 C 259.070312 116.417969 259.210938 116.628906 259.28125 116.769531 C 259.699219 117.328125 260.121094 117.957031 260.539062 118.515625 C 260.679688 118.726562 260.75 118.863281 260.890625 119.074219 C 261.308594 119.703125 261.726562 120.261719 262.078125 120.890625 C 262.148438 121.03125 262.289062 121.171875 262.359375 121.3125 C 262.777344 122.011719 263.269531 122.710938 263.6875 123.410156 C 263.6875 123.476562 263.757812 123.546875 263.757812 123.546875 C 275.511719 142.5625 281.667969 164.789062 280.96875 187.785156 L 366.601562 193.097656 C 367.929688 165.835938 363.453125 137.949219 353.585938 112.433594 Z M 286.285156 60.359375 C 276.351562 49.664062 264.875 40.578125 252.144531 33.378906 C 238.292969 25.617188 223.320312 20.234375 207.648438 17.4375 L 204.429688 30.09375 L 193.9375 72.3125 C 195.054688 72.589844 196.175781 72.941406 197.292969 73.21875 C 197.714844 73.359375 198.0625 73.429688 198.484375 73.570312 C 199.113281 73.78125 199.8125 73.988281 200.441406 74.199219 C 201.003906 74.339844 201.5625 74.546875 202.121094 74.757812 C 202.402344 74.828125 202.613281 74.898438 202.890625 75.039062 C 204.21875 75.527344 205.550781 75.945312 206.878906 76.503906 C 207.230469 76.644531 207.507812 76.785156 207.859375 76.855469 C 208.558594 77.132812 209.1875 77.414062 209.886719 77.695312 C 210.167969 77.765625 210.378906 77.902344 210.65625 78.042969 C 211.847656 78.53125 213.035156 79.09375 214.226562 79.582031 C 214.574219 79.789062 214.996094 79.929688 215.34375 80.140625 C 215.902344 80.421875 216.535156 80.699219 217.09375 80.980469 C 217.582031 81.257812 218.074219 81.46875 218.5625 81.746094 C 219.332031 82.167969 220.101562 82.515625 220.871094 82.9375 C 221.429688 83.285156 222.0625 83.566406 222.621094 83.914062 C 222.832031 84.054688 223.109375 84.195312 223.320312 84.265625 C 223.53125 84.402344 223.808594 84.542969 224.019531 84.683594 C 224.4375 84.964844 224.859375 85.171875 225.277344 85.453125 C 225.699219 85.730469 226.117188 85.941406 226.539062 86.222656 C 227.378906 86.710938 228.148438 87.269531 228.988281 87.757812 C 229.265625 87.898438 229.476562 88.109375 229.757812 88.25 L 231.644531 89.507812 C 231.925781 89.714844 232.203125 89.925781 232.484375 90.066406 C 233.113281 90.484375 233.746094 90.976562 234.304688 91.394531 C 234.515625 91.535156 234.792969 91.742188 235.003906 91.882812 L 237.523438 93.769531 L 237.59375 93.839844 L 239.902344 95.726562 C 240.179688 95.9375 240.390625 96.148438 240.671875 96.355469 C 241.230469 96.847656 241.71875 97.265625 242.28125 97.753906 C 242.558594 98.035156 242.839844 98.246094 243.117188 98.523438 C 243.679688 99.011719 244.167969 99.503906 244.726562 99.992188 C 244.9375 100.203125 245.148438 100.339844 245.289062 100.550781 Z M 206.597656 16.601562 L 208.699219 8.285156 C 202.191406 5.765625 195.40625 4.160156 188.480469 3.53125 C 181.203125 2.832031 173.925781 3.25 166.722656 4.71875 L 168.679688 68.816406 C 176.65625 69.027344 184.703125 70.144531 192.539062 72.03125 L 192.675781 72.03125 Z M 367.859375 193.867188 C 367.859375 194.007812 367.789062 194.148438 367.648438 194.285156 C 367.507812 194.355469 367.371094 194.425781 367.230469 194.425781 L 367.160156 194.425781 L 330.640625 192.191406 C 329.871094 208.617188 326.582031 224.832031 320.914062 240.421875 C 305.875 281.871094 275.582031 315.074219 235.632812 333.808594 C 213.316406 344.222656 189.527344 349.464844 165.601562 349.464844 C 146.644531 349.464844 127.613281 346.179688 109.285156 339.539062 C 67.800781 324.511719 34.566406 294.242188 15.816406 254.332031 C -2.933594 214.417969 -4.960938 169.542969 10.082031 128.089844 C 21.832031 95.519531 43.03125 68.050781 71.363281 48.476562 C 99.070312 29.324219 131.460938 19.117188 165.042969 19.046875 C 165.390625 19.046875 165.671875 19.324219 165.671875 19.675781 C 165.671875 20.023438 165.390625 20.308594 165.042969 20.308594 C 96.410156 20.445312 34.636719 63.921875 11.269531 128.441406 C -19.511719 213.441406 24.632812 307.59375 109.703125 338.351562 C 150.910156 353.242188 195.476562 351.214844 235.144531 332.621094 C 274.8125 314.027344 304.894531 281.101562 319.796875 239.933594 C 325.394531 224.414062 328.679688 208.335938 329.449219 191.980469 L 280.96875 188.976562 C 280.6875 195.964844 279.707031 203.09375 278.097656 210.15625 C 278.03125 210.503906 277.679688 210.714844 277.398438 210.574219 C 277.050781 210.503906 276.839844 210.15625 276.980469 209.875 C 278.660156 202.675781 279.570312 195.546875 279.847656 188.417969 L 279.847656 188.347656 C 280.40625 171.5 277.261719 154.515625 270.613281 139.066406 C 268.375 133.824219 265.714844 128.792969 262.777344 123.96875 C 262.777344 123.898438 262.707031 123.898438 262.707031 123.828125 C 262.289062 123.128906 261.796875 122.359375 261.308594 121.660156 C 261.238281 121.589844 261.167969 121.453125 261.097656 121.382812 C 260.679688 120.683594 260.1875 120.054688 259.699219 119.355469 C 259.628906 119.285156 259.558594 119.144531 259.488281 119.074219 C 258.441406 117.539062 257.320312 116.070312 256.203125 114.53125 C 256.203125 114.460938 256.132812 114.460938 256.132812 114.390625 C 255.570312 113.691406 255.082031 113.0625 254.523438 112.363281 C 254.382812 112.226562 254.242188 112.085938 254.171875 111.945312 C 253.683594 111.386719 253.261719 110.828125 252.773438 110.269531 C 252.632812 110.058594 252.492188 109.917969 252.285156 109.707031 C 251.863281 109.21875 251.375 108.660156 250.953125 108.171875 C 250.816406 107.960938 250.605469 107.820312 250.464844 107.613281 C 250.046875 107.121094 249.554688 106.632812 249.136719 106.144531 L 248.507812 105.515625 L 247.246094 104.257812 C 246.96875 103.976562 246.757812 103.699219 246.476562 103.488281 L 245.566406 102.578125 C 245.21875 102.230469 244.867188 101.878906 244.449219 101.53125 C 243.75 100.902344 243.050781 100.203125 242.347656 99.574219 C 242.140625 99.363281 241.859375 99.152344 241.648438 98.945312 L 239.972656 97.476562 C 239.691406 97.265625 239.480469 97.058594 239.199219 96.847656 C 238.570312 96.289062 237.941406 95.796875 237.3125 95.308594 C 237.171875 95.167969 236.960938 95.03125 236.824219 94.890625 C 235.984375 94.261719 235.214844 93.632812 234.375 93.003906 C 234.164062 92.863281 234.023438 92.722656 233.8125 92.582031 C 233.183594 92.09375 232.484375 91.605469 231.855469 91.117188 C 231.574219 90.90625 231.296875 90.695312 231.015625 90.554688 C 230.386719 90.136719 229.828125 89.71875 229.195312 89.296875 C 228.917969 89.089844 228.636719 88.949219 228.355469 88.738281 C 227.585938 88.179688 226.75 87.691406 225.910156 87.199219 C 225.488281 86.921875 225.070312 86.710938 224.71875 86.5 C 224.300781 86.222656 223.808594 85.941406 223.390625 85.664062 C 222.96875 85.382812 222.480469 85.171875 222.0625 84.894531 C 221.429688 84.542969 220.800781 84.195312 220.242188 83.84375 C 219.542969 83.496094 218.84375 83.078125 218.074219 82.726562 C 217.582031 82.449219 217.023438 82.167969 216.535156 81.957031 L 214.855469 81.121094 C 214.433594 80.910156 214.015625 80.769531 213.664062 80.558594 C 212.617188 80.070312 211.496094 79.582031 210.445312 79.164062 C 210.097656 79.023438 209.746094 78.882812 209.46875 78.742188 C 208.839844 78.464844 208.136719 78.183594 207.507812 77.972656 L 206.460938 77.554688 C 205.898438 77.34375 205.269531 77.136719 204.710938 76.925781 C 204.152344 76.714844 203.589844 76.574219 203.101562 76.367188 C 202.679688 76.226562 202.191406 76.085938 201.773438 75.878906 C 201.210938 75.667969 200.652344 75.527344 200.164062 75.316406 C 199.464844 75.109375 198.695312 74.898438 197.996094 74.617188 C 197.644531 74.550781 197.363281 74.410156 197.015625 74.339844 C 195.824219 73.988281 194.636719 73.710938 193.375 73.359375 C 189.597656 72.453125 185.75 71.683594 181.902344 71.125 C 177.496094 70.496094 172.949219 70.144531 168.46875 70.003906 L 168.332031 70.003906 C 150.910156 69.585938 133.558594 73.222656 117.328125 80.839844 C 89.34375 93.773438 68.429688 116.699219 58.003906 145.359375 C 43.941406 184.222656 52.054688 227.839844 79.128906 259.085938 C 79.339844 259.363281 79.339844 259.714844 79.0625 259.921875 C 78.921875 259.992188 78.78125 260.0625 78.640625 260.0625 C 78.5 260.0625 78.289062 259.992188 78.152344 259.855469 C 50.726562 228.257812 42.542969 184.222656 56.8125 144.9375 C 67.308594 115.929688 88.503906 92.792969 116.417969 79.722656 C 132.652344 72.101562 150 68.46875 167.421875 68.75 L 165.390625 4.160156 C 165.390625 3.878906 165.601562 3.597656 165.882812 3.53125 C 173.296875 1.992188 180.921875 1.574219 188.480469 2.273438 C 195.683594 2.972656 202.75 4.648438 209.539062 7.304688 C 209.816406 7.445312 209.957031 7.726562 209.886719 8.003906 L 207.929688 16.253906 C 223.738281 19.046875 238.78125 24.429688 252.703125 32.328125 C 265.507812 39.53125 277.121094 48.683594 287.125 59.519531 L 306.363281 40.71875 C 306.574219 40.507812 306.992188 40.507812 307.203125 40.71875 C 327.910156 60.640625 344.351562 85.3125 354.707031 112.085938 C 364.710938 137.878906 369.257812 166.117188 367.859375 193.867188 Z M 143.703125 126.832031 C 143.355469 126.832031 143.074219 127.113281 143.074219 127.460938 L 143.074219 130.679688 C 143.074219 131.027344 143.355469 131.308594 143.703125 131.308594 C 144.054688 131.308594 144.335938 131.027344 144.335938 130.679688 L 144.335938 128.023438 L 146.011719 128.023438 C 146.363281 128.023438 146.644531 127.742188 146.644531 127.394531 C 146.644531 127.042969 146.363281 126.761719 146.011719 126.761719 Z M 155.316406 118.375 C 155.878906 118.515625 156.578125 118.726562 157.136719 119.003906 L 157.136719 117.328125 L 155.808594 117.328125 C 155.667969 117.675781 155.527344 118.027344 155.316406 118.375 Z M 158.394531 133.054688 C 158.394531 133.402344 158.117188 133.683594 157.765625 133.683594 L 152.730469 133.683594 C 152.378906 133.683594 152.101562 133.402344 152.101562 133.054688 C 152.101562 132.707031 152.378906 132.425781 152.730469 132.425781 L 157.207031 132.425781 L 157.207031 123.6875 C 156.367188 124.597656 155.457031 125.503906 154.546875 126.414062 C 154.410156 126.554688 154.269531 126.554688 154.128906 126.554688 C 153.988281 126.554688 153.777344 126.484375 153.707031 126.34375 C 153.5 126.132812 153.5 125.714844 153.707031 125.503906 C 154.617188 124.667969 155.457031 123.757812 156.296875 122.847656 C 157.066406 122.011719 157.835938 121.171875 157.765625 120.960938 C 157.695312 120.332031 155.949219 119.632812 154.339844 119.355469 C 154.128906 119.355469 153.988281 119.214844 153.917969 119.003906 C 153.847656 118.863281 153.847656 118.65625 153.917969 118.445312 C 154.6875 116.90625 155.246094 115.789062 155.597656 115.019531 C 154.828125 115.929688 153.707031 117.398438 152.03125 119.773438 C 151.890625 119.984375 151.679688 120.054688 151.46875 120.054688 C 151.261719 120.054688 151.050781 119.914062 150.980469 119.703125 C 150.839844 119.355469 150.699219 119.074219 150.5625 118.796875 C 150.628906 119.355469 150.699219 120.054688 150.839844 120.890625 C 150.980469 121.871094 151.050781 122.917969 151.121094 123.898438 C 151.121094 124.246094 150.910156 124.527344 150.5625 124.527344 C 150.210938 124.527344 149.929688 124.316406 149.929688 123.96875 C 149.859375 122.988281 149.792969 122.011719 149.652344 121.03125 C 149.511719 119.914062 149.441406 119.003906 149.300781 118.234375 C 149.019531 116.347656 148.953125 115.859375 149.652344 115.648438 C 150.140625 115.507812 150.492188 115.71875 151.261719 117.257812 L 151.261719 116.699219 C 151.261719 116.347656 151.539062 116.070312 151.890625 116.070312 L 153.289062 116.070312 C 156.367188 112.015625 156.71875 112.15625 157.207031 112.503906 C 157.695312 112.785156 157.90625 113.132812 156.507812 116.070312 L 157.835938 116.070312 C 158.1875 116.070312 158.464844 116.347656 158.464844 116.699219 L 158.464844 119.773438 C 158.816406 120.054688 159.027344 120.472656 159.027344 120.890625 C 159.097656 121.3125 158.957031 121.730469 158.464844 122.359375 Z M 158.394531 135.011719 C 158.394531 135.363281 158.117188 135.640625 157.765625 135.640625 L 151.75 135.640625 C 151.398438 135.640625 151.121094 135.363281 151.121094 135.011719 C 151.121094 134.664062 151.398438 134.382812 151.75 134.382812 L 157.765625 134.382812 C 158.117188 134.453125 158.394531 134.730469 158.394531 135.011719 " fill-opacity="1" fill-rule="nonzero"/></g><path fill="#e24c3f" d="M 105.503906 142.070312 C 102.566406 142.210938 96.339844 143.050781 91.933594 147.734375 C 90.675781 149.132812 89.136719 151.160156 86.964844 158.5 C 85.636719 162.832031 84.097656 168.984375 83.1875 176.742188 C 84.308594 177.652344 85.917969 178.769531 88.015625 179.679688 C 90.535156 180.726562 92.773438 181.144531 94.382812 181.285156 L 94.382812 186.808594 C 98.648438 187.15625 103.40625 187.296875 108.585938 187.085938 C 114.25 186.878906 119.429688 186.320312 123.976562 185.621094 C 123.414062 175.832031 122.855469 166.117188 122.296875 156.332031 C 126.984375 155.144531 130.832031 153.953125 133.628906 153.046875 C 140.835938 150.667969 142.375 149.480469 143.355469 148.710938 C 144.894531 147.453125 146.152344 145.917969 149.160156 140.113281 C 150.839844 136.898438 153.007812 132.496094 155.316406 127.113281 C 154.6875 126.414062 153.570312 125.367188 151.960938 124.457031 C 150.5625 123.757812 149.371094 123.410156 148.460938 123.269531 C 144.683594 129.070312 140.90625 134.871094 137.058594 140.605469 C 133.421875 141.371094 129.011719 142 124.046875 142.210938 C 120.476562 142.351562 117.257812 142.210938 114.390625 141.933594 C 113.550781 142.28125 112.011719 142.839844 109.984375 142.910156 C 107.953125 143.050781 106.414062 142.492188 105.503906 142.070312 Z M 191.488281 216.234375 C 191.488281 216.585938 191.347656 217.285156 190.929688 218.054688 C 190.507812 218.820312 189.949219 219.242188 189.597656 219.449219 C 194.214844 219.171875 199.183594 218.960938 204.5 219.101562 C 210.378906 219.171875 215.765625 219.589844 220.800781 220.148438 L 219.542969 216.304688 C 210.167969 216.234375 200.863281 216.234375 191.488281 216.234375 Z M 203.382812 184.640625 C 205.761719 184.921875 208.277344 182.824219 208.207031 179.886719 C 209.609375 180.027344 213.246094 180.585938 216.605469 183.3125 C 220.523438 186.527344 221.640625 190.652344 221.992188 191.980469 L 212.757812 193.867188 L 216.464844 205.820312 L 201.980469 206.519531 L 196.246094 188.136719 L 184.769531 188.207031 C 186.242188 186.738281 188.480469 184.710938 191.558594 183.03125 C 194.707031 181.285156 197.574219 180.445312 199.601562 180.027344 C 199.535156 182.335938 201.28125 184.429688 203.382812 184.640625 " fill-opacity="1" fill-rule="nonzero"/></svg>