<svg xmlns="http://www.w3.org/2000/svg" xmlns:xlink="http://www.w3.org/1999/xlink" width="990" zoomAndPan="magnify" viewBox="0 0 742.5 767.999994" height="1024" preserveAspectRatio="xMidYMid meet" version="1.0"><defs><clipPath id="56656c8159"><path d="M 0 13.007812 L 742 13.007812 L 742 755.507812 L 0 755.507812 Z M 0 13.007812 " clip-rule="nonzero"/></clipPath></defs><g clip-path="url(#56656c8159)"><path fill="#cccccc" d="M 371.25 13.007812 C 166.203125 13.007812 0 179.222656 0 384.269531 C 0 589.304688 166.203125 755.519531 371.25 755.519531 C 576.285156 755.519531 742.5 589.304688 742.5 384.269531 C 742.5 179.222656 576.285156 13.007812 371.25 13.007812 Z M 371.25 709.101562 C 191.84375 709.101562 46.40625 563.664062 46.40625 384.269531 C 46.40625 204.851562 191.84375 59.425781 371.25 59.425781 C 550.65625 59.425781 696.09375 204.851562 696.09375 384.269531 C 696.09375 563.664062 550.65625 709.101562 371.25 709.101562 Z M 371.25 709.101562 " fill-opacity="1" fill-rule="evenodd"/></g><path fill="#e24c3f" d="M 320.007812 331.054688 L 348.046875 303.105469 L 348.046875 430.664062 C 348.046875 443.484375 358.441406 453.878906 371.25 453.878906 C 384.058594 453.878906 394.453125 443.484375 394.453125 430.664062 L 394.453125 302.015625 L 423.339844 330.996094 C 432.703125 340.394531 447.867188 340.394531 457.230469 330.996094 C 466.589844 321.609375 466.589844 306.390625 457.230469 296.992188 L 389.464844 229.019531 C 385.707031 225.246094 381.007812 223.113281 376.121094 222.371094 C 374.542969 222.035156 372.933594 221.835938 371.25 221.835938 C 364.742188 221.835938 358.894531 224.527344 354.671875 228.84375 C 354.460938 229.03125 354.21875 229.132812 354.023438 229.332031 L 285.96875 297.164062 C 276.570312 306.527344 276.570312 321.703125 285.96875 331.066406 C 295.375 340.425781 310.597656 340.425781 320.007812 331.054688 Z M 487.265625 500.273438 L 255.234375 500.273438 C 242.425781 500.273438 232.03125 510.65625 232.03125 523.476562 C 232.03125 536.285156 242.425781 546.679688 255.234375 546.679688 L 487.265625 546.679688 C 500.074219 546.679688 510.46875 536.285156 510.46875 523.476562 C 510.46875 510.65625 500.074219 500.273438 487.265625 500.273438 Z M 487.265625 500.273438 " fill-opacity="1" fill-rule="evenodd"/></svg>